G04 #@! TF.GenerationSoftware,KiCad,Pcbnew,5.1.4-e60b266~84~ubuntu18.04.1*
G04 #@! TF.CreationDate,2022-01-19T21:44:36+01:00*
G04 #@! TF.ProjectId,Serial_Mem_MPF-B,53657269-616c-45f4-9d65-6d5f4d50462d,rev?*
G04 #@! TF.SameCoordinates,Original*
G04 #@! TF.FileFunction,Copper,L2,Bot*
G04 #@! TF.FilePolarity,Positive*
%FSLAX46Y46*%
G04 Gerber Fmt 4.6, Leading zero omitted, Abs format (unit mm)*
G04 Created by KiCad (PCBNEW 5.1.4-e60b266~84~ubuntu18.04.1) date 2022-01-19 21:44:37*
%MOMM*%
%LPD*%
G04 APERTURE LIST*
%ADD10O,1.700000X1.700000*%
%ADD11R,1.700000X1.700000*%
%ADD12O,1.600000X1.600000*%
%ADD13R,1.600000X1.600000*%
%ADD14C,1.600000*%
%ADD15C,2.000000*%
%ADD16C,1.500000*%
%ADD17C,1.524000*%
%ADD18O,1.905000X2.000000*%
%ADD19R,1.905000X2.000000*%
%ADD20O,1.400000X1.400000*%
%ADD21C,1.400000*%
%ADD22C,2.500000*%
%ADD23C,4.000000*%
%ADD24C,0.800000*%
%ADD25C,0.250000*%
%ADD26C,0.750000*%
G04 APERTURE END LIST*
D10*
X133858000Y-78740000D03*
X131318000Y-78740000D03*
X133858000Y-76200000D03*
X131318000Y-76200000D03*
X133858000Y-73660000D03*
X131318000Y-73660000D03*
X133858000Y-71120000D03*
D11*
X131318000Y-71120000D03*
D12*
X127762000Y-106934000D03*
X120142000Y-122174000D03*
X127762000Y-109474000D03*
X120142000Y-119634000D03*
X127762000Y-112014000D03*
X120142000Y-117094000D03*
X127762000Y-114554000D03*
X120142000Y-114554000D03*
X127762000Y-117094000D03*
X120142000Y-112014000D03*
X127762000Y-119634000D03*
X120142000Y-109474000D03*
X127762000Y-122174000D03*
D13*
X120142000Y-106934000D03*
D12*
X209296000Y-106934000D03*
X201676000Y-122174000D03*
X209296000Y-109474000D03*
X201676000Y-119634000D03*
X209296000Y-112014000D03*
X201676000Y-117094000D03*
X209296000Y-114554000D03*
X201676000Y-114554000D03*
X209296000Y-117094000D03*
X201676000Y-112014000D03*
X209296000Y-119634000D03*
X201676000Y-109474000D03*
X209296000Y-122174000D03*
D13*
X201676000Y-106934000D03*
D12*
X127762000Y-60960000D03*
X120142000Y-78740000D03*
X127762000Y-63500000D03*
X120142000Y-76200000D03*
X127762000Y-66040000D03*
X120142000Y-73660000D03*
X127762000Y-68580000D03*
X120142000Y-71120000D03*
X127762000Y-71120000D03*
X120142000Y-68580000D03*
X127762000Y-73660000D03*
X120142000Y-66040000D03*
X127762000Y-76200000D03*
X120142000Y-63500000D03*
X127762000Y-78740000D03*
D13*
X120142000Y-60960000D03*
D10*
X140258800Y-36322000D03*
X137718800Y-36322000D03*
D11*
X135178800Y-36322000D03*
D12*
X150317200Y-39878000D03*
X135077200Y-67818000D03*
X150317200Y-42418000D03*
X135077200Y-65278000D03*
X150317200Y-44958000D03*
X135077200Y-62738000D03*
X150317200Y-47498000D03*
X135077200Y-60198000D03*
X150317200Y-50038000D03*
X135077200Y-57658000D03*
X150317200Y-52578000D03*
X135077200Y-55118000D03*
X150317200Y-55118000D03*
X135077200Y-52578000D03*
X150317200Y-57658000D03*
X135077200Y-50038000D03*
X150317200Y-60198000D03*
X135077200Y-47498000D03*
X150317200Y-62738000D03*
X135077200Y-44958000D03*
X150317200Y-65278000D03*
X135077200Y-42418000D03*
X150317200Y-67818000D03*
D13*
X135077200Y-39878000D03*
D10*
X144983200Y-36347400D03*
X147523200Y-36347400D03*
D11*
X150063200Y-36347400D03*
D10*
X223012000Y-88671400D03*
X220472000Y-88671400D03*
X223012000Y-86131400D03*
X220472000Y-86131400D03*
X223012000Y-83591400D03*
X220472000Y-83591400D03*
X223012000Y-81051400D03*
X220472000Y-81051400D03*
X223012000Y-78511400D03*
X220472000Y-78511400D03*
X223012000Y-75971400D03*
X220472000Y-75971400D03*
X223012000Y-73431400D03*
X220472000Y-73431400D03*
X223012000Y-70891400D03*
X220472000Y-70891400D03*
X223012000Y-68351400D03*
X220472000Y-68351400D03*
X223012000Y-65811400D03*
X220472000Y-65811400D03*
X223012000Y-63271400D03*
X220472000Y-63271400D03*
X223012000Y-60731400D03*
X220472000Y-60731400D03*
X223012000Y-58191400D03*
X220472000Y-58191400D03*
X223012000Y-55651400D03*
X220472000Y-55651400D03*
X223012000Y-53111400D03*
X220472000Y-53111400D03*
X223012000Y-50571400D03*
X220472000Y-50571400D03*
X223012000Y-48031400D03*
X220472000Y-48031400D03*
X223012000Y-45491400D03*
X220472000Y-45491400D03*
X223012000Y-42951400D03*
X220472000Y-42951400D03*
X223012000Y-40411400D03*
D11*
X220472000Y-40411400D03*
D10*
X215417400Y-88671400D03*
X212877400Y-88671400D03*
X215417400Y-86131400D03*
X212877400Y-86131400D03*
X215417400Y-83591400D03*
X212877400Y-83591400D03*
X215417400Y-81051400D03*
X212877400Y-81051400D03*
X215417400Y-78511400D03*
X212877400Y-78511400D03*
X215417400Y-75971400D03*
X212877400Y-75971400D03*
X215417400Y-73431400D03*
X212877400Y-73431400D03*
X215417400Y-70891400D03*
X212877400Y-70891400D03*
X215417400Y-68351400D03*
X212877400Y-68351400D03*
X215417400Y-65811400D03*
X212877400Y-65811400D03*
X215417400Y-63271400D03*
X212877400Y-63271400D03*
X215417400Y-60731400D03*
X212877400Y-60731400D03*
X215417400Y-58191400D03*
X212877400Y-58191400D03*
X215417400Y-55651400D03*
X212877400Y-55651400D03*
X215417400Y-53111400D03*
X212877400Y-53111400D03*
X215417400Y-50571400D03*
X212877400Y-50571400D03*
X215417400Y-48031400D03*
X212877400Y-48031400D03*
X215417400Y-45491400D03*
X212877400Y-45491400D03*
X215417400Y-42951400D03*
X212877400Y-42951400D03*
X215417400Y-40411400D03*
D11*
X212877400Y-40411400D03*
D12*
X198170800Y-104444800D03*
X190550800Y-122224800D03*
X198170800Y-106984800D03*
X190550800Y-119684800D03*
X198170800Y-109524800D03*
X190550800Y-117144800D03*
X198170800Y-112064800D03*
X190550800Y-114604800D03*
X198170800Y-114604800D03*
X190550800Y-112064800D03*
X198170800Y-117144800D03*
X190550800Y-109524800D03*
X198170800Y-119684800D03*
X190550800Y-106984800D03*
X198170800Y-122224800D03*
D13*
X190550800Y-104444800D03*
D14*
X88606000Y-73583800D03*
D13*
X86106000Y-73583800D03*
D15*
X111840000Y-106019600D03*
X116840000Y-106019600D03*
X97967800Y-39264600D03*
X97967800Y-34264600D03*
X87122000Y-104491800D03*
X87122000Y-99491800D03*
X201806800Y-101346000D03*
X206806800Y-101346000D03*
X190580000Y-127508000D03*
X195580000Y-127508000D03*
X131372600Y-125399800D03*
X136372600Y-125399800D03*
D12*
X116687600Y-34417000D03*
X101447600Y-82677000D03*
X116687600Y-36957000D03*
X101447600Y-80137000D03*
X116687600Y-39497000D03*
X101447600Y-77597000D03*
X116687600Y-42037000D03*
X101447600Y-75057000D03*
X116687600Y-44577000D03*
X101447600Y-72517000D03*
X116687600Y-47117000D03*
X101447600Y-69977000D03*
X116687600Y-49657000D03*
X101447600Y-67437000D03*
X116687600Y-52197000D03*
X101447600Y-64897000D03*
X116687600Y-54737000D03*
X101447600Y-62357000D03*
X116687600Y-57277000D03*
X101447600Y-59817000D03*
X116687600Y-59817000D03*
X101447600Y-57277000D03*
X116687600Y-62357000D03*
X101447600Y-54737000D03*
X116687600Y-64897000D03*
X101447600Y-52197000D03*
X116687600Y-67437000D03*
X101447600Y-49657000D03*
X116687600Y-69977000D03*
X101447600Y-47117000D03*
X116687600Y-72517000D03*
X101447600Y-44577000D03*
X116687600Y-75057000D03*
X101447600Y-42037000D03*
X116687600Y-77597000D03*
X101447600Y-39497000D03*
X116687600Y-80137000D03*
X101447600Y-36957000D03*
X116687600Y-82677000D03*
D13*
X101447600Y-34417000D03*
D12*
X119583200Y-87503000D03*
X111963200Y-102743000D03*
X119583200Y-90043000D03*
X111963200Y-100203000D03*
X119583200Y-92583000D03*
X111963200Y-97663000D03*
X119583200Y-95123000D03*
X111963200Y-95123000D03*
X119583200Y-97663000D03*
X111963200Y-92583000D03*
X119583200Y-100203000D03*
X111963200Y-90043000D03*
X119583200Y-102743000D03*
D13*
X111963200Y-87503000D03*
D12*
X73914000Y-78155800D03*
X91694000Y-85775800D03*
X76454000Y-78155800D03*
X89154000Y-85775800D03*
X78994000Y-78155800D03*
X86614000Y-85775800D03*
X81534000Y-78155800D03*
X84074000Y-85775800D03*
X84074000Y-78155800D03*
X81534000Y-85775800D03*
X86614000Y-78155800D03*
X78994000Y-85775800D03*
X89154000Y-78155800D03*
X76454000Y-85775800D03*
X91694000Y-78155800D03*
D13*
X73914000Y-85775800D03*
D16*
X101346000Y-94919800D03*
X96446000Y-94919800D03*
D10*
X85598000Y-89839800D03*
X85598000Y-92379800D03*
X83058000Y-89839800D03*
X83058000Y-92379800D03*
X80518000Y-89839800D03*
X80518000Y-92379800D03*
X77978000Y-89839800D03*
X77978000Y-92379800D03*
X75438000Y-89839800D03*
D11*
X75438000Y-92379800D03*
D17*
X149199600Y-106857800D03*
X149199600Y-124637800D03*
X149199600Y-122097800D03*
X149199600Y-111937800D03*
X149199600Y-117017800D03*
X146659600Y-109397800D03*
X149199600Y-119557800D03*
X149199600Y-114477800D03*
X154279600Y-114477800D03*
X154279600Y-122097800D03*
X154279600Y-106857800D03*
X154279600Y-109397800D03*
X154279600Y-119557800D03*
X154279600Y-124637800D03*
X154279600Y-117017800D03*
X154279600Y-111937800D03*
X151739600Y-106857800D03*
X151739600Y-109397800D03*
X151739600Y-111937800D03*
X151739600Y-114477800D03*
X151739600Y-117017800D03*
X151739600Y-119557800D03*
X151739600Y-122097800D03*
X151739600Y-124637800D03*
X146659600Y-124637800D03*
X146659600Y-122097800D03*
X146659600Y-119557800D03*
X146659600Y-117017800D03*
X146659600Y-114477800D03*
X146659600Y-111937800D03*
X149199600Y-109397800D03*
X146659600Y-106857800D03*
X164439600Y-106857800D03*
X164439600Y-124637800D03*
X164439600Y-122097800D03*
X164439600Y-111937800D03*
X164439600Y-117017800D03*
X161899600Y-109397800D03*
X164439600Y-119557800D03*
X164439600Y-114477800D03*
X169519600Y-114477800D03*
X169519600Y-122097800D03*
X169519600Y-106857800D03*
X169519600Y-109397800D03*
X169519600Y-119557800D03*
X169519600Y-124637800D03*
X169519600Y-117017800D03*
X169519600Y-111937800D03*
X166979600Y-106857800D03*
X166979600Y-109397800D03*
X166979600Y-111937800D03*
X166979600Y-114477800D03*
X166979600Y-117017800D03*
X166979600Y-119557800D03*
X166979600Y-122097800D03*
X166979600Y-124637800D03*
X161899600Y-124637800D03*
X161899600Y-122097800D03*
X161899600Y-119557800D03*
X161899600Y-117017800D03*
X161899600Y-114477800D03*
X161899600Y-111937800D03*
X164439600Y-109397800D03*
X161899600Y-106857800D03*
X164465000Y-82804000D03*
X164465000Y-100584000D03*
X164465000Y-98044000D03*
X164465000Y-87884000D03*
X164465000Y-92964000D03*
X161925000Y-85344000D03*
X164465000Y-95504000D03*
X164465000Y-90424000D03*
X169545000Y-90424000D03*
X169545000Y-98044000D03*
X169545000Y-82804000D03*
X169545000Y-85344000D03*
X169545000Y-95504000D03*
X169545000Y-100584000D03*
X169545000Y-92964000D03*
X169545000Y-87884000D03*
X167005000Y-82804000D03*
X167005000Y-85344000D03*
X167005000Y-87884000D03*
X167005000Y-90424000D03*
X167005000Y-92964000D03*
X167005000Y-95504000D03*
X167005000Y-98044000D03*
X167005000Y-100584000D03*
X161925000Y-100584000D03*
X161925000Y-98044000D03*
X161925000Y-95504000D03*
X161925000Y-92964000D03*
X161925000Y-90424000D03*
X161925000Y-87884000D03*
X164465000Y-85344000D03*
X161925000Y-82804000D03*
X149225000Y-82804000D03*
X149225000Y-100584000D03*
X149225000Y-98044000D03*
X149225000Y-87884000D03*
X149225000Y-92964000D03*
X146685000Y-85344000D03*
X149225000Y-95504000D03*
X149225000Y-90424000D03*
X154305000Y-90424000D03*
X154305000Y-98044000D03*
X154305000Y-82804000D03*
X154305000Y-85344000D03*
X154305000Y-95504000D03*
X154305000Y-100584000D03*
X154305000Y-92964000D03*
X154305000Y-87884000D03*
X151765000Y-82804000D03*
X151765000Y-85344000D03*
X151765000Y-87884000D03*
X151765000Y-90424000D03*
X151765000Y-92964000D03*
X151765000Y-95504000D03*
X151765000Y-98044000D03*
X151765000Y-100584000D03*
X146685000Y-100584000D03*
X146685000Y-98044000D03*
X146685000Y-95504000D03*
X146685000Y-92964000D03*
X146685000Y-90424000D03*
X146685000Y-87884000D03*
X149225000Y-85344000D03*
X146685000Y-82804000D03*
D12*
X139039600Y-106857800D03*
X131419600Y-122097800D03*
X139039600Y-109397800D03*
X131419600Y-119557800D03*
X139039600Y-111937800D03*
X131419600Y-117017800D03*
X139039600Y-114477800D03*
X131419600Y-114477800D03*
X139039600Y-117017800D03*
X131419600Y-111937800D03*
X139039600Y-119557800D03*
X131419600Y-109397800D03*
X139039600Y-122097800D03*
D13*
X131419600Y-106857800D03*
D12*
X187071000Y-107010200D03*
X179451000Y-122250200D03*
X187071000Y-109550200D03*
X179451000Y-119710200D03*
X187071000Y-112090200D03*
X179451000Y-117170200D03*
X187071000Y-114630200D03*
X179451000Y-114630200D03*
X187071000Y-117170200D03*
X179451000Y-112090200D03*
X187071000Y-119710200D03*
X179451000Y-109550200D03*
X187071000Y-122250200D03*
D13*
X179451000Y-107010200D03*
D12*
X135026400Y-82778600D03*
X127406400Y-98018600D03*
X135026400Y-85318600D03*
X127406400Y-95478600D03*
X135026400Y-87858600D03*
X127406400Y-92938600D03*
X135026400Y-90398600D03*
X127406400Y-90398600D03*
X135026400Y-92938600D03*
X127406400Y-87858600D03*
X135026400Y-95478600D03*
X127406400Y-85318600D03*
X135026400Y-98018600D03*
D13*
X127406400Y-82778600D03*
D12*
X187325000Y-82829400D03*
X179705000Y-98069400D03*
X187325000Y-85369400D03*
X179705000Y-95529400D03*
X187325000Y-87909400D03*
X179705000Y-92989400D03*
X187325000Y-90449400D03*
X179705000Y-90449400D03*
X187325000Y-92989400D03*
X179705000Y-87909400D03*
X187325000Y-95529400D03*
X179705000Y-85369400D03*
X187325000Y-98069400D03*
D13*
X179705000Y-82829400D03*
D12*
X169570800Y-34723400D03*
X154330800Y-67743400D03*
X169570800Y-37263400D03*
X154330800Y-65203400D03*
X169570800Y-39803400D03*
X154330800Y-62663400D03*
X169570800Y-42343400D03*
X154330800Y-60123400D03*
X169570800Y-44883400D03*
X154330800Y-57583400D03*
X169570800Y-47423400D03*
X154330800Y-55043400D03*
X169570800Y-49963400D03*
X154330800Y-52503400D03*
X169570800Y-52503400D03*
X154330800Y-49963400D03*
X169570800Y-55043400D03*
X154330800Y-47423400D03*
X169570800Y-57583400D03*
X154330800Y-44883400D03*
X169570800Y-60123400D03*
X154330800Y-42343400D03*
X169570800Y-62663400D03*
X154330800Y-39803400D03*
X169570800Y-65203400D03*
X154330800Y-37263400D03*
X169570800Y-67743400D03*
D13*
X154330800Y-34723400D03*
D12*
X188970800Y-34723400D03*
X173730800Y-67743400D03*
X188970800Y-37263400D03*
X173730800Y-65203400D03*
X188970800Y-39803400D03*
X173730800Y-62663400D03*
X188970800Y-42343400D03*
X173730800Y-60123400D03*
X188970800Y-44883400D03*
X173730800Y-57583400D03*
X188970800Y-47423400D03*
X173730800Y-55043400D03*
X188970800Y-49963400D03*
X173730800Y-52503400D03*
X188970800Y-52503400D03*
X173730800Y-49963400D03*
X188970800Y-55043400D03*
X173730800Y-47423400D03*
X188970800Y-57583400D03*
X173730800Y-44883400D03*
X188970800Y-60123400D03*
X173730800Y-42343400D03*
X188970800Y-62663400D03*
X173730800Y-39803400D03*
X188970800Y-65203400D03*
X173730800Y-37263400D03*
X188970800Y-67743400D03*
D13*
X173730800Y-34723400D03*
D12*
X209372200Y-82829400D03*
X201752200Y-98069400D03*
X209372200Y-85369400D03*
X201752200Y-95529400D03*
X209372200Y-87909400D03*
X201752200Y-92989400D03*
X209372200Y-90449400D03*
X201752200Y-90449400D03*
X209372200Y-92989400D03*
X201752200Y-87909400D03*
X209372200Y-95529400D03*
X201752200Y-85369400D03*
X209372200Y-98069400D03*
D13*
X201752200Y-82829400D03*
D12*
X198297800Y-80289400D03*
X190677800Y-98069400D03*
X198297800Y-82829400D03*
X190677800Y-95529400D03*
X198297800Y-85369400D03*
X190677800Y-92989400D03*
X198297800Y-87909400D03*
X190677800Y-90449400D03*
X198297800Y-90449400D03*
X190677800Y-87909400D03*
X198297800Y-92989400D03*
X190677800Y-85369400D03*
X198297800Y-95529400D03*
X190677800Y-82829400D03*
X198297800Y-98069400D03*
D13*
X190677800Y-80289400D03*
D18*
X91116000Y-52731800D03*
X88576000Y-52731800D03*
D19*
X86036000Y-52731800D03*
D12*
X90170000Y-99491800D03*
X107950000Y-107111800D03*
X92710000Y-99491800D03*
X105410000Y-107111800D03*
X95250000Y-99491800D03*
X102870000Y-107111800D03*
X97790000Y-99491800D03*
X100330000Y-107111800D03*
X100330000Y-99491800D03*
X97790000Y-107111800D03*
X102870000Y-99491800D03*
X95250000Y-107111800D03*
X105410000Y-99491800D03*
X92710000Y-107111800D03*
X107950000Y-99491800D03*
D13*
X90170000Y-107111800D03*
D12*
X142849600Y-127177800D03*
X142849600Y-124637800D03*
X142849600Y-122097800D03*
X142849600Y-119557800D03*
X142849600Y-117017800D03*
X142849600Y-114477800D03*
X142849600Y-111937800D03*
X142849600Y-109397800D03*
X142849600Y-106857800D03*
D13*
X142849600Y-104317800D03*
D12*
X175641000Y-127330200D03*
X175641000Y-124790200D03*
X175641000Y-122250200D03*
X175641000Y-119710200D03*
X175641000Y-117170200D03*
X175641000Y-114630200D03*
X175641000Y-112090200D03*
X175641000Y-109550200D03*
X175641000Y-107010200D03*
D13*
X175641000Y-104470200D03*
D12*
X139039600Y-103047800D03*
X139039600Y-100507800D03*
X139039600Y-97967800D03*
X139039600Y-95427800D03*
X139039600Y-92887800D03*
X139039600Y-90347800D03*
X139039600Y-87807800D03*
X139039600Y-85267800D03*
X139039600Y-82727800D03*
D13*
X139039600Y-80187800D03*
D12*
X172186600Y-103047800D03*
X172186600Y-100507800D03*
X172186600Y-97967800D03*
X172186600Y-95427800D03*
X172186600Y-92887800D03*
X172186600Y-90347800D03*
X172186600Y-87807800D03*
X172186600Y-85267800D03*
X172186600Y-82727800D03*
D13*
X172186600Y-80187800D03*
D20*
X90170000Y-88823800D03*
D21*
X90170000Y-96443800D03*
D20*
X98374200Y-46177200D03*
D21*
X98374200Y-53797200D03*
D20*
X105918000Y-85775800D03*
D21*
X105918000Y-93395800D03*
D20*
X108458000Y-89331800D03*
D21*
X108458000Y-96951800D03*
D22*
X81661000Y-44881800D03*
X79121000Y-39801800D03*
X76581000Y-42341800D03*
D11*
X220980000Y-34290000D03*
D10*
X107696000Y-120827800D03*
X107696000Y-123367800D03*
X105156000Y-120827800D03*
X105156000Y-123367800D03*
X102616000Y-120827800D03*
X102616000Y-123367800D03*
X100076000Y-120827800D03*
X100076000Y-123367800D03*
X97536000Y-120827800D03*
X97536000Y-123367800D03*
X94996000Y-120827800D03*
X94996000Y-123367800D03*
X92456000Y-120827800D03*
X92456000Y-123367800D03*
X89916000Y-120827800D03*
D11*
X89916000Y-123367800D03*
D10*
X107696000Y-112191800D03*
X107696000Y-114731800D03*
X105156000Y-112191800D03*
X105156000Y-114731800D03*
X102616000Y-112191800D03*
X102616000Y-114731800D03*
X100076000Y-112191800D03*
X100076000Y-114731800D03*
X97536000Y-112191800D03*
X97536000Y-114731800D03*
X94996000Y-112191800D03*
X94996000Y-114731800D03*
X92456000Y-112191800D03*
X92456000Y-114731800D03*
X89916000Y-112191800D03*
D11*
X89916000Y-114731800D03*
D23*
X79606000Y-125501800D03*
X79606000Y-100501800D03*
D14*
X78186000Y-108846800D03*
X78186000Y-111616800D03*
X78186000Y-114386800D03*
X78186000Y-117156800D03*
X81026000Y-107461800D03*
X81026000Y-110231800D03*
X81026000Y-113001800D03*
X81026000Y-115771800D03*
D13*
X81026000Y-118541800D03*
D10*
X97713800Y-56616600D03*
X97713800Y-59156600D03*
D11*
X97713800Y-61696600D03*
D10*
X87630000Y-68808600D03*
X87630000Y-66268600D03*
X90170000Y-68808600D03*
X90170000Y-66268600D03*
X92710000Y-68808600D03*
X92710000Y-66268600D03*
X95250000Y-68808600D03*
X95250000Y-66268600D03*
X97790000Y-68808600D03*
D11*
X97790000Y-66268600D03*
D15*
X91186000Y-56391800D03*
X91186000Y-61391800D03*
X86106000Y-56391800D03*
X86106000Y-61391800D03*
D14*
X79676000Y-57581800D03*
D13*
X74676000Y-57581800D03*
D15*
X179708800Y-101320600D03*
X184708800Y-101320600D03*
X95250000Y-78155800D03*
X95250000Y-83155800D03*
D14*
X82510000Y-73583800D03*
D13*
X80010000Y-73583800D03*
D14*
X94702000Y-73583800D03*
D13*
X92202000Y-73583800D03*
D14*
X76414000Y-66471800D03*
D13*
X73914000Y-66471800D03*
D15*
X173816000Y-71374000D03*
X178816000Y-71374000D03*
X201756000Y-127508000D03*
X206756000Y-127508000D03*
X154308800Y-71399400D03*
X159308800Y-71399400D03*
X119968000Y-125399800D03*
X124968000Y-125399800D03*
D14*
X76414000Y-73583800D03*
D13*
X73914000Y-73583800D03*
D15*
X123977400Y-87880200D03*
X123977400Y-82880200D03*
X179454800Y-127508000D03*
X184454800Y-127508000D03*
X127511800Y-101600000D03*
X132511800Y-101600000D03*
D14*
X96774000Y-85855800D03*
X96774000Y-90855800D03*
X101346000Y-85855800D03*
X101346000Y-90855800D03*
D24*
X71882000Y-81788000D03*
X71628000Y-94742000D03*
X71882000Y-104648000D03*
X100427800Y-104491800D03*
X76707974Y-81788000D03*
X123698000Y-101600000D03*
X123977400Y-98018600D03*
X119380000Y-84328000D03*
X151892000Y-33020000D03*
X144983200Y-39827200D03*
X196596000Y-92964000D03*
X136398000Y-128778000D03*
X125222000Y-128778000D03*
X116840002Y-128778000D03*
X127762000Y-32512000D03*
X116840000Y-95250000D03*
X116840000Y-97536000D03*
X195580000Y-104394000D03*
X172263001Y-72172990D03*
X124968000Y-106934000D03*
X127762000Y-104394000D03*
X132588000Y-104394000D03*
X206756000Y-106934000D03*
X206806800Y-82829400D03*
X184774461Y-104270641D03*
X169672000Y-32258004D03*
X159512000Y-32512000D03*
X99060000Y-79756000D03*
X86614000Y-76454000D03*
X97028000Y-76417010D03*
X84328000Y-67564000D03*
X95504000Y-63754000D03*
X93980000Y-57912000D03*
X89154000Y-75438000D03*
X87630000Y-64262000D03*
X104140000Y-69850000D03*
X103886000Y-60706000D03*
X104902000Y-64770000D03*
X104902000Y-58674000D03*
X113030000Y-71120000D03*
X132842000Y-70104000D03*
X113030000Y-46990002D03*
X102870000Y-32258000D03*
X109220000Y-67564000D03*
X115062000Y-90170000D03*
X115062000Y-100076000D03*
X205740000Y-98044000D03*
X167132000Y-50037998D03*
X205740000Y-74168000D03*
X167132000Y-74422000D03*
X186556924Y-75394957D03*
X195797010Y-84836000D03*
X196044957Y-75394957D03*
X187198000Y-49784000D03*
X185420000Y-35814000D03*
X210566000Y-72136000D03*
X185674000Y-71374000D03*
X203453994Y-37084000D03*
X179324000Y-55372000D03*
X142748000Y-101346000D03*
X142748000Y-76200000D03*
X121158000Y-103886000D03*
X180340000Y-75844968D03*
X143510000Y-98771999D03*
X164846000Y-55118000D03*
X164084000Y-73660000D03*
X143256000Y-73660000D03*
X121920000Y-99314000D03*
X117856000Y-114554000D03*
X95250000Y-109474000D03*
X106426000Y-109474000D03*
X92964000Y-110236000D03*
X103886000Y-110453000D03*
X113284000Y-113538000D03*
X110236000Y-101854000D03*
X98806000Y-101853998D03*
X92710000Y-101600000D03*
X91186000Y-109220000D03*
X102870000Y-109002990D03*
X186944000Y-102616000D03*
X177292000Y-98044000D03*
X188468003Y-99096990D03*
X134112000Y-100330000D03*
X137160000Y-98044000D03*
X136906000Y-90424000D03*
X183388000Y-112014000D03*
X183388002Y-123400957D03*
X185429800Y-114554000D03*
X177546000Y-122148162D03*
X185592012Y-123850968D03*
X177707288Y-124460004D03*
X137414000Y-123190000D03*
X192278000Y-113792000D03*
X192019347Y-125750989D03*
X177546000Y-128524000D03*
X173228000Y-128524000D03*
X129286000Y-126492000D03*
X134874000Y-104648000D03*
X205486000Y-103124000D03*
X205486000Y-117094000D03*
X207772000Y-114300000D03*
X207731000Y-125222000D03*
X139192000Y-126238000D03*
X203962000Y-100076000D03*
X204216000Y-112268000D03*
X187452000Y-100583998D03*
X187076887Y-124169010D03*
X208280000Y-123444000D03*
X196596000Y-109474000D03*
X196596000Y-106680000D03*
X145034000Y-120141998D03*
X145405587Y-105477731D03*
X91440000Y-80518000D03*
X84074000Y-80813000D03*
X89154000Y-84130800D03*
X90392679Y-74883279D03*
X85344000Y-79756000D03*
X75438010Y-79756000D03*
X90207066Y-79793066D03*
X82804000Y-87884000D03*
X84836000Y-111506000D03*
X74422000Y-95758000D03*
X74421996Y-114300000D03*
X85598000Y-95758000D03*
X81534000Y-95758000D03*
X81534000Y-84130800D03*
X75438000Y-84130800D03*
X204179010Y-92964000D03*
X204179010Y-85344000D03*
X148336000Y-53848000D03*
X204216000Y-78486000D03*
X148336000Y-78232002D03*
X208534000Y-74676000D03*
X208534000Y-69850000D03*
X118364000Y-77470006D03*
X180594000Y-58420000D03*
X119126000Y-57658000D03*
X119126000Y-49784000D03*
X180848000Y-69342000D03*
X178308000Y-67310000D03*
X178308000Y-55372000D03*
X120142000Y-55118000D03*
X120142000Y-52324000D03*
X175768000Y-63754000D03*
X175768000Y-52578000D03*
X125984000Y-53086000D03*
X181864000Y-59182000D03*
X181864000Y-50292000D03*
X129540000Y-50292000D03*
X129794000Y-68580000D03*
X180594000Y-56134000D03*
X180594000Y-47498000D03*
X137160000Y-72390000D03*
X124206010Y-72390000D03*
X122682000Y-109728000D03*
X179578000Y-44958000D03*
X179578000Y-54353411D03*
X205059401Y-53836400D03*
X204724000Y-109220000D03*
X123952000Y-42418000D03*
X124206000Y-66040000D03*
X193802000Y-51816000D03*
X194056000Y-42163992D03*
X178562000Y-51054000D03*
X178562000Y-39878000D03*
X171704000Y-39878000D03*
X155702012Y-36068000D03*
X123153000Y-40386000D03*
X123190000Y-63246000D03*
X171704000Y-35813994D03*
X186690000Y-42418000D03*
X186690000Y-46228000D03*
X192786000Y-52324000D03*
X192786000Y-41148000D03*
X110236000Y-44704000D03*
X110236000Y-60960000D03*
X114046000Y-115570000D03*
X133858000Y-115062000D03*
X136652000Y-83468599D03*
X141478000Y-83312000D03*
X141478000Y-80518000D03*
X207518000Y-80264000D03*
X207781810Y-89221908D03*
X211328000Y-78486000D03*
X173990000Y-105156000D03*
X175006000Y-102108000D03*
X193294001Y-90423991D03*
X188722000Y-77724000D03*
X193294000Y-101346000D03*
X120142000Y-105156000D03*
X193076992Y-114554000D03*
X104140000Y-51054000D03*
X104357000Y-44704000D03*
X124931010Y-51308000D03*
X124968000Y-79756000D03*
X183388000Y-62484000D03*
X131064000Y-62992000D03*
X183388000Y-75844968D03*
X131064000Y-36322000D03*
X171450000Y-59944000D03*
X129068990Y-59436000D03*
X171450000Y-74929994D03*
X129032000Y-35052000D03*
X105410000Y-55880000D03*
X104902000Y-42164000D03*
X190754000Y-70612004D03*
X190971010Y-57879761D03*
X172466000Y-69596000D03*
X172175000Y-65024000D03*
X161798000Y-69596000D03*
X161798000Y-65024000D03*
X130556002Y-66040000D03*
X136397998Y-69596000D03*
X130302002Y-39116000D03*
X195326000Y-63246000D03*
X195326000Y-59944000D03*
X111760000Y-42164000D03*
X112268000Y-58420000D03*
X107188000Y-63246000D03*
X107188000Y-39624000D03*
X106172000Y-68834000D03*
X106172000Y-37084000D03*
X193257010Y-67818000D03*
X193257010Y-58166000D03*
X194310000Y-65278000D03*
X194056000Y-55880000D03*
X111506000Y-39624000D03*
X111506000Y-66294000D03*
X197637400Y-53111400D03*
X197612000Y-77368968D03*
X194056000Y-105918000D03*
X115570000Y-109474000D03*
X115570000Y-127762000D03*
X196088000Y-50800000D03*
X193548000Y-87630000D03*
X194310000Y-117094000D03*
X194310000Y-125750999D03*
X175768000Y-49530000D03*
X194605000Y-109474000D03*
X194310000Y-85598000D03*
X190500000Y-43688000D03*
X187452000Y-43688000D03*
X187451992Y-48514000D03*
X191008000Y-39624000D03*
X192532000Y-106934000D03*
X196850000Y-54610000D03*
X195580000Y-101600022D03*
X195072000Y-82804000D03*
X192207940Y-102071010D03*
X191770000Y-54864000D03*
X191795400Y-45491400D03*
X192532000Y-80423011D03*
X195300600Y-42951400D03*
X195326000Y-38608000D03*
X152654000Y-48514000D03*
X152867000Y-36068000D03*
X192495010Y-47244000D03*
X192164469Y-39807766D03*
X191770000Y-99314002D03*
X181360653Y-73410653D03*
X181356000Y-75438000D03*
X138684000Y-75946000D03*
X138938000Y-50546000D03*
X147574000Y-47752000D03*
X192278000Y-119634000D03*
X144258187Y-124637800D03*
X192526296Y-124202385D03*
X143764000Y-37592000D03*
X114808000Y-120650000D03*
X113792000Y-67564000D03*
X137922000Y-55118000D03*
X101346000Y-116586000D03*
X88138000Y-116586000D03*
X129540000Y-114554000D03*
X125984000Y-76200000D03*
X122174000Y-74422000D03*
X129794000Y-74676000D03*
X130021754Y-122175458D03*
D25*
X101346000Y-90855800D02*
X101346000Y-94919800D01*
D26*
X88576000Y-39512802D02*
X85344000Y-36280802D01*
X88576000Y-52731800D02*
X88576000Y-39512802D01*
X85344000Y-36280802D02*
X85344000Y-35862798D01*
X85344000Y-35862798D02*
X85344000Y-31496000D01*
X85344000Y-31496000D02*
X85090000Y-31242000D01*
X72644000Y-31242000D02*
X70578399Y-33307600D01*
X70638035Y-127534035D02*
X73152000Y-130048000D01*
X223266000Y-130048000D02*
X225298000Y-128016000D01*
X79121000Y-31369000D02*
X79248000Y-31242000D01*
X79121000Y-39801800D02*
X79121000Y-31369000D01*
X85090000Y-31242000D02*
X79248000Y-31242000D01*
X79248000Y-31242000D02*
X72644000Y-31242000D01*
X201777600Y-129946400D02*
X201676000Y-130048000D01*
X201777600Y-122097800D02*
X201777600Y-129946400D01*
X201676000Y-130048000D02*
X223266000Y-130048000D01*
X190500000Y-130048000D02*
X201676000Y-130048000D01*
X179451000Y-129921000D02*
X179324000Y-130048000D01*
X179324000Y-130048000D02*
X190500000Y-130048000D01*
X131419600Y-129946400D02*
X131318000Y-130048000D01*
X131419600Y-122097800D02*
X131419600Y-129946400D01*
X131318000Y-130048000D02*
X179324000Y-130048000D01*
X119989600Y-129946400D02*
X119888000Y-130048000D01*
X119989600Y-122097800D02*
X119989600Y-129946400D01*
X119888000Y-130048000D02*
X131318000Y-130048000D01*
X83820000Y-110255800D02*
X83820000Y-129794000D01*
X81026000Y-107461800D02*
X83820000Y-110255800D01*
X83820000Y-129794000D02*
X83566000Y-130048000D01*
X73152000Y-130048000D02*
X83566000Y-130048000D01*
X111963200Y-105896400D02*
X111840000Y-106019600D01*
X111963200Y-102743000D02*
X111963200Y-105896400D01*
X110747800Y-107111800D02*
X111840000Y-106019600D01*
X107950000Y-107111800D02*
X110747800Y-107111800D01*
X111840000Y-129714000D02*
X111506000Y-130048000D01*
X111840000Y-106019600D02*
X111840000Y-129714000D01*
X83566000Y-130048000D02*
X111506000Y-130048000D01*
X111506000Y-130048000D02*
X119888000Y-130048000D01*
X154330800Y-71377400D02*
X154308800Y-71399400D01*
X154330800Y-67743400D02*
X154330800Y-71377400D01*
X173730800Y-71288800D02*
X173816000Y-71374000D01*
X173730800Y-67743400D02*
X173730800Y-71288800D01*
X154330800Y-67743400D02*
X155522600Y-67743400D01*
X157480000Y-65786000D02*
X157480000Y-31242000D01*
X155522600Y-67743400D02*
X157480000Y-65786000D01*
X157480000Y-31242000D02*
X131826000Y-31242000D01*
X131826000Y-31242000D02*
X113030000Y-31242000D01*
X94742000Y-36038800D02*
X94742000Y-31242000D01*
X97967800Y-39264600D02*
X94742000Y-36038800D01*
X113030000Y-31242000D02*
X94742000Y-31242000D01*
X94742000Y-31242000D02*
X86614000Y-31242000D01*
X84916000Y-57581800D02*
X86106000Y-56391800D01*
X79676000Y-57581800D02*
X84916000Y-57581800D01*
X86106000Y-56391800D02*
X88395800Y-56391800D01*
X88395800Y-56391800D02*
X91186000Y-56391800D01*
X97489000Y-56391800D02*
X97713800Y-56616600D01*
X91186000Y-56391800D02*
X97489000Y-56391800D01*
X179705000Y-101316800D02*
X179708800Y-101320600D01*
X179705000Y-98069400D02*
X179705000Y-101316800D01*
X201752200Y-101291400D02*
X201806800Y-101346000D01*
X201752200Y-98069400D02*
X201752200Y-101291400D01*
X225298000Y-128016000D02*
X225298000Y-68326000D01*
X225272600Y-68351400D02*
X225298000Y-68326000D01*
X223012000Y-68351400D02*
X225272600Y-68351400D01*
X215417400Y-68351400D02*
X218414600Y-68351400D01*
D25*
X221836999Y-67176399D02*
X219589601Y-67176399D01*
X223012000Y-68351400D02*
X221836999Y-67176399D01*
X219589601Y-67176399D02*
X218948000Y-67818000D01*
X218948000Y-67818000D02*
X218414600Y-68351400D01*
D26*
X127406400Y-101494600D02*
X127511800Y-101600000D01*
X120980200Y-122097800D02*
X119989600Y-122097800D01*
X203152601Y-120722799D02*
X202577599Y-121297801D01*
X202577599Y-121297801D02*
X201777600Y-122097800D01*
X189750801Y-121424801D02*
X190550800Y-122224800D01*
X189175799Y-120849799D02*
X189750801Y-121424801D01*
X76414000Y-78115800D02*
X76454000Y-78155800D01*
X70578399Y-33307600D02*
X70605381Y-75939381D01*
X76414000Y-75732000D02*
X76414000Y-78115800D01*
X76414000Y-73583800D02*
X76414000Y-75732000D01*
X70866000Y-81788000D02*
X70608920Y-81530920D01*
X71882000Y-81788000D02*
X70866000Y-81788000D01*
X70605381Y-75939381D02*
X70608920Y-81530920D01*
X203152601Y-110283399D02*
X203152601Y-120722799D01*
D25*
X189175799Y-112308431D02*
X189175799Y-112322201D01*
X189419430Y-112064800D02*
X189175799Y-112308431D01*
X190550800Y-112064800D02*
X189419430Y-112064800D01*
D26*
X189175799Y-112322201D02*
X189175799Y-120849799D01*
X122174000Y-120904000D02*
X120980200Y-122097800D01*
D25*
X70866000Y-94742000D02*
X70617439Y-94990561D01*
X71628000Y-94742000D02*
X70866000Y-94742000D01*
D26*
X70608920Y-81530920D02*
X70617439Y-94990561D01*
X70635086Y-104648000D02*
X70623543Y-104636457D01*
X71882000Y-104648000D02*
X70635086Y-104648000D01*
X70617439Y-94990561D02*
X70623543Y-104636457D01*
X70623543Y-104636457D02*
X70638035Y-127534035D01*
X179451000Y-127504200D02*
X179454800Y-127508000D01*
X179451000Y-122250200D02*
X179451000Y-127504200D01*
X179324000Y-129053013D02*
X179324000Y-130048000D01*
X179454800Y-128922213D02*
X179324000Y-129053013D01*
X179454800Y-127508000D02*
X179454800Y-128922213D01*
X190550800Y-127478800D02*
X190580000Y-127508000D01*
X190550800Y-122224800D02*
X190550800Y-127478800D01*
X190580000Y-129968000D02*
X190500000Y-130048000D01*
X190580000Y-127508000D02*
X190580000Y-129968000D01*
X132334000Y-31750000D02*
X131826000Y-31242000D01*
X135077200Y-67818000D02*
X132334000Y-65074800D01*
X132334000Y-65074800D02*
X132334000Y-31750000D01*
X86614000Y-31242000D02*
X85090000Y-31242000D01*
X88576000Y-56211600D02*
X88395800Y-56391800D01*
X88576000Y-52731800D02*
X88576000Y-56211600D01*
X76454000Y-78155800D02*
X76454000Y-81534026D01*
X76454000Y-81534026D02*
X76707974Y-81788000D01*
X123698000Y-119380000D02*
X122174000Y-120904000D01*
X123698000Y-101600000D02*
X123698000Y-119380000D01*
X123977400Y-87880200D02*
X123977400Y-98018600D01*
X123977400Y-101320600D02*
X123698000Y-101600000D01*
X123977400Y-98018600D02*
X123977400Y-101320600D01*
D25*
X100584000Y-104335600D02*
X100427800Y-104491800D01*
X100330000Y-99491800D02*
X100584000Y-99745800D01*
X100584000Y-99745800D02*
X100584000Y-104335600D01*
D26*
X190677800Y-98069400D02*
X189686913Y-99060287D01*
X189175799Y-100524466D02*
X189175799Y-112322201D01*
X189686913Y-100013352D02*
X189175799Y-100524466D01*
X189686913Y-99060287D02*
X189686913Y-100013352D01*
X180250999Y-121450201D02*
X179451000Y-122250200D01*
X181356000Y-120345200D02*
X180250999Y-121450201D01*
X179708800Y-101320600D02*
X181356000Y-102967800D01*
X181356000Y-102967800D02*
X181356000Y-120345200D01*
X115189006Y-57277000D02*
X116687600Y-57277000D01*
X113030000Y-31242000D02*
X115189006Y-31242000D01*
X115189006Y-31242000D02*
X115189006Y-57277000D01*
X88678145Y-62236745D02*
X91860001Y-65418601D01*
X91860001Y-65418601D02*
X92710000Y-66268600D01*
X88678145Y-56674145D02*
X88678145Y-62236745D01*
X88395800Y-56391800D02*
X88678145Y-56674145D01*
X157480000Y-31242000D02*
X177780020Y-31242000D01*
X225298000Y-33528000D02*
X225298000Y-68326000D01*
X119380000Y-83762315D02*
X119380000Y-84328000D01*
X119380000Y-79781400D02*
X119380000Y-83762315D01*
X120243600Y-78917800D02*
X119380000Y-79781400D01*
X118980001Y-84727999D02*
X119380000Y-84328000D01*
X115461999Y-84727999D02*
X118980001Y-84727999D01*
X115189006Y-57277000D02*
X115189006Y-84455006D01*
X115189006Y-84455006D02*
X115461999Y-84727999D01*
X203152601Y-102691801D02*
X203152601Y-110490000D01*
X201806800Y-101346000D02*
X203152601Y-102691801D01*
X70639712Y-33301712D02*
X70612000Y-33274000D01*
X73152000Y-130048000D02*
X70639712Y-127535712D01*
X223266000Y-130048000D02*
X73152000Y-130048000D01*
X70639712Y-127535712D02*
X70639712Y-33301712D01*
X225298000Y-127508000D02*
X225298000Y-128016000D01*
X225298000Y-33528000D02*
X225298000Y-127508000D01*
X177038000Y-31242000D02*
X223012000Y-31242000D01*
X177038000Y-66040000D02*
X177038000Y-31242000D01*
X223012000Y-31242000D02*
X225298000Y-33528000D01*
X173730800Y-67743400D02*
X175334600Y-67743400D01*
X175334600Y-67743400D02*
X177038000Y-66040000D01*
D25*
X96774000Y-94591800D02*
X96446000Y-94919800D01*
X96774000Y-90855800D02*
X96774000Y-94591800D01*
D26*
X99314000Y-54737000D02*
X98374200Y-53797200D01*
X101447600Y-54737000D02*
X99314000Y-54737000D01*
X97308800Y-52731800D02*
X98374200Y-53797200D01*
X91116000Y-52731800D02*
X97308800Y-52731800D01*
X151892000Y-38303200D02*
X150317200Y-39878000D01*
X151892000Y-33020000D02*
X151892000Y-38303200D01*
X144957800Y-36322000D02*
X144983200Y-36347400D01*
X144983200Y-39827200D02*
X144983200Y-36347400D01*
X145034000Y-39878000D02*
X144983200Y-39827200D01*
X132511800Y-100185787D02*
X132511800Y-101600000D01*
X132511800Y-84161830D02*
X132511800Y-100185787D01*
X133895030Y-82778600D02*
X132511800Y-84161830D01*
X135026400Y-82778600D02*
X133895030Y-82778600D01*
X184708800Y-99906387D02*
X184708800Y-101320600D01*
X184708800Y-84314230D02*
X184708800Y-99906387D01*
X186193630Y-82829400D02*
X184708800Y-84314230D01*
X187325000Y-82829400D02*
X186193630Y-82829400D01*
X73914000Y-73583800D02*
X73914000Y-78155800D01*
X136372600Y-125399800D02*
X136372600Y-128752600D01*
X136372600Y-128752600D02*
X136398000Y-128778000D01*
X125222000Y-125653800D02*
X124968000Y-125399800D01*
X125222000Y-128778000D02*
X125222000Y-125653800D01*
X136372600Y-108737400D02*
X136372600Y-125399800D01*
X139039600Y-106857800D02*
X138252200Y-106857800D01*
X138252200Y-106857800D02*
X136372600Y-108737400D01*
X119583200Y-87503000D02*
X116840000Y-90246200D01*
X116840000Y-106019600D02*
X116840000Y-128777998D01*
X116840000Y-128777998D02*
X116840002Y-128778000D01*
X116840000Y-90246200D02*
X116840000Y-95250000D01*
X116840000Y-95250000D02*
X116840000Y-97536000D01*
X116840000Y-97536000D02*
X116840000Y-106019600D01*
X195580000Y-125476000D02*
X195580000Y-127508000D01*
X195580000Y-104394000D02*
X195580000Y-125476000D01*
X122563187Y-82880200D02*
X121452998Y-83990389D01*
X123977400Y-82880200D02*
X122563187Y-82880200D01*
X121452998Y-83990389D02*
X121452998Y-85633202D01*
X121452998Y-85633202D02*
X120383199Y-86703001D01*
X120383199Y-86703001D02*
X119583200Y-87503000D01*
X127762000Y-42133031D02*
X127762000Y-32512000D01*
X127863600Y-61137800D02*
X127762000Y-61036200D01*
X127762000Y-61036200D02*
X127762000Y-42133031D01*
D25*
X172186600Y-72249391D02*
X172263001Y-72172990D01*
X172186600Y-80187800D02*
X172186600Y-72249391D01*
X119583200Y-88634370D02*
X119583200Y-90043000D01*
X119583200Y-87503000D02*
X119583200Y-88634370D01*
D26*
X124968000Y-123985587D02*
X124968000Y-125399800D01*
X124968000Y-106934000D02*
X124968000Y-123985587D01*
X132511800Y-101600000D02*
X132511800Y-101955600D01*
X127762000Y-106934000D02*
X127762000Y-104394000D01*
X132588000Y-101676200D02*
X132511800Y-101600000D01*
X132588000Y-104394000D02*
X132588000Y-101676200D01*
X206756000Y-126093787D02*
X206756000Y-127508000D01*
X206806800Y-102760213D02*
X206756000Y-102811013D01*
X206806800Y-101346000D02*
X206806800Y-102760213D01*
X206756000Y-102811013D02*
X206756000Y-106934000D01*
X206756000Y-106934000D02*
X206756000Y-126093787D01*
X184708800Y-104204980D02*
X184774461Y-104270641D01*
X187071000Y-107010200D02*
X184774461Y-104713661D01*
X184774461Y-104713661D02*
X184774461Y-104270641D01*
X184708800Y-101320600D02*
X184708800Y-104204980D01*
X195979999Y-103994001D02*
X195580000Y-104394000D01*
X196596000Y-92964000D02*
X196596000Y-103378000D01*
X196596000Y-103378000D02*
X195979999Y-103994001D01*
X184454800Y-126093787D02*
X184454800Y-127508000D01*
X187071000Y-107010200D02*
X184454800Y-109626400D01*
X184454800Y-109626400D02*
X184454800Y-126093787D01*
X169570800Y-32359204D02*
X169672000Y-32258004D01*
X169570800Y-34723400D02*
X169570800Y-32359204D01*
X159308800Y-71399400D02*
X159308800Y-32715200D01*
X159308800Y-32715200D02*
X159512000Y-32512000D01*
X198297800Y-80289400D02*
X196772012Y-81815188D01*
X196596000Y-92398315D02*
X196596000Y-92964000D01*
X196772012Y-81815188D02*
X196772012Y-92222303D01*
X196772012Y-92222303D02*
X196596000Y-92398315D01*
X137617200Y-80187800D02*
X135026400Y-82778600D01*
X139039600Y-80187800D02*
X137617200Y-80187800D01*
X140309600Y-106857800D02*
X142849600Y-104317800D01*
X139039600Y-106857800D02*
X140309600Y-106857800D01*
X206806800Y-99931787D02*
X206806800Y-101346000D01*
X206806800Y-82829400D02*
X206806800Y-99931787D01*
D25*
X99060000Y-66438600D02*
X99060000Y-79756000D01*
X97790000Y-66268600D02*
X98890000Y-66268600D01*
X98890000Y-66268600D02*
X99060000Y-66438600D01*
X86614000Y-78155800D02*
X86614000Y-76454000D01*
X97790000Y-68808600D02*
X97790000Y-75655010D01*
X97427999Y-76017011D02*
X97028000Y-76417010D01*
X97790000Y-75655010D02*
X97427999Y-76017011D01*
X84328000Y-77901800D02*
X84074000Y-78155800D01*
X84328000Y-67564000D02*
X84328000Y-77901800D01*
X95250000Y-66268600D02*
X95250000Y-64008000D01*
X95250000Y-64008000D02*
X95504000Y-63754000D01*
X93980000Y-58477685D02*
X93980000Y-57912000D01*
X93980000Y-67538600D02*
X93980000Y-58477685D01*
X92710000Y-68808600D02*
X93980000Y-67538600D01*
X89154000Y-75438000D02*
X89154000Y-78155800D01*
X90170000Y-66268600D02*
X88900000Y-67538600D01*
X88900000Y-71882000D02*
X89916000Y-72898000D01*
X89916000Y-72898000D02*
X89916000Y-74110315D01*
X88900000Y-67538600D02*
X88900000Y-71882000D01*
X89154000Y-74872315D02*
X89154000Y-75438000D01*
X89916000Y-74110315D02*
X89154000Y-74872315D01*
X91694000Y-75260802D02*
X91694000Y-77024430D01*
X91694000Y-77024430D02*
X91694000Y-78155800D01*
X90170000Y-68808600D02*
X91076999Y-69715599D01*
X91076999Y-74643801D02*
X91694000Y-75260802D01*
X91076999Y-69715599D02*
X91076999Y-74643801D01*
X87630000Y-66268600D02*
X87630000Y-64262000D01*
X104140000Y-69850000D02*
X104140000Y-60960000D01*
X104140000Y-60960000D02*
X103886000Y-60706000D01*
X104902000Y-64770000D02*
X104902000Y-58674000D01*
X133241999Y-70503999D02*
X132842000Y-70104000D01*
X133858000Y-78740000D02*
X133858000Y-71120000D01*
X133858000Y-71120000D02*
X133241999Y-70503999D01*
X113030000Y-71120000D02*
X113030000Y-46990002D01*
X102870000Y-32823685D02*
X102870000Y-32258000D01*
X102870000Y-48234600D02*
X102870000Y-32823685D01*
X101447600Y-49657000D02*
X102870000Y-48234600D01*
X105918000Y-94411800D02*
X108458000Y-96951800D01*
X105918000Y-93395800D02*
X105918000Y-94411800D01*
X105918000Y-99491800D02*
X105410000Y-99491800D01*
X108458000Y-96951800D02*
X105918000Y-99491800D01*
X101447600Y-64897000D02*
X101447600Y-67437000D01*
X120904000Y-93903800D02*
X120383199Y-93382999D01*
X119583200Y-102743000D02*
X120904000Y-101422200D01*
X120383199Y-93382999D02*
X119583200Y-92583000D01*
X120904000Y-101422200D02*
X120904000Y-93903800D01*
X107696000Y-108522802D02*
X106824999Y-107651801D01*
X106824999Y-107651801D02*
X106824999Y-106571799D01*
X106824999Y-106571799D02*
X109483001Y-103913797D01*
X109483001Y-103913797D02*
X109483001Y-67827001D01*
X107696000Y-112191800D02*
X107696000Y-108522802D01*
X109483001Y-67827001D02*
X109220000Y-67564000D01*
X115062000Y-90170000D02*
X115062000Y-100076000D01*
X111963200Y-92583000D02*
X110236000Y-94310200D01*
X205740000Y-98044000D02*
X205740000Y-74168000D01*
X167132000Y-50037998D02*
X167132000Y-74422000D01*
X195797010Y-84836000D02*
X195797010Y-75642904D01*
X195797010Y-75642904D02*
X196044957Y-75394957D01*
X186556924Y-75394957D02*
X187198000Y-74753881D01*
X187198000Y-74753881D02*
X187198000Y-50349685D01*
X187198000Y-50349685D02*
X187198000Y-49784000D01*
X210566000Y-89255600D02*
X209372200Y-90449400D01*
X210566000Y-72136000D02*
X210566000Y-89255600D01*
X185420000Y-71120000D02*
X185674000Y-71374000D01*
X185420000Y-35814000D02*
X185420000Y-71120000D01*
X203453994Y-37649685D02*
X203453994Y-37084000D01*
X201752200Y-95529400D02*
X203453994Y-93827606D01*
X203453994Y-93827606D02*
X203453994Y-37649685D01*
X142748000Y-101346000D02*
X142748000Y-76200000D01*
X180340000Y-70936998D02*
X180340000Y-75279283D01*
X180340000Y-75279283D02*
X180340000Y-75844968D01*
X179324000Y-55372000D02*
X179324000Y-69920998D01*
X179324000Y-69920998D02*
X180340000Y-70936998D01*
X121412000Y-104140000D02*
X121158000Y-103886000D01*
X119989600Y-111937800D02*
X121412000Y-110515400D01*
X121412000Y-110515400D02*
X121412000Y-104140000D01*
X143510000Y-73914000D02*
X143256000Y-73660000D01*
X143510000Y-98771999D02*
X143510000Y-73914000D01*
X164846000Y-55118000D02*
X164084000Y-55880000D01*
X164084000Y-55880000D02*
X164084000Y-73660000D01*
X121920000Y-117856000D02*
X121920000Y-99879685D01*
X121920000Y-99879685D02*
X121920000Y-99314000D01*
X120142000Y-119634000D02*
X121920000Y-117856000D01*
D26*
X86036000Y-49256800D02*
X86036000Y-52731800D01*
X81661000Y-44881800D02*
X86036000Y-49256800D01*
X74676000Y-56031800D02*
X74676000Y-57581800D01*
X77976000Y-52731800D02*
X74676000Y-56031800D01*
X86036000Y-52731800D02*
X77976000Y-52731800D01*
X80036000Y-61391800D02*
X84691787Y-61391800D01*
X76226000Y-57581800D02*
X80036000Y-61391800D01*
X84691787Y-61391800D02*
X86106000Y-61391800D01*
X74676000Y-57581800D02*
X76226000Y-57581800D01*
D25*
X106846001Y-115581799D02*
X107696000Y-114731800D01*
X106520999Y-122192799D02*
X106520999Y-115906801D01*
X106520999Y-115906801D02*
X106846001Y-115581799D01*
X107696000Y-123367800D02*
X106520999Y-122192799D01*
X118414589Y-113995411D02*
X117856000Y-114554000D01*
X119583200Y-95123000D02*
X118414589Y-96291611D01*
X118414589Y-96291611D02*
X118414589Y-113995411D01*
X95250000Y-107111800D02*
X95250000Y-109474000D01*
X106426000Y-113461800D02*
X106426000Y-110039685D01*
X107696000Y-114731800D02*
X106426000Y-113461800D01*
X106426000Y-110039685D02*
X106426000Y-109474000D01*
X103980999Y-115906801D02*
X104306001Y-115581799D01*
X104306001Y-115581799D02*
X105156000Y-114731800D01*
X103980999Y-122192799D02*
X103980999Y-115906801D01*
X105156000Y-123367800D02*
X103980999Y-122192799D01*
X92710000Y-107111800D02*
X92710000Y-109982000D01*
X92710000Y-109982000D02*
X92964000Y-110236000D01*
X104306001Y-113881801D02*
X105156000Y-114731800D01*
X103886000Y-110453000D02*
X103886000Y-113461800D01*
X103886000Y-113461800D02*
X104306001Y-113881801D01*
X101766001Y-122517801D02*
X102616000Y-123367800D01*
X101440999Y-122192799D02*
X101766001Y-122517801D01*
X101440999Y-120263799D02*
X101440999Y-122192799D01*
X101346000Y-120168800D02*
X101440999Y-120263799D01*
X102616000Y-114731800D02*
X101346000Y-116001800D01*
X101346000Y-116001800D02*
X101346000Y-116586000D01*
X92964000Y-99745800D02*
X92710000Y-99491800D01*
X98900999Y-115906801D02*
X99226001Y-115581799D01*
X98900999Y-122192799D02*
X98900999Y-115906801D01*
X99226001Y-115581799D02*
X100076000Y-114731800D01*
X100076000Y-123367800D02*
X98900999Y-122192799D01*
X113284000Y-98983800D02*
X111963200Y-97663000D01*
X113284000Y-113538000D02*
X113284000Y-98983800D01*
X97536000Y-122682000D02*
X97536000Y-123367800D01*
X96360999Y-121506999D02*
X97536000Y-122682000D01*
X97536000Y-114731800D02*
X96360999Y-115906801D01*
X96360999Y-115906801D02*
X96360999Y-121506999D01*
X110236000Y-94310200D02*
X110236000Y-101854000D01*
X98951993Y-102565676D02*
X98806000Y-102419683D01*
X97536000Y-114731800D02*
X98711001Y-113556799D01*
X98711001Y-113556799D02*
X98711001Y-109697803D01*
X98806000Y-102419683D02*
X98806000Y-101853998D01*
X98711001Y-109697803D02*
X98951993Y-109456811D01*
X98951993Y-109456811D02*
X98951993Y-102565676D01*
X92710000Y-99491800D02*
X92710000Y-101600000D01*
X94146001Y-122517801D02*
X94996000Y-123367800D01*
X93820999Y-122192799D02*
X94146001Y-122517801D01*
X93820999Y-117108882D02*
X93820999Y-122192799D01*
X94996000Y-115933881D02*
X93820999Y-117108882D01*
X94996000Y-114731800D02*
X94996000Y-115933881D01*
X96171001Y-113556799D02*
X95845999Y-113881801D01*
X96171001Y-108145799D02*
X96171001Y-113556799D01*
X95845999Y-113881801D02*
X94996000Y-114731800D01*
X96664999Y-107651801D02*
X96171001Y-108145799D01*
X96664999Y-100616801D02*
X96664999Y-107651801D01*
X97790000Y-99491800D02*
X96664999Y-100616801D01*
X91606001Y-122517801D02*
X92456000Y-123367800D01*
X91280999Y-122192799D02*
X91606001Y-122517801D01*
X91280999Y-117108882D02*
X91280999Y-122192799D01*
X92456000Y-115933881D02*
X91280999Y-117108882D01*
X92456000Y-114731800D02*
X92456000Y-115933881D01*
X93305999Y-113881801D02*
X92456000Y-114731800D01*
X93631001Y-113556799D02*
X93305999Y-113881801D01*
X93631001Y-111817797D02*
X93631001Y-113556799D01*
X93980000Y-111468798D02*
X93631001Y-111817797D01*
X93980000Y-100761800D02*
X93980000Y-111468798D01*
X95250000Y-99491800D02*
X93980000Y-100761800D01*
X89916000Y-123274000D02*
X89916000Y-123367800D01*
X88740999Y-117006801D02*
X88740999Y-122098999D01*
X89916000Y-114731800D02*
X89916000Y-115831800D01*
X88740999Y-122098999D02*
X89916000Y-123274000D01*
X89916000Y-115831800D02*
X88740999Y-117006801D01*
X102870000Y-107111800D02*
X102870000Y-109002990D01*
X91186000Y-113538000D02*
X91186000Y-109220000D01*
X89916000Y-114731800D02*
X89992200Y-114731800D01*
X89992200Y-114731800D02*
X91186000Y-113538000D01*
X186544001Y-102216001D02*
X186944000Y-102616000D01*
X186033801Y-101705801D02*
X186544001Y-102216001D01*
X187325000Y-87909400D02*
X186033801Y-89200599D01*
X186033801Y-89200599D02*
X186033801Y-101705801D01*
X188613999Y-98950994D02*
X188468003Y-99096990D01*
X187325000Y-90449400D02*
X188613999Y-91738399D01*
X188613999Y-91738399D02*
X188613999Y-98950994D01*
X179603400Y-92887800D02*
X179705000Y-92989400D01*
X133901399Y-100119399D02*
X134112000Y-100330000D01*
X135026400Y-87858600D02*
X133901399Y-88983601D01*
X133901399Y-88983601D02*
X133901399Y-100119399D01*
X137160000Y-98044000D02*
X137160000Y-90678000D01*
X137160000Y-90678000D02*
X136906000Y-90424000D01*
X183388000Y-112014000D02*
X183388000Y-123400955D01*
X183388000Y-123400955D02*
X183388002Y-123400957D01*
X185429800Y-123688756D02*
X185592012Y-123850968D01*
X185429800Y-114554000D02*
X185429800Y-123688756D01*
X177546000Y-124298716D02*
X177707288Y-124460004D01*
X177546000Y-122148162D02*
X177546000Y-124298716D01*
X137414000Y-113563400D02*
X139039600Y-111937800D01*
X137414000Y-123190000D02*
X137414000Y-113563400D01*
X142049601Y-121297801D02*
X142849600Y-122097800D01*
X140462000Y-119710200D02*
X142049601Y-121297801D01*
X140462000Y-115900200D02*
X140462000Y-119710200D01*
X139039600Y-114477800D02*
X140462000Y-115900200D01*
X208788000Y-104394000D02*
X211074000Y-106680000D01*
X208506812Y-88873906D02*
X208506812Y-89569910D01*
X208247199Y-86494401D02*
X208247199Y-88614293D01*
X208247199Y-98609401D02*
X208788000Y-99150202D01*
X211074000Y-115341400D02*
X210197599Y-116217801D01*
X208247199Y-88614293D02*
X208506812Y-88873906D01*
X211074000Y-106680000D02*
X211074000Y-115341400D01*
X209372200Y-85369400D02*
X208247199Y-86494401D01*
X208247199Y-89829523D02*
X208247199Y-98609401D01*
X210197599Y-116217801D02*
X209397600Y-117017800D01*
X208506812Y-89569910D02*
X208247199Y-89829523D01*
X208788000Y-99150202D02*
X208788000Y-104394000D01*
X200952201Y-93789399D02*
X201752200Y-92989400D01*
X199644000Y-95097600D02*
X200952201Y-93789399D01*
X201777600Y-119557800D02*
X199644000Y-117424200D01*
X199644000Y-117424200D02*
X199644000Y-95097600D01*
X210172199Y-96329399D02*
X209372200Y-95529400D01*
X212598000Y-98755200D02*
X210172199Y-96329399D01*
X212598000Y-118897400D02*
X212598000Y-98755200D01*
X209397600Y-122097800D02*
X212598000Y-118897400D01*
X200481799Y-113181999D02*
X200977601Y-113677801D01*
X200481799Y-95134799D02*
X200481799Y-113181999D01*
X200977601Y-113677801D02*
X201777600Y-114477800D01*
X201212199Y-94404399D02*
X200481799Y-95134799D01*
X202013601Y-94404399D02*
X201212199Y-94404399D01*
X202877201Y-93540799D02*
X202013601Y-94404399D01*
X202877201Y-84829399D02*
X202877201Y-93540799D01*
X201752200Y-83704398D02*
X202877201Y-84829399D01*
X201752200Y-82829400D02*
X201752200Y-83704398D01*
X177546000Y-128524000D02*
X173228000Y-128524000D01*
X127609600Y-119557800D02*
X129286000Y-121234200D01*
X129286000Y-125926315D02*
X129286000Y-126492000D01*
X129286000Y-121234200D02*
X129286000Y-125926315D01*
X192024000Y-125746336D02*
X192019347Y-125750989D01*
X192024000Y-125730000D02*
X192024000Y-125746336D01*
X192278000Y-113792000D02*
X192278000Y-118560998D01*
X192278000Y-118560998D02*
X193198862Y-119481860D01*
X193198862Y-119481860D02*
X193198862Y-119538862D01*
X193294000Y-124460000D02*
X192024000Y-125730000D01*
X193198862Y-119538862D02*
X193294000Y-119634000D01*
X193294000Y-119634000D02*
X193294000Y-124460000D01*
X135026400Y-98018600D02*
X135026400Y-104495600D01*
X135026400Y-104495600D02*
X134874000Y-104648000D01*
X205486000Y-103124000D02*
X205486000Y-117094000D01*
X207554999Y-125045999D02*
X207731000Y-125222000D01*
X207554999Y-115082686D02*
X207554999Y-125045999D01*
X207772000Y-114300000D02*
X207772000Y-114865685D01*
X207772000Y-114865685D02*
X207554999Y-115082686D01*
X139192000Y-122250200D02*
X139039600Y-122097800D01*
X139192000Y-126238000D02*
X139192000Y-122250200D01*
X203962000Y-112014000D02*
X204216000Y-112268000D01*
X203962000Y-100076000D02*
X203962000Y-112014000D01*
X187325000Y-100456998D02*
X187452000Y-100583998D01*
X187325000Y-98069400D02*
X187325000Y-100456998D01*
X187071000Y-124163123D02*
X187076887Y-124169010D01*
X187071000Y-122250200D02*
X187071000Y-124163123D01*
X208170999Y-122769314D02*
X208280000Y-122878315D01*
X208280000Y-122878315D02*
X208280000Y-123444000D01*
X209397600Y-119557800D02*
X208170999Y-120784401D01*
X208170999Y-120784401D02*
X208170999Y-122769314D01*
X196596000Y-109474000D02*
X196596000Y-106680000D01*
X145034000Y-105849318D02*
X145405587Y-105477731D01*
X145034000Y-120141998D02*
X145034000Y-105849318D01*
X78194001Y-84975801D02*
X78994000Y-85775800D01*
X77868999Y-84650799D02*
X78194001Y-84975801D01*
X77868999Y-73373797D02*
X77868999Y-84650799D01*
X76414000Y-71918798D02*
X77868999Y-73373797D01*
X76414000Y-66471800D02*
X76414000Y-71918798D01*
X72788999Y-68646801D02*
X72788999Y-83600799D01*
X73914000Y-84725800D02*
X73914000Y-85775800D01*
X73914000Y-67521800D02*
X72788999Y-68646801D01*
X72788999Y-83600799D02*
X73914000Y-84725800D01*
X73914000Y-66471800D02*
X73914000Y-67521800D01*
X93902001Y-78055999D02*
X91440000Y-80518000D01*
X94702000Y-73583800D02*
X93902001Y-74383799D01*
X93902001Y-74383799D02*
X93902001Y-78055999D01*
X84074000Y-81378685D02*
X84074000Y-85775800D01*
X84074000Y-80813000D02*
X84074000Y-81378685D01*
X89154000Y-79820802D02*
X90392679Y-78582123D01*
X89154000Y-84130800D02*
X89154000Y-79820802D01*
X90392679Y-78582123D02*
X90392679Y-75448964D01*
X90392679Y-75448964D02*
X90392679Y-74883279D01*
X86106000Y-73583800D02*
X86106000Y-74633800D01*
X86106000Y-74633800D02*
X85344000Y-75395800D01*
X85344000Y-75395800D02*
X85344000Y-79756000D01*
X76454000Y-85775800D02*
X76454000Y-83115004D01*
X76454000Y-83115004D02*
X75438010Y-82099014D01*
X75438010Y-80321685D02*
X75438010Y-79756000D01*
X75438010Y-82099014D02*
X75438010Y-80321685D01*
X90170000Y-87833851D02*
X90279001Y-87724850D01*
X90207066Y-80358751D02*
X90207066Y-79793066D01*
X90279001Y-87724850D02*
X90279001Y-80430686D01*
X90279001Y-80430686D02*
X90207066Y-80358751D01*
X90170000Y-88823800D02*
X90170000Y-87833851D01*
X82804000Y-77760798D02*
X82804000Y-87884000D01*
X82510000Y-73583800D02*
X82510000Y-77466798D01*
X82510000Y-77466798D02*
X82804000Y-77760798D01*
X84836000Y-93546800D02*
X84836000Y-111506000D01*
X84233001Y-92943801D02*
X84836000Y-93546800D01*
X83058000Y-89839800D02*
X84233001Y-91014801D01*
X84233001Y-91014801D02*
X84233001Y-92943801D01*
X74422000Y-114299996D02*
X74421996Y-114300000D01*
X74422000Y-95758000D02*
X74422000Y-114299996D01*
X85598000Y-95758000D02*
X85598000Y-92379800D01*
X79342999Y-93566999D02*
X81534000Y-95758000D01*
X79342999Y-91815799D02*
X79342999Y-93566999D01*
X79668001Y-91490797D02*
X79342999Y-91815799D01*
X80518000Y-89839800D02*
X79668001Y-90689799D01*
X79668001Y-90689799D02*
X79668001Y-91490797D01*
X79571000Y-118541800D02*
X78186000Y-117156800D01*
X81026000Y-118541800D02*
X79571000Y-118541800D01*
X77386001Y-116356801D02*
X78186000Y-117156800D01*
X78186000Y-108846800D02*
X76454000Y-110578800D01*
X76454000Y-115424800D02*
X77386001Y-116356801D01*
X76454000Y-110578800D02*
X76454000Y-115424800D01*
X75438000Y-106098800D02*
X78186000Y-108846800D01*
X75438000Y-92379800D02*
X75438000Y-106098800D01*
X78827999Y-91529801D02*
X77978000Y-92379800D01*
X79153001Y-91204799D02*
X78827999Y-91529801D01*
X79153001Y-89275799D02*
X79153001Y-91204799D01*
X80119001Y-88309799D02*
X79153001Y-89275799D01*
X80119001Y-80412171D02*
X80119001Y-88309799D01*
X78994000Y-79287170D02*
X80119001Y-80412171D01*
X78994000Y-78155800D02*
X78994000Y-79287170D01*
X82296000Y-111731800D02*
X81825999Y-112201801D01*
X77978000Y-93581881D02*
X77280999Y-94278882D01*
X81825999Y-112201801D02*
X81026000Y-113001800D01*
X77978000Y-92379800D02*
X77978000Y-93581881D01*
X82296000Y-109836798D02*
X82296000Y-111731800D01*
X80606612Y-108966000D02*
X81425202Y-108966000D01*
X77280999Y-105640387D02*
X80606612Y-108966000D01*
X77280999Y-94278882D02*
X77280999Y-105640387D01*
X81425202Y-108966000D02*
X82296000Y-109836798D01*
X81534000Y-78155800D02*
X81534000Y-84130800D01*
X75438000Y-88637719D02*
X75438000Y-89839800D01*
X75328999Y-84805486D02*
X75328999Y-88528718D01*
X75438000Y-84696485D02*
X75328999Y-84805486D01*
X75328999Y-88528718D02*
X75438000Y-88637719D01*
X75438000Y-84130800D02*
X75438000Y-84696485D01*
X80226001Y-114971801D02*
X81026000Y-115771800D01*
X79900999Y-114646799D02*
X80226001Y-114971801D01*
X76613001Y-105608799D02*
X79900999Y-108896797D01*
X79900999Y-108896797D02*
X79900999Y-114646799D01*
X76613001Y-91014801D02*
X76613001Y-105608799D01*
X75438000Y-89839800D02*
X76613001Y-91014801D01*
X216592401Y-87496399D02*
X216267399Y-87821401D01*
X221836999Y-87496399D02*
X216592401Y-87496399D01*
X216267399Y-87821401D02*
X215417400Y-88671400D01*
X223012000Y-88671400D02*
X221836999Y-87496399D01*
X204179010Y-85909685D02*
X204179010Y-92964000D01*
X204179010Y-85344000D02*
X204179010Y-85909685D01*
X204179010Y-78522990D02*
X204216000Y-78486000D01*
X204179010Y-85344000D02*
X204179010Y-78522990D01*
X148336000Y-53848000D02*
X148336000Y-78232002D01*
X216267399Y-85281401D02*
X215417400Y-86131400D01*
X216592401Y-84956399D02*
X216267399Y-85281401D01*
X221836999Y-84956399D02*
X216592401Y-84956399D01*
X223012000Y-86131400D02*
X221836999Y-84956399D01*
X216267399Y-75121401D02*
X215417400Y-75971400D01*
X216592401Y-74796399D02*
X216267399Y-75121401D01*
X221836999Y-74796399D02*
X216592401Y-74796399D01*
X223012000Y-75971400D02*
X221836999Y-74796399D01*
X208534000Y-74676000D02*
X208534000Y-69850000D01*
X118364000Y-81000600D02*
X118364000Y-77470006D01*
X116687600Y-82677000D02*
X118364000Y-81000600D01*
X216267399Y-64961401D02*
X215417400Y-65811400D01*
X216592401Y-64636399D02*
X216267399Y-64961401D01*
X221836999Y-64636399D02*
X216592401Y-64636399D01*
X223012000Y-65811400D02*
X221836999Y-64636399D01*
X119126000Y-57658000D02*
X119126000Y-49784000D01*
X180594000Y-69088000D02*
X180848000Y-69342000D01*
X180594000Y-58420000D02*
X180594000Y-69088000D01*
X216267399Y-62421401D02*
X215417400Y-63271400D01*
X216592401Y-62096399D02*
X216267399Y-62421401D01*
X221836999Y-62096399D02*
X216592401Y-62096399D01*
X223012000Y-63271400D02*
X221836999Y-62096399D01*
X178308000Y-67310000D02*
X178308000Y-55372000D01*
X120142000Y-55118000D02*
X120142000Y-52324000D01*
X216592401Y-59556399D02*
X216267399Y-59881401D01*
X216267399Y-59881401D02*
X215417400Y-60731400D01*
X221836999Y-59556399D02*
X216592401Y-59556399D01*
X223012000Y-60731400D02*
X221836999Y-59556399D01*
X175768000Y-63754000D02*
X175768000Y-52578000D01*
X125984000Y-64262000D02*
X125984000Y-53651685D01*
X125984000Y-53651685D02*
X125984000Y-53086000D01*
X127762000Y-66040000D02*
X125984000Y-64262000D01*
X216267399Y-57341401D02*
X215417400Y-58191400D01*
X221836999Y-57016399D02*
X216592401Y-57016399D01*
X216592401Y-57016399D02*
X216267399Y-57341401D01*
X223012000Y-58191400D02*
X221836999Y-57016399D01*
X181864000Y-59182000D02*
X181864000Y-50292000D01*
X129540000Y-50292000D02*
X129540000Y-50857685D01*
X129540000Y-50857685D02*
X129793991Y-51111676D01*
X129793991Y-51111676D02*
X129793991Y-68071991D01*
X129794000Y-68072000D02*
X129793991Y-68071991D01*
X129794000Y-68580000D02*
X129794000Y-68072000D01*
X129793991Y-68071991D02*
X129793991Y-68326009D01*
X216267399Y-54801401D02*
X215417400Y-55651400D01*
X216592401Y-54476399D02*
X216267399Y-54801401D01*
X221836999Y-54476399D02*
X216592401Y-54476399D01*
X223012000Y-55651400D02*
X221836999Y-54476399D01*
X180594000Y-56134000D02*
X180594000Y-47498000D01*
X124206010Y-81147808D02*
X125302401Y-82244199D01*
X122682000Y-109162315D02*
X122682000Y-109728000D01*
X125302401Y-82244199D02*
X125302401Y-84594197D01*
X122652399Y-87244199D02*
X122652399Y-109132714D01*
X122652399Y-109132714D02*
X122682000Y-109162315D01*
X125302401Y-84594197D02*
X122652399Y-87244199D01*
X124206010Y-72390000D02*
X124206010Y-81147808D01*
X137160000Y-69030998D02*
X137160000Y-72390000D01*
X135077200Y-47498000D02*
X137160000Y-49580800D01*
X137160000Y-49580800D02*
X137160000Y-69030998D01*
X216267399Y-52261401D02*
X215417400Y-53111400D01*
X216592401Y-51936399D02*
X216267399Y-52261401D01*
X221836999Y-51936399D02*
X216592401Y-51936399D01*
X223012000Y-53111400D02*
X221836999Y-51936399D01*
X179578000Y-44958000D02*
X179578000Y-54353411D01*
X209397600Y-109397800D02*
X209067400Y-109728000D01*
X204724000Y-108654315D02*
X204724000Y-109220000D01*
X204978004Y-102558994D02*
X204724000Y-102812998D01*
X204978004Y-54483482D02*
X204978004Y-102558994D01*
X205059401Y-54402085D02*
X204978004Y-54483482D01*
X204724000Y-102812998D02*
X204724000Y-108654315D01*
X205059401Y-53836400D02*
X205059401Y-54402085D01*
X216267399Y-49721401D02*
X215417400Y-50571400D01*
X216592401Y-49396399D02*
X216267399Y-49721401D01*
X221836999Y-49396399D02*
X216592401Y-49396399D01*
X223012000Y-50571400D02*
X221836999Y-49396399D01*
X123952000Y-42418000D02*
X123952000Y-65786000D01*
X123952000Y-65786000D02*
X124206000Y-66040000D01*
X193802000Y-51816000D02*
X193802000Y-42417992D01*
X193802000Y-42417992D02*
X194056000Y-42163992D01*
X216267399Y-47181401D02*
X215417400Y-48031400D01*
X216592401Y-46856399D02*
X216267399Y-47181401D01*
X221836999Y-46856399D02*
X216592401Y-46856399D01*
X223012000Y-48031400D02*
X221836999Y-46856399D01*
X178562000Y-51054000D02*
X178562000Y-39878000D01*
X155702012Y-36633685D02*
X155702012Y-36068000D01*
X155702012Y-39155088D02*
X155702012Y-36633685D01*
X154330800Y-39803400D02*
X155053700Y-39803400D01*
X155053700Y-39803400D02*
X155702012Y-39155088D01*
X123153000Y-40386000D02*
X123153000Y-63209000D01*
X123153000Y-63209000D02*
X123190000Y-63246000D01*
X171704000Y-39878000D02*
X171704000Y-35813994D01*
X216267399Y-44641401D02*
X215417400Y-45491400D01*
X221036001Y-44316399D02*
X216592401Y-44316399D01*
X222211002Y-45491400D02*
X221036001Y-44316399D01*
X216592401Y-44316399D02*
X216267399Y-44641401D01*
X223012000Y-45491400D02*
X222211002Y-45491400D01*
X186690000Y-42418000D02*
X186690000Y-46228000D01*
X216592401Y-41776399D02*
X216267399Y-42101401D01*
X216267399Y-42101401D02*
X215417400Y-42951400D01*
X221836999Y-41776399D02*
X216592401Y-41776399D01*
X223012000Y-42951400D02*
X221836999Y-41776399D01*
X216267399Y-39561401D02*
X215417400Y-40411400D01*
X216592401Y-39236399D02*
X216267399Y-39561401D01*
X221836999Y-39236399D02*
X216592401Y-39236399D01*
X223012000Y-40411400D02*
X221836999Y-39236399D01*
X193220012Y-47592002D02*
X193220012Y-41582012D01*
X193185999Y-41547999D02*
X192786000Y-41148000D01*
X193220012Y-41582012D02*
X193185999Y-41547999D01*
X192786000Y-52324000D02*
X192786000Y-48026014D01*
X192786000Y-48026014D02*
X193220012Y-47592002D01*
X214052401Y-89846401D02*
X213727399Y-89521399D01*
X218094918Y-89846401D02*
X214052401Y-89846401D01*
X219269919Y-88671400D02*
X218094918Y-89846401D01*
X213727399Y-89521399D02*
X212877400Y-88671400D01*
X220472000Y-88671400D02*
X219269919Y-88671400D01*
X110236000Y-44704000D02*
X110236000Y-60960000D01*
X114046000Y-92710000D02*
X114046000Y-115570000D01*
X114046000Y-92579000D02*
X114046000Y-92710000D01*
X112812999Y-91345999D02*
X114046000Y-92579000D01*
X110236000Y-60960000D02*
X110236000Y-90270800D01*
X111311199Y-91345999D02*
X112812999Y-91345999D01*
X110236000Y-90270800D02*
X111311199Y-91345999D01*
X136151401Y-83969198D02*
X136652000Y-83468599D01*
X136151401Y-98558601D02*
X136151401Y-83969198D01*
X135599001Y-99111001D02*
X136151401Y-98558601D01*
X133858000Y-115062000D02*
X135599001Y-113320999D01*
X135599001Y-113320999D02*
X135599001Y-99111001D01*
X141478000Y-83312000D02*
X141478000Y-80518000D01*
X207518000Y-82467598D02*
X207781810Y-82731408D01*
X207781810Y-82731408D02*
X207781810Y-88656223D01*
X207781810Y-88656223D02*
X207781810Y-89221908D01*
X207518000Y-80264000D02*
X207518000Y-82467598D01*
X214052401Y-87306401D02*
X213727399Y-86981399D01*
X215981401Y-87306401D02*
X214052401Y-87306401D01*
X217181802Y-86106000D02*
X215981401Y-87306401D01*
X213727399Y-86981399D02*
X212877400Y-86131400D01*
X220472000Y-86131400D02*
X220446600Y-86106000D01*
X220446600Y-86106000D02*
X217181802Y-86106000D01*
X211328000Y-84582000D02*
X212877400Y-86131400D01*
X211328000Y-78486000D02*
X211328000Y-84582000D01*
X119989600Y-114477800D02*
X120142000Y-114325400D01*
X119342001Y-113754001D02*
X120142000Y-114554000D01*
X119016999Y-108933999D02*
X119016999Y-113428999D01*
X120142000Y-107808998D02*
X119016999Y-108933999D01*
X119016999Y-113428999D02*
X119342001Y-113754001D01*
X120142000Y-106934000D02*
X120142000Y-107808998D01*
X174244000Y-102870000D02*
X174606001Y-102507999D01*
X174606001Y-102507999D02*
X175006000Y-102108000D01*
X173990000Y-105156000D02*
X174244000Y-104902000D01*
X174244000Y-104902000D02*
X174244000Y-102870000D01*
X188722000Y-78289685D02*
X188722000Y-77724000D01*
X188722000Y-88493600D02*
X188722000Y-78289685D01*
X190677800Y-90449400D02*
X188722000Y-88493600D01*
X193294000Y-90989677D02*
X193294000Y-100780315D01*
X193294001Y-90423991D02*
X193294000Y-90989677D01*
X193294000Y-100780315D02*
X193294000Y-101346000D01*
X120142000Y-106934000D02*
X120142000Y-105156000D01*
X193076992Y-115279008D02*
X193076992Y-115119685D01*
X193040000Y-115316000D02*
X193076992Y-115279008D01*
X193294000Y-101346000D02*
X193294000Y-114336992D01*
X193294000Y-114336992D02*
X193076992Y-114554000D01*
X193076992Y-115119685D02*
X193076992Y-114554000D01*
X213727399Y-79361399D02*
X212877400Y-78511400D01*
X214052401Y-79686401D02*
X213727399Y-79361399D01*
X215981401Y-79686401D02*
X214052401Y-79686401D01*
X217156402Y-78511400D02*
X215981401Y-79686401D01*
X220472000Y-78511400D02*
X217156402Y-78511400D01*
X104140000Y-51054000D02*
X104140000Y-44921000D01*
X104140000Y-44921000D02*
X104357000Y-44704000D01*
X124931010Y-79719010D02*
X124968000Y-79756000D01*
X124931010Y-51308000D02*
X124931010Y-79719010D01*
X213727399Y-76821399D02*
X212877400Y-75971400D01*
X214052401Y-77146401D02*
X213727399Y-76821399D01*
X215981401Y-77146401D02*
X214052401Y-77146401D01*
X217156402Y-75971400D02*
X215981401Y-77146401D01*
X220472000Y-75971400D02*
X217156402Y-75971400D01*
X183388000Y-62484000D02*
X183388000Y-75844968D01*
X131281001Y-36539001D02*
X131064000Y-36322000D01*
X131064000Y-62992000D02*
X131463999Y-62592001D01*
X131463999Y-36721999D02*
X131281001Y-36539001D01*
X131463999Y-62592001D02*
X131463999Y-36721999D01*
X214052401Y-74606401D02*
X213727399Y-74281399D01*
X215981401Y-74606401D02*
X214052401Y-74606401D01*
X217156402Y-73431400D02*
X215981401Y-74606401D01*
X213727399Y-74281399D02*
X212877400Y-73431400D01*
X220472000Y-73431400D02*
X217156402Y-73431400D01*
X171450000Y-59944000D02*
X171450000Y-74929994D01*
X128668991Y-59036001D02*
X128668991Y-35415009D01*
X128668991Y-35415009D02*
X129032000Y-35052000D01*
X129068990Y-59436000D02*
X128668991Y-59036001D01*
X213727399Y-71741399D02*
X212877400Y-70891400D01*
X214052401Y-72066401D02*
X213727399Y-71741399D01*
X215981401Y-72066401D02*
X214052401Y-72066401D01*
X217156402Y-70891400D02*
X215981401Y-72066401D01*
X220472000Y-70891400D02*
X217156402Y-70891400D01*
X105410000Y-55880000D02*
X105410000Y-42672000D01*
X105410000Y-42672000D02*
X104902000Y-42164000D01*
X190754000Y-70612004D02*
X190754000Y-58096771D01*
X190754000Y-58096771D02*
X190971010Y-57879761D01*
X215981401Y-69526401D02*
X214052401Y-69526401D01*
X214052401Y-69526401D02*
X213727399Y-69201399D01*
X216306403Y-69201399D02*
X215981401Y-69526401D01*
X213727399Y-69201399D02*
X212877400Y-68351400D01*
X219622001Y-69201399D02*
X216306403Y-69201399D01*
X220472000Y-68351400D02*
X219622001Y-69201399D01*
X172466000Y-69596000D02*
X172466000Y-65315000D01*
X172466000Y-65315000D02*
X172175000Y-65024000D01*
X161798000Y-69596000D02*
X161798000Y-65024000D01*
X136397998Y-66598798D02*
X136397998Y-69030315D01*
X136397998Y-69030315D02*
X136397998Y-69596000D01*
X135077200Y-65278000D02*
X136397998Y-66598798D01*
X130301998Y-65220311D02*
X130301998Y-39681689D01*
X130301998Y-39681689D02*
X130302002Y-39681685D01*
X130556002Y-65474315D02*
X130301998Y-65220311D01*
X130556002Y-66040000D02*
X130556002Y-65474315D01*
X130302002Y-39681685D02*
X130302002Y-39116000D01*
X213727399Y-64121399D02*
X212877400Y-63271400D01*
X214052401Y-64446401D02*
X213727399Y-64121399D01*
X215981401Y-64446401D02*
X214052401Y-64446401D01*
X217156402Y-63271400D02*
X215981401Y-64446401D01*
X220472000Y-63271400D02*
X217156402Y-63271400D01*
X195326000Y-63246000D02*
X195326000Y-59944000D01*
X111760000Y-42164000D02*
X111760000Y-57912000D01*
X111868001Y-58020001D02*
X112268000Y-58420000D01*
X111760000Y-57912000D02*
X111868001Y-58020001D01*
X214052401Y-61906401D02*
X213727399Y-61581399D01*
X213727399Y-61581399D02*
X212877400Y-60731400D01*
X215981401Y-61906401D02*
X214052401Y-61906401D01*
X217156402Y-60731400D02*
X215981401Y-61906401D01*
X220472000Y-60731400D02*
X217156402Y-60731400D01*
X107188000Y-63246000D02*
X107188000Y-39624000D01*
X213727399Y-59041399D02*
X212877400Y-58191400D01*
X214052401Y-59366401D02*
X213727399Y-59041399D01*
X215981401Y-59366401D02*
X214052401Y-59366401D01*
X217156402Y-58191400D02*
X215981401Y-59366401D01*
X220472000Y-58191400D02*
X217156402Y-58191400D01*
X106172000Y-68834000D02*
X106172000Y-37084000D01*
X193257010Y-67818000D02*
X193257010Y-67252315D01*
X193257010Y-67252315D02*
X193257010Y-58166000D01*
X213727399Y-56501399D02*
X212877400Y-55651400D01*
X215981401Y-56826401D02*
X214052401Y-56826401D01*
X214052401Y-56826401D02*
X213727399Y-56501399D01*
X217156402Y-55651400D02*
X215981401Y-56826401D01*
X220472000Y-55651400D02*
X217156402Y-55651400D01*
X194310000Y-65278000D02*
X194310000Y-56134000D01*
X194310000Y-56134000D02*
X194056000Y-55880000D01*
X111106001Y-65894001D02*
X111506000Y-66294000D01*
X111034999Y-40095001D02*
X111034999Y-65822999D01*
X111034999Y-65822999D02*
X111106001Y-65894001D01*
X111506000Y-39624000D02*
X111034999Y-40095001D01*
X214052401Y-54286401D02*
X212877400Y-53111400D01*
X215981401Y-54286401D02*
X214052401Y-54286401D01*
X220472000Y-53111400D02*
X217156402Y-53111400D01*
X217156402Y-53111400D02*
X215981401Y-54286401D01*
X197637400Y-53111400D02*
X197637400Y-77343568D01*
X197637400Y-77343568D02*
X197612000Y-77368968D01*
X215981401Y-51746401D02*
X214052401Y-51746401D01*
X214052401Y-51746401D02*
X213727399Y-51421399D01*
X217156402Y-50571400D02*
X215981401Y-51746401D01*
X213727399Y-51421399D02*
X212877400Y-50571400D01*
X220472000Y-50571400D02*
X217156402Y-50571400D01*
X115570000Y-109474000D02*
X115570000Y-127762000D01*
X193548000Y-87064315D02*
X193548000Y-87630000D01*
X196088000Y-50800000D02*
X196088000Y-72390000D01*
X193548000Y-74930000D02*
X193548000Y-87064315D01*
X196088000Y-72390000D02*
X193548000Y-74930000D01*
X193947999Y-88029999D02*
X193548000Y-87630000D01*
X194056000Y-105918000D02*
X194056000Y-88138000D01*
X194056000Y-88138000D02*
X193947999Y-88029999D01*
X193910001Y-116694001D02*
X194310000Y-117094000D01*
X193802000Y-106737685D02*
X193802000Y-116586000D01*
X194056000Y-106483685D02*
X193802000Y-106737685D01*
X193802000Y-116586000D02*
X193910001Y-116694001D01*
X194056000Y-105918000D02*
X194056000Y-106483685D01*
X194310000Y-117493999D02*
X194310000Y-117094000D01*
X194310000Y-119597001D02*
X194310000Y-117493999D01*
X194310000Y-119634000D02*
X194310000Y-125750999D01*
X213727399Y-48881399D02*
X212877400Y-48031400D01*
X214052401Y-49206401D02*
X213727399Y-48881399D01*
X215981401Y-49206401D02*
X214052401Y-49206401D01*
X217156402Y-48031400D02*
X215981401Y-49206401D01*
X220472000Y-48031400D02*
X217156402Y-48031400D01*
X174780800Y-34723400D02*
X173730800Y-34723400D01*
X175768000Y-35710600D02*
X174780800Y-34723400D01*
X175768000Y-49530000D02*
X175768000Y-35710600D01*
X194605000Y-108908315D02*
X194813344Y-108699971D01*
X194813344Y-108699971D02*
X194813344Y-86101344D01*
X194605000Y-109474000D02*
X194605000Y-108908315D01*
X194709999Y-85997999D02*
X194310000Y-85598000D01*
X194813344Y-86101344D02*
X194709999Y-85997999D01*
X189504689Y-84196289D02*
X189504689Y-77433685D01*
X190246000Y-68133202D02*
X190246000Y-51816000D01*
X189230000Y-69149202D02*
X190246000Y-68133202D01*
X189504689Y-77433685D02*
X189230000Y-77158996D01*
X189230000Y-77158996D02*
X189230000Y-69149202D01*
X190677800Y-85369400D02*
X189504689Y-84196289D01*
X190246000Y-51816000D02*
X190246000Y-43942000D01*
X190246000Y-43942000D02*
X190500000Y-43688000D01*
X187452000Y-48513992D02*
X187451992Y-48514000D01*
X187452000Y-43688000D02*
X187452000Y-48513992D01*
X213727399Y-46341399D02*
X212877400Y-45491400D01*
X214052401Y-46666401D02*
X213727399Y-46341399D01*
X215981401Y-46666401D02*
X214052401Y-46666401D01*
X217156402Y-45491400D02*
X215981401Y-46666401D01*
X220472000Y-45491400D02*
X217156402Y-45491400D01*
X196850000Y-54610000D02*
X196850000Y-72898000D01*
X195072000Y-74676000D02*
X195072000Y-82238315D01*
X196850000Y-72898000D02*
X195072000Y-74676000D01*
X195072000Y-82238315D02*
X195072000Y-82804000D01*
X195326000Y-85659500D02*
X195072000Y-85405500D01*
X195072000Y-83369685D02*
X195072000Y-82804000D01*
X195326000Y-100780337D02*
X195326000Y-85659500D01*
X195580000Y-101600022D02*
X195580000Y-101034337D01*
X195072000Y-85405500D02*
X195072000Y-83369685D01*
X195580000Y-101034337D02*
X195326000Y-100780337D01*
X192532000Y-102395070D02*
X192207940Y-102071010D01*
X192532000Y-106934000D02*
X192532000Y-102395070D01*
X191770000Y-45516800D02*
X191795400Y-45491400D01*
X191770000Y-54864000D02*
X191770000Y-45516800D01*
X191516000Y-45212000D02*
X191795400Y-45491400D01*
X191008000Y-39624000D02*
X191516000Y-40132000D01*
X191516000Y-40132000D02*
X191516000Y-45212000D01*
X213727399Y-43801399D02*
X212877400Y-42951400D01*
X214052401Y-44126401D02*
X213727399Y-43801399D01*
X215981401Y-44126401D02*
X214052401Y-44126401D01*
X217156402Y-42951400D02*
X215981401Y-44126401D01*
X220472000Y-42951400D02*
X217156402Y-42951400D01*
X192532000Y-80988696D02*
X192532000Y-80423011D01*
X192532000Y-99625002D02*
X192532000Y-80988696D01*
X190550800Y-104444800D02*
X190550800Y-101606202D01*
X190550800Y-101606202D02*
X192532000Y-99625002D01*
X192532000Y-80423011D02*
X192532000Y-54159002D01*
X195300600Y-51390402D02*
X195300600Y-43517085D01*
X195300600Y-43517085D02*
X195300600Y-42951400D01*
X192532000Y-54159002D02*
X195300600Y-51390402D01*
X195300600Y-42951400D02*
X195300600Y-38633400D01*
X195300600Y-38633400D02*
X195326000Y-38608000D01*
X214052401Y-41586401D02*
X212877400Y-40411400D01*
X215981401Y-41586401D02*
X214052401Y-41586401D01*
X220472000Y-40411400D02*
X217156402Y-40411400D01*
X217156402Y-40411400D02*
X215981401Y-41586401D01*
X152654000Y-48514000D02*
X152654000Y-36281000D01*
X152654000Y-36281000D02*
X152867000Y-36068000D01*
X192024000Y-44646998D02*
X192024000Y-40513920D01*
X192024000Y-40513920D02*
X192164469Y-40373451D01*
X192641009Y-45264007D02*
X192024000Y-44646998D01*
X192641009Y-46532316D02*
X192641009Y-45264007D01*
X192495010Y-46678315D02*
X192641009Y-46532316D01*
X192495010Y-47244000D02*
X192495010Y-46678315D01*
X192164469Y-40373451D02*
X192164469Y-39807766D01*
X192024000Y-96875600D02*
X192024000Y-98494317D01*
X191770000Y-98748317D02*
X191770000Y-99314002D01*
X192024000Y-98494317D02*
X191770000Y-98748317D01*
X190677800Y-95529400D02*
X192024000Y-96875600D01*
X216267399Y-82741401D02*
X215417400Y-83591400D01*
X216782399Y-82226401D02*
X216267399Y-82741401D01*
X221647001Y-82226401D02*
X216782399Y-82226401D01*
X223012000Y-83591400D02*
X221647001Y-82226401D01*
X213727399Y-84441399D02*
X212877400Y-83591400D01*
X214052401Y-84766401D02*
X213727399Y-84441399D01*
X215981401Y-84766401D02*
X214052401Y-84766401D01*
X217156402Y-83591400D02*
X215981401Y-84766401D01*
X220472000Y-83591400D02*
X217156402Y-83591400D01*
X216267399Y-80201401D02*
X215417400Y-81051400D01*
X216592401Y-79876399D02*
X216267399Y-80201401D01*
X221836999Y-79876399D02*
X216592401Y-79876399D01*
X223012000Y-81051400D02*
X221836999Y-79876399D01*
X217144600Y-81051400D02*
X219269919Y-81051400D01*
X219269919Y-81051400D02*
X220472000Y-81051400D01*
X215969599Y-82226401D02*
X217144600Y-81051400D01*
X214052401Y-82226401D02*
X215969599Y-82226401D01*
X212877400Y-81051400D02*
X214052401Y-82226401D01*
X216267399Y-77661401D02*
X215417400Y-78511400D01*
X216592401Y-77336399D02*
X216267399Y-77661401D01*
X221836999Y-77336399D02*
X216592401Y-77336399D01*
X223012000Y-78511400D02*
X221836999Y-77336399D01*
X216267399Y-72581401D02*
X215417400Y-73431400D01*
X221836999Y-72256399D02*
X216592401Y-72256399D01*
X216592401Y-72256399D02*
X216267399Y-72581401D01*
X223012000Y-73431400D02*
X221836999Y-72256399D01*
X181360653Y-73410653D02*
X181360653Y-75433347D01*
X181360653Y-75433347D02*
X181356000Y-75438000D01*
X138684000Y-75946000D02*
X138684000Y-50800000D01*
X138684000Y-50800000D02*
X138938000Y-50546000D01*
X216267399Y-70041401D02*
X215417400Y-70891400D01*
X216592401Y-69716399D02*
X216267399Y-70041401D01*
X221836999Y-69716399D02*
X216592401Y-69716399D01*
X223012000Y-70891400D02*
X221836999Y-69716399D01*
X213727399Y-66661399D02*
X212877400Y-65811400D01*
X214052401Y-66986401D02*
X213727399Y-66661399D01*
X218094918Y-66986401D02*
X214052401Y-66986401D01*
X219269919Y-65811400D02*
X218094918Y-66986401D01*
X220472000Y-65811400D02*
X219269919Y-65811400D01*
X147523200Y-36347400D02*
X147523200Y-44704000D01*
X147574000Y-44754800D02*
X147523200Y-44704000D01*
X147574000Y-47752000D02*
X147574000Y-44754800D01*
X192278000Y-119634000D02*
X192278000Y-123954089D01*
X192278000Y-123954089D02*
X192526296Y-124202385D01*
X144258187Y-124637800D02*
X144258187Y-38086187D01*
X144163999Y-37991999D02*
X143764000Y-37592000D01*
X144258187Y-38086187D02*
X144163999Y-37991999D01*
X114808000Y-120650000D02*
X114808000Y-101403002D01*
X113792000Y-87826998D02*
X113792000Y-68129685D01*
X114808000Y-101403002D02*
X115787001Y-100424001D01*
X113792000Y-68129685D02*
X113792000Y-67564000D01*
X115787001Y-100424001D02*
X115787001Y-89821999D01*
X115787001Y-89821999D02*
X113792000Y-87826998D01*
X137922000Y-36525200D02*
X137718800Y-36322000D01*
X137922000Y-55118000D02*
X137922000Y-36525200D01*
X101346000Y-116586000D02*
X101346000Y-120168800D01*
X89120000Y-107111800D02*
X90170000Y-107111800D01*
X88138000Y-108093800D02*
X89120000Y-107111800D01*
X88138000Y-116586000D02*
X88138000Y-108093800D01*
X129540000Y-105918000D02*
X129540000Y-114554000D01*
X129032000Y-105410000D02*
X129540000Y-105918000D01*
X129032000Y-103159998D02*
X129032000Y-105410000D01*
X128887001Y-103014999D02*
X129032000Y-103159998D01*
X127762000Y-63500000D02*
X128887001Y-64625001D01*
X128887001Y-64625001D02*
X128887001Y-103014999D01*
X125984000Y-109361002D02*
X125984000Y-76200000D01*
X127762000Y-112014000D02*
X125984000Y-110236000D01*
X125984000Y-110236000D02*
X125984000Y-109361002D01*
X122174000Y-61942000D02*
X122174000Y-74422000D01*
X120142000Y-60960000D02*
X121192000Y-60960000D01*
X121192000Y-60960000D02*
X122174000Y-61942000D01*
X129794000Y-74676000D02*
X129794000Y-101854000D01*
X130265001Y-121932211D02*
X130021754Y-122175458D01*
X129794000Y-101854000D02*
X130265001Y-102325001D01*
X130265001Y-102325001D02*
X130265001Y-121932211D01*
M02*
