G04 #@! TF.GenerationSoftware,KiCad,Pcbnew,5.1.4-e60b266~84~ubuntu18.04.1*
G04 #@! TF.CreationDate,2022-01-19T21:44:38+01:00*
G04 #@! TF.ProjectId,Serial_Mem_MPF-B,53657269-616c-45f4-9d65-6d5f4d50462d,rev?*
G04 #@! TF.SameCoordinates,Original*
G04 #@! TF.FileFunction,Legend,Top*
G04 #@! TF.FilePolarity,Positive*
%FSLAX46Y46*%
G04 Gerber Fmt 4.6, Leading zero omitted, Abs format (unit mm)*
G04 Created by KiCad (PCBNEW 5.1.4-e60b266~84~ubuntu18.04.1) date 2022-01-19 21:44:38*
%MOMM*%
%LPD*%
G04 APERTURE LIST*
%ADD10C,0.300000*%
%ADD11C,0.250000*%
%ADD12C,0.150000*%
%ADD13C,0.010000*%
%ADD14C,0.120000*%
G04 APERTURE END LIST*
D10*
X135192000Y-77870857D02*
X135692000Y-77870857D01*
X135906285Y-78656571D02*
X135192000Y-78656571D01*
X135192000Y-77156571D01*
X135906285Y-77156571D01*
X137406285Y-78513714D02*
X137334857Y-78585142D01*
X137120571Y-78656571D01*
X136977714Y-78656571D01*
X136763428Y-78585142D01*
X136620571Y-78442285D01*
X136549142Y-78299428D01*
X136477714Y-78013714D01*
X136477714Y-77799428D01*
X136549142Y-77513714D01*
X136620571Y-77370857D01*
X136763428Y-77228000D01*
X136977714Y-77156571D01*
X137120571Y-77156571D01*
X137334857Y-77228000D01*
X137406285Y-77299428D01*
X138049142Y-78085142D02*
X139192000Y-78085142D01*
X139906285Y-77870857D02*
X140406285Y-77870857D01*
X140620571Y-78656571D02*
X139906285Y-78656571D01*
X139906285Y-77156571D01*
X140620571Y-77156571D01*
X141763428Y-77870857D02*
X141263428Y-77870857D01*
X141263428Y-78656571D02*
X141263428Y-77156571D01*
X141977714Y-77156571D01*
X142549142Y-78656571D02*
X142549142Y-77156571D01*
X143192000Y-78656571D02*
X143192000Y-77870857D01*
X143120571Y-77728000D01*
X142977714Y-77656571D01*
X142763428Y-77656571D01*
X142620571Y-77728000D01*
X142549142Y-77799428D01*
X85117714Y-70806000D02*
X85189142Y-70877428D01*
X85260571Y-71091714D01*
X85260571Y-71234571D01*
X85189142Y-71448857D01*
X85046285Y-71591714D01*
X84903428Y-71663142D01*
X84617714Y-71734571D01*
X84403428Y-71734571D01*
X84117714Y-71663142D01*
X83974857Y-71591714D01*
X83832000Y-71448857D01*
X83760571Y-71234571D01*
X83760571Y-71091714D01*
X83832000Y-70877428D01*
X83903428Y-70806000D01*
X85260571Y-70163142D02*
X83760571Y-70163142D01*
X85260571Y-69520285D02*
X84474857Y-69520285D01*
X84332000Y-69591714D01*
X84260571Y-69734571D01*
X84260571Y-69948857D01*
X84332000Y-70091714D01*
X84403428Y-70163142D01*
X84832000Y-67734571D02*
X84832000Y-67020285D01*
X85260571Y-67877428D02*
X83760571Y-67377428D01*
X85260571Y-66877428D01*
X83760571Y-65448857D02*
X83760571Y-64591714D01*
X85260571Y-65020285D02*
X83760571Y-65020285D01*
X83760571Y-64306000D02*
X83760571Y-63448857D01*
X85260571Y-63877428D02*
X83760571Y-63877428D01*
X85260571Y-62234571D02*
X85260571Y-62948857D01*
X83760571Y-62948857D01*
D11*
X174175114Y-73117971D02*
X174365590Y-73117971D01*
X174556066Y-73189400D01*
X174651304Y-73260828D01*
X174746542Y-73403685D01*
X174841780Y-73689400D01*
X174841780Y-74046542D01*
X174746542Y-74332257D01*
X174651304Y-74475114D01*
X174556066Y-74546542D01*
X174365590Y-74617971D01*
X174175114Y-74617971D01*
X173984638Y-74546542D01*
X173889400Y-74475114D01*
X173794161Y-74332257D01*
X173698923Y-74046542D01*
X173698923Y-73689400D01*
X173794161Y-73403685D01*
X173889400Y-73260828D01*
X173984638Y-73189400D01*
X174175114Y-73117971D01*
X176079876Y-73117971D02*
X176270352Y-73117971D01*
X176460828Y-73189400D01*
X176556066Y-73260828D01*
X176651304Y-73403685D01*
X176746542Y-73689400D01*
X176746542Y-74046542D01*
X176651304Y-74332257D01*
X176556066Y-74475114D01*
X176460828Y-74546542D01*
X176270352Y-74617971D01*
X176079876Y-74617971D01*
X175889400Y-74546542D01*
X175794161Y-74475114D01*
X175698923Y-74332257D01*
X175603685Y-74046542D01*
X175603685Y-73689400D01*
X175698923Y-73403685D01*
X175794161Y-73260828D01*
X175889400Y-73189400D01*
X176079876Y-73117971D01*
X177984638Y-73117971D02*
X178175114Y-73117971D01*
X178365590Y-73189400D01*
X178460828Y-73260828D01*
X178556066Y-73403685D01*
X178651304Y-73689400D01*
X178651304Y-74046542D01*
X178556066Y-74332257D01*
X178460828Y-74475114D01*
X178365590Y-74546542D01*
X178175114Y-74617971D01*
X177984638Y-74617971D01*
X177794161Y-74546542D01*
X177698923Y-74475114D01*
X177603685Y-74332257D01*
X177508447Y-74046542D01*
X177508447Y-73689400D01*
X177603685Y-73403685D01*
X177698923Y-73260828D01*
X177794161Y-73189400D01*
X177984638Y-73117971D01*
X179889400Y-73117971D02*
X180079876Y-73117971D01*
X180270352Y-73189400D01*
X180365590Y-73260828D01*
X180460828Y-73403685D01*
X180556066Y-73689400D01*
X180556066Y-74046542D01*
X180460828Y-74332257D01*
X180365590Y-74475114D01*
X180270352Y-74546542D01*
X180079876Y-74617971D01*
X179889400Y-74617971D01*
X179698923Y-74546542D01*
X179603685Y-74475114D01*
X179508447Y-74332257D01*
X179413209Y-74046542D01*
X179413209Y-73689400D01*
X179508447Y-73403685D01*
X179603685Y-73260828D01*
X179698923Y-73189400D01*
X179889400Y-73117971D01*
X181413209Y-74046542D02*
X182937019Y-74046542D01*
X183698923Y-73117971D02*
X185032257Y-73117971D01*
X184175114Y-74617971D01*
X186460828Y-73832257D02*
X185794161Y-73832257D01*
X185794161Y-74617971D02*
X185794161Y-73117971D01*
X186746542Y-73117971D01*
X188175114Y-73832257D02*
X187508447Y-73832257D01*
X187508447Y-74617971D02*
X187508447Y-73117971D01*
X188460828Y-73117971D01*
X189889400Y-73832257D02*
X189222733Y-73832257D01*
X189222733Y-74617971D02*
X189222733Y-73117971D01*
X190175114Y-73117971D01*
X154667914Y-74040228D02*
X154477438Y-73968800D01*
X154382200Y-73897371D01*
X154286961Y-73754514D01*
X154286961Y-73683085D01*
X154382200Y-73540228D01*
X154477438Y-73468800D01*
X154667914Y-73397371D01*
X155048866Y-73397371D01*
X155239342Y-73468800D01*
X155334580Y-73540228D01*
X155429819Y-73683085D01*
X155429819Y-73754514D01*
X155334580Y-73897371D01*
X155239342Y-73968800D01*
X155048866Y-74040228D01*
X154667914Y-74040228D01*
X154477438Y-74111657D01*
X154382200Y-74183085D01*
X154286961Y-74325942D01*
X154286961Y-74611657D01*
X154382200Y-74754514D01*
X154477438Y-74825942D01*
X154667914Y-74897371D01*
X155048866Y-74897371D01*
X155239342Y-74825942D01*
X155334580Y-74754514D01*
X155429819Y-74611657D01*
X155429819Y-74325942D01*
X155334580Y-74183085D01*
X155239342Y-74111657D01*
X155048866Y-74040228D01*
X156667914Y-73397371D02*
X156858390Y-73397371D01*
X157048866Y-73468800D01*
X157144104Y-73540228D01*
X157239342Y-73683085D01*
X157334580Y-73968800D01*
X157334580Y-74325942D01*
X157239342Y-74611657D01*
X157144104Y-74754514D01*
X157048866Y-74825942D01*
X156858390Y-74897371D01*
X156667914Y-74897371D01*
X156477438Y-74825942D01*
X156382200Y-74754514D01*
X156286961Y-74611657D01*
X156191723Y-74325942D01*
X156191723Y-73968800D01*
X156286961Y-73683085D01*
X156382200Y-73540228D01*
X156477438Y-73468800D01*
X156667914Y-73397371D01*
X158572676Y-73397371D02*
X158763152Y-73397371D01*
X158953628Y-73468800D01*
X159048866Y-73540228D01*
X159144104Y-73683085D01*
X159239342Y-73968800D01*
X159239342Y-74325942D01*
X159144104Y-74611657D01*
X159048866Y-74754514D01*
X158953628Y-74825942D01*
X158763152Y-74897371D01*
X158572676Y-74897371D01*
X158382200Y-74825942D01*
X158286961Y-74754514D01*
X158191723Y-74611657D01*
X158096485Y-74325942D01*
X158096485Y-73968800D01*
X158191723Y-73683085D01*
X158286961Y-73540228D01*
X158382200Y-73468800D01*
X158572676Y-73397371D01*
X160477438Y-73397371D02*
X160667914Y-73397371D01*
X160858390Y-73468800D01*
X160953628Y-73540228D01*
X161048866Y-73683085D01*
X161144104Y-73968800D01*
X161144104Y-74325942D01*
X161048866Y-74611657D01*
X160953628Y-74754514D01*
X160858390Y-74825942D01*
X160667914Y-74897371D01*
X160477438Y-74897371D01*
X160286961Y-74825942D01*
X160191723Y-74754514D01*
X160096485Y-74611657D01*
X160001247Y-74325942D01*
X160001247Y-73968800D01*
X160096485Y-73683085D01*
X160191723Y-73540228D01*
X160286961Y-73468800D01*
X160477438Y-73397371D01*
X162001247Y-74325942D02*
X163525057Y-74325942D01*
X165144104Y-74111657D02*
X164477438Y-74111657D01*
X164477438Y-74897371D02*
X164477438Y-73397371D01*
X165429819Y-73397371D01*
X166858390Y-74111657D02*
X166191723Y-74111657D01*
X166191723Y-74897371D02*
X166191723Y-73397371D01*
X167144104Y-73397371D01*
X168572676Y-74111657D02*
X167906009Y-74111657D01*
X167906009Y-74897371D02*
X167906009Y-73397371D01*
X168858390Y-73397371D01*
X170286961Y-74111657D02*
X169620295Y-74111657D01*
X169620295Y-74897371D02*
X169620295Y-73397371D01*
X170572676Y-73397371D01*
D10*
X135120571Y-75838857D02*
X135620571Y-75838857D01*
X135834857Y-76624571D02*
X135120571Y-76624571D01*
X135120571Y-75124571D01*
X135834857Y-75124571D01*
X136692000Y-75767428D02*
X136549142Y-75696000D01*
X136477714Y-75624571D01*
X136406285Y-75481714D01*
X136406285Y-75410285D01*
X136477714Y-75267428D01*
X136549142Y-75196000D01*
X136692000Y-75124571D01*
X136977714Y-75124571D01*
X137120571Y-75196000D01*
X137192000Y-75267428D01*
X137263428Y-75410285D01*
X137263428Y-75481714D01*
X137192000Y-75624571D01*
X137120571Y-75696000D01*
X136977714Y-75767428D01*
X136692000Y-75767428D01*
X136549142Y-75838857D01*
X136477714Y-75910285D01*
X136406285Y-76053142D01*
X136406285Y-76338857D01*
X136477714Y-76481714D01*
X136549142Y-76553142D01*
X136692000Y-76624571D01*
X136977714Y-76624571D01*
X137120571Y-76553142D01*
X137192000Y-76481714D01*
X137263428Y-76338857D01*
X137263428Y-76053142D01*
X137192000Y-75910285D01*
X137120571Y-75838857D01*
X136977714Y-75767428D01*
X137906285Y-76053142D02*
X139049142Y-76053142D01*
X139763428Y-75838857D02*
X140263428Y-75838857D01*
X140477714Y-76624571D02*
X139763428Y-76624571D01*
X139763428Y-75124571D01*
X140477714Y-75124571D01*
X141620571Y-75838857D02*
X141834857Y-75910285D01*
X141906285Y-75981714D01*
X141977714Y-76124571D01*
X141977714Y-76338857D01*
X141906285Y-76481714D01*
X141834857Y-76553142D01*
X141692000Y-76624571D01*
X141120571Y-76624571D01*
X141120571Y-75124571D01*
X141620571Y-75124571D01*
X141763428Y-75196000D01*
X141834857Y-75267428D01*
X141906285Y-75410285D01*
X141906285Y-75553142D01*
X141834857Y-75696000D01*
X141763428Y-75767428D01*
X141620571Y-75838857D01*
X141120571Y-75838857D01*
X142620571Y-76624571D02*
X142620571Y-75124571D01*
X143263428Y-76624571D02*
X143263428Y-75838857D01*
X143192000Y-75696000D01*
X143049142Y-75624571D01*
X142834857Y-75624571D01*
X142692000Y-75696000D01*
X142620571Y-75767428D01*
X135156285Y-73552857D02*
X135656285Y-73552857D01*
X135870571Y-74338571D02*
X135156285Y-74338571D01*
X135156285Y-72838571D01*
X135870571Y-72838571D01*
X137156285Y-73338571D02*
X137156285Y-74338571D01*
X136799142Y-72767142D02*
X136442000Y-73838571D01*
X137370571Y-73838571D01*
X137942000Y-73767142D02*
X139084857Y-73767142D01*
X139799142Y-73552857D02*
X140299142Y-73552857D01*
X140513428Y-74338571D02*
X139799142Y-74338571D01*
X139799142Y-72838571D01*
X140513428Y-72838571D01*
X141013428Y-72838571D02*
X142013428Y-72838571D01*
X141370571Y-74338571D01*
X142584857Y-74338571D02*
X142584857Y-72838571D01*
X143227714Y-74338571D02*
X143227714Y-73552857D01*
X143156285Y-73410000D01*
X143013428Y-73338571D01*
X142799142Y-73338571D01*
X142656285Y-73410000D01*
X142584857Y-73481428D01*
X135156285Y-71012857D02*
X135656285Y-71012857D01*
X135870571Y-71798571D02*
X135156285Y-71798571D01*
X135156285Y-70298571D01*
X135870571Y-70298571D01*
X136799142Y-70298571D02*
X136942000Y-70298571D01*
X137084857Y-70370000D01*
X137156285Y-70441428D01*
X137227714Y-70584285D01*
X137299142Y-70870000D01*
X137299142Y-71227142D01*
X137227714Y-71512857D01*
X137156285Y-71655714D01*
X137084857Y-71727142D01*
X136942000Y-71798571D01*
X136799142Y-71798571D01*
X136656285Y-71727142D01*
X136584857Y-71655714D01*
X136513428Y-71512857D01*
X136442000Y-71227142D01*
X136442000Y-70870000D01*
X136513428Y-70584285D01*
X136584857Y-70441428D01*
X136656285Y-70370000D01*
X136799142Y-70298571D01*
X137942000Y-71227142D02*
X139084857Y-71227142D01*
X139799142Y-71012857D02*
X140299142Y-71012857D01*
X140513428Y-71798571D02*
X139799142Y-71798571D01*
X139799142Y-70298571D01*
X140513428Y-70298571D01*
X141013428Y-70298571D02*
X141942000Y-70298571D01*
X141442000Y-70870000D01*
X141656285Y-70870000D01*
X141799142Y-70941428D01*
X141870571Y-71012857D01*
X141942000Y-71155714D01*
X141942000Y-71512857D01*
X141870571Y-71655714D01*
X141799142Y-71727142D01*
X141656285Y-71798571D01*
X141227714Y-71798571D01*
X141084857Y-71727142D01*
X141013428Y-71655714D01*
X142584857Y-71798571D02*
X142584857Y-70298571D01*
X143227714Y-71798571D02*
X143227714Y-71012857D01*
X143156285Y-70870000D01*
X143013428Y-70798571D01*
X142799142Y-70798571D01*
X142656285Y-70870000D01*
X142584857Y-70941428D01*
X72925714Y-92868571D02*
X72997142Y-92940000D01*
X73068571Y-93154285D01*
X73068571Y-93297142D01*
X72997142Y-93511428D01*
X72854285Y-93654285D01*
X72711428Y-93725714D01*
X72425714Y-93797142D01*
X72211428Y-93797142D01*
X71925714Y-93725714D01*
X71782857Y-93654285D01*
X71640000Y-93511428D01*
X71568571Y-93297142D01*
X71568571Y-93154285D01*
X71640000Y-92940000D01*
X71711428Y-92868571D01*
X73068571Y-92225714D02*
X71568571Y-92225714D01*
X73068571Y-91582857D02*
X72282857Y-91582857D01*
X72140000Y-91654285D01*
X72068571Y-91797142D01*
X72068571Y-92011428D01*
X72140000Y-92154285D01*
X72211428Y-92225714D01*
X72640000Y-89797142D02*
X72640000Y-89082857D01*
X73068571Y-89940000D02*
X71568571Y-89440000D01*
X73068571Y-88940000D01*
X95480914Y-63039142D02*
X95552342Y-63110571D01*
X95623771Y-63324857D01*
X95623771Y-63467714D01*
X95552342Y-63682000D01*
X95409485Y-63824857D01*
X95266628Y-63896285D01*
X94980914Y-63967714D01*
X94766628Y-63967714D01*
X94480914Y-63896285D01*
X94338057Y-63824857D01*
X94195200Y-63682000D01*
X94123771Y-63467714D01*
X94123771Y-63324857D01*
X94195200Y-63110571D01*
X94266628Y-63039142D01*
X95623771Y-62396285D02*
X94123771Y-62396285D01*
X95623771Y-61753428D02*
X94838057Y-61753428D01*
X94695200Y-61824857D01*
X94623771Y-61967714D01*
X94623771Y-62182000D01*
X94695200Y-62324857D01*
X94766628Y-62396285D01*
X94838057Y-59396285D02*
X94909485Y-59182000D01*
X94980914Y-59110571D01*
X95123771Y-59039142D01*
X95338057Y-59039142D01*
X95480914Y-59110571D01*
X95552342Y-59182000D01*
X95623771Y-59324857D01*
X95623771Y-59896285D01*
X94123771Y-59896285D01*
X94123771Y-59396285D01*
X94195200Y-59253428D01*
X94266628Y-59182000D01*
X94409485Y-59110571D01*
X94552342Y-59110571D01*
X94695200Y-59182000D01*
X94766628Y-59253428D01*
X94838057Y-59396285D01*
X94838057Y-59896285D01*
X94123771Y-57467714D02*
X94123771Y-56610571D01*
X95623771Y-57039142D02*
X94123771Y-57039142D01*
X94123771Y-56324857D02*
X94123771Y-55467714D01*
X95623771Y-55896285D02*
X94123771Y-55896285D01*
X95623771Y-54253428D02*
X95623771Y-54967714D01*
X94123771Y-54967714D01*
X216532095Y-118977714D02*
X216613047Y-118734857D01*
X216613047Y-118330095D01*
X216532095Y-118168190D01*
X216451142Y-118087238D01*
X216289238Y-118006285D01*
X216127333Y-118006285D01*
X215965428Y-118087238D01*
X215884476Y-118168190D01*
X215803523Y-118330095D01*
X215722571Y-118653904D01*
X215641619Y-118815809D01*
X215560666Y-118896761D01*
X215398761Y-118977714D01*
X215236857Y-118977714D01*
X215074952Y-118896761D01*
X214994000Y-118815809D01*
X214913047Y-118653904D01*
X214913047Y-118249142D01*
X214994000Y-118006285D01*
X216532095Y-116630095D02*
X216613047Y-116792000D01*
X216613047Y-117115809D01*
X216532095Y-117277714D01*
X216370190Y-117358666D01*
X215722571Y-117358666D01*
X215560666Y-117277714D01*
X215479714Y-117115809D01*
X215479714Y-116792000D01*
X215560666Y-116630095D01*
X215722571Y-116549142D01*
X215884476Y-116549142D01*
X216046380Y-117358666D01*
X216613047Y-115820571D02*
X215479714Y-115820571D01*
X215803523Y-115820571D02*
X215641619Y-115739619D01*
X215560666Y-115658666D01*
X215479714Y-115496761D01*
X215479714Y-115334857D01*
X216613047Y-114768190D02*
X215479714Y-114768190D01*
X214913047Y-114768190D02*
X214994000Y-114849142D01*
X215074952Y-114768190D01*
X214994000Y-114687238D01*
X214913047Y-114768190D01*
X215074952Y-114768190D01*
X216613047Y-113230095D02*
X215722571Y-113230095D01*
X215560666Y-113311047D01*
X215479714Y-113472952D01*
X215479714Y-113796761D01*
X215560666Y-113958666D01*
X216532095Y-113230095D02*
X216613047Y-113392000D01*
X216613047Y-113796761D01*
X216532095Y-113958666D01*
X216370190Y-114039619D01*
X216208285Y-114039619D01*
X216046380Y-113958666D01*
X215965428Y-113796761D01*
X215965428Y-113392000D01*
X215884476Y-113230095D01*
X216613047Y-112177714D02*
X216532095Y-112339619D01*
X216370190Y-112420571D01*
X214913047Y-112420571D01*
X216774952Y-111934857D02*
X216774952Y-110639619D01*
X216613047Y-110234857D02*
X214913047Y-110234857D01*
X216127333Y-109668190D01*
X214913047Y-109101523D01*
X216613047Y-109101523D01*
X216532095Y-107644380D02*
X216613047Y-107806285D01*
X216613047Y-108130095D01*
X216532095Y-108292000D01*
X216370190Y-108372952D01*
X215722571Y-108372952D01*
X215560666Y-108292000D01*
X215479714Y-108130095D01*
X215479714Y-107806285D01*
X215560666Y-107644380D01*
X215722571Y-107563428D01*
X215884476Y-107563428D01*
X216046380Y-108372952D01*
X216613047Y-106834857D02*
X215479714Y-106834857D01*
X215641619Y-106834857D02*
X215560666Y-106753904D01*
X215479714Y-106592000D01*
X215479714Y-106349142D01*
X215560666Y-106187238D01*
X215722571Y-106106285D01*
X216613047Y-106106285D01*
X215722571Y-106106285D02*
X215560666Y-106025333D01*
X215479714Y-105863428D01*
X215479714Y-105620571D01*
X215560666Y-105458666D01*
X215722571Y-105377714D01*
X216613047Y-105377714D01*
X216774952Y-104972952D02*
X216774952Y-103677714D01*
X216613047Y-103272952D02*
X214913047Y-103272952D01*
X216127333Y-102706285D01*
X214913047Y-102139619D01*
X216613047Y-102139619D01*
X216613047Y-101330095D02*
X214913047Y-101330095D01*
X214913047Y-100682476D01*
X214994000Y-100520571D01*
X215074952Y-100439619D01*
X215236857Y-100358666D01*
X215479714Y-100358666D01*
X215641619Y-100439619D01*
X215722571Y-100520571D01*
X215803523Y-100682476D01*
X215803523Y-101330095D01*
X215722571Y-99063428D02*
X215722571Y-99630095D01*
X216613047Y-99630095D02*
X214913047Y-99630095D01*
X214913047Y-98820571D01*
X216774952Y-98577714D02*
X216774952Y-97282476D01*
X215722571Y-96311047D02*
X215803523Y-96068190D01*
X215884476Y-95987238D01*
X216046380Y-95906285D01*
X216289238Y-95906285D01*
X216451142Y-95987238D01*
X216532095Y-96068190D01*
X216613047Y-96230095D01*
X216613047Y-96877714D01*
X214913047Y-96877714D01*
X214913047Y-96311047D01*
X214994000Y-96149142D01*
X215074952Y-96068190D01*
X215236857Y-95987238D01*
X215398761Y-95987238D01*
X215560666Y-96068190D01*
X215641619Y-96149142D01*
X215722571Y-96311047D01*
X215722571Y-96877714D01*
X217763047Y-110032476D02*
X219463047Y-109465809D01*
X217763047Y-108899142D01*
X219463047Y-107442000D02*
X219463047Y-108413428D01*
X219463047Y-107927714D02*
X217763047Y-107927714D01*
X218005904Y-108089619D01*
X218167809Y-108251523D01*
X218248761Y-108413428D01*
X219301142Y-106713428D02*
X219382095Y-106632476D01*
X219463047Y-106713428D01*
X219382095Y-106794380D01*
X219301142Y-106713428D01*
X219463047Y-106713428D01*
X217924952Y-105984857D02*
X217844000Y-105903904D01*
X217763047Y-105742000D01*
X217763047Y-105337238D01*
X217844000Y-105175333D01*
X217924952Y-105094380D01*
X218086857Y-105013428D01*
X218248761Y-105013428D01*
X218491619Y-105094380D01*
X219463047Y-106065809D01*
X219463047Y-105013428D01*
X221422571Y-118330095D02*
X221422571Y-117763428D01*
X222313047Y-117520571D02*
X222313047Y-118330095D01*
X220613047Y-118330095D01*
X220613047Y-117520571D01*
X222313047Y-116549142D02*
X222232095Y-116711047D01*
X222070190Y-116792000D01*
X220613047Y-116792000D01*
X222232095Y-115253904D02*
X222313047Y-115415809D01*
X222313047Y-115739619D01*
X222232095Y-115901523D01*
X222070190Y-115982476D01*
X221422571Y-115982476D01*
X221260666Y-115901523D01*
X221179714Y-115739619D01*
X221179714Y-115415809D01*
X221260666Y-115253904D01*
X221422571Y-115172952D01*
X221584476Y-115172952D01*
X221746380Y-115982476D01*
X222232095Y-113715809D02*
X222313047Y-113877714D01*
X222313047Y-114201523D01*
X222232095Y-114363428D01*
X222151142Y-114444380D01*
X221989238Y-114525333D01*
X221503523Y-114525333D01*
X221341619Y-114444380D01*
X221260666Y-114363428D01*
X221179714Y-114201523D01*
X221179714Y-113877714D01*
X221260666Y-113715809D01*
X221179714Y-113230095D02*
X221179714Y-112582476D01*
X220613047Y-112987238D02*
X222070190Y-112987238D01*
X222232095Y-112906285D01*
X222313047Y-112744380D01*
X222313047Y-112582476D01*
X222313047Y-112015809D02*
X221179714Y-112015809D01*
X221503523Y-112015809D02*
X221341619Y-111934857D01*
X221260666Y-111853904D01*
X221179714Y-111692000D01*
X221179714Y-111530095D01*
X222313047Y-110963428D02*
X221179714Y-110963428D01*
X220613047Y-110963428D02*
X220694000Y-111044380D01*
X220774952Y-110963428D01*
X220694000Y-110882476D01*
X220613047Y-110963428D01*
X220774952Y-110963428D01*
X222232095Y-109425333D02*
X222313047Y-109587238D01*
X222313047Y-109911047D01*
X222232095Y-110072952D01*
X222151142Y-110153904D01*
X221989238Y-110234857D01*
X221503523Y-110234857D01*
X221341619Y-110153904D01*
X221260666Y-110072952D01*
X221179714Y-109911047D01*
X221179714Y-109587238D01*
X221260666Y-109425333D01*
X222313047Y-108696761D02*
X220613047Y-108696761D01*
X221665428Y-108534857D02*
X222313047Y-108049142D01*
X221179714Y-108049142D02*
X221827333Y-108696761D01*
X222232095Y-106672952D02*
X222313047Y-106834857D01*
X222313047Y-107158666D01*
X222232095Y-107320571D01*
X222070190Y-107401523D01*
X221422571Y-107401523D01*
X221260666Y-107320571D01*
X221179714Y-107158666D01*
X221179714Y-106834857D01*
X221260666Y-106672952D01*
X221422571Y-106592000D01*
X221584476Y-106592000D01*
X221746380Y-107401523D01*
X222313047Y-105863428D02*
X221179714Y-105863428D01*
X221503523Y-105863428D02*
X221341619Y-105782476D01*
X221260666Y-105701523D01*
X221179714Y-105539619D01*
X221179714Y-105377714D01*
X221179714Y-104972952D02*
X222313047Y-104568190D01*
X221179714Y-104163428D02*
X222313047Y-104568190D01*
X222717809Y-104730095D01*
X222798761Y-104811047D01*
X222879714Y-104972952D01*
X220774952Y-102301523D02*
X220694000Y-102220571D01*
X220613047Y-102058666D01*
X220613047Y-101653904D01*
X220694000Y-101492000D01*
X220774952Y-101411047D01*
X220936857Y-101330095D01*
X221098761Y-101330095D01*
X221341619Y-101411047D01*
X222313047Y-102382476D01*
X222313047Y-101330095D01*
X220613047Y-100277714D02*
X220613047Y-100115809D01*
X220694000Y-99953904D01*
X220774952Y-99872952D01*
X220936857Y-99792000D01*
X221260666Y-99711047D01*
X221665428Y-99711047D01*
X221989238Y-99792000D01*
X222151142Y-99872952D01*
X222232095Y-99953904D01*
X222313047Y-100115809D01*
X222313047Y-100277714D01*
X222232095Y-100439619D01*
X222151142Y-100520571D01*
X221989238Y-100601523D01*
X221665428Y-100682476D01*
X221260666Y-100682476D01*
X220936857Y-100601523D01*
X220774952Y-100520571D01*
X220694000Y-100439619D01*
X220613047Y-100277714D01*
X220774952Y-99063428D02*
X220694000Y-98982476D01*
X220613047Y-98820571D01*
X220613047Y-98415809D01*
X220694000Y-98253904D01*
X220774952Y-98172952D01*
X220936857Y-98092000D01*
X221098761Y-98092000D01*
X221341619Y-98172952D01*
X222313047Y-99144380D01*
X222313047Y-98092000D01*
X220774952Y-97444380D02*
X220694000Y-97363428D01*
X220613047Y-97201523D01*
X220613047Y-96796761D01*
X220694000Y-96634857D01*
X220774952Y-96553904D01*
X220936857Y-96472952D01*
X221098761Y-96472952D01*
X221341619Y-96553904D01*
X222313047Y-97525333D01*
X222313047Y-96472952D01*
X111381314Y-123760514D02*
X111452742Y-123831942D01*
X111524171Y-124046228D01*
X111524171Y-124189085D01*
X111452742Y-124403371D01*
X111309885Y-124546228D01*
X111167028Y-124617657D01*
X110881314Y-124689085D01*
X110667028Y-124689085D01*
X110381314Y-124617657D01*
X110238457Y-124546228D01*
X110095600Y-124403371D01*
X110024171Y-124189085D01*
X110024171Y-124046228D01*
X110095600Y-123831942D01*
X110167028Y-123760514D01*
X111524171Y-123117657D02*
X110024171Y-123117657D01*
X111524171Y-122474800D02*
X110738457Y-122474800D01*
X110595600Y-122546228D01*
X110524171Y-122689085D01*
X110524171Y-122903371D01*
X110595600Y-123046228D01*
X110667028Y-123117657D01*
X110738457Y-120117657D02*
X110809885Y-119903371D01*
X110881314Y-119831942D01*
X111024171Y-119760514D01*
X111238457Y-119760514D01*
X111381314Y-119831942D01*
X111452742Y-119903371D01*
X111524171Y-120046228D01*
X111524171Y-120617657D01*
X110024171Y-120617657D01*
X110024171Y-120117657D01*
X110095600Y-119974800D01*
X110167028Y-119903371D01*
X110309885Y-119831942D01*
X110452742Y-119831942D01*
X110595600Y-119903371D01*
X110667028Y-119974800D01*
X110738457Y-120117657D01*
X110738457Y-120617657D01*
X111381314Y-115017371D02*
X111452742Y-115088800D01*
X111524171Y-115303085D01*
X111524171Y-115445942D01*
X111452742Y-115660228D01*
X111309885Y-115803085D01*
X111167028Y-115874514D01*
X110881314Y-115945942D01*
X110667028Y-115945942D01*
X110381314Y-115874514D01*
X110238457Y-115803085D01*
X110095600Y-115660228D01*
X110024171Y-115445942D01*
X110024171Y-115303085D01*
X110095600Y-115088800D01*
X110167028Y-115017371D01*
X111524171Y-114374514D02*
X110024171Y-114374514D01*
X111524171Y-113731657D02*
X110738457Y-113731657D01*
X110595600Y-113803085D01*
X110524171Y-113945942D01*
X110524171Y-114160228D01*
X110595600Y-114303085D01*
X110667028Y-114374514D01*
X111095600Y-111945942D02*
X111095600Y-111231657D01*
X111524171Y-112088800D02*
X110024171Y-111588800D01*
X111524171Y-111088800D01*
X106899971Y-127782485D02*
X106899971Y-126782485D01*
X108399971Y-127425342D01*
X106899971Y-125496771D02*
X106899971Y-126211057D01*
X107614257Y-126282485D01*
X107542828Y-126211057D01*
X107471400Y-126068200D01*
X107471400Y-125711057D01*
X107542828Y-125568200D01*
X107614257Y-125496771D01*
X107757114Y-125425342D01*
X108114257Y-125425342D01*
X108257114Y-125496771D01*
X108328542Y-125568200D01*
X108399971Y-125711057D01*
X108399971Y-126068200D01*
X108328542Y-126211057D01*
X108257114Y-126282485D01*
X105961571Y-128254000D02*
X105961571Y-129111142D01*
X105961571Y-128682571D02*
X104461571Y-128682571D01*
X104675857Y-128825428D01*
X104818714Y-128968285D01*
X104890142Y-129111142D01*
X104461571Y-126896857D02*
X104461571Y-127611142D01*
X105175857Y-127682571D01*
X105104428Y-127611142D01*
X105033000Y-127468285D01*
X105033000Y-127111142D01*
X105104428Y-126968285D01*
X105175857Y-126896857D01*
X105318714Y-126825428D01*
X105675857Y-126825428D01*
X105818714Y-126896857D01*
X105890142Y-126968285D01*
X105961571Y-127111142D01*
X105961571Y-127468285D01*
X105890142Y-127611142D01*
X105818714Y-127682571D01*
X104461571Y-125896857D02*
X104461571Y-125754000D01*
X104533000Y-125611142D01*
X104604428Y-125539714D01*
X104747285Y-125468285D01*
X105033000Y-125396857D01*
X105390142Y-125396857D01*
X105675857Y-125468285D01*
X105818714Y-125539714D01*
X105890142Y-125611142D01*
X105961571Y-125754000D01*
X105961571Y-125896857D01*
X105890142Y-126039714D01*
X105818714Y-126111142D01*
X105675857Y-126182571D01*
X105390142Y-126254000D01*
X105033000Y-126254000D01*
X104747285Y-126182571D01*
X104604428Y-126111142D01*
X104533000Y-126039714D01*
X104461571Y-125896857D01*
X101921571Y-129182571D02*
X101921571Y-128254000D01*
X102493000Y-128754000D01*
X102493000Y-128539714D01*
X102564428Y-128396857D01*
X102635857Y-128325428D01*
X102778714Y-128254000D01*
X103135857Y-128254000D01*
X103278714Y-128325428D01*
X103350142Y-128396857D01*
X103421571Y-128539714D01*
X103421571Y-128968285D01*
X103350142Y-129111142D01*
X103278714Y-129182571D01*
X101921571Y-127325428D02*
X101921571Y-127182571D01*
X101993000Y-127039714D01*
X102064428Y-126968285D01*
X102207285Y-126896857D01*
X102493000Y-126825428D01*
X102850142Y-126825428D01*
X103135857Y-126896857D01*
X103278714Y-126968285D01*
X103350142Y-127039714D01*
X103421571Y-127182571D01*
X103421571Y-127325428D01*
X103350142Y-127468285D01*
X103278714Y-127539714D01*
X103135857Y-127611142D01*
X102850142Y-127682571D01*
X102493000Y-127682571D01*
X102207285Y-127611142D01*
X102064428Y-127539714D01*
X101993000Y-127468285D01*
X101921571Y-127325428D01*
X101921571Y-125896857D02*
X101921571Y-125754000D01*
X101993000Y-125611142D01*
X102064428Y-125539714D01*
X102207285Y-125468285D01*
X102493000Y-125396857D01*
X102850142Y-125396857D01*
X103135857Y-125468285D01*
X103278714Y-125539714D01*
X103350142Y-125611142D01*
X103421571Y-125754000D01*
X103421571Y-125896857D01*
X103350142Y-126039714D01*
X103278714Y-126111142D01*
X103135857Y-126182571D01*
X102850142Y-126254000D01*
X102493000Y-126254000D01*
X102207285Y-126182571D01*
X102064428Y-126111142D01*
X101993000Y-126039714D01*
X101921571Y-125896857D01*
X100881571Y-128146857D02*
X100881571Y-129004000D01*
X100881571Y-128575428D02*
X99381571Y-128575428D01*
X99595857Y-128718285D01*
X99738714Y-128861142D01*
X99810142Y-129004000D01*
X100881571Y-127504000D02*
X99381571Y-127504000D01*
X100310142Y-127361142D02*
X100881571Y-126932571D01*
X99881571Y-126932571D02*
X100453000Y-127504000D01*
X99524428Y-126361142D02*
X99453000Y-126289714D01*
X99381571Y-126146857D01*
X99381571Y-125789714D01*
X99453000Y-125646857D01*
X99524428Y-125575428D01*
X99667285Y-125504000D01*
X99810142Y-125504000D01*
X100024428Y-125575428D01*
X100881571Y-126432571D01*
X100881571Y-125504000D01*
X96984428Y-129004000D02*
X96913000Y-128932571D01*
X96841571Y-128789714D01*
X96841571Y-128432571D01*
X96913000Y-128289714D01*
X96984428Y-128218285D01*
X97127285Y-128146857D01*
X97270142Y-128146857D01*
X97484428Y-128218285D01*
X98341571Y-129075428D01*
X98341571Y-128146857D01*
X98341571Y-127504000D02*
X96841571Y-127504000D01*
X97770142Y-127361142D02*
X98341571Y-126932571D01*
X97341571Y-126932571D02*
X97913000Y-127504000D01*
X97341571Y-125646857D02*
X98341571Y-125646857D01*
X96770142Y-126004000D02*
X97841571Y-126361142D01*
X97841571Y-125432571D01*
X94801571Y-128289714D02*
X95801571Y-128289714D01*
X94230142Y-128646857D02*
X95301571Y-129004000D01*
X95301571Y-128075428D01*
X95801571Y-127504000D02*
X94301571Y-127504000D01*
X95230142Y-127361142D02*
X95801571Y-126932571D01*
X94801571Y-126932571D02*
X95373000Y-127504000D01*
X94944428Y-126075428D02*
X94873000Y-126218285D01*
X94801571Y-126289714D01*
X94658714Y-126361142D01*
X94587285Y-126361142D01*
X94444428Y-126289714D01*
X94373000Y-126218285D01*
X94301571Y-126075428D01*
X94301571Y-125789714D01*
X94373000Y-125646857D01*
X94444428Y-125575428D01*
X94587285Y-125504000D01*
X94658714Y-125504000D01*
X94801571Y-125575428D01*
X94873000Y-125646857D01*
X94944428Y-125789714D01*
X94944428Y-126075428D01*
X95015857Y-126218285D01*
X95087285Y-126289714D01*
X95230142Y-126361142D01*
X95515857Y-126361142D01*
X95658714Y-126289714D01*
X95730142Y-126218285D01*
X95801571Y-126075428D01*
X95801571Y-125789714D01*
X95730142Y-125646857D01*
X95658714Y-125575428D01*
X95515857Y-125504000D01*
X95230142Y-125504000D01*
X95087285Y-125575428D01*
X95015857Y-125646857D01*
X94944428Y-125789714D01*
X93261571Y-128861142D02*
X93261571Y-128575428D01*
X93190142Y-128432571D01*
X93118714Y-128361142D01*
X92904428Y-128218285D01*
X92618714Y-128146857D01*
X92047285Y-128146857D01*
X91904428Y-128218285D01*
X91833000Y-128289714D01*
X91761571Y-128432571D01*
X91761571Y-128718285D01*
X91833000Y-128861142D01*
X91904428Y-128932571D01*
X92047285Y-129004000D01*
X92404428Y-129004000D01*
X92547285Y-128932571D01*
X92618714Y-128861142D01*
X92690142Y-128718285D01*
X92690142Y-128432571D01*
X92618714Y-128289714D01*
X92547285Y-128218285D01*
X92404428Y-128146857D01*
X93261571Y-127504000D02*
X91761571Y-127504000D01*
X92690142Y-127361142D02*
X93261571Y-126932571D01*
X92261571Y-126932571D02*
X92833000Y-127504000D01*
X91761571Y-125646857D02*
X91761571Y-125932571D01*
X91833000Y-126075428D01*
X91904428Y-126146857D01*
X92118714Y-126289714D01*
X92404428Y-126361142D01*
X92975857Y-126361142D01*
X93118714Y-126289714D01*
X93190142Y-126218285D01*
X93261571Y-126075428D01*
X93261571Y-125789714D01*
X93190142Y-125646857D01*
X93118714Y-125575428D01*
X92975857Y-125504000D01*
X92618714Y-125504000D01*
X92475857Y-125575428D01*
X92404428Y-125646857D01*
X92333000Y-125789714D01*
X92333000Y-126075428D01*
X92404428Y-126218285D01*
X92475857Y-126289714D01*
X92618714Y-126361142D01*
X90746971Y-129572342D02*
X90746971Y-130429485D01*
X90746971Y-130000914D02*
X89246971Y-130000914D01*
X89461257Y-130143771D01*
X89604114Y-130286628D01*
X89675542Y-130429485D01*
X90746971Y-128858057D02*
X90746971Y-128572342D01*
X90675542Y-128429485D01*
X90604114Y-128358057D01*
X90389828Y-128215200D01*
X90104114Y-128143771D01*
X89532685Y-128143771D01*
X89389828Y-128215200D01*
X89318400Y-128286628D01*
X89246971Y-128429485D01*
X89246971Y-128715200D01*
X89318400Y-128858057D01*
X89389828Y-128929485D01*
X89532685Y-129000914D01*
X89889828Y-129000914D01*
X90032685Y-128929485D01*
X90104114Y-128858057D01*
X90175542Y-128715200D01*
X90175542Y-128429485D01*
X90104114Y-128286628D01*
X90032685Y-128215200D01*
X89889828Y-128143771D01*
X90746971Y-127500914D02*
X89246971Y-127500914D01*
X90175542Y-127358057D02*
X90746971Y-126929485D01*
X89746971Y-126929485D02*
X90318400Y-127500914D01*
X89389828Y-126358057D02*
X89318400Y-126286628D01*
X89246971Y-126143771D01*
X89246971Y-125786628D01*
X89318400Y-125643771D01*
X89389828Y-125572342D01*
X89532685Y-125500914D01*
X89675542Y-125500914D01*
X89889828Y-125572342D01*
X90746971Y-126429485D01*
X90746971Y-125500914D01*
D11*
X163566742Y-127856371D02*
X162900076Y-127142085D01*
X162423885Y-127856371D02*
X162423885Y-126356371D01*
X163185790Y-126356371D01*
X163376266Y-126427800D01*
X163471504Y-126499228D01*
X163566742Y-126642085D01*
X163566742Y-126856371D01*
X163471504Y-126999228D01*
X163376266Y-127070657D01*
X163185790Y-127142085D01*
X162423885Y-127142085D01*
X164423885Y-127070657D02*
X165090552Y-127070657D01*
X165376266Y-127856371D02*
X164423885Y-127856371D01*
X164423885Y-126356371D01*
X165376266Y-126356371D01*
X166138171Y-127427800D02*
X167090552Y-127427800D01*
X165947695Y-127856371D02*
X166614361Y-126356371D01*
X167281028Y-127856371D01*
X167947695Y-127856371D02*
X167947695Y-126356371D01*
X168423885Y-126356371D01*
X168709599Y-126427800D01*
X168900076Y-126570657D01*
X168995314Y-126713514D01*
X169090552Y-126999228D01*
X169090552Y-127213514D01*
X168995314Y-127499228D01*
X168900076Y-127642085D01*
X168709599Y-127784942D01*
X168423885Y-127856371D01*
X167947695Y-127856371D01*
X146469600Y-126356371D02*
X146945790Y-127856371D01*
X147326742Y-126784942D01*
X147707695Y-127856371D01*
X148183885Y-126356371D01*
X150088647Y-127856371D02*
X149421980Y-127142085D01*
X148945790Y-127856371D02*
X148945790Y-126356371D01*
X149707695Y-126356371D01*
X149898171Y-126427800D01*
X149993409Y-126499228D01*
X150088647Y-126642085D01*
X150088647Y-126856371D01*
X149993409Y-126999228D01*
X149898171Y-127070657D01*
X149707695Y-127142085D01*
X148945790Y-127142085D01*
X150945790Y-127856371D02*
X150945790Y-126356371D01*
X151612457Y-126356371D02*
X152755314Y-126356371D01*
X152183885Y-127856371D02*
X152183885Y-126356371D01*
X153421980Y-127070657D02*
X154088647Y-127070657D01*
X154374361Y-127856371D02*
X153421980Y-127856371D01*
X153421980Y-126356371D01*
X154374361Y-126356371D01*
D12*
X156115000Y-100036380D02*
X156781666Y-100036380D01*
X156353095Y-101036380D01*
X157067380Y-101036380D02*
X157591190Y-100369714D01*
X157067380Y-100369714D02*
X157591190Y-101036380D01*
X157876904Y-101036380D02*
X158400714Y-100369714D01*
X157876904Y-100369714D02*
X158400714Y-101036380D01*
X158686428Y-101036380D02*
X159210238Y-100369714D01*
X158686428Y-100369714D02*
X159210238Y-101036380D01*
X159591190Y-101036380D02*
X159591190Y-100036380D01*
X160019761Y-101036380D02*
X160019761Y-100512571D01*
X159972142Y-100417333D01*
X159876904Y-100369714D01*
X159734047Y-100369714D01*
X159638809Y-100417333D01*
X159591190Y-100464952D01*
X156638809Y-97496380D02*
X156448333Y-97496380D01*
X156353095Y-97544000D01*
X156305476Y-97591619D01*
X156210238Y-97734476D01*
X156162619Y-97924952D01*
X156162619Y-98305904D01*
X156210238Y-98401142D01*
X156257857Y-98448761D01*
X156353095Y-98496380D01*
X156543571Y-98496380D01*
X156638809Y-98448761D01*
X156686428Y-98401142D01*
X156734047Y-98305904D01*
X156734047Y-98067809D01*
X156686428Y-97972571D01*
X156638809Y-97924952D01*
X156543571Y-97877333D01*
X156353095Y-97877333D01*
X156257857Y-97924952D01*
X156210238Y-97972571D01*
X156162619Y-98067809D01*
X157067380Y-98496380D02*
X157591190Y-97829714D01*
X157067380Y-97829714D02*
X157591190Y-98496380D01*
X157876904Y-98496380D02*
X158400714Y-97829714D01*
X157876904Y-97829714D02*
X158400714Y-98496380D01*
X158686428Y-98496380D02*
X159210238Y-97829714D01*
X158686428Y-97829714D02*
X159210238Y-98496380D01*
X159591190Y-98496380D02*
X159591190Y-97496380D01*
X160019761Y-98496380D02*
X160019761Y-97972571D01*
X159972142Y-97877333D01*
X159876904Y-97829714D01*
X159734047Y-97829714D01*
X159638809Y-97877333D01*
X159591190Y-97924952D01*
X156686428Y-94956380D02*
X156210238Y-94956380D01*
X156162619Y-95432571D01*
X156210238Y-95384952D01*
X156305476Y-95337333D01*
X156543571Y-95337333D01*
X156638809Y-95384952D01*
X156686428Y-95432571D01*
X156734047Y-95527809D01*
X156734047Y-95765904D01*
X156686428Y-95861142D01*
X156638809Y-95908761D01*
X156543571Y-95956380D01*
X156305476Y-95956380D01*
X156210238Y-95908761D01*
X156162619Y-95861142D01*
X157067380Y-95956380D02*
X157591190Y-95289714D01*
X157067380Y-95289714D02*
X157591190Y-95956380D01*
X157876904Y-95956380D02*
X158400714Y-95289714D01*
X157876904Y-95289714D02*
X158400714Y-95956380D01*
X158686428Y-95956380D02*
X159210238Y-95289714D01*
X158686428Y-95289714D02*
X159210238Y-95956380D01*
X159591190Y-95956380D02*
X159591190Y-94956380D01*
X160019761Y-95956380D02*
X160019761Y-95432571D01*
X159972142Y-95337333D01*
X159876904Y-95289714D01*
X159734047Y-95289714D01*
X159638809Y-95337333D01*
X159591190Y-95384952D01*
X156638809Y-92749714D02*
X156638809Y-93416380D01*
X156400714Y-92368761D02*
X156162619Y-93083047D01*
X156781666Y-93083047D01*
X157067380Y-93416380D02*
X157591190Y-92749714D01*
X157067380Y-92749714D02*
X157591190Y-93416380D01*
X157876904Y-93416380D02*
X158400714Y-92749714D01*
X157876904Y-92749714D02*
X158400714Y-93416380D01*
X158686428Y-93416380D02*
X159210238Y-92749714D01*
X158686428Y-92749714D02*
X159210238Y-93416380D01*
X159591190Y-93416380D02*
X159591190Y-92416380D01*
X160019761Y-93416380D02*
X160019761Y-92892571D01*
X159972142Y-92797333D01*
X159876904Y-92749714D01*
X159734047Y-92749714D01*
X159638809Y-92797333D01*
X159591190Y-92844952D01*
X156115000Y-89876380D02*
X156734047Y-89876380D01*
X156400714Y-90257333D01*
X156543571Y-90257333D01*
X156638809Y-90304952D01*
X156686428Y-90352571D01*
X156734047Y-90447809D01*
X156734047Y-90685904D01*
X156686428Y-90781142D01*
X156638809Y-90828761D01*
X156543571Y-90876380D01*
X156257857Y-90876380D01*
X156162619Y-90828761D01*
X156115000Y-90781142D01*
X157067380Y-90876380D02*
X157591190Y-90209714D01*
X157067380Y-90209714D02*
X157591190Y-90876380D01*
X157876904Y-90876380D02*
X158400714Y-90209714D01*
X157876904Y-90209714D02*
X158400714Y-90876380D01*
X158686428Y-90876380D02*
X159210238Y-90209714D01*
X158686428Y-90209714D02*
X159210238Y-90876380D01*
X159591190Y-90876380D02*
X159591190Y-89876380D01*
X160019761Y-90876380D02*
X160019761Y-90352571D01*
X159972142Y-90257333D01*
X159876904Y-90209714D01*
X159734047Y-90209714D01*
X159638809Y-90257333D01*
X159591190Y-90304952D01*
X156162619Y-87431619D02*
X156210238Y-87384000D01*
X156305476Y-87336380D01*
X156543571Y-87336380D01*
X156638809Y-87384000D01*
X156686428Y-87431619D01*
X156734047Y-87526857D01*
X156734047Y-87622095D01*
X156686428Y-87764952D01*
X156115000Y-88336380D01*
X156734047Y-88336380D01*
X157067380Y-88336380D02*
X157591190Y-87669714D01*
X157067380Y-87669714D02*
X157591190Y-88336380D01*
X157876904Y-88336380D02*
X158400714Y-87669714D01*
X157876904Y-87669714D02*
X158400714Y-88336380D01*
X158686428Y-88336380D02*
X159210238Y-87669714D01*
X158686428Y-87669714D02*
X159210238Y-88336380D01*
X159591190Y-88336380D02*
X159591190Y-87336380D01*
X160019761Y-88336380D02*
X160019761Y-87812571D01*
X159972142Y-87717333D01*
X159876904Y-87669714D01*
X159734047Y-87669714D01*
X159638809Y-87717333D01*
X159591190Y-87764952D01*
X156734047Y-85796380D02*
X156162619Y-85796380D01*
X156448333Y-85796380D02*
X156448333Y-84796380D01*
X156353095Y-84939238D01*
X156257857Y-85034476D01*
X156162619Y-85082095D01*
X157067380Y-85796380D02*
X157591190Y-85129714D01*
X157067380Y-85129714D02*
X157591190Y-85796380D01*
X157876904Y-85796380D02*
X158400714Y-85129714D01*
X157876904Y-85129714D02*
X158400714Y-85796380D01*
X158686428Y-85796380D02*
X159210238Y-85129714D01*
X158686428Y-85129714D02*
X159210238Y-85796380D01*
X159591190Y-85796380D02*
X159591190Y-84796380D01*
X160019761Y-85796380D02*
X160019761Y-85272571D01*
X159972142Y-85177333D01*
X159876904Y-85129714D01*
X159734047Y-85129714D01*
X159638809Y-85177333D01*
X159591190Y-85224952D01*
X156400714Y-82256380D02*
X156495952Y-82256380D01*
X156591190Y-82304000D01*
X156638809Y-82351619D01*
X156686428Y-82446857D01*
X156734047Y-82637333D01*
X156734047Y-82875428D01*
X156686428Y-83065904D01*
X156638809Y-83161142D01*
X156591190Y-83208761D01*
X156495952Y-83256380D01*
X156400714Y-83256380D01*
X156305476Y-83208761D01*
X156257857Y-83161142D01*
X156210238Y-83065904D01*
X156162619Y-82875428D01*
X156162619Y-82637333D01*
X156210238Y-82446857D01*
X156257857Y-82351619D01*
X156305476Y-82304000D01*
X156400714Y-82256380D01*
X157067380Y-83256380D02*
X157591190Y-82589714D01*
X157067380Y-82589714D02*
X157591190Y-83256380D01*
X157876904Y-83256380D02*
X158400714Y-82589714D01*
X157876904Y-82589714D02*
X158400714Y-83256380D01*
X158686428Y-83256380D02*
X159210238Y-82589714D01*
X158686428Y-82589714D02*
X159210238Y-83256380D01*
X159591190Y-83256380D02*
X159591190Y-82256380D01*
X160019761Y-83256380D02*
X160019761Y-82732571D01*
X159972142Y-82637333D01*
X159876904Y-82589714D01*
X159734047Y-82589714D01*
X159638809Y-82637333D01*
X159591190Y-82684952D01*
X156161028Y-120010180D02*
X156161028Y-119010180D01*
X156399123Y-119010180D01*
X156541980Y-119057800D01*
X156637219Y-119153038D01*
X156684838Y-119248276D01*
X156732457Y-119438752D01*
X156732457Y-119581609D01*
X156684838Y-119772085D01*
X156637219Y-119867323D01*
X156541980Y-119962561D01*
X156399123Y-120010180D01*
X156161028Y-120010180D01*
X157065790Y-120010180D02*
X157589600Y-119343514D01*
X157065790Y-119343514D02*
X157589600Y-120010180D01*
X157875314Y-120010180D02*
X158399123Y-119343514D01*
X157875314Y-119343514D02*
X158399123Y-120010180D01*
X158684838Y-120010180D02*
X159208647Y-119343514D01*
X158684838Y-119343514D02*
X159208647Y-120010180D01*
X159589600Y-120010180D02*
X159589600Y-119010180D01*
X160018171Y-120010180D02*
X160018171Y-119486371D01*
X159970552Y-119391133D01*
X159875314Y-119343514D01*
X159732457Y-119343514D01*
X159637219Y-119391133D01*
X159589600Y-119438752D01*
X156565790Y-124566371D02*
X156232457Y-124566371D01*
X156232457Y-125090180D02*
X156232457Y-124090180D01*
X156708647Y-124090180D01*
X156994361Y-125090180D02*
X157518171Y-124423514D01*
X156994361Y-124423514D02*
X157518171Y-125090180D01*
X157803885Y-125090180D02*
X158327695Y-124423514D01*
X157803885Y-124423514D02*
X158327695Y-125090180D01*
X158613409Y-125090180D02*
X159137219Y-124423514D01*
X158613409Y-124423514D02*
X159137219Y-125090180D01*
X159518171Y-125090180D02*
X159518171Y-124090180D01*
X159946742Y-125090180D02*
X159946742Y-124566371D01*
X159899123Y-124471133D01*
X159803885Y-124423514D01*
X159661028Y-124423514D01*
X159565790Y-124471133D01*
X159518171Y-124518752D01*
X156208647Y-122026371D02*
X156541980Y-122026371D01*
X156684838Y-122550180D02*
X156208647Y-122550180D01*
X156208647Y-121550180D01*
X156684838Y-121550180D01*
X157018171Y-122550180D02*
X157541980Y-121883514D01*
X157018171Y-121883514D02*
X157541980Y-122550180D01*
X157827695Y-122550180D02*
X158351504Y-121883514D01*
X157827695Y-121883514D02*
X158351504Y-122550180D01*
X158637219Y-122550180D02*
X159161028Y-121883514D01*
X158637219Y-121883514D02*
X159161028Y-122550180D01*
X159541980Y-122550180D02*
X159541980Y-121550180D01*
X159970552Y-122550180D02*
X159970552Y-122026371D01*
X159922933Y-121931133D01*
X159827695Y-121883514D01*
X159684838Y-121883514D01*
X159589600Y-121931133D01*
X159541980Y-121978752D01*
X156732457Y-117374942D02*
X156684838Y-117422561D01*
X156541980Y-117470180D01*
X156446742Y-117470180D01*
X156303885Y-117422561D01*
X156208647Y-117327323D01*
X156161028Y-117232085D01*
X156113409Y-117041609D01*
X156113409Y-116898752D01*
X156161028Y-116708276D01*
X156208647Y-116613038D01*
X156303885Y-116517800D01*
X156446742Y-116470180D01*
X156541980Y-116470180D01*
X156684838Y-116517800D01*
X156732457Y-116565419D01*
X157065790Y-117470180D02*
X157589600Y-116803514D01*
X157065790Y-116803514D02*
X157589600Y-117470180D01*
X157875314Y-117470180D02*
X158399123Y-116803514D01*
X157875314Y-116803514D02*
X158399123Y-117470180D01*
X158684838Y-117470180D02*
X159208647Y-116803514D01*
X158684838Y-116803514D02*
X159208647Y-117470180D01*
X159589600Y-117470180D02*
X159589600Y-116470180D01*
X160018171Y-117470180D02*
X160018171Y-116946371D01*
X159970552Y-116851133D01*
X159875314Y-116803514D01*
X159732457Y-116803514D01*
X159637219Y-116851133D01*
X159589600Y-116898752D01*
X156184838Y-112104466D02*
X156661028Y-112104466D01*
X156089600Y-112390180D02*
X156422933Y-111390180D01*
X156756266Y-112390180D01*
X156994361Y-112390180D02*
X157518171Y-111723514D01*
X156994361Y-111723514D02*
X157518171Y-112390180D01*
X157803885Y-112390180D02*
X158327695Y-111723514D01*
X157803885Y-111723514D02*
X158327695Y-112390180D01*
X158613409Y-112390180D02*
X159137219Y-111723514D01*
X158613409Y-111723514D02*
X159137219Y-112390180D01*
X159518171Y-112390180D02*
X159518171Y-111390180D01*
X159946742Y-112390180D02*
X159946742Y-111866371D01*
X159899123Y-111771133D01*
X159803885Y-111723514D01*
X159661028Y-111723514D01*
X159565790Y-111771133D01*
X159518171Y-111818752D01*
X156494361Y-114406371D02*
X156637219Y-114453990D01*
X156684838Y-114501609D01*
X156732457Y-114596847D01*
X156732457Y-114739704D01*
X156684838Y-114834942D01*
X156637219Y-114882561D01*
X156541980Y-114930180D01*
X156161028Y-114930180D01*
X156161028Y-113930180D01*
X156494361Y-113930180D01*
X156589600Y-113977800D01*
X156637219Y-114025419D01*
X156684838Y-114120657D01*
X156684838Y-114215895D01*
X156637219Y-114311133D01*
X156589600Y-114358752D01*
X156494361Y-114406371D01*
X156161028Y-114406371D01*
X157065790Y-114930180D02*
X157589600Y-114263514D01*
X157065790Y-114263514D02*
X157589600Y-114930180D01*
X157875314Y-114930180D02*
X158399123Y-114263514D01*
X157875314Y-114263514D02*
X158399123Y-114930180D01*
X158684838Y-114930180D02*
X159208647Y-114263514D01*
X158684838Y-114263514D02*
X159208647Y-114930180D01*
X159589600Y-114930180D02*
X159589600Y-113930180D01*
X160018171Y-114930180D02*
X160018171Y-114406371D01*
X159970552Y-114311133D01*
X159875314Y-114263514D01*
X159732457Y-114263514D01*
X159637219Y-114311133D01*
X159589600Y-114358752D01*
X156232457Y-109850180D02*
X156422933Y-109850180D01*
X156518171Y-109802561D01*
X156565790Y-109754942D01*
X156661028Y-109612085D01*
X156708647Y-109421609D01*
X156708647Y-109040657D01*
X156661028Y-108945419D01*
X156613409Y-108897800D01*
X156518171Y-108850180D01*
X156327695Y-108850180D01*
X156232457Y-108897800D01*
X156184838Y-108945419D01*
X156137219Y-109040657D01*
X156137219Y-109278752D01*
X156184838Y-109373990D01*
X156232457Y-109421609D01*
X156327695Y-109469228D01*
X156518171Y-109469228D01*
X156613409Y-109421609D01*
X156661028Y-109373990D01*
X156708647Y-109278752D01*
X157041980Y-109850180D02*
X157565790Y-109183514D01*
X157041980Y-109183514D02*
X157565790Y-109850180D01*
X157851504Y-109850180D02*
X158375314Y-109183514D01*
X157851504Y-109183514D02*
X158375314Y-109850180D01*
X158661028Y-109850180D02*
X159184838Y-109183514D01*
X158661028Y-109183514D02*
X159184838Y-109850180D01*
X159565790Y-109850180D02*
X159565790Y-108850180D01*
X159994361Y-109850180D02*
X159994361Y-109326371D01*
X159946742Y-109231133D01*
X159851504Y-109183514D01*
X159708647Y-109183514D01*
X159613409Y-109231133D01*
X159565790Y-109278752D01*
X156327695Y-106738752D02*
X156232457Y-106691133D01*
X156184838Y-106643514D01*
X156137219Y-106548276D01*
X156137219Y-106500657D01*
X156184838Y-106405419D01*
X156232457Y-106357800D01*
X156327695Y-106310180D01*
X156518171Y-106310180D01*
X156613409Y-106357800D01*
X156661028Y-106405419D01*
X156708647Y-106500657D01*
X156708647Y-106548276D01*
X156661028Y-106643514D01*
X156613409Y-106691133D01*
X156518171Y-106738752D01*
X156327695Y-106738752D01*
X156232457Y-106786371D01*
X156184838Y-106833990D01*
X156137219Y-106929228D01*
X156137219Y-107119704D01*
X156184838Y-107214942D01*
X156232457Y-107262561D01*
X156327695Y-107310180D01*
X156518171Y-107310180D01*
X156613409Y-107262561D01*
X156661028Y-107214942D01*
X156708647Y-107119704D01*
X156708647Y-106929228D01*
X156661028Y-106833990D01*
X156613409Y-106786371D01*
X156518171Y-106738752D01*
X157041980Y-107310180D02*
X157565790Y-106643514D01*
X157041980Y-106643514D02*
X157565790Y-107310180D01*
X157851504Y-107310180D02*
X158375314Y-106643514D01*
X157851504Y-106643514D02*
X158375314Y-107310180D01*
X158661028Y-107310180D02*
X159184838Y-106643514D01*
X158661028Y-106643514D02*
X159184838Y-107310180D01*
X159565790Y-107310180D02*
X159565790Y-106310180D01*
X159994361Y-107310180D02*
X159994361Y-106786371D01*
X159946742Y-106691133D01*
X159851504Y-106643514D01*
X159708647Y-106643514D01*
X159613409Y-106691133D01*
X159565790Y-106738752D01*
D13*
G36*
X221050992Y-122865486D02*
G01*
X221149333Y-122851333D01*
X221296313Y-122893593D01*
X221304226Y-122996909D01*
X221268056Y-123043055D01*
X221153746Y-123062590D01*
X221024807Y-123003083D01*
X220980000Y-122926942D01*
X221050992Y-122865486D01*
X221050992Y-122865486D01*
G37*
X221050992Y-122865486D02*
X221149333Y-122851333D01*
X221296313Y-122893593D01*
X221304226Y-122996909D01*
X221268056Y-123043055D01*
X221153746Y-123062590D01*
X221024807Y-123003083D01*
X220980000Y-122926942D01*
X221050992Y-122865486D01*
G36*
X221008222Y-125673556D02*
G01*
X221058556Y-125685178D01*
X221064667Y-125730000D01*
X221033688Y-125799690D01*
X221008222Y-125786445D01*
X220998089Y-125685965D01*
X221008222Y-125673556D01*
X221008222Y-125673556D01*
G37*
X221008222Y-125673556D02*
X221058556Y-125685178D01*
X221064667Y-125730000D01*
X221033688Y-125799690D01*
X221008222Y-125786445D01*
X220998089Y-125685965D01*
X221008222Y-125673556D01*
G36*
X221008222Y-119916222D02*
G01*
X221058556Y-119927845D01*
X221064667Y-119972667D01*
X221033688Y-120042357D01*
X221008222Y-120029111D01*
X220998089Y-119928632D01*
X221008222Y-119916222D01*
X221008222Y-119916222D01*
G37*
X221008222Y-119916222D02*
X221058556Y-119927845D01*
X221064667Y-119972667D01*
X221033688Y-120042357D01*
X221008222Y-120029111D01*
X220998089Y-119928632D01*
X221008222Y-119916222D01*
G36*
X221047547Y-127254885D02*
G01*
X221181855Y-127208279D01*
X221268056Y-127231612D01*
X221316496Y-127348480D01*
X221217894Y-127417173D01*
X221149333Y-127423333D01*
X221011695Y-127391635D01*
X220980000Y-127347725D01*
X221047547Y-127254885D01*
X221047547Y-127254885D01*
G37*
X221047547Y-127254885D02*
X221181855Y-127208279D01*
X221268056Y-127231612D01*
X221316496Y-127348480D01*
X221217894Y-127417173D01*
X221149333Y-127423333D01*
X221011695Y-127391635D01*
X220980000Y-127347725D01*
X221047547Y-127254885D01*
G36*
X221261961Y-119670075D02*
G01*
X221319509Y-119649063D01*
X221367142Y-119782615D01*
X221373210Y-119845727D01*
X221356576Y-120004499D01*
X221309710Y-120057333D01*
X221252780Y-119984825D01*
X221234000Y-119845667D01*
X221261961Y-119670075D01*
X221261961Y-119670075D01*
G37*
X221261961Y-119670075D02*
X221319509Y-119649063D01*
X221367142Y-119782615D01*
X221373210Y-119845727D01*
X221356576Y-120004499D01*
X221309710Y-120057333D01*
X221252780Y-119984825D01*
X221234000Y-119845667D01*
X221261961Y-119670075D01*
G36*
X221004575Y-120586500D02*
G01*
X221068752Y-120413197D01*
X221189487Y-120342090D01*
X221309874Y-120380463D01*
X221373008Y-120535599D01*
X221373258Y-120539314D01*
X221363404Y-120707477D01*
X221337630Y-120772148D01*
X221221907Y-120812815D01*
X221138630Y-120819333D01*
X221027189Y-120773257D01*
X221002999Y-120610661D01*
X221004575Y-120586500D01*
X221004575Y-120586500D01*
G37*
X221004575Y-120586500D02*
X221068752Y-120413197D01*
X221189487Y-120342090D01*
X221309874Y-120380463D01*
X221373008Y-120535599D01*
X221373258Y-120539314D01*
X221363404Y-120707477D01*
X221337630Y-120772148D01*
X221221907Y-120812815D01*
X221138630Y-120819333D01*
X221027189Y-120773257D01*
X221002999Y-120610661D01*
X221004575Y-120586500D01*
G36*
X221052486Y-126427104D02*
G01*
X221191667Y-126407333D01*
X221362139Y-126441876D01*
X221393820Y-126521145D01*
X221272839Y-126608606D01*
X221268693Y-126610216D01*
X221091282Y-126623972D01*
X220987625Y-126533758D01*
X220980000Y-126487003D01*
X221052486Y-126427104D01*
X221052486Y-126427104D01*
G37*
X221052486Y-126427104D02*
X221191667Y-126407333D01*
X221362139Y-126441876D01*
X221393820Y-126521145D01*
X221272839Y-126608606D01*
X221268693Y-126610216D01*
X221091282Y-126623972D01*
X220987625Y-126533758D01*
X220980000Y-126487003D01*
X221052486Y-126427104D01*
G36*
X222362889Y-120847556D02*
G01*
X222413223Y-120859178D01*
X222419333Y-120904000D01*
X222388355Y-120973690D01*
X222362889Y-120960445D01*
X222352756Y-120859965D01*
X222362889Y-120847556D01*
X222362889Y-120847556D01*
G37*
X222362889Y-120847556D02*
X222413223Y-120859178D01*
X222419333Y-120904000D01*
X222388355Y-120973690D01*
X222362889Y-120960445D01*
X222352756Y-120859965D01*
X222362889Y-120847556D01*
G36*
X222622180Y-122196931D02*
G01*
X222660662Y-122222182D01*
X222666649Y-122308056D01*
X222645972Y-122398398D01*
X222615496Y-122359208D01*
X222605403Y-122226885D01*
X222622180Y-122196931D01*
X222622180Y-122196931D01*
G37*
X222622180Y-122196931D02*
X222660662Y-122222182D01*
X222666649Y-122308056D01*
X222645972Y-122398398D01*
X222615496Y-122359208D01*
X222605403Y-122226885D01*
X222622180Y-122196931D01*
G36*
X222405579Y-124221877D02*
G01*
X222504000Y-124206000D01*
X222641580Y-124241456D01*
X222673333Y-124290667D01*
X222602421Y-124359457D01*
X222504000Y-124375333D01*
X222366419Y-124339877D01*
X222334667Y-124290667D01*
X222405579Y-124221877D01*
X222405579Y-124221877D01*
G37*
X222405579Y-124221877D02*
X222504000Y-124206000D01*
X222641580Y-124241456D01*
X222673333Y-124290667D01*
X222602421Y-124359457D01*
X222504000Y-124375333D01*
X222366419Y-124339877D01*
X222334667Y-124290667D01*
X222405579Y-124221877D01*
G36*
X222622180Y-125583597D02*
G01*
X222660662Y-125608848D01*
X222666649Y-125694722D01*
X222645972Y-125785065D01*
X222615496Y-125745875D01*
X222605403Y-125613551D01*
X222622180Y-125583597D01*
X222622180Y-125583597D01*
G37*
X222622180Y-125583597D02*
X222660662Y-125608848D01*
X222666649Y-125694722D01*
X222645972Y-125785065D01*
X222615496Y-125745875D01*
X222605403Y-125613551D01*
X222622180Y-125583597D01*
G36*
X222410826Y-121254428D02*
G01*
X222598669Y-121227202D01*
X222811888Y-121217876D01*
X222905625Y-121260493D01*
X222927290Y-121378335D01*
X222927333Y-121388596D01*
X222900148Y-121521374D01*
X222786153Y-121574275D01*
X222640875Y-121581333D01*
X222420549Y-121550302D01*
X222319633Y-121443915D01*
X222312211Y-121419939D01*
X222311895Y-121311597D01*
X222410826Y-121254428D01*
X222410826Y-121254428D01*
G37*
X222410826Y-121254428D02*
X222598669Y-121227202D01*
X222811888Y-121217876D01*
X222905625Y-121260493D01*
X222927290Y-121378335D01*
X222927333Y-121388596D01*
X222900148Y-121521374D01*
X222786153Y-121574275D01*
X222640875Y-121581333D01*
X222420549Y-121550302D01*
X222319633Y-121443915D01*
X222312211Y-121419939D01*
X222311895Y-121311597D01*
X222410826Y-121254428D01*
G36*
X222298680Y-122446903D02*
G01*
X222319743Y-122233208D01*
X222349198Y-122186458D01*
X222391302Y-122304314D01*
X222410175Y-122385667D01*
X222479876Y-122569253D01*
X222613151Y-122633171D01*
X222696491Y-122636329D01*
X222870224Y-122668772D01*
X222927333Y-122742163D01*
X222882864Y-122842978D01*
X222855301Y-122851333D01*
X222730532Y-122825623D01*
X222533898Y-122764403D01*
X222353762Y-122668387D01*
X222297637Y-122519024D01*
X222298680Y-122446903D01*
X222298680Y-122446903D01*
G37*
X222298680Y-122446903D02*
X222319743Y-122233208D01*
X222349198Y-122186458D01*
X222391302Y-122304314D01*
X222410175Y-122385667D01*
X222479876Y-122569253D01*
X222613151Y-122633171D01*
X222696491Y-122636329D01*
X222870224Y-122668772D01*
X222927333Y-122742163D01*
X222882864Y-122842978D01*
X222855301Y-122851333D01*
X222730532Y-122825623D01*
X222533898Y-122764403D01*
X222353762Y-122668387D01*
X222297637Y-122519024D01*
X222298680Y-122446903D01*
G36*
X222656923Y-123208026D02*
G01*
X222753003Y-123190000D01*
X222893274Y-123224544D01*
X222927333Y-123274667D01*
X222859119Y-123350606D01*
X222805330Y-123359333D01*
X222661181Y-123307733D01*
X222631000Y-123274667D01*
X222656923Y-123208026D01*
X222656923Y-123208026D01*
G37*
X222656923Y-123208026D02*
X222753003Y-123190000D01*
X222893274Y-123224544D01*
X222927333Y-123274667D01*
X222859119Y-123350606D01*
X222805330Y-123359333D01*
X222661181Y-123307733D01*
X222631000Y-123274667D01*
X222656923Y-123208026D01*
G36*
X222410826Y-124641094D02*
G01*
X222598669Y-124613869D01*
X222811888Y-124604542D01*
X222905625Y-124647160D01*
X222927290Y-124765002D01*
X222927333Y-124775263D01*
X222900148Y-124908041D01*
X222786153Y-124960941D01*
X222640875Y-124968000D01*
X222420549Y-124936968D01*
X222319633Y-124830582D01*
X222312211Y-124806606D01*
X222311895Y-124698264D01*
X222410826Y-124641094D01*
X222410826Y-124641094D01*
G37*
X222410826Y-124641094D02*
X222598669Y-124613869D01*
X222811888Y-124604542D01*
X222905625Y-124647160D01*
X222927290Y-124765002D01*
X222927333Y-124775263D01*
X222900148Y-124908041D01*
X222786153Y-124960941D01*
X222640875Y-124968000D01*
X222420549Y-124936968D01*
X222319633Y-124830582D01*
X222312211Y-124806606D01*
X222311895Y-124698264D01*
X222410826Y-124641094D01*
G36*
X214461532Y-125300488D02*
G01*
X214465295Y-124856134D01*
X214473702Y-124540023D01*
X214488500Y-124331612D01*
X214511437Y-124210358D01*
X214544260Y-124155716D01*
X214588716Y-124147145D01*
X214608833Y-124151640D01*
X214798516Y-124198369D01*
X215020471Y-124246171D01*
X215274373Y-124367900D01*
X215380304Y-124510476D01*
X215453486Y-124696090D01*
X215459934Y-124842279D01*
X215388624Y-125010412D01*
X215251575Y-125227100D01*
X215026483Y-125567237D01*
X215310517Y-125860285D01*
X215532871Y-126064258D01*
X215710017Y-126136763D01*
X215896505Y-126083160D01*
X216108104Y-125938644D01*
X216294392Y-125806820D01*
X216427214Y-125770127D01*
X216585980Y-125818729D01*
X216688927Y-125866705D01*
X216876073Y-125975432D01*
X216977149Y-126111091D01*
X217032508Y-126336436D01*
X217044750Y-126420061D01*
X217101223Y-126830667D01*
X218085443Y-126830667D01*
X218142253Y-126417611D01*
X218189057Y-126162440D01*
X218266220Y-126017001D01*
X218414938Y-125922039D01*
X218515997Y-125880060D01*
X218730378Y-125807462D01*
X218873937Y-125815128D01*
X219030351Y-125914014D01*
X219080965Y-125954029D01*
X219313213Y-126107076D01*
X219504373Y-126132143D01*
X219702697Y-126023544D01*
X219876149Y-125860285D01*
X220160183Y-125567237D01*
X219932907Y-125223800D01*
X219795863Y-124987947D01*
X219759178Y-124826711D01*
X219792711Y-124717653D01*
X219835414Y-124635850D01*
X219842136Y-124574489D01*
X219788160Y-124515606D01*
X219648771Y-124441237D01*
X219399251Y-124333419D01*
X219084871Y-124203200D01*
X218761039Y-124070935D01*
X218556330Y-123998743D01*
X218433469Y-123981787D01*
X218355179Y-124015230D01*
X218284187Y-124094235D01*
X218280537Y-124098821D01*
X218000586Y-124341701D01*
X217677981Y-124451459D01*
X217353928Y-124423141D01*
X217069635Y-124251795D01*
X217062931Y-124245173D01*
X216841278Y-123928028D01*
X216785815Y-123597510D01*
X216896088Y-123270299D01*
X217096111Y-123028797D01*
X217370336Y-122878822D01*
X217689887Y-122864205D01*
X218008642Y-122977794D01*
X218280474Y-123212433D01*
X218280537Y-123212513D01*
X218352082Y-123293470D01*
X218429234Y-123329084D01*
X218549266Y-123314519D01*
X218749455Y-123244938D01*
X219067076Y-123115502D01*
X219084871Y-123108134D01*
X219446526Y-122958124D01*
X219677198Y-122856720D01*
X219801604Y-122785957D01*
X219844460Y-122727871D01*
X219830482Y-122664499D01*
X219792711Y-122593680D01*
X219759157Y-122455907D01*
X219814813Y-122283764D01*
X219932907Y-122087534D01*
X220160183Y-121744097D01*
X219876149Y-121451049D01*
X219643001Y-121243136D01*
X219451604Y-121172969D01*
X219253705Y-121234859D01*
X219080965Y-121357305D01*
X218908368Y-121480568D01*
X218769429Y-121509888D01*
X218580469Y-121456221D01*
X218515997Y-121431274D01*
X218321718Y-121339699D01*
X218217505Y-121224267D01*
X218162159Y-121025725D01*
X218142253Y-120893723D01*
X218085443Y-120480667D01*
X217101223Y-120480667D01*
X217044750Y-120891273D01*
X216994784Y-121151288D01*
X216909908Y-121304813D01*
X216749767Y-121414600D01*
X216688927Y-121444629D01*
X216491827Y-121528968D01*
X216356992Y-121532510D01*
X216205014Y-121445419D01*
X216108104Y-121372690D01*
X215869318Y-121214021D01*
X215687201Y-121176812D01*
X215507202Y-121266421D01*
X215310517Y-121451049D01*
X215026483Y-121744097D01*
X215251575Y-122084233D01*
X215401009Y-122323105D01*
X215462915Y-122485647D01*
X215448317Y-122633227D01*
X215380304Y-122800858D01*
X215203320Y-122995624D01*
X215020471Y-123065163D01*
X214783280Y-123116463D01*
X214608833Y-123159693D01*
X214559543Y-123163147D01*
X214522544Y-123128268D01*
X214496089Y-123034512D01*
X214478431Y-122861336D01*
X214467822Y-122588198D01*
X214462515Y-122194554D01*
X214460764Y-121659860D01*
X214460667Y-121417706D01*
X214460667Y-119634000D01*
X220768333Y-119633902D01*
X220727761Y-121666000D01*
X221192547Y-121666000D01*
X221476576Y-121653625D01*
X221621650Y-121611446D01*
X221657333Y-121544111D01*
X221576896Y-121446734D01*
X221341726Y-121396043D01*
X221340537Y-121395944D01*
X221099231Y-121343994D01*
X220998399Y-121233588D01*
X220995663Y-121221500D01*
X221014013Y-121115180D01*
X221149072Y-121075642D01*
X221229607Y-121073333D01*
X221472746Y-121005682D01*
X221611348Y-120832124D01*
X221619446Y-120596759D01*
X221575502Y-120485965D01*
X221518774Y-120308245D01*
X221576246Y-120180021D01*
X221634618Y-120007254D01*
X221622841Y-119846766D01*
X221569440Y-119634000D01*
X222927333Y-119634000D01*
X222927333Y-120099667D01*
X222914897Y-120384396D01*
X222872622Y-120529850D01*
X222805957Y-120565333D01*
X222705984Y-120638922D01*
X222649309Y-120798167D01*
X222624886Y-120940509D01*
X222611710Y-120928549D01*
X222601352Y-120755833D01*
X222567411Y-120558363D01*
X222472476Y-120484874D01*
X222421285Y-120480667D01*
X222230208Y-120554104D01*
X222091109Y-120730457D01*
X222043247Y-120943784D01*
X222074878Y-121062518D01*
X222118744Y-121211528D01*
X222093866Y-121276842D01*
X222040613Y-121384918D01*
X222014633Y-121578314D01*
X222017781Y-121723636D01*
X222064755Y-121801414D01*
X222195923Y-121834506D01*
X222451651Y-121845772D01*
X222488496Y-121846646D01*
X222969667Y-121857959D01*
X222571058Y-121913643D01*
X222325256Y-121956722D01*
X222156441Y-122002467D01*
X222120281Y-122021496D01*
X222084124Y-122130440D01*
X222052077Y-122346959D01*
X222041203Y-122472818D01*
X222035759Y-122723858D01*
X222072877Y-122854616D01*
X222166653Y-122911733D01*
X222174480Y-122913860D01*
X222317136Y-122987644D01*
X222296252Y-123072865D01*
X222165333Y-123129866D01*
X222017971Y-123211582D01*
X222024537Y-123314255D01*
X222179602Y-123401576D01*
X222207081Y-123409085D01*
X222352929Y-123483665D01*
X222347047Y-123565710D01*
X222199305Y-123612096D01*
X222160336Y-123613333D01*
X222023185Y-123671898D01*
X221996000Y-123750204D01*
X222045316Y-123847934D01*
X222186500Y-123843834D01*
X222537771Y-123764829D01*
X222755643Y-123721536D01*
X222871962Y-123712690D01*
X222918575Y-123737026D01*
X222927329Y-123793280D01*
X222927333Y-123814417D01*
X222901104Y-123885676D01*
X222800662Y-123927691D01*
X222593376Y-123947456D01*
X222285278Y-123952000D01*
X221942004Y-123959877D01*
X221746123Y-123985985D01*
X221676316Y-124034039D01*
X221678076Y-124057833D01*
X221781196Y-124155933D01*
X221884805Y-124189150D01*
X221980279Y-124221261D01*
X222028288Y-124308590D01*
X222040356Y-124492364D01*
X222032754Y-124718317D01*
X222008829Y-125222000D01*
X222489248Y-125234686D01*
X222700118Y-125245774D01*
X222778224Y-125262248D01*
X222715667Y-125279069D01*
X222388088Y-125329899D01*
X222191940Y-125392281D01*
X222089403Y-125483010D01*
X222052797Y-125573429D01*
X222045927Y-125761322D01*
X222100996Y-125931147D01*
X222191800Y-126026416D01*
X222260020Y-126020141D01*
X222310400Y-125907228D01*
X222297831Y-125840796D01*
X222289415Y-125671465D01*
X222311430Y-125616526D01*
X222366987Y-125612536D01*
X222416484Y-125756246D01*
X222419529Y-125772333D01*
X222480827Y-125955279D01*
X222607642Y-126019428D01*
X222696491Y-126022996D01*
X222864571Y-126041707D01*
X222927333Y-126086496D01*
X222851662Y-126126495D01*
X222660372Y-126150372D01*
X222549312Y-126153333D01*
X222285724Y-126173642D01*
X222136162Y-126247147D01*
X222079730Y-126324417D01*
X222027284Y-126492139D01*
X222039415Y-126578417D01*
X222005256Y-126636863D01*
X221845590Y-126661312D01*
X221839590Y-126661333D01*
X221664807Y-126640804D01*
X221619274Y-126561170D01*
X221628813Y-126507252D01*
X221606169Y-126325015D01*
X221446073Y-126205657D01*
X221173753Y-126165068D01*
X221105665Y-126168363D01*
X221105665Y-126065529D01*
X221361086Y-126050186D01*
X221544656Y-125977130D01*
X221555733Y-125967067D01*
X221647460Y-125772363D01*
X221629713Y-125544352D01*
X221531335Y-125392165D01*
X221420053Y-125334288D01*
X221354499Y-125420077D01*
X221336913Y-125581487D01*
X221354878Y-125635429D01*
X221346692Y-125747872D01*
X221320048Y-125771480D01*
X221258520Y-125739696D01*
X221234022Y-125572371D01*
X221234000Y-125565664D01*
X221204615Y-125369235D01*
X221186556Y-125359645D01*
X221186556Y-125222000D01*
X221443159Y-125208225D01*
X221614149Y-125172655D01*
X221657333Y-125137333D01*
X221585094Y-125072918D01*
X221452591Y-125052667D01*
X221233216Y-125031700D01*
X221113925Y-125001275D01*
X220987519Y-124920879D01*
X221013895Y-124850374D01*
X221176619Y-124806021D01*
X221318667Y-124798667D01*
X221551386Y-124778891D01*
X221649152Y-124711649D01*
X221657333Y-124667242D01*
X221623775Y-124590195D01*
X221498957Y-124557171D01*
X221412238Y-124557986D01*
X221412238Y-124121221D01*
X221519910Y-124042473D01*
X221565885Y-123973167D01*
X221647796Y-123749765D01*
X221585845Y-123557519D01*
X221488000Y-123444000D01*
X221385479Y-123321844D01*
X221411659Y-123276840D01*
X221444053Y-123274667D01*
X221552904Y-123202649D01*
X221627517Y-123036700D01*
X221642762Y-122851978D01*
X221614307Y-122765546D01*
X221493272Y-122659225D01*
X221373503Y-122596767D01*
X221262818Y-122541311D01*
X221308087Y-122519612D01*
X221336854Y-122518034D01*
X221501012Y-122435101D01*
X221616716Y-122230261D01*
X221657333Y-121967900D01*
X221645952Y-121843543D01*
X221584142Y-121778797D01*
X221430403Y-121754302D01*
X221191667Y-121750667D01*
X220907341Y-121762999D01*
X220761965Y-121805045D01*
X220726000Y-121872556D01*
X220806474Y-121969910D01*
X221041977Y-122020596D01*
X221043500Y-122020723D01*
X221247740Y-122057597D01*
X221355849Y-122116056D01*
X221361000Y-122131667D01*
X221286108Y-122192329D01*
X221100441Y-122236525D01*
X221043500Y-122242611D01*
X220824920Y-122294368D01*
X220723837Y-122380958D01*
X220750904Y-122467339D01*
X220916775Y-122518467D01*
X220958833Y-122521106D01*
X221191667Y-122529546D01*
X220980000Y-122587934D01*
X220817082Y-122680576D01*
X220747230Y-122872087D01*
X220741798Y-122918215D01*
X220748042Y-123122647D01*
X220842772Y-123232802D01*
X220921726Y-123268606D01*
X221066468Y-123355558D01*
X221091947Y-123498788D01*
X221076648Y-123586052D01*
X221025106Y-123825000D01*
X220996445Y-123587147D01*
X220941658Y-123416254D01*
X220858700Y-123391913D01*
X220780016Y-123502564D01*
X220742222Y-123677729D01*
X220761188Y-123905419D01*
X220873784Y-124025134D01*
X221065961Y-124065870D01*
X221221614Y-123951806D01*
X221314866Y-123780277D01*
X221371727Y-123656132D01*
X221382452Y-123676169D01*
X221354690Y-123846167D01*
X221349094Y-124050932D01*
X221412238Y-124121221D01*
X221412238Y-124557986D01*
X221246659Y-124559545D01*
X221212833Y-124561409D01*
X220768333Y-124587000D01*
X220742056Y-124904500D01*
X220715778Y-125222000D01*
X221186556Y-125222000D01*
X221186556Y-125359645D01*
X221100968Y-125314194D01*
X220899820Y-125388972D01*
X220889767Y-125394312D01*
X220769568Y-125532559D01*
X220725451Y-125731311D01*
X220760854Y-125918805D01*
X220859925Y-126017275D01*
X221105665Y-126065529D01*
X221105665Y-126168363D01*
X221091742Y-126169037D01*
X220888131Y-126195947D01*
X220790447Y-126265857D01*
X220752628Y-126429709D01*
X220742298Y-126555500D01*
X220735424Y-126782259D01*
X220773058Y-126887916D01*
X220876844Y-126919154D01*
X220911632Y-126920700D01*
X221107000Y-126926067D01*
X220907315Y-127006036D01*
X220772749Y-127090182D01*
X220732066Y-127232323D01*
X220742147Y-127381670D01*
X220776664Y-127677333D01*
X214460667Y-127677333D01*
X214460667Y-125893628D01*
X214461532Y-125300488D01*
X214461532Y-125300488D01*
G37*
X214461532Y-125300488D02*
X214465295Y-124856134D01*
X214473702Y-124540023D01*
X214488500Y-124331612D01*
X214511437Y-124210358D01*
X214544260Y-124155716D01*
X214588716Y-124147145D01*
X214608833Y-124151640D01*
X214798516Y-124198369D01*
X215020471Y-124246171D01*
X215274373Y-124367900D01*
X215380304Y-124510476D01*
X215453486Y-124696090D01*
X215459934Y-124842279D01*
X215388624Y-125010412D01*
X215251575Y-125227100D01*
X215026483Y-125567237D01*
X215310517Y-125860285D01*
X215532871Y-126064258D01*
X215710017Y-126136763D01*
X215896505Y-126083160D01*
X216108104Y-125938644D01*
X216294392Y-125806820D01*
X216427214Y-125770127D01*
X216585980Y-125818729D01*
X216688927Y-125866705D01*
X216876073Y-125975432D01*
X216977149Y-126111091D01*
X217032508Y-126336436D01*
X217044750Y-126420061D01*
X217101223Y-126830667D01*
X218085443Y-126830667D01*
X218142253Y-126417611D01*
X218189057Y-126162440D01*
X218266220Y-126017001D01*
X218414938Y-125922039D01*
X218515997Y-125880060D01*
X218730378Y-125807462D01*
X218873937Y-125815128D01*
X219030351Y-125914014D01*
X219080965Y-125954029D01*
X219313213Y-126107076D01*
X219504373Y-126132143D01*
X219702697Y-126023544D01*
X219876149Y-125860285D01*
X220160183Y-125567237D01*
X219932907Y-125223800D01*
X219795863Y-124987947D01*
X219759178Y-124826711D01*
X219792711Y-124717653D01*
X219835414Y-124635850D01*
X219842136Y-124574489D01*
X219788160Y-124515606D01*
X219648771Y-124441237D01*
X219399251Y-124333419D01*
X219084871Y-124203200D01*
X218761039Y-124070935D01*
X218556330Y-123998743D01*
X218433469Y-123981787D01*
X218355179Y-124015230D01*
X218284187Y-124094235D01*
X218280537Y-124098821D01*
X218000586Y-124341701D01*
X217677981Y-124451459D01*
X217353928Y-124423141D01*
X217069635Y-124251795D01*
X217062931Y-124245173D01*
X216841278Y-123928028D01*
X216785815Y-123597510D01*
X216896088Y-123270299D01*
X217096111Y-123028797D01*
X217370336Y-122878822D01*
X217689887Y-122864205D01*
X218008642Y-122977794D01*
X218280474Y-123212433D01*
X218280537Y-123212513D01*
X218352082Y-123293470D01*
X218429234Y-123329084D01*
X218549266Y-123314519D01*
X218749455Y-123244938D01*
X219067076Y-123115502D01*
X219084871Y-123108134D01*
X219446526Y-122958124D01*
X219677198Y-122856720D01*
X219801604Y-122785957D01*
X219844460Y-122727871D01*
X219830482Y-122664499D01*
X219792711Y-122593680D01*
X219759157Y-122455907D01*
X219814813Y-122283764D01*
X219932907Y-122087534D01*
X220160183Y-121744097D01*
X219876149Y-121451049D01*
X219643001Y-121243136D01*
X219451604Y-121172969D01*
X219253705Y-121234859D01*
X219080965Y-121357305D01*
X218908368Y-121480568D01*
X218769429Y-121509888D01*
X218580469Y-121456221D01*
X218515997Y-121431274D01*
X218321718Y-121339699D01*
X218217505Y-121224267D01*
X218162159Y-121025725D01*
X218142253Y-120893723D01*
X218085443Y-120480667D01*
X217101223Y-120480667D01*
X217044750Y-120891273D01*
X216994784Y-121151288D01*
X216909908Y-121304813D01*
X216749767Y-121414600D01*
X216688927Y-121444629D01*
X216491827Y-121528968D01*
X216356992Y-121532510D01*
X216205014Y-121445419D01*
X216108104Y-121372690D01*
X215869318Y-121214021D01*
X215687201Y-121176812D01*
X215507202Y-121266421D01*
X215310517Y-121451049D01*
X215026483Y-121744097D01*
X215251575Y-122084233D01*
X215401009Y-122323105D01*
X215462915Y-122485647D01*
X215448317Y-122633227D01*
X215380304Y-122800858D01*
X215203320Y-122995624D01*
X215020471Y-123065163D01*
X214783280Y-123116463D01*
X214608833Y-123159693D01*
X214559543Y-123163147D01*
X214522544Y-123128268D01*
X214496089Y-123034512D01*
X214478431Y-122861336D01*
X214467822Y-122588198D01*
X214462515Y-122194554D01*
X214460764Y-121659860D01*
X214460667Y-121417706D01*
X214460667Y-119634000D01*
X220768333Y-119633902D01*
X220727761Y-121666000D01*
X221192547Y-121666000D01*
X221476576Y-121653625D01*
X221621650Y-121611446D01*
X221657333Y-121544111D01*
X221576896Y-121446734D01*
X221341726Y-121396043D01*
X221340537Y-121395944D01*
X221099231Y-121343994D01*
X220998399Y-121233588D01*
X220995663Y-121221500D01*
X221014013Y-121115180D01*
X221149072Y-121075642D01*
X221229607Y-121073333D01*
X221472746Y-121005682D01*
X221611348Y-120832124D01*
X221619446Y-120596759D01*
X221575502Y-120485965D01*
X221518774Y-120308245D01*
X221576246Y-120180021D01*
X221634618Y-120007254D01*
X221622841Y-119846766D01*
X221569440Y-119634000D01*
X222927333Y-119634000D01*
X222927333Y-120099667D01*
X222914897Y-120384396D01*
X222872622Y-120529850D01*
X222805957Y-120565333D01*
X222705984Y-120638922D01*
X222649309Y-120798167D01*
X222624886Y-120940509D01*
X222611710Y-120928549D01*
X222601352Y-120755833D01*
X222567411Y-120558363D01*
X222472476Y-120484874D01*
X222421285Y-120480667D01*
X222230208Y-120554104D01*
X222091109Y-120730457D01*
X222043247Y-120943784D01*
X222074878Y-121062518D01*
X222118744Y-121211528D01*
X222093866Y-121276842D01*
X222040613Y-121384918D01*
X222014633Y-121578314D01*
X222017781Y-121723636D01*
X222064755Y-121801414D01*
X222195923Y-121834506D01*
X222451651Y-121845772D01*
X222488496Y-121846646D01*
X222969667Y-121857959D01*
X222571058Y-121913643D01*
X222325256Y-121956722D01*
X222156441Y-122002467D01*
X222120281Y-122021496D01*
X222084124Y-122130440D01*
X222052077Y-122346959D01*
X222041203Y-122472818D01*
X222035759Y-122723858D01*
X222072877Y-122854616D01*
X222166653Y-122911733D01*
X222174480Y-122913860D01*
X222317136Y-122987644D01*
X222296252Y-123072865D01*
X222165333Y-123129866D01*
X222017971Y-123211582D01*
X222024537Y-123314255D01*
X222179602Y-123401576D01*
X222207081Y-123409085D01*
X222352929Y-123483665D01*
X222347047Y-123565710D01*
X222199305Y-123612096D01*
X222160336Y-123613333D01*
X222023185Y-123671898D01*
X221996000Y-123750204D01*
X222045316Y-123847934D01*
X222186500Y-123843834D01*
X222537771Y-123764829D01*
X222755643Y-123721536D01*
X222871962Y-123712690D01*
X222918575Y-123737026D01*
X222927329Y-123793280D01*
X222927333Y-123814417D01*
X222901104Y-123885676D01*
X222800662Y-123927691D01*
X222593376Y-123947456D01*
X222285278Y-123952000D01*
X221942004Y-123959877D01*
X221746123Y-123985985D01*
X221676316Y-124034039D01*
X221678076Y-124057833D01*
X221781196Y-124155933D01*
X221884805Y-124189150D01*
X221980279Y-124221261D01*
X222028288Y-124308590D01*
X222040356Y-124492364D01*
X222032754Y-124718317D01*
X222008829Y-125222000D01*
X222489248Y-125234686D01*
X222700118Y-125245774D01*
X222778224Y-125262248D01*
X222715667Y-125279069D01*
X222388088Y-125329899D01*
X222191940Y-125392281D01*
X222089403Y-125483010D01*
X222052797Y-125573429D01*
X222045927Y-125761322D01*
X222100996Y-125931147D01*
X222191800Y-126026416D01*
X222260020Y-126020141D01*
X222310400Y-125907228D01*
X222297831Y-125840796D01*
X222289415Y-125671465D01*
X222311430Y-125616526D01*
X222366987Y-125612536D01*
X222416484Y-125756246D01*
X222419529Y-125772333D01*
X222480827Y-125955279D01*
X222607642Y-126019428D01*
X222696491Y-126022996D01*
X222864571Y-126041707D01*
X222927333Y-126086496D01*
X222851662Y-126126495D01*
X222660372Y-126150372D01*
X222549312Y-126153333D01*
X222285724Y-126173642D01*
X222136162Y-126247147D01*
X222079730Y-126324417D01*
X222027284Y-126492139D01*
X222039415Y-126578417D01*
X222005256Y-126636863D01*
X221845590Y-126661312D01*
X221839590Y-126661333D01*
X221664807Y-126640804D01*
X221619274Y-126561170D01*
X221628813Y-126507252D01*
X221606169Y-126325015D01*
X221446073Y-126205657D01*
X221173753Y-126165068D01*
X221105665Y-126168363D01*
X221105665Y-126065529D01*
X221361086Y-126050186D01*
X221544656Y-125977130D01*
X221555733Y-125967067D01*
X221647460Y-125772363D01*
X221629713Y-125544352D01*
X221531335Y-125392165D01*
X221420053Y-125334288D01*
X221354499Y-125420077D01*
X221336913Y-125581487D01*
X221354878Y-125635429D01*
X221346692Y-125747872D01*
X221320048Y-125771480D01*
X221258520Y-125739696D01*
X221234022Y-125572371D01*
X221234000Y-125565664D01*
X221204615Y-125369235D01*
X221186556Y-125359645D01*
X221186556Y-125222000D01*
X221443159Y-125208225D01*
X221614149Y-125172655D01*
X221657333Y-125137333D01*
X221585094Y-125072918D01*
X221452591Y-125052667D01*
X221233216Y-125031700D01*
X221113925Y-125001275D01*
X220987519Y-124920879D01*
X221013895Y-124850374D01*
X221176619Y-124806021D01*
X221318667Y-124798667D01*
X221551386Y-124778891D01*
X221649152Y-124711649D01*
X221657333Y-124667242D01*
X221623775Y-124590195D01*
X221498957Y-124557171D01*
X221412238Y-124557986D01*
X221412238Y-124121221D01*
X221519910Y-124042473D01*
X221565885Y-123973167D01*
X221647796Y-123749765D01*
X221585845Y-123557519D01*
X221488000Y-123444000D01*
X221385479Y-123321844D01*
X221411659Y-123276840D01*
X221444053Y-123274667D01*
X221552904Y-123202649D01*
X221627517Y-123036700D01*
X221642762Y-122851978D01*
X221614307Y-122765546D01*
X221493272Y-122659225D01*
X221373503Y-122596767D01*
X221262818Y-122541311D01*
X221308087Y-122519612D01*
X221336854Y-122518034D01*
X221501012Y-122435101D01*
X221616716Y-122230261D01*
X221657333Y-121967900D01*
X221645952Y-121843543D01*
X221584142Y-121778797D01*
X221430403Y-121754302D01*
X221191667Y-121750667D01*
X220907341Y-121762999D01*
X220761965Y-121805045D01*
X220726000Y-121872556D01*
X220806474Y-121969910D01*
X221041977Y-122020596D01*
X221043500Y-122020723D01*
X221247740Y-122057597D01*
X221355849Y-122116056D01*
X221361000Y-122131667D01*
X221286108Y-122192329D01*
X221100441Y-122236525D01*
X221043500Y-122242611D01*
X220824920Y-122294368D01*
X220723837Y-122380958D01*
X220750904Y-122467339D01*
X220916775Y-122518467D01*
X220958833Y-122521106D01*
X221191667Y-122529546D01*
X220980000Y-122587934D01*
X220817082Y-122680576D01*
X220747230Y-122872087D01*
X220741798Y-122918215D01*
X220748042Y-123122647D01*
X220842772Y-123232802D01*
X220921726Y-123268606D01*
X221066468Y-123355558D01*
X221091947Y-123498788D01*
X221076648Y-123586052D01*
X221025106Y-123825000D01*
X220996445Y-123587147D01*
X220941658Y-123416254D01*
X220858700Y-123391913D01*
X220780016Y-123502564D01*
X220742222Y-123677729D01*
X220761188Y-123905419D01*
X220873784Y-124025134D01*
X221065961Y-124065870D01*
X221221614Y-123951806D01*
X221314866Y-123780277D01*
X221371727Y-123656132D01*
X221382452Y-123676169D01*
X221354690Y-123846167D01*
X221349094Y-124050932D01*
X221412238Y-124121221D01*
X221412238Y-124557986D01*
X221246659Y-124559545D01*
X221212833Y-124561409D01*
X220768333Y-124587000D01*
X220742056Y-124904500D01*
X220715778Y-125222000D01*
X221186556Y-125222000D01*
X221186556Y-125359645D01*
X221100968Y-125314194D01*
X220899820Y-125388972D01*
X220889767Y-125394312D01*
X220769568Y-125532559D01*
X220725451Y-125731311D01*
X220760854Y-125918805D01*
X220859925Y-126017275D01*
X221105665Y-126065529D01*
X221105665Y-126168363D01*
X221091742Y-126169037D01*
X220888131Y-126195947D01*
X220790447Y-126265857D01*
X220752628Y-126429709D01*
X220742298Y-126555500D01*
X220735424Y-126782259D01*
X220773058Y-126887916D01*
X220876844Y-126919154D01*
X220911632Y-126920700D01*
X221107000Y-126926067D01*
X220907315Y-127006036D01*
X220772749Y-127090182D01*
X220732066Y-127232323D01*
X220742147Y-127381670D01*
X220776664Y-127677333D01*
X214460667Y-127677333D01*
X214460667Y-125893628D01*
X214461532Y-125300488D01*
G36*
X222410726Y-126440332D02*
G01*
X222616331Y-126407360D01*
X222623944Y-126407333D01*
X222842460Y-126431806D01*
X222924804Y-126513098D01*
X222927333Y-126539698D01*
X222878458Y-126631692D01*
X222710006Y-126649709D01*
X222658687Y-126645531D01*
X222436748Y-126592624D01*
X222352480Y-126513156D01*
X222410726Y-126440332D01*
X222410726Y-126440332D01*
G37*
X222410726Y-126440332D02*
X222616331Y-126407360D01*
X222623944Y-126407333D01*
X222842460Y-126431806D01*
X222924804Y-126513098D01*
X222927333Y-126539698D01*
X222878458Y-126631692D01*
X222710006Y-126649709D01*
X222658687Y-126645531D01*
X222436748Y-126592624D01*
X222352480Y-126513156D01*
X222410726Y-126440332D01*
G36*
X221438372Y-126956637D02*
G01*
X221593542Y-126941360D01*
X221861862Y-126929868D01*
X222101833Y-126925155D01*
X222927333Y-126915333D01*
X222927333Y-127677333D01*
X222197300Y-127677333D01*
X221847553Y-127673994D01*
X221640686Y-127660437D01*
X221550318Y-127631351D01*
X221550065Y-127581428D01*
X221571754Y-127551433D01*
X221635705Y-127368828D01*
X221601630Y-127160782D01*
X221489290Y-127004795D01*
X221424442Y-126973685D01*
X221438372Y-126956637D01*
X221438372Y-126956637D01*
G37*
X221438372Y-126956637D02*
X221593542Y-126941360D01*
X221861862Y-126929868D01*
X222101833Y-126925155D01*
X222927333Y-126915333D01*
X222927333Y-127677333D01*
X222197300Y-127677333D01*
X221847553Y-127673994D01*
X221640686Y-127660437D01*
X221550318Y-127631351D01*
X221550065Y-127581428D01*
X221571754Y-127551433D01*
X221635705Y-127368828D01*
X221601630Y-127160782D01*
X221489290Y-127004795D01*
X221424442Y-126973685D01*
X221438372Y-126956637D01*
D14*
X129988000Y-69790000D02*
X131318000Y-69790000D01*
X129988000Y-71120000D02*
X129988000Y-69790000D01*
X132588000Y-69790000D02*
X135188000Y-69790000D01*
X132588000Y-72390000D02*
X132588000Y-69790000D01*
X129988000Y-72390000D02*
X132588000Y-72390000D01*
X135188000Y-69790000D02*
X135188000Y-80070000D01*
X129988000Y-72390000D02*
X129988000Y-80070000D01*
X129988000Y-80070000D02*
X135188000Y-80070000D01*
X129092000Y-105544000D02*
X118812000Y-105544000D01*
X129092000Y-123564000D02*
X129092000Y-105544000D01*
X118812000Y-123564000D02*
X129092000Y-123564000D01*
X118812000Y-105544000D02*
X118812000Y-123564000D01*
X126602000Y-105604000D02*
X124952000Y-105604000D01*
X126602000Y-123504000D02*
X126602000Y-105604000D01*
X121302000Y-123504000D02*
X126602000Y-123504000D01*
X121302000Y-105604000D02*
X121302000Y-123504000D01*
X122952000Y-105604000D02*
X121302000Y-105604000D01*
X124952000Y-105604000D02*
G75*
G02X122952000Y-105604000I-1000000J0D01*
G01*
X210626000Y-105544000D02*
X200346000Y-105544000D01*
X210626000Y-123564000D02*
X210626000Y-105544000D01*
X200346000Y-123564000D02*
X210626000Y-123564000D01*
X200346000Y-105544000D02*
X200346000Y-123564000D01*
X208136000Y-105604000D02*
X206486000Y-105604000D01*
X208136000Y-123504000D02*
X208136000Y-105604000D01*
X202836000Y-123504000D02*
X208136000Y-123504000D01*
X202836000Y-105604000D02*
X202836000Y-123504000D01*
X204486000Y-105604000D02*
X202836000Y-105604000D01*
X206486000Y-105604000D02*
G75*
G02X204486000Y-105604000I-1000000J0D01*
G01*
X129092000Y-59570000D02*
X118812000Y-59570000D01*
X129092000Y-80130000D02*
X129092000Y-59570000D01*
X118812000Y-80130000D02*
X129092000Y-80130000D01*
X118812000Y-59570000D02*
X118812000Y-80130000D01*
X126602000Y-59630000D02*
X124952000Y-59630000D01*
X126602000Y-80070000D02*
X126602000Y-59630000D01*
X121302000Y-80070000D02*
X126602000Y-80070000D01*
X121302000Y-59630000D02*
X121302000Y-80070000D01*
X122952000Y-59630000D02*
X121302000Y-59630000D01*
X124952000Y-59630000D02*
G75*
G02X122952000Y-59630000I-1000000J0D01*
G01*
X133848800Y-37652000D02*
X133848800Y-36322000D01*
X135178800Y-37652000D02*
X133848800Y-37652000D01*
X136448800Y-37652000D02*
X136448800Y-34992000D01*
X136448800Y-34992000D02*
X141588800Y-34992000D01*
X136448800Y-37652000D02*
X141588800Y-37652000D01*
X141588800Y-37652000D02*
X141588800Y-34992000D01*
X151647200Y-38488000D02*
X133747200Y-38488000D01*
X151647200Y-69208000D02*
X151647200Y-38488000D01*
X133747200Y-69208000D02*
X151647200Y-69208000D01*
X133747200Y-38488000D02*
X133747200Y-69208000D01*
X149157200Y-38548000D02*
X143697200Y-38548000D01*
X149157200Y-69148000D02*
X149157200Y-38548000D01*
X136237200Y-69148000D02*
X149157200Y-69148000D01*
X136237200Y-38548000D02*
X136237200Y-69148000D01*
X141697200Y-38548000D02*
X136237200Y-38548000D01*
X143697200Y-38548000D02*
G75*
G02X141697200Y-38548000I-1000000J0D01*
G01*
X151393200Y-35017400D02*
X151393200Y-36347400D01*
X150063200Y-35017400D02*
X151393200Y-35017400D01*
X148793200Y-35017400D02*
X148793200Y-37677400D01*
X148793200Y-37677400D02*
X143653200Y-37677400D01*
X148793200Y-35017400D02*
X143653200Y-35017400D01*
X143653200Y-35017400D02*
X143653200Y-37677400D01*
X219142000Y-39081400D02*
X220472000Y-39081400D01*
X219142000Y-40411400D02*
X219142000Y-39081400D01*
X221742000Y-39081400D02*
X224342000Y-39081400D01*
X221742000Y-41681400D02*
X221742000Y-39081400D01*
X219142000Y-41681400D02*
X221742000Y-41681400D01*
X224282000Y-39141400D02*
X224282000Y-90061400D01*
X219142000Y-41681400D02*
X219142000Y-90001400D01*
X219142000Y-90001400D02*
X224342000Y-90001400D01*
X211547400Y-39081400D02*
X212877400Y-39081400D01*
X211547400Y-40411400D02*
X211547400Y-39081400D01*
X214147400Y-39081400D02*
X216747400Y-39081400D01*
X214147400Y-41681400D02*
X214147400Y-39081400D01*
X211547400Y-41681400D02*
X214147400Y-41681400D01*
X216687400Y-39141400D02*
X216687400Y-90061400D01*
X211547400Y-41681400D02*
X211547400Y-90001400D01*
X211547400Y-90001400D02*
X216747400Y-90001400D01*
X199500800Y-103054800D02*
X189220800Y-103054800D01*
X199500800Y-123614800D02*
X199500800Y-103054800D01*
X189220800Y-123614800D02*
X199500800Y-123614800D01*
X189220800Y-103054800D02*
X189220800Y-123614800D01*
X197010800Y-103114800D02*
X195360800Y-103114800D01*
X197010800Y-123554800D02*
X197010800Y-103114800D01*
X191710800Y-123554800D02*
X197010800Y-123554800D01*
X191710800Y-103114800D02*
X191710800Y-123554800D01*
X193360800Y-103114800D02*
X191710800Y-103114800D01*
X195360800Y-103114800D02*
G75*
G02X193360800Y-103114800I-1000000J0D01*
G01*
X84801225Y-71858800D02*
X84801225Y-72358800D01*
X84551225Y-72108800D02*
X85051225Y-72108800D01*
X89957000Y-73299800D02*
X89957000Y-73867800D01*
X89917000Y-73065800D02*
X89917000Y-74101800D01*
X89877000Y-72906800D02*
X89877000Y-74260800D01*
X89837000Y-72778800D02*
X89837000Y-74388800D01*
X89797000Y-72668800D02*
X89797000Y-74498800D01*
X89757000Y-72572800D02*
X89757000Y-74594800D01*
X89717000Y-72485800D02*
X89717000Y-74681800D01*
X89677000Y-72405800D02*
X89677000Y-74761800D01*
X89637000Y-74623800D02*
X89637000Y-74834800D01*
X89637000Y-72332800D02*
X89637000Y-72543800D01*
X89597000Y-74623800D02*
X89597000Y-74902800D01*
X89597000Y-72264800D02*
X89597000Y-72543800D01*
X89557000Y-74623800D02*
X89557000Y-74966800D01*
X89557000Y-72200800D02*
X89557000Y-72543800D01*
X89517000Y-74623800D02*
X89517000Y-75026800D01*
X89517000Y-72140800D02*
X89517000Y-72543800D01*
X89477000Y-74623800D02*
X89477000Y-75083800D01*
X89477000Y-72083800D02*
X89477000Y-72543800D01*
X89437000Y-74623800D02*
X89437000Y-75137800D01*
X89437000Y-72029800D02*
X89437000Y-72543800D01*
X89397000Y-74623800D02*
X89397000Y-75188800D01*
X89397000Y-71978800D02*
X89397000Y-72543800D01*
X89357000Y-74623800D02*
X89357000Y-75236800D01*
X89357000Y-71930800D02*
X89357000Y-72543800D01*
X89317000Y-74623800D02*
X89317000Y-75282800D01*
X89317000Y-71884800D02*
X89317000Y-72543800D01*
X89277000Y-74623800D02*
X89277000Y-75326800D01*
X89277000Y-71840800D02*
X89277000Y-72543800D01*
X89237000Y-74623800D02*
X89237000Y-75368800D01*
X89237000Y-71798800D02*
X89237000Y-72543800D01*
X89197000Y-74623800D02*
X89197000Y-75409800D01*
X89197000Y-71757800D02*
X89197000Y-72543800D01*
X89157000Y-74623800D02*
X89157000Y-75447800D01*
X89157000Y-71719800D02*
X89157000Y-72543800D01*
X89117000Y-74623800D02*
X89117000Y-75484800D01*
X89117000Y-71682800D02*
X89117000Y-72543800D01*
X89077000Y-74623800D02*
X89077000Y-75520800D01*
X89077000Y-71646800D02*
X89077000Y-72543800D01*
X89037000Y-74623800D02*
X89037000Y-75554800D01*
X89037000Y-71612800D02*
X89037000Y-72543800D01*
X88997000Y-74623800D02*
X88997000Y-75587800D01*
X88997000Y-71579800D02*
X88997000Y-72543800D01*
X88957000Y-74623800D02*
X88957000Y-75618800D01*
X88957000Y-71548800D02*
X88957000Y-72543800D01*
X88917000Y-74623800D02*
X88917000Y-75648800D01*
X88917000Y-71518800D02*
X88917000Y-72543800D01*
X88877000Y-74623800D02*
X88877000Y-75678800D01*
X88877000Y-71488800D02*
X88877000Y-72543800D01*
X88837000Y-74623800D02*
X88837000Y-75705800D01*
X88837000Y-71461800D02*
X88837000Y-72543800D01*
X88797000Y-74623800D02*
X88797000Y-75732800D01*
X88797000Y-71434800D02*
X88797000Y-72543800D01*
X88757000Y-74623800D02*
X88757000Y-75758800D01*
X88757000Y-71408800D02*
X88757000Y-72543800D01*
X88717000Y-74623800D02*
X88717000Y-75783800D01*
X88717000Y-71383800D02*
X88717000Y-72543800D01*
X88677000Y-74623800D02*
X88677000Y-75807800D01*
X88677000Y-71359800D02*
X88677000Y-72543800D01*
X88637000Y-74623800D02*
X88637000Y-75830800D01*
X88637000Y-71336800D02*
X88637000Y-72543800D01*
X88597000Y-74623800D02*
X88597000Y-75851800D01*
X88597000Y-71315800D02*
X88597000Y-72543800D01*
X88557000Y-74623800D02*
X88557000Y-75873800D01*
X88557000Y-71293800D02*
X88557000Y-72543800D01*
X88517000Y-74623800D02*
X88517000Y-75893800D01*
X88517000Y-71273800D02*
X88517000Y-72543800D01*
X88477000Y-74623800D02*
X88477000Y-75912800D01*
X88477000Y-71254800D02*
X88477000Y-72543800D01*
X88437000Y-74623800D02*
X88437000Y-75931800D01*
X88437000Y-71235800D02*
X88437000Y-72543800D01*
X88397000Y-74623800D02*
X88397000Y-75948800D01*
X88397000Y-71218800D02*
X88397000Y-72543800D01*
X88357000Y-74623800D02*
X88357000Y-75965800D01*
X88357000Y-71201800D02*
X88357000Y-72543800D01*
X88317000Y-74623800D02*
X88317000Y-75981800D01*
X88317000Y-71185800D02*
X88317000Y-72543800D01*
X88277000Y-74623800D02*
X88277000Y-75997800D01*
X88277000Y-71169800D02*
X88277000Y-72543800D01*
X88237000Y-74623800D02*
X88237000Y-76011800D01*
X88237000Y-71155800D02*
X88237000Y-72543800D01*
X88197000Y-74623800D02*
X88197000Y-76025800D01*
X88197000Y-71141800D02*
X88197000Y-72543800D01*
X88157000Y-74623800D02*
X88157000Y-76038800D01*
X88157000Y-71128800D02*
X88157000Y-72543800D01*
X88117000Y-74623800D02*
X88117000Y-76051800D01*
X88117000Y-71115800D02*
X88117000Y-72543800D01*
X88077000Y-74623800D02*
X88077000Y-76063800D01*
X88077000Y-71103800D02*
X88077000Y-72543800D01*
X88036000Y-74623800D02*
X88036000Y-76074800D01*
X88036000Y-71092800D02*
X88036000Y-72543800D01*
X87996000Y-74623800D02*
X87996000Y-76084800D01*
X87996000Y-71082800D02*
X87996000Y-72543800D01*
X87956000Y-74623800D02*
X87956000Y-76094800D01*
X87956000Y-71072800D02*
X87956000Y-72543800D01*
X87916000Y-74623800D02*
X87916000Y-76103800D01*
X87916000Y-71063800D02*
X87916000Y-72543800D01*
X87876000Y-74623800D02*
X87876000Y-76111800D01*
X87876000Y-71055800D02*
X87876000Y-72543800D01*
X87836000Y-74623800D02*
X87836000Y-76119800D01*
X87836000Y-71047800D02*
X87836000Y-72543800D01*
X87796000Y-74623800D02*
X87796000Y-76126800D01*
X87796000Y-71040800D02*
X87796000Y-72543800D01*
X87756000Y-74623800D02*
X87756000Y-76133800D01*
X87756000Y-71033800D02*
X87756000Y-72543800D01*
X87716000Y-74623800D02*
X87716000Y-76139800D01*
X87716000Y-71027800D02*
X87716000Y-72543800D01*
X87676000Y-74623800D02*
X87676000Y-76144800D01*
X87676000Y-71022800D02*
X87676000Y-72543800D01*
X87636000Y-74623800D02*
X87636000Y-76148800D01*
X87636000Y-71018800D02*
X87636000Y-72543800D01*
X87596000Y-74623800D02*
X87596000Y-76152800D01*
X87596000Y-71014800D02*
X87596000Y-72543800D01*
X87556000Y-71010800D02*
X87556000Y-76156800D01*
X87516000Y-71007800D02*
X87516000Y-76159800D01*
X87476000Y-71005800D02*
X87476000Y-76161800D01*
X87436000Y-71004800D02*
X87436000Y-76162800D01*
X87396000Y-71003800D02*
X87396000Y-76163800D01*
X87356000Y-71003800D02*
X87356000Y-76163800D01*
X89976000Y-73583800D02*
G75*
G03X89976000Y-73583800I-2620000J0D01*
G01*
X110470000Y-107389600D02*
X110470000Y-104649600D01*
X118210000Y-107389600D02*
X118210000Y-104649600D01*
X118210000Y-104649600D02*
X110470000Y-104649600D01*
X118210000Y-107389600D02*
X110470000Y-107389600D01*
X99337800Y-40634600D02*
X96597800Y-40634600D01*
X99337800Y-32894600D02*
X96597800Y-32894600D01*
X96597800Y-32894600D02*
X96597800Y-40634600D01*
X99337800Y-32894600D02*
X99337800Y-40634600D01*
X88492000Y-105861800D02*
X85752000Y-105861800D01*
X88492000Y-98121800D02*
X85752000Y-98121800D01*
X85752000Y-98121800D02*
X85752000Y-105861800D01*
X88492000Y-98121800D02*
X88492000Y-105861800D01*
X200436800Y-102716000D02*
X200436800Y-99976000D01*
X208176800Y-102716000D02*
X208176800Y-99976000D01*
X208176800Y-99976000D02*
X200436800Y-99976000D01*
X208176800Y-102716000D02*
X200436800Y-102716000D01*
X189210000Y-128878000D02*
X189210000Y-126138000D01*
X196950000Y-128878000D02*
X196950000Y-126138000D01*
X196950000Y-126138000D02*
X189210000Y-126138000D01*
X196950000Y-128878000D02*
X189210000Y-128878000D01*
X130002600Y-126769800D02*
X130002600Y-124029800D01*
X137742600Y-126769800D02*
X137742600Y-124029800D01*
X137742600Y-124029800D02*
X130002600Y-124029800D01*
X137742600Y-126769800D02*
X130002600Y-126769800D01*
X118017600Y-33027000D02*
X100117600Y-33027000D01*
X118017600Y-84067000D02*
X118017600Y-33027000D01*
X100117600Y-84067000D02*
X118017600Y-84067000D01*
X100117600Y-33027000D02*
X100117600Y-84067000D01*
X115527600Y-33087000D02*
X110067600Y-33087000D01*
X115527600Y-84007000D02*
X115527600Y-33087000D01*
X102607600Y-84007000D02*
X115527600Y-84007000D01*
X102607600Y-33087000D02*
X102607600Y-84007000D01*
X108067600Y-33087000D02*
X102607600Y-33087000D01*
X110067600Y-33087000D02*
G75*
G02X108067600Y-33087000I-1000000J0D01*
G01*
X120913200Y-86113000D02*
X110633200Y-86113000D01*
X120913200Y-104133000D02*
X120913200Y-86113000D01*
X110633200Y-104133000D02*
X120913200Y-104133000D01*
X110633200Y-86113000D02*
X110633200Y-104133000D01*
X118423200Y-86173000D02*
X116773200Y-86173000D01*
X118423200Y-104073000D02*
X118423200Y-86173000D01*
X113123200Y-104073000D02*
X118423200Y-104073000D01*
X113123200Y-86173000D02*
X113123200Y-104073000D01*
X114773200Y-86173000D02*
X113123200Y-86173000D01*
X116773200Y-86173000D02*
G75*
G02X114773200Y-86173000I-1000000J0D01*
G01*
X72524000Y-76825800D02*
X72524000Y-87105800D01*
X93084000Y-76825800D02*
X72524000Y-76825800D01*
X93084000Y-87105800D02*
X93084000Y-76825800D01*
X72524000Y-87105800D02*
X93084000Y-87105800D01*
X72584000Y-79315800D02*
X72584000Y-80965800D01*
X93024000Y-79315800D02*
X72584000Y-79315800D01*
X93024000Y-84615800D02*
X93024000Y-79315800D01*
X72584000Y-84615800D02*
X93024000Y-84615800D01*
X72584000Y-82965800D02*
X72584000Y-84615800D01*
X72584000Y-80965800D02*
G75*
G02X72584000Y-82965800I0J-1000000D01*
G01*
X102021000Y-97444800D02*
X95771000Y-97444800D01*
X102021000Y-92394800D02*
X95771000Y-92394800D01*
X102021000Y-92394800D02*
G75*
G02X102021000Y-97444800I0J-2525000D01*
G01*
X95771000Y-92394800D02*
G75*
G03X95771000Y-97444800I0J-2525000D01*
G01*
X74108000Y-93709800D02*
X74108000Y-92379800D01*
X75438000Y-93709800D02*
X74108000Y-93709800D01*
X74108000Y-91109800D02*
X74108000Y-88509800D01*
X76708000Y-91109800D02*
X74108000Y-91109800D01*
X76708000Y-93709800D02*
X76708000Y-91109800D01*
X74108000Y-88509800D02*
X86928000Y-88509800D01*
X76708000Y-93709800D02*
X86928000Y-93709800D01*
X86928000Y-93709800D02*
X86928000Y-88509800D01*
X145389600Y-125907800D02*
X145389600Y-105587800D01*
X155549600Y-125907800D02*
X145389600Y-125907800D01*
X155549600Y-105587800D02*
X155549600Y-125907800D01*
X145389600Y-105587800D02*
X155549600Y-105587800D01*
X160629600Y-125907800D02*
X160629600Y-105587800D01*
X170789600Y-125907800D02*
X160629600Y-125907800D01*
X170789600Y-105587800D02*
X170789600Y-125907800D01*
X160629600Y-105587800D02*
X170789600Y-105587800D01*
X160655000Y-101854000D02*
X160655000Y-81534000D01*
X170815000Y-101854000D02*
X160655000Y-101854000D01*
X170815000Y-81534000D02*
X170815000Y-101854000D01*
X160655000Y-81534000D02*
X170815000Y-81534000D01*
X145415000Y-101854000D02*
X145415000Y-81534000D01*
X155575000Y-101854000D02*
X145415000Y-101854000D01*
X155575000Y-81534000D02*
X155575000Y-101854000D01*
X145415000Y-81534000D02*
X155575000Y-81534000D01*
X140369600Y-105467800D02*
X130089600Y-105467800D01*
X140369600Y-123487800D02*
X140369600Y-105467800D01*
X130089600Y-123487800D02*
X140369600Y-123487800D01*
X130089600Y-105467800D02*
X130089600Y-123487800D01*
X137879600Y-105527800D02*
X136229600Y-105527800D01*
X137879600Y-123427800D02*
X137879600Y-105527800D01*
X132579600Y-123427800D02*
X137879600Y-123427800D01*
X132579600Y-105527800D02*
X132579600Y-123427800D01*
X134229600Y-105527800D02*
X132579600Y-105527800D01*
X136229600Y-105527800D02*
G75*
G02X134229600Y-105527800I-1000000J0D01*
G01*
X188401000Y-105620200D02*
X178121000Y-105620200D01*
X188401000Y-123640200D02*
X188401000Y-105620200D01*
X178121000Y-123640200D02*
X188401000Y-123640200D01*
X178121000Y-105620200D02*
X178121000Y-123640200D01*
X185911000Y-105680200D02*
X184261000Y-105680200D01*
X185911000Y-123580200D02*
X185911000Y-105680200D01*
X180611000Y-123580200D02*
X185911000Y-123580200D01*
X180611000Y-105680200D02*
X180611000Y-123580200D01*
X182261000Y-105680200D02*
X180611000Y-105680200D01*
X184261000Y-105680200D02*
G75*
G02X182261000Y-105680200I-1000000J0D01*
G01*
X136356400Y-81388600D02*
X126076400Y-81388600D01*
X136356400Y-99408600D02*
X136356400Y-81388600D01*
X126076400Y-99408600D02*
X136356400Y-99408600D01*
X126076400Y-81388600D02*
X126076400Y-99408600D01*
X133866400Y-81448600D02*
X132216400Y-81448600D01*
X133866400Y-99348600D02*
X133866400Y-81448600D01*
X128566400Y-99348600D02*
X133866400Y-99348600D01*
X128566400Y-81448600D02*
X128566400Y-99348600D01*
X130216400Y-81448600D02*
X128566400Y-81448600D01*
X132216400Y-81448600D02*
G75*
G02X130216400Y-81448600I-1000000J0D01*
G01*
X188655000Y-81439400D02*
X178375000Y-81439400D01*
X188655000Y-99459400D02*
X188655000Y-81439400D01*
X178375000Y-99459400D02*
X188655000Y-99459400D01*
X178375000Y-81439400D02*
X178375000Y-99459400D01*
X186165000Y-81499400D02*
X184515000Y-81499400D01*
X186165000Y-99399400D02*
X186165000Y-81499400D01*
X180865000Y-99399400D02*
X186165000Y-99399400D01*
X180865000Y-81499400D02*
X180865000Y-99399400D01*
X182515000Y-81499400D02*
X180865000Y-81499400D01*
X184515000Y-81499400D02*
G75*
G02X182515000Y-81499400I-1000000J0D01*
G01*
X170900800Y-33333400D02*
X153000800Y-33333400D01*
X170900800Y-69133400D02*
X170900800Y-33333400D01*
X153000800Y-69133400D02*
X170900800Y-69133400D01*
X153000800Y-33333400D02*
X153000800Y-69133400D01*
X168410800Y-33393400D02*
X162950800Y-33393400D01*
X168410800Y-69073400D02*
X168410800Y-33393400D01*
X155490800Y-69073400D02*
X168410800Y-69073400D01*
X155490800Y-33393400D02*
X155490800Y-69073400D01*
X160950800Y-33393400D02*
X155490800Y-33393400D01*
X162950800Y-33393400D02*
G75*
G02X160950800Y-33393400I-1000000J0D01*
G01*
X190300800Y-33333400D02*
X172400800Y-33333400D01*
X190300800Y-69133400D02*
X190300800Y-33333400D01*
X172400800Y-69133400D02*
X190300800Y-69133400D01*
X172400800Y-33333400D02*
X172400800Y-69133400D01*
X187810800Y-33393400D02*
X182350800Y-33393400D01*
X187810800Y-69073400D02*
X187810800Y-33393400D01*
X174890800Y-69073400D02*
X187810800Y-69073400D01*
X174890800Y-33393400D02*
X174890800Y-69073400D01*
X180350800Y-33393400D02*
X174890800Y-33393400D01*
X182350800Y-33393400D02*
G75*
G02X180350800Y-33393400I-1000000J0D01*
G01*
X210702200Y-81439400D02*
X200422200Y-81439400D01*
X210702200Y-99459400D02*
X210702200Y-81439400D01*
X200422200Y-99459400D02*
X210702200Y-99459400D01*
X200422200Y-81439400D02*
X200422200Y-99459400D01*
X208212200Y-81499400D02*
X206562200Y-81499400D01*
X208212200Y-99399400D02*
X208212200Y-81499400D01*
X202912200Y-99399400D02*
X208212200Y-99399400D01*
X202912200Y-81499400D02*
X202912200Y-99399400D01*
X204562200Y-81499400D02*
X202912200Y-81499400D01*
X206562200Y-81499400D02*
G75*
G02X204562200Y-81499400I-1000000J0D01*
G01*
X199627800Y-78899400D02*
X189347800Y-78899400D01*
X199627800Y-99459400D02*
X199627800Y-78899400D01*
X189347800Y-99459400D02*
X199627800Y-99459400D01*
X189347800Y-78899400D02*
X189347800Y-99459400D01*
X197137800Y-78959400D02*
X195487800Y-78959400D01*
X197137800Y-99399400D02*
X197137800Y-78959400D01*
X191837800Y-99399400D02*
X197137800Y-99399400D01*
X191837800Y-78959400D02*
X191837800Y-99399400D01*
X193487800Y-78959400D02*
X191837800Y-78959400D01*
X195487800Y-78959400D02*
G75*
G02X193487800Y-78959400I-1000000J0D01*
G01*
X91116000Y-49041800D02*
X91116000Y-51581800D01*
X88576000Y-49041800D02*
X88576000Y-51581800D01*
X86036000Y-49041800D02*
X86036000Y-51581800D01*
X93696000Y-33151800D02*
X93696000Y-49041800D01*
X83456000Y-33151800D02*
X83456000Y-49041800D01*
X83456000Y-33151800D02*
X93696000Y-33151800D01*
X83456000Y-49041800D02*
X93696000Y-49041800D01*
X88780000Y-98161800D02*
X88780000Y-108441800D01*
X109340000Y-98161800D02*
X88780000Y-98161800D01*
X109340000Y-108441800D02*
X109340000Y-98161800D01*
X88780000Y-108441800D02*
X109340000Y-108441800D01*
X88840000Y-100651800D02*
X88840000Y-102301800D01*
X109280000Y-100651800D02*
X88840000Y-100651800D01*
X109280000Y-105951800D02*
X109280000Y-100651800D01*
X88840000Y-105951800D02*
X109280000Y-105951800D01*
X88840000Y-104301800D02*
X88840000Y-105951800D01*
X88840000Y-102301800D02*
G75*
G02X88840000Y-104301800I0J-1000000D01*
G01*
X144249600Y-105587800D02*
X141449600Y-105587800D01*
X144249600Y-128617800D02*
X144249600Y-102877800D01*
X141449600Y-128617800D02*
X144249600Y-128617800D01*
X141449600Y-102877800D02*
X141449600Y-128617800D01*
X144249600Y-102877800D02*
X141449600Y-102877800D01*
X177041000Y-105740200D02*
X174241000Y-105740200D01*
X177041000Y-128770200D02*
X177041000Y-103030200D01*
X174241000Y-128770200D02*
X177041000Y-128770200D01*
X174241000Y-103030200D02*
X174241000Y-128770200D01*
X177041000Y-103030200D02*
X174241000Y-103030200D01*
X140439600Y-81457800D02*
X137639600Y-81457800D01*
X140439600Y-104487800D02*
X140439600Y-78747800D01*
X137639600Y-104487800D02*
X140439600Y-104487800D01*
X137639600Y-78747800D02*
X137639600Y-104487800D01*
X140439600Y-78747800D02*
X137639600Y-78747800D01*
X173586600Y-81457800D02*
X170786600Y-81457800D01*
X173586600Y-104487800D02*
X173586600Y-78747800D01*
X170786600Y-104487800D02*
X173586600Y-104487800D01*
X170786600Y-78747800D02*
X170786600Y-104487800D01*
X173586600Y-78747800D02*
X170786600Y-78747800D01*
X90170000Y-89763800D02*
X90170000Y-90713800D01*
X90170000Y-95503800D02*
X90170000Y-94553800D01*
X89250000Y-90713800D02*
X89250000Y-94553800D01*
X91090000Y-90713800D02*
X89250000Y-90713800D01*
X91090000Y-94553800D02*
X91090000Y-90713800D01*
X89250000Y-94553800D02*
X91090000Y-94553800D01*
X98374200Y-47117200D02*
X98374200Y-48067200D01*
X98374200Y-52857200D02*
X98374200Y-51907200D01*
X97454200Y-48067200D02*
X97454200Y-51907200D01*
X99294200Y-48067200D02*
X97454200Y-48067200D01*
X99294200Y-51907200D02*
X99294200Y-48067200D01*
X97454200Y-51907200D02*
X99294200Y-51907200D01*
X105918000Y-86715800D02*
X105918000Y-87665800D01*
X105918000Y-92455800D02*
X105918000Y-91505800D01*
X104998000Y-87665800D02*
X104998000Y-91505800D01*
X106838000Y-87665800D02*
X104998000Y-87665800D01*
X106838000Y-91505800D02*
X106838000Y-87665800D01*
X104998000Y-91505800D02*
X106838000Y-91505800D01*
X108458000Y-90271800D02*
X108458000Y-91221800D01*
X108458000Y-96011800D02*
X108458000Y-95061800D01*
X107538000Y-91221800D02*
X107538000Y-95061800D01*
X109378000Y-91221800D02*
X107538000Y-91221800D01*
X109378000Y-95061800D02*
X109378000Y-91221800D01*
X107538000Y-95061800D02*
X109378000Y-95061800D01*
X81661000Y-48056800D02*
X72771000Y-48056800D01*
X81661000Y-36626800D02*
X81661000Y-48056800D01*
X72771000Y-36626800D02*
X81661000Y-36626800D01*
X72771000Y-48056800D02*
X72771000Y-36626800D01*
X81661000Y-43611800D02*
G75*
G02X72771000Y-43611800I-4445000J0D01*
G01*
X81661000Y-48056800D02*
G75*
G02X72771000Y-48056800I-4445000J0D01*
G01*
X72771000Y-36626800D02*
G75*
G02X81661000Y-36626800I4445000J0D01*
G01*
X219650000Y-32960000D02*
X220980000Y-32960000D01*
X219650000Y-34290000D02*
X219650000Y-32960000D01*
X219650000Y-35560000D02*
X222310000Y-35560000D01*
X222310000Y-35560000D02*
X222310000Y-35620000D01*
X219650000Y-35560000D02*
X219650000Y-35620000D01*
X219650000Y-35620000D02*
X222310000Y-35620000D01*
X88586000Y-124697800D02*
X88586000Y-123367800D01*
X89916000Y-124697800D02*
X88586000Y-124697800D01*
X88586000Y-122097800D02*
X88586000Y-119497800D01*
X91186000Y-122097800D02*
X88586000Y-122097800D01*
X91186000Y-124697800D02*
X91186000Y-122097800D01*
X88586000Y-119497800D02*
X109026000Y-119497800D01*
X91186000Y-124697800D02*
X109026000Y-124697800D01*
X109026000Y-124697800D02*
X109026000Y-119497800D01*
X88586000Y-116061800D02*
X88586000Y-114731800D01*
X89916000Y-116061800D02*
X88586000Y-116061800D01*
X88586000Y-113461800D02*
X88586000Y-110861800D01*
X91186000Y-113461800D02*
X88586000Y-113461800D01*
X91186000Y-116061800D02*
X91186000Y-113461800D01*
X88586000Y-110861800D02*
X109026000Y-110861800D01*
X91186000Y-116061800D02*
X109026000Y-116061800D01*
X109026000Y-116061800D02*
X109026000Y-110861800D01*
X81667744Y-105135330D02*
X76967744Y-105964067D01*
X81667744Y-120868270D02*
X76967744Y-120039533D01*
X75596000Y-107598848D02*
X75596000Y-118404752D01*
X83616000Y-106770111D02*
X83616000Y-119233489D01*
X86377325Y-118541800D02*
X86810338Y-118291800D01*
X86810338Y-118791800D02*
X86377325Y-118541800D01*
X86810338Y-118291800D02*
X86810338Y-118791800D01*
X74356000Y-97516800D02*
X84856000Y-97516800D01*
X73296000Y-127426800D02*
X73296000Y-98576800D01*
X84856000Y-128486800D02*
X74356000Y-128486800D01*
X85916000Y-98576800D02*
X85916000Y-127426800D01*
X76967744Y-120039533D02*
G75*
G02X75596000Y-118404752I288256J1634781D01*
G01*
X76967744Y-105964067D02*
G75*
G03X75596000Y-107598848I288256J-1634781D01*
G01*
X81667744Y-120868270D02*
G75*
G03X83616000Y-119233489I288256J1634781D01*
G01*
X81667744Y-105135330D02*
G75*
G02X83616000Y-106770111I288256J-1634781D01*
G01*
X73296000Y-127426800D02*
G75*
G03X74356000Y-128486800I1060000J0D01*
G01*
X73296000Y-98576800D02*
G75*
G02X74356000Y-97516800I1060000J0D01*
G01*
X84856000Y-128486800D02*
G75*
G03X85916000Y-127426800I0J1060000D01*
G01*
X85916000Y-98576800D02*
G75*
G03X84856000Y-97516800I-1060000J0D01*
G01*
X99043800Y-63026600D02*
X97713800Y-63026600D01*
X99043800Y-61696600D02*
X99043800Y-63026600D01*
X99043800Y-60426600D02*
X96383800Y-60426600D01*
X96383800Y-60426600D02*
X96383800Y-55286600D01*
X99043800Y-60426600D02*
X99043800Y-55286600D01*
X99043800Y-55286600D02*
X96383800Y-55286600D01*
X99120000Y-64938600D02*
X99120000Y-66268600D01*
X97790000Y-64938600D02*
X99120000Y-64938600D01*
X99120000Y-67538600D02*
X99120000Y-70138600D01*
X96520000Y-67538600D02*
X99120000Y-67538600D01*
X96520000Y-64938600D02*
X96520000Y-67538600D01*
X99120000Y-70138600D02*
X86300000Y-70138600D01*
X96520000Y-64938600D02*
X86300000Y-64938600D01*
X86300000Y-64938600D02*
X86300000Y-70138600D01*
X89816000Y-55021800D02*
X92556000Y-55021800D01*
X89816000Y-62761800D02*
X92556000Y-62761800D01*
X92556000Y-62761800D02*
X92556000Y-55021800D01*
X89816000Y-62761800D02*
X89816000Y-55021800D01*
X84736000Y-55021800D02*
X87476000Y-55021800D01*
X84736000Y-62761800D02*
X87476000Y-62761800D01*
X87476000Y-62761800D02*
X87476000Y-55021800D01*
X84736000Y-62761800D02*
X84736000Y-55021800D01*
X74621225Y-55856800D02*
X74621225Y-56356800D01*
X74371225Y-56106800D02*
X74871225Y-56106800D01*
X79571997Y-58641800D02*
G75*
G02X74780003Y-58641800I-2395997J1060000D01*
G01*
X79571997Y-56521800D02*
G75*
G03X74780003Y-56521800I-2395997J-1060000D01*
G01*
X178338800Y-102690600D02*
X178338800Y-99950600D01*
X186078800Y-102690600D02*
X186078800Y-99950600D01*
X186078800Y-99950600D02*
X178338800Y-99950600D01*
X186078800Y-102690600D02*
X178338800Y-102690600D01*
X93880000Y-76785800D02*
X96620000Y-76785800D01*
X93880000Y-84525800D02*
X96620000Y-84525800D01*
X96620000Y-84525800D02*
X96620000Y-76785800D01*
X93880000Y-84525800D02*
X93880000Y-76785800D01*
X78705225Y-71858800D02*
X78705225Y-72358800D01*
X78455225Y-72108800D02*
X78955225Y-72108800D01*
X83861000Y-73299800D02*
X83861000Y-73867800D01*
X83821000Y-73065800D02*
X83821000Y-74101800D01*
X83781000Y-72906800D02*
X83781000Y-74260800D01*
X83741000Y-72778800D02*
X83741000Y-74388800D01*
X83701000Y-72668800D02*
X83701000Y-74498800D01*
X83661000Y-72572800D02*
X83661000Y-74594800D01*
X83621000Y-72485800D02*
X83621000Y-74681800D01*
X83581000Y-72405800D02*
X83581000Y-74761800D01*
X83541000Y-74623800D02*
X83541000Y-74834800D01*
X83541000Y-72332800D02*
X83541000Y-72543800D01*
X83501000Y-74623800D02*
X83501000Y-74902800D01*
X83501000Y-72264800D02*
X83501000Y-72543800D01*
X83461000Y-74623800D02*
X83461000Y-74966800D01*
X83461000Y-72200800D02*
X83461000Y-72543800D01*
X83421000Y-74623800D02*
X83421000Y-75026800D01*
X83421000Y-72140800D02*
X83421000Y-72543800D01*
X83381000Y-74623800D02*
X83381000Y-75083800D01*
X83381000Y-72083800D02*
X83381000Y-72543800D01*
X83341000Y-74623800D02*
X83341000Y-75137800D01*
X83341000Y-72029800D02*
X83341000Y-72543800D01*
X83301000Y-74623800D02*
X83301000Y-75188800D01*
X83301000Y-71978800D02*
X83301000Y-72543800D01*
X83261000Y-74623800D02*
X83261000Y-75236800D01*
X83261000Y-71930800D02*
X83261000Y-72543800D01*
X83221000Y-74623800D02*
X83221000Y-75282800D01*
X83221000Y-71884800D02*
X83221000Y-72543800D01*
X83181000Y-74623800D02*
X83181000Y-75326800D01*
X83181000Y-71840800D02*
X83181000Y-72543800D01*
X83141000Y-74623800D02*
X83141000Y-75368800D01*
X83141000Y-71798800D02*
X83141000Y-72543800D01*
X83101000Y-74623800D02*
X83101000Y-75409800D01*
X83101000Y-71757800D02*
X83101000Y-72543800D01*
X83061000Y-74623800D02*
X83061000Y-75447800D01*
X83061000Y-71719800D02*
X83061000Y-72543800D01*
X83021000Y-74623800D02*
X83021000Y-75484800D01*
X83021000Y-71682800D02*
X83021000Y-72543800D01*
X82981000Y-74623800D02*
X82981000Y-75520800D01*
X82981000Y-71646800D02*
X82981000Y-72543800D01*
X82941000Y-74623800D02*
X82941000Y-75554800D01*
X82941000Y-71612800D02*
X82941000Y-72543800D01*
X82901000Y-74623800D02*
X82901000Y-75587800D01*
X82901000Y-71579800D02*
X82901000Y-72543800D01*
X82861000Y-74623800D02*
X82861000Y-75618800D01*
X82861000Y-71548800D02*
X82861000Y-72543800D01*
X82821000Y-74623800D02*
X82821000Y-75648800D01*
X82821000Y-71518800D02*
X82821000Y-72543800D01*
X82781000Y-74623800D02*
X82781000Y-75678800D01*
X82781000Y-71488800D02*
X82781000Y-72543800D01*
X82741000Y-74623800D02*
X82741000Y-75705800D01*
X82741000Y-71461800D02*
X82741000Y-72543800D01*
X82701000Y-74623800D02*
X82701000Y-75732800D01*
X82701000Y-71434800D02*
X82701000Y-72543800D01*
X82661000Y-74623800D02*
X82661000Y-75758800D01*
X82661000Y-71408800D02*
X82661000Y-72543800D01*
X82621000Y-74623800D02*
X82621000Y-75783800D01*
X82621000Y-71383800D02*
X82621000Y-72543800D01*
X82581000Y-74623800D02*
X82581000Y-75807800D01*
X82581000Y-71359800D02*
X82581000Y-72543800D01*
X82541000Y-74623800D02*
X82541000Y-75830800D01*
X82541000Y-71336800D02*
X82541000Y-72543800D01*
X82501000Y-74623800D02*
X82501000Y-75851800D01*
X82501000Y-71315800D02*
X82501000Y-72543800D01*
X82461000Y-74623800D02*
X82461000Y-75873800D01*
X82461000Y-71293800D02*
X82461000Y-72543800D01*
X82421000Y-74623800D02*
X82421000Y-75893800D01*
X82421000Y-71273800D02*
X82421000Y-72543800D01*
X82381000Y-74623800D02*
X82381000Y-75912800D01*
X82381000Y-71254800D02*
X82381000Y-72543800D01*
X82341000Y-74623800D02*
X82341000Y-75931800D01*
X82341000Y-71235800D02*
X82341000Y-72543800D01*
X82301000Y-74623800D02*
X82301000Y-75948800D01*
X82301000Y-71218800D02*
X82301000Y-72543800D01*
X82261000Y-74623800D02*
X82261000Y-75965800D01*
X82261000Y-71201800D02*
X82261000Y-72543800D01*
X82221000Y-74623800D02*
X82221000Y-75981800D01*
X82221000Y-71185800D02*
X82221000Y-72543800D01*
X82181000Y-74623800D02*
X82181000Y-75997800D01*
X82181000Y-71169800D02*
X82181000Y-72543800D01*
X82141000Y-74623800D02*
X82141000Y-76011800D01*
X82141000Y-71155800D02*
X82141000Y-72543800D01*
X82101000Y-74623800D02*
X82101000Y-76025800D01*
X82101000Y-71141800D02*
X82101000Y-72543800D01*
X82061000Y-74623800D02*
X82061000Y-76038800D01*
X82061000Y-71128800D02*
X82061000Y-72543800D01*
X82021000Y-74623800D02*
X82021000Y-76051800D01*
X82021000Y-71115800D02*
X82021000Y-72543800D01*
X81981000Y-74623800D02*
X81981000Y-76063800D01*
X81981000Y-71103800D02*
X81981000Y-72543800D01*
X81940000Y-74623800D02*
X81940000Y-76074800D01*
X81940000Y-71092800D02*
X81940000Y-72543800D01*
X81900000Y-74623800D02*
X81900000Y-76084800D01*
X81900000Y-71082800D02*
X81900000Y-72543800D01*
X81860000Y-74623800D02*
X81860000Y-76094800D01*
X81860000Y-71072800D02*
X81860000Y-72543800D01*
X81820000Y-74623800D02*
X81820000Y-76103800D01*
X81820000Y-71063800D02*
X81820000Y-72543800D01*
X81780000Y-74623800D02*
X81780000Y-76111800D01*
X81780000Y-71055800D02*
X81780000Y-72543800D01*
X81740000Y-74623800D02*
X81740000Y-76119800D01*
X81740000Y-71047800D02*
X81740000Y-72543800D01*
X81700000Y-74623800D02*
X81700000Y-76126800D01*
X81700000Y-71040800D02*
X81700000Y-72543800D01*
X81660000Y-74623800D02*
X81660000Y-76133800D01*
X81660000Y-71033800D02*
X81660000Y-72543800D01*
X81620000Y-74623800D02*
X81620000Y-76139800D01*
X81620000Y-71027800D02*
X81620000Y-72543800D01*
X81580000Y-74623800D02*
X81580000Y-76144800D01*
X81580000Y-71022800D02*
X81580000Y-72543800D01*
X81540000Y-74623800D02*
X81540000Y-76148800D01*
X81540000Y-71018800D02*
X81540000Y-72543800D01*
X81500000Y-74623800D02*
X81500000Y-76152800D01*
X81500000Y-71014800D02*
X81500000Y-72543800D01*
X81460000Y-71010800D02*
X81460000Y-76156800D01*
X81420000Y-71007800D02*
X81420000Y-76159800D01*
X81380000Y-71005800D02*
X81380000Y-76161800D01*
X81340000Y-71004800D02*
X81340000Y-76162800D01*
X81300000Y-71003800D02*
X81300000Y-76163800D01*
X81260000Y-71003800D02*
X81260000Y-76163800D01*
X83880000Y-73583800D02*
G75*
G03X83880000Y-73583800I-2620000J0D01*
G01*
X90897225Y-71858800D02*
X90897225Y-72358800D01*
X90647225Y-72108800D02*
X91147225Y-72108800D01*
X96053000Y-73299800D02*
X96053000Y-73867800D01*
X96013000Y-73065800D02*
X96013000Y-74101800D01*
X95973000Y-72906800D02*
X95973000Y-74260800D01*
X95933000Y-72778800D02*
X95933000Y-74388800D01*
X95893000Y-72668800D02*
X95893000Y-74498800D01*
X95853000Y-72572800D02*
X95853000Y-74594800D01*
X95813000Y-72485800D02*
X95813000Y-74681800D01*
X95773000Y-72405800D02*
X95773000Y-74761800D01*
X95733000Y-74623800D02*
X95733000Y-74834800D01*
X95733000Y-72332800D02*
X95733000Y-72543800D01*
X95693000Y-74623800D02*
X95693000Y-74902800D01*
X95693000Y-72264800D02*
X95693000Y-72543800D01*
X95653000Y-74623800D02*
X95653000Y-74966800D01*
X95653000Y-72200800D02*
X95653000Y-72543800D01*
X95613000Y-74623800D02*
X95613000Y-75026800D01*
X95613000Y-72140800D02*
X95613000Y-72543800D01*
X95573000Y-74623800D02*
X95573000Y-75083800D01*
X95573000Y-72083800D02*
X95573000Y-72543800D01*
X95533000Y-74623800D02*
X95533000Y-75137800D01*
X95533000Y-72029800D02*
X95533000Y-72543800D01*
X95493000Y-74623800D02*
X95493000Y-75188800D01*
X95493000Y-71978800D02*
X95493000Y-72543800D01*
X95453000Y-74623800D02*
X95453000Y-75236800D01*
X95453000Y-71930800D02*
X95453000Y-72543800D01*
X95413000Y-74623800D02*
X95413000Y-75282800D01*
X95413000Y-71884800D02*
X95413000Y-72543800D01*
X95373000Y-74623800D02*
X95373000Y-75326800D01*
X95373000Y-71840800D02*
X95373000Y-72543800D01*
X95333000Y-74623800D02*
X95333000Y-75368800D01*
X95333000Y-71798800D02*
X95333000Y-72543800D01*
X95293000Y-74623800D02*
X95293000Y-75409800D01*
X95293000Y-71757800D02*
X95293000Y-72543800D01*
X95253000Y-74623800D02*
X95253000Y-75447800D01*
X95253000Y-71719800D02*
X95253000Y-72543800D01*
X95213000Y-74623800D02*
X95213000Y-75484800D01*
X95213000Y-71682800D02*
X95213000Y-72543800D01*
X95173000Y-74623800D02*
X95173000Y-75520800D01*
X95173000Y-71646800D02*
X95173000Y-72543800D01*
X95133000Y-74623800D02*
X95133000Y-75554800D01*
X95133000Y-71612800D02*
X95133000Y-72543800D01*
X95093000Y-74623800D02*
X95093000Y-75587800D01*
X95093000Y-71579800D02*
X95093000Y-72543800D01*
X95053000Y-74623800D02*
X95053000Y-75618800D01*
X95053000Y-71548800D02*
X95053000Y-72543800D01*
X95013000Y-74623800D02*
X95013000Y-75648800D01*
X95013000Y-71518800D02*
X95013000Y-72543800D01*
X94973000Y-74623800D02*
X94973000Y-75678800D01*
X94973000Y-71488800D02*
X94973000Y-72543800D01*
X94933000Y-74623800D02*
X94933000Y-75705800D01*
X94933000Y-71461800D02*
X94933000Y-72543800D01*
X94893000Y-74623800D02*
X94893000Y-75732800D01*
X94893000Y-71434800D02*
X94893000Y-72543800D01*
X94853000Y-74623800D02*
X94853000Y-75758800D01*
X94853000Y-71408800D02*
X94853000Y-72543800D01*
X94813000Y-74623800D02*
X94813000Y-75783800D01*
X94813000Y-71383800D02*
X94813000Y-72543800D01*
X94773000Y-74623800D02*
X94773000Y-75807800D01*
X94773000Y-71359800D02*
X94773000Y-72543800D01*
X94733000Y-74623800D02*
X94733000Y-75830800D01*
X94733000Y-71336800D02*
X94733000Y-72543800D01*
X94693000Y-74623800D02*
X94693000Y-75851800D01*
X94693000Y-71315800D02*
X94693000Y-72543800D01*
X94653000Y-74623800D02*
X94653000Y-75873800D01*
X94653000Y-71293800D02*
X94653000Y-72543800D01*
X94613000Y-74623800D02*
X94613000Y-75893800D01*
X94613000Y-71273800D02*
X94613000Y-72543800D01*
X94573000Y-74623800D02*
X94573000Y-75912800D01*
X94573000Y-71254800D02*
X94573000Y-72543800D01*
X94533000Y-74623800D02*
X94533000Y-75931800D01*
X94533000Y-71235800D02*
X94533000Y-72543800D01*
X94493000Y-74623800D02*
X94493000Y-75948800D01*
X94493000Y-71218800D02*
X94493000Y-72543800D01*
X94453000Y-74623800D02*
X94453000Y-75965800D01*
X94453000Y-71201800D02*
X94453000Y-72543800D01*
X94413000Y-74623800D02*
X94413000Y-75981800D01*
X94413000Y-71185800D02*
X94413000Y-72543800D01*
X94373000Y-74623800D02*
X94373000Y-75997800D01*
X94373000Y-71169800D02*
X94373000Y-72543800D01*
X94333000Y-74623800D02*
X94333000Y-76011800D01*
X94333000Y-71155800D02*
X94333000Y-72543800D01*
X94293000Y-74623800D02*
X94293000Y-76025800D01*
X94293000Y-71141800D02*
X94293000Y-72543800D01*
X94253000Y-74623800D02*
X94253000Y-76038800D01*
X94253000Y-71128800D02*
X94253000Y-72543800D01*
X94213000Y-74623800D02*
X94213000Y-76051800D01*
X94213000Y-71115800D02*
X94213000Y-72543800D01*
X94173000Y-74623800D02*
X94173000Y-76063800D01*
X94173000Y-71103800D02*
X94173000Y-72543800D01*
X94132000Y-74623800D02*
X94132000Y-76074800D01*
X94132000Y-71092800D02*
X94132000Y-72543800D01*
X94092000Y-74623800D02*
X94092000Y-76084800D01*
X94092000Y-71082800D02*
X94092000Y-72543800D01*
X94052000Y-74623800D02*
X94052000Y-76094800D01*
X94052000Y-71072800D02*
X94052000Y-72543800D01*
X94012000Y-74623800D02*
X94012000Y-76103800D01*
X94012000Y-71063800D02*
X94012000Y-72543800D01*
X93972000Y-74623800D02*
X93972000Y-76111800D01*
X93972000Y-71055800D02*
X93972000Y-72543800D01*
X93932000Y-74623800D02*
X93932000Y-76119800D01*
X93932000Y-71047800D02*
X93932000Y-72543800D01*
X93892000Y-74623800D02*
X93892000Y-76126800D01*
X93892000Y-71040800D02*
X93892000Y-72543800D01*
X93852000Y-74623800D02*
X93852000Y-76133800D01*
X93852000Y-71033800D02*
X93852000Y-72543800D01*
X93812000Y-74623800D02*
X93812000Y-76139800D01*
X93812000Y-71027800D02*
X93812000Y-72543800D01*
X93772000Y-74623800D02*
X93772000Y-76144800D01*
X93772000Y-71022800D02*
X93772000Y-72543800D01*
X93732000Y-74623800D02*
X93732000Y-76148800D01*
X93732000Y-71018800D02*
X93732000Y-72543800D01*
X93692000Y-74623800D02*
X93692000Y-76152800D01*
X93692000Y-71014800D02*
X93692000Y-72543800D01*
X93652000Y-71010800D02*
X93652000Y-76156800D01*
X93612000Y-71007800D02*
X93612000Y-76159800D01*
X93572000Y-71005800D02*
X93572000Y-76161800D01*
X93532000Y-71004800D02*
X93532000Y-76162800D01*
X93492000Y-71003800D02*
X93492000Y-76163800D01*
X93452000Y-71003800D02*
X93452000Y-76163800D01*
X96072000Y-73583800D02*
G75*
G03X96072000Y-73583800I-2620000J0D01*
G01*
X72609225Y-64746800D02*
X72609225Y-65246800D01*
X72359225Y-64996800D02*
X72859225Y-64996800D01*
X77765000Y-66187800D02*
X77765000Y-66755800D01*
X77725000Y-65953800D02*
X77725000Y-66989800D01*
X77685000Y-65794800D02*
X77685000Y-67148800D01*
X77645000Y-65666800D02*
X77645000Y-67276800D01*
X77605000Y-65556800D02*
X77605000Y-67386800D01*
X77565000Y-65460800D02*
X77565000Y-67482800D01*
X77525000Y-65373800D02*
X77525000Y-67569800D01*
X77485000Y-65293800D02*
X77485000Y-67649800D01*
X77445000Y-67511800D02*
X77445000Y-67722800D01*
X77445000Y-65220800D02*
X77445000Y-65431800D01*
X77405000Y-67511800D02*
X77405000Y-67790800D01*
X77405000Y-65152800D02*
X77405000Y-65431800D01*
X77365000Y-67511800D02*
X77365000Y-67854800D01*
X77365000Y-65088800D02*
X77365000Y-65431800D01*
X77325000Y-67511800D02*
X77325000Y-67914800D01*
X77325000Y-65028800D02*
X77325000Y-65431800D01*
X77285000Y-67511800D02*
X77285000Y-67971800D01*
X77285000Y-64971800D02*
X77285000Y-65431800D01*
X77245000Y-67511800D02*
X77245000Y-68025800D01*
X77245000Y-64917800D02*
X77245000Y-65431800D01*
X77205000Y-67511800D02*
X77205000Y-68076800D01*
X77205000Y-64866800D02*
X77205000Y-65431800D01*
X77165000Y-67511800D02*
X77165000Y-68124800D01*
X77165000Y-64818800D02*
X77165000Y-65431800D01*
X77125000Y-67511800D02*
X77125000Y-68170800D01*
X77125000Y-64772800D02*
X77125000Y-65431800D01*
X77085000Y-67511800D02*
X77085000Y-68214800D01*
X77085000Y-64728800D02*
X77085000Y-65431800D01*
X77045000Y-67511800D02*
X77045000Y-68256800D01*
X77045000Y-64686800D02*
X77045000Y-65431800D01*
X77005000Y-67511800D02*
X77005000Y-68297800D01*
X77005000Y-64645800D02*
X77005000Y-65431800D01*
X76965000Y-67511800D02*
X76965000Y-68335800D01*
X76965000Y-64607800D02*
X76965000Y-65431800D01*
X76925000Y-67511800D02*
X76925000Y-68372800D01*
X76925000Y-64570800D02*
X76925000Y-65431800D01*
X76885000Y-67511800D02*
X76885000Y-68408800D01*
X76885000Y-64534800D02*
X76885000Y-65431800D01*
X76845000Y-67511800D02*
X76845000Y-68442800D01*
X76845000Y-64500800D02*
X76845000Y-65431800D01*
X76805000Y-67511800D02*
X76805000Y-68475800D01*
X76805000Y-64467800D02*
X76805000Y-65431800D01*
X76765000Y-67511800D02*
X76765000Y-68506800D01*
X76765000Y-64436800D02*
X76765000Y-65431800D01*
X76725000Y-67511800D02*
X76725000Y-68536800D01*
X76725000Y-64406800D02*
X76725000Y-65431800D01*
X76685000Y-67511800D02*
X76685000Y-68566800D01*
X76685000Y-64376800D02*
X76685000Y-65431800D01*
X76645000Y-67511800D02*
X76645000Y-68593800D01*
X76645000Y-64349800D02*
X76645000Y-65431800D01*
X76605000Y-67511800D02*
X76605000Y-68620800D01*
X76605000Y-64322800D02*
X76605000Y-65431800D01*
X76565000Y-67511800D02*
X76565000Y-68646800D01*
X76565000Y-64296800D02*
X76565000Y-65431800D01*
X76525000Y-67511800D02*
X76525000Y-68671800D01*
X76525000Y-64271800D02*
X76525000Y-65431800D01*
X76485000Y-67511800D02*
X76485000Y-68695800D01*
X76485000Y-64247800D02*
X76485000Y-65431800D01*
X76445000Y-67511800D02*
X76445000Y-68718800D01*
X76445000Y-64224800D02*
X76445000Y-65431800D01*
X76405000Y-67511800D02*
X76405000Y-68739800D01*
X76405000Y-64203800D02*
X76405000Y-65431800D01*
X76365000Y-67511800D02*
X76365000Y-68761800D01*
X76365000Y-64181800D02*
X76365000Y-65431800D01*
X76325000Y-67511800D02*
X76325000Y-68781800D01*
X76325000Y-64161800D02*
X76325000Y-65431800D01*
X76285000Y-67511800D02*
X76285000Y-68800800D01*
X76285000Y-64142800D02*
X76285000Y-65431800D01*
X76245000Y-67511800D02*
X76245000Y-68819800D01*
X76245000Y-64123800D02*
X76245000Y-65431800D01*
X76205000Y-67511800D02*
X76205000Y-68836800D01*
X76205000Y-64106800D02*
X76205000Y-65431800D01*
X76165000Y-67511800D02*
X76165000Y-68853800D01*
X76165000Y-64089800D02*
X76165000Y-65431800D01*
X76125000Y-67511800D02*
X76125000Y-68869800D01*
X76125000Y-64073800D02*
X76125000Y-65431800D01*
X76085000Y-67511800D02*
X76085000Y-68885800D01*
X76085000Y-64057800D02*
X76085000Y-65431800D01*
X76045000Y-67511800D02*
X76045000Y-68899800D01*
X76045000Y-64043800D02*
X76045000Y-65431800D01*
X76005000Y-67511800D02*
X76005000Y-68913800D01*
X76005000Y-64029800D02*
X76005000Y-65431800D01*
X75965000Y-67511800D02*
X75965000Y-68926800D01*
X75965000Y-64016800D02*
X75965000Y-65431800D01*
X75925000Y-67511800D02*
X75925000Y-68939800D01*
X75925000Y-64003800D02*
X75925000Y-65431800D01*
X75885000Y-67511800D02*
X75885000Y-68951800D01*
X75885000Y-63991800D02*
X75885000Y-65431800D01*
X75844000Y-67511800D02*
X75844000Y-68962800D01*
X75844000Y-63980800D02*
X75844000Y-65431800D01*
X75804000Y-67511800D02*
X75804000Y-68972800D01*
X75804000Y-63970800D02*
X75804000Y-65431800D01*
X75764000Y-67511800D02*
X75764000Y-68982800D01*
X75764000Y-63960800D02*
X75764000Y-65431800D01*
X75724000Y-67511800D02*
X75724000Y-68991800D01*
X75724000Y-63951800D02*
X75724000Y-65431800D01*
X75684000Y-67511800D02*
X75684000Y-68999800D01*
X75684000Y-63943800D02*
X75684000Y-65431800D01*
X75644000Y-67511800D02*
X75644000Y-69007800D01*
X75644000Y-63935800D02*
X75644000Y-65431800D01*
X75604000Y-67511800D02*
X75604000Y-69014800D01*
X75604000Y-63928800D02*
X75604000Y-65431800D01*
X75564000Y-67511800D02*
X75564000Y-69021800D01*
X75564000Y-63921800D02*
X75564000Y-65431800D01*
X75524000Y-67511800D02*
X75524000Y-69027800D01*
X75524000Y-63915800D02*
X75524000Y-65431800D01*
X75484000Y-67511800D02*
X75484000Y-69032800D01*
X75484000Y-63910800D02*
X75484000Y-65431800D01*
X75444000Y-67511800D02*
X75444000Y-69036800D01*
X75444000Y-63906800D02*
X75444000Y-65431800D01*
X75404000Y-67511800D02*
X75404000Y-69040800D01*
X75404000Y-63902800D02*
X75404000Y-65431800D01*
X75364000Y-63898800D02*
X75364000Y-69044800D01*
X75324000Y-63895800D02*
X75324000Y-69047800D01*
X75284000Y-63893800D02*
X75284000Y-69049800D01*
X75244000Y-63892800D02*
X75244000Y-69050800D01*
X75204000Y-63891800D02*
X75204000Y-69051800D01*
X75164000Y-63891800D02*
X75164000Y-69051800D01*
X77784000Y-66471800D02*
G75*
G03X77784000Y-66471800I-2620000J0D01*
G01*
X172446000Y-72744000D02*
X172446000Y-70004000D01*
X180186000Y-72744000D02*
X180186000Y-70004000D01*
X180186000Y-70004000D02*
X172446000Y-70004000D01*
X180186000Y-72744000D02*
X172446000Y-72744000D01*
X200386000Y-128878000D02*
X200386000Y-126138000D01*
X208126000Y-128878000D02*
X208126000Y-126138000D01*
X208126000Y-126138000D02*
X200386000Y-126138000D01*
X208126000Y-128878000D02*
X200386000Y-128878000D01*
X152938800Y-72769400D02*
X152938800Y-70029400D01*
X160678800Y-72769400D02*
X160678800Y-70029400D01*
X160678800Y-70029400D02*
X152938800Y-70029400D01*
X160678800Y-72769400D02*
X152938800Y-72769400D01*
X118598000Y-126769800D02*
X118598000Y-124029800D01*
X126338000Y-126769800D02*
X126338000Y-124029800D01*
X126338000Y-124029800D02*
X118598000Y-124029800D01*
X126338000Y-126769800D02*
X118598000Y-126769800D01*
X72609225Y-71858800D02*
X72609225Y-72358800D01*
X72359225Y-72108800D02*
X72859225Y-72108800D01*
X77765000Y-73299800D02*
X77765000Y-73867800D01*
X77725000Y-73065800D02*
X77725000Y-74101800D01*
X77685000Y-72906800D02*
X77685000Y-74260800D01*
X77645000Y-72778800D02*
X77645000Y-74388800D01*
X77605000Y-72668800D02*
X77605000Y-74498800D01*
X77565000Y-72572800D02*
X77565000Y-74594800D01*
X77525000Y-72485800D02*
X77525000Y-74681800D01*
X77485000Y-72405800D02*
X77485000Y-74761800D01*
X77445000Y-74623800D02*
X77445000Y-74834800D01*
X77445000Y-72332800D02*
X77445000Y-72543800D01*
X77405000Y-74623800D02*
X77405000Y-74902800D01*
X77405000Y-72264800D02*
X77405000Y-72543800D01*
X77365000Y-74623800D02*
X77365000Y-74966800D01*
X77365000Y-72200800D02*
X77365000Y-72543800D01*
X77325000Y-74623800D02*
X77325000Y-75026800D01*
X77325000Y-72140800D02*
X77325000Y-72543800D01*
X77285000Y-74623800D02*
X77285000Y-75083800D01*
X77285000Y-72083800D02*
X77285000Y-72543800D01*
X77245000Y-74623800D02*
X77245000Y-75137800D01*
X77245000Y-72029800D02*
X77245000Y-72543800D01*
X77205000Y-74623800D02*
X77205000Y-75188800D01*
X77205000Y-71978800D02*
X77205000Y-72543800D01*
X77165000Y-74623800D02*
X77165000Y-75236800D01*
X77165000Y-71930800D02*
X77165000Y-72543800D01*
X77125000Y-74623800D02*
X77125000Y-75282800D01*
X77125000Y-71884800D02*
X77125000Y-72543800D01*
X77085000Y-74623800D02*
X77085000Y-75326800D01*
X77085000Y-71840800D02*
X77085000Y-72543800D01*
X77045000Y-74623800D02*
X77045000Y-75368800D01*
X77045000Y-71798800D02*
X77045000Y-72543800D01*
X77005000Y-74623800D02*
X77005000Y-75409800D01*
X77005000Y-71757800D02*
X77005000Y-72543800D01*
X76965000Y-74623800D02*
X76965000Y-75447800D01*
X76965000Y-71719800D02*
X76965000Y-72543800D01*
X76925000Y-74623800D02*
X76925000Y-75484800D01*
X76925000Y-71682800D02*
X76925000Y-72543800D01*
X76885000Y-74623800D02*
X76885000Y-75520800D01*
X76885000Y-71646800D02*
X76885000Y-72543800D01*
X76845000Y-74623800D02*
X76845000Y-75554800D01*
X76845000Y-71612800D02*
X76845000Y-72543800D01*
X76805000Y-74623800D02*
X76805000Y-75587800D01*
X76805000Y-71579800D02*
X76805000Y-72543800D01*
X76765000Y-74623800D02*
X76765000Y-75618800D01*
X76765000Y-71548800D02*
X76765000Y-72543800D01*
X76725000Y-74623800D02*
X76725000Y-75648800D01*
X76725000Y-71518800D02*
X76725000Y-72543800D01*
X76685000Y-74623800D02*
X76685000Y-75678800D01*
X76685000Y-71488800D02*
X76685000Y-72543800D01*
X76645000Y-74623800D02*
X76645000Y-75705800D01*
X76645000Y-71461800D02*
X76645000Y-72543800D01*
X76605000Y-74623800D02*
X76605000Y-75732800D01*
X76605000Y-71434800D02*
X76605000Y-72543800D01*
X76565000Y-74623800D02*
X76565000Y-75758800D01*
X76565000Y-71408800D02*
X76565000Y-72543800D01*
X76525000Y-74623800D02*
X76525000Y-75783800D01*
X76525000Y-71383800D02*
X76525000Y-72543800D01*
X76485000Y-74623800D02*
X76485000Y-75807800D01*
X76485000Y-71359800D02*
X76485000Y-72543800D01*
X76445000Y-74623800D02*
X76445000Y-75830800D01*
X76445000Y-71336800D02*
X76445000Y-72543800D01*
X76405000Y-74623800D02*
X76405000Y-75851800D01*
X76405000Y-71315800D02*
X76405000Y-72543800D01*
X76365000Y-74623800D02*
X76365000Y-75873800D01*
X76365000Y-71293800D02*
X76365000Y-72543800D01*
X76325000Y-74623800D02*
X76325000Y-75893800D01*
X76325000Y-71273800D02*
X76325000Y-72543800D01*
X76285000Y-74623800D02*
X76285000Y-75912800D01*
X76285000Y-71254800D02*
X76285000Y-72543800D01*
X76245000Y-74623800D02*
X76245000Y-75931800D01*
X76245000Y-71235800D02*
X76245000Y-72543800D01*
X76205000Y-74623800D02*
X76205000Y-75948800D01*
X76205000Y-71218800D02*
X76205000Y-72543800D01*
X76165000Y-74623800D02*
X76165000Y-75965800D01*
X76165000Y-71201800D02*
X76165000Y-72543800D01*
X76125000Y-74623800D02*
X76125000Y-75981800D01*
X76125000Y-71185800D02*
X76125000Y-72543800D01*
X76085000Y-74623800D02*
X76085000Y-75997800D01*
X76085000Y-71169800D02*
X76085000Y-72543800D01*
X76045000Y-74623800D02*
X76045000Y-76011800D01*
X76045000Y-71155800D02*
X76045000Y-72543800D01*
X76005000Y-74623800D02*
X76005000Y-76025800D01*
X76005000Y-71141800D02*
X76005000Y-72543800D01*
X75965000Y-74623800D02*
X75965000Y-76038800D01*
X75965000Y-71128800D02*
X75965000Y-72543800D01*
X75925000Y-74623800D02*
X75925000Y-76051800D01*
X75925000Y-71115800D02*
X75925000Y-72543800D01*
X75885000Y-74623800D02*
X75885000Y-76063800D01*
X75885000Y-71103800D02*
X75885000Y-72543800D01*
X75844000Y-74623800D02*
X75844000Y-76074800D01*
X75844000Y-71092800D02*
X75844000Y-72543800D01*
X75804000Y-74623800D02*
X75804000Y-76084800D01*
X75804000Y-71082800D02*
X75804000Y-72543800D01*
X75764000Y-74623800D02*
X75764000Y-76094800D01*
X75764000Y-71072800D02*
X75764000Y-72543800D01*
X75724000Y-74623800D02*
X75724000Y-76103800D01*
X75724000Y-71063800D02*
X75724000Y-72543800D01*
X75684000Y-74623800D02*
X75684000Y-76111800D01*
X75684000Y-71055800D02*
X75684000Y-72543800D01*
X75644000Y-74623800D02*
X75644000Y-76119800D01*
X75644000Y-71047800D02*
X75644000Y-72543800D01*
X75604000Y-74623800D02*
X75604000Y-76126800D01*
X75604000Y-71040800D02*
X75604000Y-72543800D01*
X75564000Y-74623800D02*
X75564000Y-76133800D01*
X75564000Y-71033800D02*
X75564000Y-72543800D01*
X75524000Y-74623800D02*
X75524000Y-76139800D01*
X75524000Y-71027800D02*
X75524000Y-72543800D01*
X75484000Y-74623800D02*
X75484000Y-76144800D01*
X75484000Y-71022800D02*
X75484000Y-72543800D01*
X75444000Y-74623800D02*
X75444000Y-76148800D01*
X75444000Y-71018800D02*
X75444000Y-72543800D01*
X75404000Y-74623800D02*
X75404000Y-76152800D01*
X75404000Y-71014800D02*
X75404000Y-72543800D01*
X75364000Y-71010800D02*
X75364000Y-76156800D01*
X75324000Y-71007800D02*
X75324000Y-76159800D01*
X75284000Y-71005800D02*
X75284000Y-76161800D01*
X75244000Y-71004800D02*
X75244000Y-76162800D01*
X75204000Y-71003800D02*
X75204000Y-76163800D01*
X75164000Y-71003800D02*
X75164000Y-76163800D01*
X77784000Y-73583800D02*
G75*
G03X77784000Y-73583800I-2620000J0D01*
G01*
X125347400Y-89250200D02*
X122607400Y-89250200D01*
X125347400Y-81510200D02*
X122607400Y-81510200D01*
X122607400Y-81510200D02*
X122607400Y-89250200D01*
X125347400Y-81510200D02*
X125347400Y-89250200D01*
X178084800Y-128878000D02*
X178084800Y-126138000D01*
X185824800Y-128878000D02*
X185824800Y-126138000D01*
X185824800Y-126138000D02*
X178084800Y-126138000D01*
X185824800Y-128878000D02*
X178084800Y-128878000D01*
X126141800Y-102970000D02*
X126141800Y-100230000D01*
X133881800Y-102970000D02*
X133881800Y-100230000D01*
X133881800Y-100230000D02*
X126141800Y-100230000D01*
X133881800Y-102970000D02*
X126141800Y-102970000D01*
X97829000Y-85685800D02*
X98495000Y-85685800D01*
X95053000Y-85685800D02*
X95719000Y-85685800D01*
X97829000Y-91025800D02*
X98495000Y-91025800D01*
X95053000Y-91025800D02*
X95719000Y-91025800D01*
X98495000Y-91025800D02*
X98495000Y-85685800D01*
X95053000Y-91025800D02*
X95053000Y-85685800D01*
X102401000Y-85685800D02*
X103067000Y-85685800D01*
X99625000Y-85685800D02*
X100291000Y-85685800D01*
X102401000Y-91025800D02*
X103067000Y-91025800D01*
X99625000Y-91025800D02*
X100291000Y-91025800D01*
X103067000Y-91025800D02*
X103067000Y-85685800D01*
X99625000Y-91025800D02*
X99625000Y-85685800D01*
D12*
X132254666Y-68242380D02*
X132254666Y-68956666D01*
X132207047Y-69099523D01*
X132111809Y-69194761D01*
X131968952Y-69242380D01*
X131873714Y-69242380D01*
X132635619Y-68242380D02*
X133302285Y-68242380D01*
X132873714Y-69242380D01*
X122713904Y-104056380D02*
X122713904Y-104865904D01*
X122761523Y-104961142D01*
X122809142Y-105008761D01*
X122904380Y-105056380D01*
X123094857Y-105056380D01*
X123190095Y-105008761D01*
X123237714Y-104961142D01*
X123285333Y-104865904D01*
X123285333Y-104056380D01*
X124285333Y-105056380D02*
X123713904Y-105056380D01*
X123999619Y-105056380D02*
X123999619Y-104056380D01*
X123904380Y-104199238D01*
X123809142Y-104294476D01*
X123713904Y-104342095D01*
X124618666Y-104056380D02*
X125285333Y-104056380D01*
X124856761Y-105056380D01*
X204247904Y-104056380D02*
X204247904Y-104865904D01*
X204295523Y-104961142D01*
X204343142Y-105008761D01*
X204438380Y-105056380D01*
X204628857Y-105056380D01*
X204724095Y-105008761D01*
X204771714Y-104961142D01*
X204819333Y-104865904D01*
X204819333Y-104056380D01*
X205819333Y-105056380D02*
X205247904Y-105056380D01*
X205533619Y-105056380D02*
X205533619Y-104056380D01*
X205438380Y-104199238D01*
X205343142Y-104294476D01*
X205247904Y-104342095D01*
X206676476Y-104389714D02*
X206676476Y-105056380D01*
X206438380Y-104008761D02*
X206200285Y-104723047D01*
X206819333Y-104723047D01*
X123190095Y-58082380D02*
X123190095Y-58891904D01*
X123237714Y-58987142D01*
X123285333Y-59034761D01*
X123380571Y-59082380D01*
X123571047Y-59082380D01*
X123666285Y-59034761D01*
X123713904Y-58987142D01*
X123761523Y-58891904D01*
X123761523Y-58082380D01*
X124761523Y-59082380D02*
X124190095Y-59082380D01*
X124475809Y-59082380D02*
X124475809Y-58082380D01*
X124380571Y-58225238D01*
X124285333Y-58320476D01*
X124190095Y-58368095D01*
X132301180Y-37131523D02*
X133015466Y-37131523D01*
X133158323Y-37179142D01*
X133253561Y-37274380D01*
X133301180Y-37417238D01*
X133301180Y-37512476D01*
X133301180Y-36131523D02*
X133301180Y-36702952D01*
X133301180Y-36417238D02*
X132301180Y-36417238D01*
X132444038Y-36512476D01*
X132539276Y-36607714D01*
X132586895Y-36702952D01*
X132301180Y-35798190D02*
X132301180Y-35131523D01*
X133301180Y-35560095D01*
X133574352Y-34285180D02*
X133241019Y-33808990D01*
X133002923Y-34285180D02*
X133002923Y-33285180D01*
X133383876Y-33285180D01*
X133479114Y-33332800D01*
X133526733Y-33380419D01*
X133574352Y-33475657D01*
X133574352Y-33618514D01*
X133526733Y-33713752D01*
X133479114Y-33761371D01*
X133383876Y-33808990D01*
X133002923Y-33808990D01*
X134193400Y-33285180D02*
X134383876Y-33285180D01*
X134479114Y-33332800D01*
X134574352Y-33428038D01*
X134621971Y-33618514D01*
X134621971Y-33951847D01*
X134574352Y-34142323D01*
X134479114Y-34237561D01*
X134383876Y-34285180D01*
X134193400Y-34285180D01*
X134098161Y-34237561D01*
X134002923Y-34142323D01*
X133955304Y-33951847D01*
X133955304Y-33618514D01*
X134002923Y-33428038D01*
X134098161Y-33332800D01*
X134193400Y-33285180D01*
X135050542Y-34285180D02*
X135050542Y-33285180D01*
X135383876Y-33999466D01*
X135717209Y-33285180D01*
X135717209Y-34285180D01*
X137145780Y-33285180D02*
X137336257Y-33285180D01*
X137431495Y-33332800D01*
X137526733Y-33428038D01*
X137574352Y-33618514D01*
X137574352Y-33951847D01*
X137526733Y-34142323D01*
X137431495Y-34237561D01*
X137336257Y-34285180D01*
X137145780Y-34285180D01*
X137050542Y-34237561D01*
X136955304Y-34142323D01*
X136907685Y-33951847D01*
X136907685Y-33618514D01*
X136955304Y-33428038D01*
X137050542Y-33332800D01*
X137145780Y-33285180D01*
X138002923Y-34285180D02*
X138002923Y-33285180D01*
X138574352Y-34285180D01*
X138574352Y-33285180D01*
X139764828Y-33237561D02*
X138907685Y-34523276D01*
X140288638Y-33285180D02*
X140479114Y-33285180D01*
X140574352Y-33332800D01*
X140669590Y-33428038D01*
X140717209Y-33618514D01*
X140717209Y-33951847D01*
X140669590Y-34142323D01*
X140574352Y-34237561D01*
X140479114Y-34285180D01*
X140288638Y-34285180D01*
X140193400Y-34237561D01*
X140098161Y-34142323D01*
X140050542Y-33951847D01*
X140050542Y-33618514D01*
X140098161Y-33428038D01*
X140193400Y-33332800D01*
X140288638Y-33285180D01*
X141479114Y-33761371D02*
X141145780Y-33761371D01*
X141145780Y-34285180D02*
X141145780Y-33285180D01*
X141621971Y-33285180D01*
X142336257Y-33761371D02*
X142002923Y-33761371D01*
X142002923Y-34285180D02*
X142002923Y-33285180D01*
X142479114Y-33285180D01*
X141935295Y-37000380D02*
X141935295Y-37809904D01*
X141982914Y-37905142D01*
X142030533Y-37952761D01*
X142125771Y-38000380D01*
X142316247Y-38000380D01*
X142411485Y-37952761D01*
X142459104Y-37905142D01*
X142506723Y-37809904D01*
X142506723Y-37000380D01*
X142887676Y-37000380D02*
X143554342Y-37000380D01*
X143125771Y-38000380D01*
X151845580Y-37156923D02*
X152559866Y-37156923D01*
X152702723Y-37204542D01*
X152797961Y-37299780D01*
X152845580Y-37442638D01*
X152845580Y-37537876D01*
X152845580Y-36156923D02*
X152845580Y-36728352D01*
X152845580Y-36442638D02*
X151845580Y-36442638D01*
X151988438Y-36537876D01*
X152083676Y-36633114D01*
X152131295Y-36728352D01*
X151845580Y-35299780D02*
X151845580Y-35490257D01*
X151893200Y-35585495D01*
X151940819Y-35633114D01*
X152083676Y-35728352D01*
X152274152Y-35775971D01*
X152655104Y-35775971D01*
X152750342Y-35728352D01*
X152797961Y-35680733D01*
X152845580Y-35585495D01*
X152845580Y-35395019D01*
X152797961Y-35299780D01*
X152750342Y-35252161D01*
X152655104Y-35204542D01*
X152417009Y-35204542D01*
X152321771Y-35252161D01*
X152274152Y-35299780D01*
X152226533Y-35395019D01*
X152226533Y-35585495D01*
X152274152Y-35680733D01*
X152321771Y-35728352D01*
X152417009Y-35775971D01*
X143532742Y-33355019D02*
X143580361Y-33307400D01*
X143675600Y-33259780D01*
X143913695Y-33259780D01*
X144008933Y-33307400D01*
X144056552Y-33355019D01*
X144104171Y-33450257D01*
X144104171Y-33545495D01*
X144056552Y-33688352D01*
X143485123Y-34259780D01*
X144104171Y-34259780D01*
X144437504Y-33259780D02*
X145104171Y-33259780D01*
X144675600Y-34259780D01*
X145389885Y-33259780D02*
X146008933Y-33259780D01*
X145675600Y-33640733D01*
X145818457Y-33640733D01*
X145913695Y-33688352D01*
X145961314Y-33735971D01*
X146008933Y-33831209D01*
X146008933Y-34069304D01*
X145961314Y-34164542D01*
X145913695Y-34212161D01*
X145818457Y-34259780D01*
X145532742Y-34259780D01*
X145437504Y-34212161D01*
X145389885Y-34164542D01*
X146389885Y-33355019D02*
X146437504Y-33307400D01*
X146532742Y-33259780D01*
X146770838Y-33259780D01*
X146866076Y-33307400D01*
X146913695Y-33355019D01*
X146961314Y-33450257D01*
X146961314Y-33545495D01*
X146913695Y-33688352D01*
X146342266Y-34259780D01*
X146961314Y-34259780D01*
X148104171Y-33212161D02*
X147247028Y-34497876D01*
X148389885Y-33355019D02*
X148437504Y-33307400D01*
X148532742Y-33259780D01*
X148770838Y-33259780D01*
X148866076Y-33307400D01*
X148913695Y-33355019D01*
X148961314Y-33450257D01*
X148961314Y-33545495D01*
X148913695Y-33688352D01*
X148342266Y-34259780D01*
X148961314Y-34259780D01*
X149294647Y-33259780D02*
X149961314Y-33259780D01*
X149532742Y-34259780D01*
X150866076Y-34259780D02*
X150294647Y-34259780D01*
X150580361Y-34259780D02*
X150580361Y-33259780D01*
X150485123Y-33402638D01*
X150389885Y-33497876D01*
X150294647Y-33545495D01*
X151723219Y-33259780D02*
X151532742Y-33259780D01*
X151437504Y-33307400D01*
X151389885Y-33355019D01*
X151294647Y-33497876D01*
X151247028Y-33688352D01*
X151247028Y-34069304D01*
X151294647Y-34164542D01*
X151342266Y-34212161D01*
X151437504Y-34259780D01*
X151627980Y-34259780D01*
X151723219Y-34212161D01*
X151770838Y-34164542D01*
X151818457Y-34069304D01*
X151818457Y-33831209D01*
X151770838Y-33735971D01*
X151723219Y-33688352D01*
X151627980Y-33640733D01*
X151437504Y-33640733D01*
X151342266Y-33688352D01*
X151294647Y-33735971D01*
X151247028Y-33831209D01*
X220932476Y-37323780D02*
X220932476Y-38038066D01*
X220884857Y-38180923D01*
X220789619Y-38276161D01*
X220646761Y-38323780D01*
X220551523Y-38323780D01*
X221361047Y-37419019D02*
X221408666Y-37371400D01*
X221503904Y-37323780D01*
X221742000Y-37323780D01*
X221837238Y-37371400D01*
X221884857Y-37419019D01*
X221932476Y-37514257D01*
X221932476Y-37609495D01*
X221884857Y-37752352D01*
X221313428Y-38323780D01*
X221932476Y-38323780D01*
X222884857Y-38323780D02*
X222313428Y-38323780D01*
X222599142Y-38323780D02*
X222599142Y-37323780D01*
X222503904Y-37466638D01*
X222408666Y-37561876D01*
X222313428Y-37609495D01*
X213814066Y-37323780D02*
X213814066Y-38038066D01*
X213766447Y-38180923D01*
X213671209Y-38276161D01*
X213528352Y-38323780D01*
X213433114Y-38323780D01*
X214814066Y-38323780D02*
X214242638Y-38323780D01*
X214528352Y-38323780D02*
X214528352Y-37323780D01*
X214433114Y-37466638D01*
X214337876Y-37561876D01*
X214242638Y-37609495D01*
X193122704Y-101567180D02*
X193122704Y-102376704D01*
X193170323Y-102471942D01*
X193217942Y-102519561D01*
X193313180Y-102567180D01*
X193503657Y-102567180D01*
X193598895Y-102519561D01*
X193646514Y-102471942D01*
X193694133Y-102376704D01*
X193694133Y-101567180D01*
X194122704Y-101662419D02*
X194170323Y-101614800D01*
X194265561Y-101567180D01*
X194503657Y-101567180D01*
X194598895Y-101614800D01*
X194646514Y-101662419D01*
X194694133Y-101757657D01*
X194694133Y-101852895D01*
X194646514Y-101995752D01*
X194075085Y-102567180D01*
X194694133Y-102567180D01*
X195075085Y-101662419D02*
X195122704Y-101614800D01*
X195217942Y-101567180D01*
X195456038Y-101567180D01*
X195551276Y-101614800D01*
X195598895Y-101662419D01*
X195646514Y-101757657D01*
X195646514Y-101852895D01*
X195598895Y-101995752D01*
X195027466Y-102567180D01*
X195646514Y-102567180D01*
X86713142Y-70190942D02*
X86665523Y-70238561D01*
X86522666Y-70286180D01*
X86427428Y-70286180D01*
X86284571Y-70238561D01*
X86189333Y-70143323D01*
X86141714Y-70048085D01*
X86094095Y-69857609D01*
X86094095Y-69714752D01*
X86141714Y-69524276D01*
X86189333Y-69429038D01*
X86284571Y-69333800D01*
X86427428Y-69286180D01*
X86522666Y-69286180D01*
X86665523Y-69333800D01*
X86713142Y-69381419D01*
X87665523Y-70286180D02*
X87094095Y-70286180D01*
X87379809Y-70286180D02*
X87379809Y-69286180D01*
X87284571Y-69429038D01*
X87189333Y-69524276D01*
X87094095Y-69571895D01*
X87998857Y-69286180D02*
X88617904Y-69286180D01*
X88284571Y-69667133D01*
X88427428Y-69667133D01*
X88522666Y-69714752D01*
X88570285Y-69762371D01*
X88617904Y-69857609D01*
X88617904Y-70095704D01*
X88570285Y-70190942D01*
X88522666Y-70238561D01*
X88427428Y-70286180D01*
X88141714Y-70286180D01*
X88046476Y-70238561D01*
X87998857Y-70190942D01*
X113697142Y-108876742D02*
X113649523Y-108924361D01*
X113506666Y-108971980D01*
X113411428Y-108971980D01*
X113268571Y-108924361D01*
X113173333Y-108829123D01*
X113125714Y-108733885D01*
X113078095Y-108543409D01*
X113078095Y-108400552D01*
X113125714Y-108210076D01*
X113173333Y-108114838D01*
X113268571Y-108019600D01*
X113411428Y-107971980D01*
X113506666Y-107971980D01*
X113649523Y-108019600D01*
X113697142Y-108067219D01*
X114078095Y-108067219D02*
X114125714Y-108019600D01*
X114220952Y-107971980D01*
X114459047Y-107971980D01*
X114554285Y-108019600D01*
X114601904Y-108067219D01*
X114649523Y-108162457D01*
X114649523Y-108257695D01*
X114601904Y-108400552D01*
X114030476Y-108971980D01*
X114649523Y-108971980D01*
X115268571Y-107971980D02*
X115363809Y-107971980D01*
X115459047Y-108019600D01*
X115506666Y-108067219D01*
X115554285Y-108162457D01*
X115601904Y-108352933D01*
X115601904Y-108591028D01*
X115554285Y-108781504D01*
X115506666Y-108876742D01*
X115459047Y-108924361D01*
X115363809Y-108971980D01*
X115268571Y-108971980D01*
X115173333Y-108924361D01*
X115125714Y-108876742D01*
X115078095Y-108781504D01*
X115030476Y-108591028D01*
X115030476Y-108352933D01*
X115078095Y-108162457D01*
X115125714Y-108067219D01*
X115173333Y-108019600D01*
X115268571Y-107971980D01*
X100824942Y-37407457D02*
X100872561Y-37455076D01*
X100920180Y-37597933D01*
X100920180Y-37693171D01*
X100872561Y-37836028D01*
X100777323Y-37931266D01*
X100682085Y-37978885D01*
X100491609Y-38026504D01*
X100348752Y-38026504D01*
X100158276Y-37978885D01*
X100063038Y-37931266D01*
X99967800Y-37836028D01*
X99920180Y-37693171D01*
X99920180Y-37597933D01*
X99967800Y-37455076D01*
X100015419Y-37407457D01*
X100920180Y-36455076D02*
X100920180Y-37026504D01*
X100920180Y-36740790D02*
X99920180Y-36740790D01*
X100063038Y-36836028D01*
X100158276Y-36931266D01*
X100205895Y-37026504D01*
X100920180Y-35978885D02*
X100920180Y-35788409D01*
X100872561Y-35693171D01*
X100824942Y-35645552D01*
X100682085Y-35550314D01*
X100491609Y-35502695D01*
X100110657Y-35502695D01*
X100015419Y-35550314D01*
X99967800Y-35597933D01*
X99920180Y-35693171D01*
X99920180Y-35883647D01*
X99967800Y-35978885D01*
X100015419Y-36026504D01*
X100110657Y-36074123D01*
X100348752Y-36074123D01*
X100443990Y-36026504D01*
X100491609Y-35978885D01*
X100539228Y-35883647D01*
X100539228Y-35693171D01*
X100491609Y-35597933D01*
X100443990Y-35550314D01*
X100348752Y-35502695D01*
X89979142Y-102634657D02*
X90026761Y-102682276D01*
X90074380Y-102825133D01*
X90074380Y-102920371D01*
X90026761Y-103063228D01*
X89931523Y-103158466D01*
X89836285Y-103206085D01*
X89645809Y-103253704D01*
X89502952Y-103253704D01*
X89312476Y-103206085D01*
X89217238Y-103158466D01*
X89122000Y-103063228D01*
X89074380Y-102920371D01*
X89074380Y-102825133D01*
X89122000Y-102682276D01*
X89169619Y-102634657D01*
X90074380Y-101682276D02*
X90074380Y-102253704D01*
X90074380Y-101967990D02*
X89074380Y-101967990D01*
X89217238Y-102063228D01*
X89312476Y-102158466D01*
X89360095Y-102253704D01*
X89502952Y-101110847D02*
X89455333Y-101206085D01*
X89407714Y-101253704D01*
X89312476Y-101301323D01*
X89264857Y-101301323D01*
X89169619Y-101253704D01*
X89122000Y-101206085D01*
X89074380Y-101110847D01*
X89074380Y-100920371D01*
X89122000Y-100825133D01*
X89169619Y-100777514D01*
X89264857Y-100729895D01*
X89312476Y-100729895D01*
X89407714Y-100777514D01*
X89455333Y-100825133D01*
X89502952Y-100920371D01*
X89502952Y-101110847D01*
X89550571Y-101206085D01*
X89598190Y-101253704D01*
X89693428Y-101301323D01*
X89883904Y-101301323D01*
X89979142Y-101253704D01*
X90026761Y-101206085D01*
X90074380Y-101110847D01*
X90074380Y-100920371D01*
X90026761Y-100825133D01*
X89979142Y-100777514D01*
X89883904Y-100729895D01*
X89693428Y-100729895D01*
X89598190Y-100777514D01*
X89550571Y-100825133D01*
X89502952Y-100920371D01*
X203663942Y-104203142D02*
X203616323Y-104250761D01*
X203473466Y-104298380D01*
X203378228Y-104298380D01*
X203235371Y-104250761D01*
X203140133Y-104155523D01*
X203092514Y-104060285D01*
X203044895Y-103869809D01*
X203044895Y-103726952D01*
X203092514Y-103536476D01*
X203140133Y-103441238D01*
X203235371Y-103346000D01*
X203378228Y-103298380D01*
X203473466Y-103298380D01*
X203616323Y-103346000D01*
X203663942Y-103393619D01*
X204616323Y-104298380D02*
X204044895Y-104298380D01*
X204330609Y-104298380D02*
X204330609Y-103298380D01*
X204235371Y-103441238D01*
X204140133Y-103536476D01*
X204044895Y-103584095D01*
X204949657Y-103298380D02*
X205616323Y-103298380D01*
X205187752Y-104298380D01*
X192437142Y-130365142D02*
X192389523Y-130412761D01*
X192246666Y-130460380D01*
X192151428Y-130460380D01*
X192008571Y-130412761D01*
X191913333Y-130317523D01*
X191865714Y-130222285D01*
X191818095Y-130031809D01*
X191818095Y-129888952D01*
X191865714Y-129698476D01*
X191913333Y-129603238D01*
X192008571Y-129508000D01*
X192151428Y-129460380D01*
X192246666Y-129460380D01*
X192389523Y-129508000D01*
X192437142Y-129555619D01*
X193389523Y-130460380D02*
X192818095Y-130460380D01*
X193103809Y-130460380D02*
X193103809Y-129460380D01*
X193008571Y-129603238D01*
X192913333Y-129698476D01*
X192818095Y-129746095D01*
X194246666Y-129460380D02*
X194056190Y-129460380D01*
X193960952Y-129508000D01*
X193913333Y-129555619D01*
X193818095Y-129698476D01*
X193770476Y-129888952D01*
X193770476Y-130269904D01*
X193818095Y-130365142D01*
X193865714Y-130412761D01*
X193960952Y-130460380D01*
X194151428Y-130460380D01*
X194246666Y-130412761D01*
X194294285Y-130365142D01*
X194341904Y-130269904D01*
X194341904Y-130031809D01*
X194294285Y-129936571D01*
X194246666Y-129888952D01*
X194151428Y-129841333D01*
X193960952Y-129841333D01*
X193865714Y-129888952D01*
X193818095Y-129936571D01*
X193770476Y-130031809D01*
X133229742Y-128256942D02*
X133182123Y-128304561D01*
X133039266Y-128352180D01*
X132944028Y-128352180D01*
X132801171Y-128304561D01*
X132705933Y-128209323D01*
X132658314Y-128114085D01*
X132610695Y-127923609D01*
X132610695Y-127780752D01*
X132658314Y-127590276D01*
X132705933Y-127495038D01*
X132801171Y-127399800D01*
X132944028Y-127352180D01*
X133039266Y-127352180D01*
X133182123Y-127399800D01*
X133229742Y-127447419D01*
X134182123Y-128352180D02*
X133610695Y-128352180D01*
X133896409Y-128352180D02*
X133896409Y-127352180D01*
X133801171Y-127495038D01*
X133705933Y-127590276D01*
X133610695Y-127637895D01*
X135086885Y-127352180D02*
X134610695Y-127352180D01*
X134563076Y-127828371D01*
X134610695Y-127780752D01*
X134705933Y-127733133D01*
X134944028Y-127733133D01*
X135039266Y-127780752D01*
X135086885Y-127828371D01*
X135134504Y-127923609D01*
X135134504Y-128161704D01*
X135086885Y-128256942D01*
X135039266Y-128304561D01*
X134944028Y-128352180D01*
X134705933Y-128352180D01*
X134610695Y-128304561D01*
X134563076Y-128256942D01*
X108305695Y-31539380D02*
X108305695Y-32348904D01*
X108353314Y-32444142D01*
X108400933Y-32491761D01*
X108496171Y-32539380D01*
X108686647Y-32539380D01*
X108781885Y-32491761D01*
X108829504Y-32444142D01*
X108877123Y-32348904D01*
X108877123Y-31539380D01*
X109305695Y-31634619D02*
X109353314Y-31587000D01*
X109448552Y-31539380D01*
X109686647Y-31539380D01*
X109781885Y-31587000D01*
X109829504Y-31634619D01*
X109877123Y-31729857D01*
X109877123Y-31825095D01*
X109829504Y-31967952D01*
X109258076Y-32539380D01*
X109877123Y-32539380D01*
X115011295Y-84625380D02*
X115011295Y-85434904D01*
X115058914Y-85530142D01*
X115106533Y-85577761D01*
X115201771Y-85625380D01*
X115392247Y-85625380D01*
X115487485Y-85577761D01*
X115535104Y-85530142D01*
X115582723Y-85434904D01*
X115582723Y-84625380D01*
X116487485Y-84958714D02*
X116487485Y-85625380D01*
X116249390Y-84577761D02*
X116011295Y-85292047D01*
X116630342Y-85292047D01*
X71036380Y-82727704D02*
X71845904Y-82727704D01*
X71941142Y-82680085D01*
X71988761Y-82632466D01*
X72036380Y-82537228D01*
X72036380Y-82346752D01*
X71988761Y-82251514D01*
X71941142Y-82203895D01*
X71845904Y-82156276D01*
X71036380Y-82156276D01*
X71036380Y-81251514D02*
X71036380Y-81441990D01*
X71084000Y-81537228D01*
X71131619Y-81584847D01*
X71274476Y-81680085D01*
X71464952Y-81727704D01*
X71845904Y-81727704D01*
X71941142Y-81680085D01*
X71988761Y-81632466D01*
X72036380Y-81537228D01*
X72036380Y-81346752D01*
X71988761Y-81251514D01*
X71941142Y-81203895D01*
X71845904Y-81156276D01*
X71607809Y-81156276D01*
X71512571Y-81203895D01*
X71464952Y-81251514D01*
X71417333Y-81346752D01*
X71417333Y-81537228D01*
X71464952Y-81632466D01*
X71512571Y-81680085D01*
X71607809Y-81727704D01*
X98419809Y-98420990D02*
X98419809Y-98897180D01*
X98086476Y-97897180D02*
X98419809Y-98420990D01*
X98753142Y-97897180D01*
X99610285Y-98897180D02*
X99038857Y-98897180D01*
X99324571Y-98897180D02*
X99324571Y-97897180D01*
X99229333Y-98040038D01*
X99134095Y-98135276D01*
X99038857Y-98182895D01*
X74128380Y-95805523D02*
X74842666Y-95805523D01*
X74985523Y-95853142D01*
X75080761Y-95948380D01*
X75128380Y-96091238D01*
X75128380Y-96186476D01*
X75128380Y-94805523D02*
X75128380Y-95376952D01*
X75128380Y-95091238D02*
X74128380Y-95091238D01*
X74271238Y-95186476D01*
X74366476Y-95281714D01*
X74414095Y-95376952D01*
X74128380Y-94186476D02*
X74128380Y-94091238D01*
X74176000Y-93996000D01*
X74223619Y-93948380D01*
X74318857Y-93900761D01*
X74509333Y-93853142D01*
X74747428Y-93853142D01*
X74937904Y-93900761D01*
X75033142Y-93948380D01*
X75080761Y-93996000D01*
X75128380Y-94091238D01*
X75128380Y-94186476D01*
X75080761Y-94281714D01*
X75033142Y-94329333D01*
X74937904Y-94376952D01*
X74747428Y-94424571D01*
X74509333Y-94424571D01*
X74318857Y-94376952D01*
X74223619Y-94329333D01*
X74176000Y-94281714D01*
X74128380Y-94186476D01*
X147390076Y-105222561D02*
X147532933Y-105270180D01*
X147771028Y-105270180D01*
X147866266Y-105222561D01*
X147913885Y-105174942D01*
X147961504Y-105079704D01*
X147961504Y-104984466D01*
X147913885Y-104889228D01*
X147866266Y-104841609D01*
X147771028Y-104793990D01*
X147580552Y-104746371D01*
X147485314Y-104698752D01*
X147437695Y-104651133D01*
X147390076Y-104555895D01*
X147390076Y-104460657D01*
X147437695Y-104365419D01*
X147485314Y-104317800D01*
X147580552Y-104270180D01*
X147818647Y-104270180D01*
X147961504Y-104317800D01*
X148294838Y-104270180D02*
X148532933Y-105270180D01*
X148723409Y-104555895D01*
X148913885Y-105270180D01*
X149151980Y-104270180D01*
X150056742Y-105270180D02*
X149485314Y-105270180D01*
X149771028Y-105270180D02*
X149771028Y-104270180D01*
X149675790Y-104413038D01*
X149580552Y-104508276D01*
X149485314Y-104555895D01*
X150913885Y-104603514D02*
X150913885Y-105270180D01*
X150675790Y-104222561D02*
X150437695Y-104936847D01*
X151056742Y-104936847D01*
X162630076Y-105222561D02*
X162772933Y-105270180D01*
X163011028Y-105270180D01*
X163106266Y-105222561D01*
X163153885Y-105174942D01*
X163201504Y-105079704D01*
X163201504Y-104984466D01*
X163153885Y-104889228D01*
X163106266Y-104841609D01*
X163011028Y-104793990D01*
X162820552Y-104746371D01*
X162725314Y-104698752D01*
X162677695Y-104651133D01*
X162630076Y-104555895D01*
X162630076Y-104460657D01*
X162677695Y-104365419D01*
X162725314Y-104317800D01*
X162820552Y-104270180D01*
X163058647Y-104270180D01*
X163201504Y-104317800D01*
X163534838Y-104270180D02*
X163772933Y-105270180D01*
X163963409Y-104555895D01*
X164153885Y-105270180D01*
X164391980Y-104270180D01*
X165296742Y-105270180D02*
X164725314Y-105270180D01*
X165011028Y-105270180D02*
X165011028Y-104270180D01*
X164915790Y-104413038D01*
X164820552Y-104508276D01*
X164725314Y-104555895D01*
X165630076Y-104270180D02*
X166249123Y-104270180D01*
X165915790Y-104651133D01*
X166058647Y-104651133D01*
X166153885Y-104698752D01*
X166201504Y-104746371D01*
X166249123Y-104841609D01*
X166249123Y-105079704D01*
X166201504Y-105174942D01*
X166153885Y-105222561D01*
X166058647Y-105270180D01*
X165772933Y-105270180D01*
X165677695Y-105222561D01*
X165630076Y-105174942D01*
X162655476Y-81168761D02*
X162798333Y-81216380D01*
X163036428Y-81216380D01*
X163131666Y-81168761D01*
X163179285Y-81121142D01*
X163226904Y-81025904D01*
X163226904Y-80930666D01*
X163179285Y-80835428D01*
X163131666Y-80787809D01*
X163036428Y-80740190D01*
X162845952Y-80692571D01*
X162750714Y-80644952D01*
X162703095Y-80597333D01*
X162655476Y-80502095D01*
X162655476Y-80406857D01*
X162703095Y-80311619D01*
X162750714Y-80264000D01*
X162845952Y-80216380D01*
X163084047Y-80216380D01*
X163226904Y-80264000D01*
X163560238Y-80216380D02*
X163798333Y-81216380D01*
X163988809Y-80502095D01*
X164179285Y-81216380D01*
X164417380Y-80216380D01*
X165322142Y-81216380D02*
X164750714Y-81216380D01*
X165036428Y-81216380D02*
X165036428Y-80216380D01*
X164941190Y-80359238D01*
X164845952Y-80454476D01*
X164750714Y-80502095D01*
X166274523Y-81216380D02*
X165703095Y-81216380D01*
X165988809Y-81216380D02*
X165988809Y-80216380D01*
X165893571Y-80359238D01*
X165798333Y-80454476D01*
X165703095Y-80502095D01*
X147415476Y-81168761D02*
X147558333Y-81216380D01*
X147796428Y-81216380D01*
X147891666Y-81168761D01*
X147939285Y-81121142D01*
X147986904Y-81025904D01*
X147986904Y-80930666D01*
X147939285Y-80835428D01*
X147891666Y-80787809D01*
X147796428Y-80740190D01*
X147605952Y-80692571D01*
X147510714Y-80644952D01*
X147463095Y-80597333D01*
X147415476Y-80502095D01*
X147415476Y-80406857D01*
X147463095Y-80311619D01*
X147510714Y-80264000D01*
X147605952Y-80216380D01*
X147844047Y-80216380D01*
X147986904Y-80264000D01*
X148320238Y-80216380D02*
X148558333Y-81216380D01*
X148748809Y-80502095D01*
X148939285Y-81216380D01*
X149177380Y-80216380D01*
X150082142Y-81216380D02*
X149510714Y-81216380D01*
X149796428Y-81216380D02*
X149796428Y-80216380D01*
X149701190Y-80359238D01*
X149605952Y-80454476D01*
X149510714Y-80502095D01*
X150463095Y-80311619D02*
X150510714Y-80264000D01*
X150605952Y-80216380D01*
X150844047Y-80216380D01*
X150939285Y-80264000D01*
X150986904Y-80311619D01*
X151034523Y-80406857D01*
X151034523Y-80502095D01*
X150986904Y-80644952D01*
X150415476Y-81216380D01*
X151034523Y-81216380D01*
X133991504Y-103980180D02*
X133991504Y-104789704D01*
X134039123Y-104884942D01*
X134086742Y-104932561D01*
X134181980Y-104980180D01*
X134372457Y-104980180D01*
X134467695Y-104932561D01*
X134515314Y-104884942D01*
X134562933Y-104789704D01*
X134562933Y-103980180D01*
X134991504Y-104075419D02*
X135039123Y-104027800D01*
X135134361Y-103980180D01*
X135372457Y-103980180D01*
X135467695Y-104027800D01*
X135515314Y-104075419D01*
X135562933Y-104170657D01*
X135562933Y-104265895D01*
X135515314Y-104408752D01*
X134943885Y-104980180D01*
X135562933Y-104980180D01*
X136515314Y-104980180D02*
X135943885Y-104980180D01*
X136229600Y-104980180D02*
X136229600Y-103980180D01*
X136134361Y-104123038D01*
X136039123Y-104218276D01*
X135943885Y-104265895D01*
X183927904Y-104132580D02*
X183927904Y-104942104D01*
X183975523Y-105037342D01*
X184023142Y-105084961D01*
X184118380Y-105132580D01*
X184308857Y-105132580D01*
X184404095Y-105084961D01*
X184451714Y-105037342D01*
X184499333Y-104942104D01*
X184499333Y-104132580D01*
X184927904Y-104227819D02*
X184975523Y-104180200D01*
X185070761Y-104132580D01*
X185308857Y-104132580D01*
X185404095Y-104180200D01*
X185451714Y-104227819D01*
X185499333Y-104323057D01*
X185499333Y-104418295D01*
X185451714Y-104561152D01*
X184880285Y-105132580D01*
X185499333Y-105132580D01*
X186118380Y-104132580D02*
X186213619Y-104132580D01*
X186308857Y-104180200D01*
X186356476Y-104227819D01*
X186404095Y-104323057D01*
X186451714Y-104513533D01*
X186451714Y-104751628D01*
X186404095Y-104942104D01*
X186356476Y-105037342D01*
X186308857Y-105084961D01*
X186213619Y-105132580D01*
X186118380Y-105132580D01*
X186023142Y-105084961D01*
X185975523Y-105037342D01*
X185927904Y-104942104D01*
X185880285Y-104751628D01*
X185880285Y-104513533D01*
X185927904Y-104323057D01*
X185975523Y-104227819D01*
X186023142Y-104180200D01*
X186118380Y-104132580D01*
X129978304Y-79900980D02*
X129978304Y-80710504D01*
X130025923Y-80805742D01*
X130073542Y-80853361D01*
X130168780Y-80900980D01*
X130359257Y-80900980D01*
X130454495Y-80853361D01*
X130502114Y-80805742D01*
X130549733Y-80710504D01*
X130549733Y-79900980D01*
X131549733Y-80900980D02*
X130978304Y-80900980D01*
X131264019Y-80900980D02*
X131264019Y-79900980D01*
X131168780Y-80043838D01*
X131073542Y-80139076D01*
X130978304Y-80186695D01*
X132025923Y-80900980D02*
X132216400Y-80900980D01*
X132311638Y-80853361D01*
X132359257Y-80805742D01*
X132454495Y-80662885D01*
X132502114Y-80472409D01*
X132502114Y-80091457D01*
X132454495Y-79996219D01*
X132406876Y-79948600D01*
X132311638Y-79900980D01*
X132121161Y-79900980D01*
X132025923Y-79948600D01*
X131978304Y-79996219D01*
X131930685Y-80091457D01*
X131930685Y-80329552D01*
X131978304Y-80424790D01*
X132025923Y-80472409D01*
X132121161Y-80520028D01*
X132311638Y-80520028D01*
X132406876Y-80472409D01*
X132454495Y-80424790D01*
X132502114Y-80329552D01*
X182276904Y-79951780D02*
X182276904Y-80761304D01*
X182324523Y-80856542D01*
X182372142Y-80904161D01*
X182467380Y-80951780D01*
X182657857Y-80951780D01*
X182753095Y-80904161D01*
X182800714Y-80856542D01*
X182848333Y-80761304D01*
X182848333Y-79951780D01*
X183848333Y-80951780D02*
X183276904Y-80951780D01*
X183562619Y-80951780D02*
X183562619Y-79951780D01*
X183467380Y-80094638D01*
X183372142Y-80189876D01*
X183276904Y-80237495D01*
X184419761Y-80380352D02*
X184324523Y-80332733D01*
X184276904Y-80285114D01*
X184229285Y-80189876D01*
X184229285Y-80142257D01*
X184276904Y-80047019D01*
X184324523Y-79999400D01*
X184419761Y-79951780D01*
X184610238Y-79951780D01*
X184705476Y-79999400D01*
X184753095Y-80047019D01*
X184800714Y-80142257D01*
X184800714Y-80189876D01*
X184753095Y-80285114D01*
X184705476Y-80332733D01*
X184610238Y-80380352D01*
X184419761Y-80380352D01*
X184324523Y-80427971D01*
X184276904Y-80475590D01*
X184229285Y-80570828D01*
X184229285Y-80761304D01*
X184276904Y-80856542D01*
X184324523Y-80904161D01*
X184419761Y-80951780D01*
X184610238Y-80951780D01*
X184705476Y-80904161D01*
X184753095Y-80856542D01*
X184800714Y-80761304D01*
X184800714Y-80570828D01*
X184753095Y-80475590D01*
X184705476Y-80427971D01*
X184610238Y-80380352D01*
X160712704Y-31845780D02*
X160712704Y-32655304D01*
X160760323Y-32750542D01*
X160807942Y-32798161D01*
X160903180Y-32845780D01*
X161093657Y-32845780D01*
X161188895Y-32798161D01*
X161236514Y-32750542D01*
X161284133Y-32655304D01*
X161284133Y-31845780D01*
X162284133Y-32845780D02*
X161712704Y-32845780D01*
X161998419Y-32845780D02*
X161998419Y-31845780D01*
X161903180Y-31988638D01*
X161807942Y-32083876D01*
X161712704Y-32131495D01*
X163141276Y-31845780D02*
X162950800Y-31845780D01*
X162855561Y-31893400D01*
X162807942Y-31941019D01*
X162712704Y-32083876D01*
X162665085Y-32274352D01*
X162665085Y-32655304D01*
X162712704Y-32750542D01*
X162760323Y-32798161D01*
X162855561Y-32845780D01*
X163046038Y-32845780D01*
X163141276Y-32798161D01*
X163188895Y-32750542D01*
X163236514Y-32655304D01*
X163236514Y-32417209D01*
X163188895Y-32321971D01*
X163141276Y-32274352D01*
X163046038Y-32226733D01*
X162855561Y-32226733D01*
X162760323Y-32274352D01*
X162712704Y-32321971D01*
X162665085Y-32417209D01*
X180112704Y-31845780D02*
X180112704Y-32655304D01*
X180160323Y-32750542D01*
X180207942Y-32798161D01*
X180303180Y-32845780D01*
X180493657Y-32845780D01*
X180588895Y-32798161D01*
X180636514Y-32750542D01*
X180684133Y-32655304D01*
X180684133Y-31845780D01*
X181684133Y-32845780D02*
X181112704Y-32845780D01*
X181398419Y-32845780D02*
X181398419Y-31845780D01*
X181303180Y-31988638D01*
X181207942Y-32083876D01*
X181112704Y-32131495D01*
X182588895Y-31845780D02*
X182112704Y-31845780D01*
X182065085Y-32321971D01*
X182112704Y-32274352D01*
X182207942Y-32226733D01*
X182446038Y-32226733D01*
X182541276Y-32274352D01*
X182588895Y-32321971D01*
X182636514Y-32417209D01*
X182636514Y-32655304D01*
X182588895Y-32750542D01*
X182541276Y-32798161D01*
X182446038Y-32845780D01*
X182207942Y-32845780D01*
X182112704Y-32798161D01*
X182065085Y-32750542D01*
X204324104Y-79951780D02*
X204324104Y-80761304D01*
X204371723Y-80856542D01*
X204419342Y-80904161D01*
X204514580Y-80951780D01*
X204705057Y-80951780D01*
X204800295Y-80904161D01*
X204847914Y-80856542D01*
X204895533Y-80761304D01*
X204895533Y-79951780D01*
X205895533Y-80951780D02*
X205324104Y-80951780D01*
X205609819Y-80951780D02*
X205609819Y-79951780D01*
X205514580Y-80094638D01*
X205419342Y-80189876D01*
X205324104Y-80237495D01*
X206228866Y-79951780D02*
X206847914Y-79951780D01*
X206514580Y-80332733D01*
X206657438Y-80332733D01*
X206752676Y-80380352D01*
X206800295Y-80427971D01*
X206847914Y-80523209D01*
X206847914Y-80761304D01*
X206800295Y-80856542D01*
X206752676Y-80904161D01*
X206657438Y-80951780D01*
X206371723Y-80951780D01*
X206276485Y-80904161D01*
X206228866Y-80856542D01*
X193249704Y-77411780D02*
X193249704Y-78221304D01*
X193297323Y-78316542D01*
X193344942Y-78364161D01*
X193440180Y-78411780D01*
X193630657Y-78411780D01*
X193725895Y-78364161D01*
X193773514Y-78316542D01*
X193821133Y-78221304D01*
X193821133Y-77411780D01*
X194821133Y-78411780D02*
X194249704Y-78411780D01*
X194535419Y-78411780D02*
X194535419Y-77411780D01*
X194440180Y-77554638D01*
X194344942Y-77649876D01*
X194249704Y-77697495D01*
X195773514Y-78411780D02*
X195202085Y-78411780D01*
X195487800Y-78411780D02*
X195487800Y-77411780D01*
X195392561Y-77554638D01*
X195297323Y-77649876D01*
X195202085Y-77697495D01*
X87814095Y-31604180D02*
X87814095Y-32413704D01*
X87861714Y-32508942D01*
X87909333Y-32556561D01*
X88004571Y-32604180D01*
X88195047Y-32604180D01*
X88290285Y-32556561D01*
X88337904Y-32508942D01*
X88385523Y-32413704D01*
X88385523Y-31604180D01*
X89337904Y-31604180D02*
X88861714Y-31604180D01*
X88814095Y-32080371D01*
X88861714Y-32032752D01*
X88956952Y-31985133D01*
X89195047Y-31985133D01*
X89290285Y-32032752D01*
X89337904Y-32080371D01*
X89385523Y-32175609D01*
X89385523Y-32413704D01*
X89337904Y-32508942D01*
X89290285Y-32556561D01*
X89195047Y-32604180D01*
X88956952Y-32604180D01*
X88861714Y-32556561D01*
X88814095Y-32508942D01*
X87336380Y-108203904D02*
X88145904Y-108203904D01*
X88241142Y-108156285D01*
X88288761Y-108108666D01*
X88336380Y-108013428D01*
X88336380Y-107822952D01*
X88288761Y-107727714D01*
X88241142Y-107680095D01*
X88145904Y-107632476D01*
X87336380Y-107632476D01*
X87336380Y-107251523D02*
X87336380Y-106632476D01*
X87717333Y-106965809D01*
X87717333Y-106822952D01*
X87764952Y-106727714D01*
X87812571Y-106680095D01*
X87907809Y-106632476D01*
X88145904Y-106632476D01*
X88241142Y-106680095D01*
X88288761Y-106727714D01*
X88336380Y-106822952D01*
X88336380Y-107108666D01*
X88288761Y-107203904D01*
X88241142Y-107251523D01*
X145701980Y-118184466D02*
X145225790Y-118517800D01*
X145701980Y-118755895D02*
X144701980Y-118755895D01*
X144701980Y-118374942D01*
X144749600Y-118279704D01*
X144797219Y-118232085D01*
X144892457Y-118184466D01*
X145035314Y-118184466D01*
X145130552Y-118232085D01*
X145178171Y-118279704D01*
X145225790Y-118374942D01*
X145225790Y-118755895D01*
X145701980Y-117755895D02*
X144701980Y-117755895D01*
X145701980Y-117184466D01*
X144701980Y-117184466D01*
X145701980Y-116184466D02*
X145701980Y-116755895D01*
X145701980Y-116470180D02*
X144701980Y-116470180D01*
X144844838Y-116565419D01*
X144940076Y-116660657D01*
X144987695Y-116755895D01*
X145035314Y-115327323D02*
X145701980Y-115327323D01*
X144654361Y-115565419D02*
X145368647Y-115803514D01*
X145368647Y-115184466D01*
X178493380Y-118336866D02*
X178017190Y-118670200D01*
X178493380Y-118908295D02*
X177493380Y-118908295D01*
X177493380Y-118527342D01*
X177541000Y-118432104D01*
X177588619Y-118384485D01*
X177683857Y-118336866D01*
X177826714Y-118336866D01*
X177921952Y-118384485D01*
X177969571Y-118432104D01*
X178017190Y-118527342D01*
X178017190Y-118908295D01*
X178493380Y-117908295D02*
X177493380Y-117908295D01*
X178493380Y-117336866D01*
X177493380Y-117336866D01*
X178493380Y-116336866D02*
X178493380Y-116908295D01*
X178493380Y-116622580D02*
X177493380Y-116622580D01*
X177636238Y-116717819D01*
X177731476Y-116813057D01*
X177779095Y-116908295D01*
X177493380Y-116003533D02*
X177493380Y-115384485D01*
X177874333Y-115717819D01*
X177874333Y-115574961D01*
X177921952Y-115479723D01*
X177969571Y-115432104D01*
X178064809Y-115384485D01*
X178302904Y-115384485D01*
X178398142Y-115432104D01*
X178445761Y-115479723D01*
X178493380Y-115574961D01*
X178493380Y-115860676D01*
X178445761Y-115955914D01*
X178398142Y-116003533D01*
X141891980Y-94054466D02*
X141415790Y-94387800D01*
X141891980Y-94625895D02*
X140891980Y-94625895D01*
X140891980Y-94244942D01*
X140939600Y-94149704D01*
X140987219Y-94102085D01*
X141082457Y-94054466D01*
X141225314Y-94054466D01*
X141320552Y-94102085D01*
X141368171Y-94149704D01*
X141415790Y-94244942D01*
X141415790Y-94625895D01*
X141891980Y-93625895D02*
X140891980Y-93625895D01*
X141891980Y-93054466D01*
X140891980Y-93054466D01*
X141891980Y-92054466D02*
X141891980Y-92625895D01*
X141891980Y-92340180D02*
X140891980Y-92340180D01*
X141034838Y-92435419D01*
X141130076Y-92530657D01*
X141177695Y-92625895D01*
X140987219Y-91673514D02*
X140939600Y-91625895D01*
X140891980Y-91530657D01*
X140891980Y-91292561D01*
X140939600Y-91197323D01*
X140987219Y-91149704D01*
X141082457Y-91102085D01*
X141177695Y-91102085D01*
X141320552Y-91149704D01*
X141891980Y-91721133D01*
X141891980Y-91102085D01*
X175038980Y-94054466D02*
X174562790Y-94387800D01*
X175038980Y-94625895D02*
X174038980Y-94625895D01*
X174038980Y-94244942D01*
X174086600Y-94149704D01*
X174134219Y-94102085D01*
X174229457Y-94054466D01*
X174372314Y-94054466D01*
X174467552Y-94102085D01*
X174515171Y-94149704D01*
X174562790Y-94244942D01*
X174562790Y-94625895D01*
X175038980Y-93625895D02*
X174038980Y-93625895D01*
X175038980Y-93054466D01*
X174038980Y-93054466D01*
X175038980Y-92054466D02*
X175038980Y-92625895D01*
X175038980Y-92340180D02*
X174038980Y-92340180D01*
X174181838Y-92435419D01*
X174277076Y-92530657D01*
X174324695Y-92625895D01*
X175038980Y-91102085D02*
X175038980Y-91673514D01*
X175038980Y-91387800D02*
X174038980Y-91387800D01*
X174181838Y-91483038D01*
X174277076Y-91578276D01*
X174324695Y-91673514D01*
X88702380Y-92800466D02*
X88226190Y-93133800D01*
X88702380Y-93371895D02*
X87702380Y-93371895D01*
X87702380Y-92990942D01*
X87750000Y-92895704D01*
X87797619Y-92848085D01*
X87892857Y-92800466D01*
X88035714Y-92800466D01*
X88130952Y-92848085D01*
X88178571Y-92895704D01*
X88226190Y-92990942D01*
X88226190Y-93371895D01*
X88035714Y-91943323D02*
X88702380Y-91943323D01*
X87654761Y-92181419D02*
X88369047Y-92419514D01*
X88369047Y-91800466D01*
X96906580Y-50153866D02*
X96430390Y-50487200D01*
X96906580Y-50725295D02*
X95906580Y-50725295D01*
X95906580Y-50344342D01*
X95954200Y-50249104D01*
X96001819Y-50201485D01*
X96097057Y-50153866D01*
X96239914Y-50153866D01*
X96335152Y-50201485D01*
X96382771Y-50249104D01*
X96430390Y-50344342D01*
X96430390Y-50725295D01*
X95906580Y-49820533D02*
X95906580Y-49201485D01*
X96287533Y-49534819D01*
X96287533Y-49391961D01*
X96335152Y-49296723D01*
X96382771Y-49249104D01*
X96478009Y-49201485D01*
X96716104Y-49201485D01*
X96811342Y-49249104D01*
X96858961Y-49296723D01*
X96906580Y-49391961D01*
X96906580Y-49677676D01*
X96858961Y-49772914D01*
X96811342Y-49820533D01*
X104450380Y-89752466D02*
X103974190Y-90085800D01*
X104450380Y-90323895D02*
X103450380Y-90323895D01*
X103450380Y-89942942D01*
X103498000Y-89847704D01*
X103545619Y-89800085D01*
X103640857Y-89752466D01*
X103783714Y-89752466D01*
X103878952Y-89800085D01*
X103926571Y-89847704D01*
X103974190Y-89942942D01*
X103974190Y-90323895D01*
X103545619Y-89371514D02*
X103498000Y-89323895D01*
X103450380Y-89228657D01*
X103450380Y-88990561D01*
X103498000Y-88895323D01*
X103545619Y-88847704D01*
X103640857Y-88800085D01*
X103736095Y-88800085D01*
X103878952Y-88847704D01*
X104450380Y-89419133D01*
X104450380Y-88800085D01*
X106990380Y-93308466D02*
X106514190Y-93641800D01*
X106990380Y-93879895D02*
X105990380Y-93879895D01*
X105990380Y-93498942D01*
X106038000Y-93403704D01*
X106085619Y-93356085D01*
X106180857Y-93308466D01*
X106323714Y-93308466D01*
X106418952Y-93356085D01*
X106466571Y-93403704D01*
X106514190Y-93498942D01*
X106514190Y-93879895D01*
X106990380Y-92356085D02*
X106990380Y-92927514D01*
X106990380Y-92641800D02*
X105990380Y-92641800D01*
X106133238Y-92737038D01*
X106228476Y-92832276D01*
X106276095Y-92927514D01*
X74977666Y-53859180D02*
X74977666Y-54573466D01*
X74930047Y-54716323D01*
X74834809Y-54811561D01*
X74691952Y-54859180D01*
X74596714Y-54859180D01*
X75501476Y-54859180D02*
X75691952Y-54859180D01*
X75787190Y-54811561D01*
X75834809Y-54763942D01*
X75930047Y-54621085D01*
X75977666Y-54430609D01*
X75977666Y-54049657D01*
X75930047Y-53954419D01*
X75882428Y-53906800D01*
X75787190Y-53859180D01*
X75596714Y-53859180D01*
X75501476Y-53906800D01*
X75453857Y-53954419D01*
X75406238Y-54049657D01*
X75406238Y-54287752D01*
X75453857Y-54382990D01*
X75501476Y-54430609D01*
X75596714Y-54478228D01*
X75787190Y-54478228D01*
X75882428Y-54430609D01*
X75930047Y-54382990D01*
X75977666Y-54287752D01*
X220646666Y-31412380D02*
X220646666Y-32126666D01*
X220599047Y-32269523D01*
X220503809Y-32364761D01*
X220360952Y-32412380D01*
X220265714Y-32412380D01*
X221265714Y-31840952D02*
X221170476Y-31793333D01*
X221122857Y-31745714D01*
X221075238Y-31650476D01*
X221075238Y-31602857D01*
X221122857Y-31507619D01*
X221170476Y-31460000D01*
X221265714Y-31412380D01*
X221456190Y-31412380D01*
X221551428Y-31460000D01*
X221599047Y-31507619D01*
X221646666Y-31602857D01*
X221646666Y-31650476D01*
X221599047Y-31745714D01*
X221551428Y-31793333D01*
X221456190Y-31840952D01*
X221265714Y-31840952D01*
X221170476Y-31888571D01*
X221122857Y-31936190D01*
X221075238Y-32031428D01*
X221075238Y-32221904D01*
X221122857Y-32317142D01*
X221170476Y-32364761D01*
X221265714Y-32412380D01*
X221456190Y-32412380D01*
X221551428Y-32364761D01*
X221599047Y-32317142D01*
X221646666Y-32221904D01*
X221646666Y-32031428D01*
X221599047Y-31936190D01*
X221551428Y-31888571D01*
X221456190Y-31840952D01*
X222956571Y-34996380D02*
X222956571Y-33996380D01*
X223432761Y-34472571D02*
X223766095Y-34472571D01*
X223908952Y-34996380D02*
X223432761Y-34996380D01*
X223432761Y-33996380D01*
X223908952Y-33996380D01*
X224337523Y-34996380D02*
X224337523Y-33996380D01*
X224956571Y-33996380D02*
X224956571Y-34234476D01*
X224718476Y-34139238D02*
X224956571Y-34234476D01*
X225194666Y-34139238D01*
X224813714Y-34424952D02*
X224956571Y-34234476D01*
X225099428Y-34424952D01*
X87038380Y-122431133D02*
X87752666Y-122431133D01*
X87895523Y-122478752D01*
X87990761Y-122573990D01*
X88038380Y-122716847D01*
X88038380Y-122812085D01*
X87038380Y-121526371D02*
X87038380Y-121716847D01*
X87086000Y-121812085D01*
X87133619Y-121859704D01*
X87276476Y-121954942D01*
X87466952Y-122002561D01*
X87847904Y-122002561D01*
X87943142Y-121954942D01*
X87990761Y-121907323D01*
X88038380Y-121812085D01*
X88038380Y-121621609D01*
X87990761Y-121526371D01*
X87943142Y-121478752D01*
X87847904Y-121431133D01*
X87609809Y-121431133D01*
X87514571Y-121478752D01*
X87466952Y-121526371D01*
X87419333Y-121621609D01*
X87419333Y-121812085D01*
X87466952Y-121907323D01*
X87514571Y-121954942D01*
X87609809Y-122002561D01*
X87038380Y-113795133D02*
X87752666Y-113795133D01*
X87895523Y-113842752D01*
X87990761Y-113937990D01*
X88038380Y-114080847D01*
X88038380Y-114176085D01*
X87038380Y-112842752D02*
X87038380Y-113318942D01*
X87514571Y-113366561D01*
X87466952Y-113318942D01*
X87419333Y-113223704D01*
X87419333Y-112985609D01*
X87466952Y-112890371D01*
X87514571Y-112842752D01*
X87609809Y-112795133D01*
X87847904Y-112795133D01*
X87943142Y-112842752D01*
X87990761Y-112890371D01*
X88038380Y-112985609D01*
X88038380Y-113223704D01*
X87990761Y-113318942D01*
X87943142Y-113366561D01*
X86368380Y-112093333D02*
X87082666Y-112093333D01*
X87225523Y-112140952D01*
X87320761Y-112236190D01*
X87368380Y-112379047D01*
X87368380Y-112474285D01*
X86701714Y-111188571D02*
X87368380Y-111188571D01*
X86320761Y-111426666D02*
X87035047Y-111664761D01*
X87035047Y-111045714D01*
X97380466Y-63478980D02*
X97380466Y-64193266D01*
X97332847Y-64336123D01*
X97237609Y-64431361D01*
X97094752Y-64478980D01*
X96999514Y-64478980D01*
X97761419Y-63478980D02*
X98380466Y-63478980D01*
X98047133Y-63859933D01*
X98189990Y-63859933D01*
X98285228Y-63907552D01*
X98332847Y-63955171D01*
X98380466Y-64050409D01*
X98380466Y-64288504D01*
X98332847Y-64383742D01*
X98285228Y-64431361D01*
X98189990Y-64478980D01*
X97904276Y-64478980D01*
X97809038Y-64431361D01*
X97761419Y-64383742D01*
X99572380Y-67871933D02*
X100286666Y-67871933D01*
X100429523Y-67919552D01*
X100524761Y-68014790D01*
X100572380Y-68157647D01*
X100572380Y-68252885D01*
X99667619Y-67443361D02*
X99620000Y-67395742D01*
X99572380Y-67300504D01*
X99572380Y-67062409D01*
X99620000Y-66967171D01*
X99667619Y-66919552D01*
X99762857Y-66871933D01*
X99858095Y-66871933D01*
X100000952Y-66919552D01*
X100572380Y-67490980D01*
X100572380Y-66871933D01*
X89043142Y-59534657D02*
X89090761Y-59582276D01*
X89138380Y-59725133D01*
X89138380Y-59820371D01*
X89090761Y-59963228D01*
X88995523Y-60058466D01*
X88900285Y-60106085D01*
X88709809Y-60153704D01*
X88566952Y-60153704D01*
X88376476Y-60106085D01*
X88281238Y-60058466D01*
X88186000Y-59963228D01*
X88138380Y-59820371D01*
X88138380Y-59725133D01*
X88186000Y-59582276D01*
X88233619Y-59534657D01*
X88138380Y-59201323D02*
X88138380Y-58582276D01*
X88519333Y-58915609D01*
X88519333Y-58772752D01*
X88566952Y-58677514D01*
X88614571Y-58629895D01*
X88709809Y-58582276D01*
X88947904Y-58582276D01*
X89043142Y-58629895D01*
X89090761Y-58677514D01*
X89138380Y-58772752D01*
X89138380Y-59058466D01*
X89090761Y-59153704D01*
X89043142Y-59201323D01*
X88138380Y-58248942D02*
X88138380Y-57629895D01*
X88519333Y-57963228D01*
X88519333Y-57820371D01*
X88566952Y-57725133D01*
X88614571Y-57677514D01*
X88709809Y-57629895D01*
X88947904Y-57629895D01*
X89043142Y-57677514D01*
X89090761Y-57725133D01*
X89138380Y-57820371D01*
X89138380Y-58106085D01*
X89090761Y-58201323D01*
X89043142Y-58248942D01*
X83963142Y-59534657D02*
X84010761Y-59582276D01*
X84058380Y-59725133D01*
X84058380Y-59820371D01*
X84010761Y-59963228D01*
X83915523Y-60058466D01*
X83820285Y-60106085D01*
X83629809Y-60153704D01*
X83486952Y-60153704D01*
X83296476Y-60106085D01*
X83201238Y-60058466D01*
X83106000Y-59963228D01*
X83058380Y-59820371D01*
X83058380Y-59725133D01*
X83106000Y-59582276D01*
X83153619Y-59534657D01*
X83058380Y-59201323D02*
X83058380Y-58582276D01*
X83439333Y-58915609D01*
X83439333Y-58772752D01*
X83486952Y-58677514D01*
X83534571Y-58629895D01*
X83629809Y-58582276D01*
X83867904Y-58582276D01*
X83963142Y-58629895D01*
X84010761Y-58677514D01*
X84058380Y-58772752D01*
X84058380Y-59058466D01*
X84010761Y-59153704D01*
X83963142Y-59201323D01*
X83153619Y-58201323D02*
X83106000Y-58153704D01*
X83058380Y-58058466D01*
X83058380Y-57820371D01*
X83106000Y-57725133D01*
X83153619Y-57677514D01*
X83248857Y-57629895D01*
X83344095Y-57629895D01*
X83486952Y-57677514D01*
X84058380Y-58248942D01*
X84058380Y-57629895D01*
X76533142Y-54188942D02*
X76485523Y-54236561D01*
X76342666Y-54284180D01*
X76247428Y-54284180D01*
X76104571Y-54236561D01*
X76009333Y-54141323D01*
X75961714Y-54046085D01*
X75914095Y-53855609D01*
X75914095Y-53712752D01*
X75961714Y-53522276D01*
X76009333Y-53427038D01*
X76104571Y-53331800D01*
X76247428Y-53284180D01*
X76342666Y-53284180D01*
X76485523Y-53331800D01*
X76533142Y-53379419D01*
X76866476Y-53284180D02*
X77485523Y-53284180D01*
X77152190Y-53665133D01*
X77295047Y-53665133D01*
X77390285Y-53712752D01*
X77437904Y-53760371D01*
X77485523Y-53855609D01*
X77485523Y-54093704D01*
X77437904Y-54188942D01*
X77390285Y-54236561D01*
X77295047Y-54284180D01*
X77009333Y-54284180D01*
X76914095Y-54236561D01*
X76866476Y-54188942D01*
X78437904Y-54284180D02*
X77866476Y-54284180D01*
X78152190Y-54284180D02*
X78152190Y-53284180D01*
X78056952Y-53427038D01*
X77961714Y-53522276D01*
X77866476Y-53569895D01*
X181565942Y-104177742D02*
X181518323Y-104225361D01*
X181375466Y-104272980D01*
X181280228Y-104272980D01*
X181137371Y-104225361D01*
X181042133Y-104130123D01*
X180994514Y-104034885D01*
X180946895Y-103844409D01*
X180946895Y-103701552D01*
X180994514Y-103511076D01*
X181042133Y-103415838D01*
X181137371Y-103320600D01*
X181280228Y-103272980D01*
X181375466Y-103272980D01*
X181518323Y-103320600D01*
X181565942Y-103368219D01*
X181946895Y-103368219D02*
X181994514Y-103320600D01*
X182089752Y-103272980D01*
X182327847Y-103272980D01*
X182423085Y-103320600D01*
X182470704Y-103368219D01*
X182518323Y-103463457D01*
X182518323Y-103558695D01*
X182470704Y-103701552D01*
X181899276Y-104272980D01*
X182518323Y-104272980D01*
X182899276Y-103368219D02*
X182946895Y-103320600D01*
X183042133Y-103272980D01*
X183280228Y-103272980D01*
X183375466Y-103320600D01*
X183423085Y-103368219D01*
X183470704Y-103463457D01*
X183470704Y-103558695D01*
X183423085Y-103701552D01*
X182851657Y-104272980D01*
X183470704Y-104272980D01*
X93107142Y-81298657D02*
X93154761Y-81346276D01*
X93202380Y-81489133D01*
X93202380Y-81584371D01*
X93154761Y-81727228D01*
X93059523Y-81822466D01*
X92964285Y-81870085D01*
X92773809Y-81917704D01*
X92630952Y-81917704D01*
X92440476Y-81870085D01*
X92345238Y-81822466D01*
X92250000Y-81727228D01*
X92202380Y-81584371D01*
X92202380Y-81489133D01*
X92250000Y-81346276D01*
X92297619Y-81298657D01*
X92297619Y-80917704D02*
X92250000Y-80870085D01*
X92202380Y-80774847D01*
X92202380Y-80536752D01*
X92250000Y-80441514D01*
X92297619Y-80393895D01*
X92392857Y-80346276D01*
X92488095Y-80346276D01*
X92630952Y-80393895D01*
X93202380Y-80965323D01*
X93202380Y-80346276D01*
X93202380Y-79393895D02*
X93202380Y-79965323D01*
X93202380Y-79679609D02*
X92202380Y-79679609D01*
X92345238Y-79774847D01*
X92440476Y-79870085D01*
X92488095Y-79965323D01*
X80617142Y-70190942D02*
X80569523Y-70238561D01*
X80426666Y-70286180D01*
X80331428Y-70286180D01*
X80188571Y-70238561D01*
X80093333Y-70143323D01*
X80045714Y-70048085D01*
X79998095Y-69857609D01*
X79998095Y-69714752D01*
X80045714Y-69524276D01*
X80093333Y-69429038D01*
X80188571Y-69333800D01*
X80331428Y-69286180D01*
X80426666Y-69286180D01*
X80569523Y-69333800D01*
X80617142Y-69381419D01*
X81569523Y-70286180D02*
X80998095Y-70286180D01*
X81283809Y-70286180D02*
X81283809Y-69286180D01*
X81188571Y-69429038D01*
X81093333Y-69524276D01*
X80998095Y-69571895D01*
X82426666Y-69619514D02*
X82426666Y-70286180D01*
X82188571Y-69238561D02*
X81950476Y-69952847D01*
X82569523Y-69952847D01*
X92809142Y-70190942D02*
X92761523Y-70238561D01*
X92618666Y-70286180D01*
X92523428Y-70286180D01*
X92380571Y-70238561D01*
X92285333Y-70143323D01*
X92237714Y-70048085D01*
X92190095Y-69857609D01*
X92190095Y-69714752D01*
X92237714Y-69524276D01*
X92285333Y-69429038D01*
X92380571Y-69333800D01*
X92523428Y-69286180D01*
X92618666Y-69286180D01*
X92761523Y-69333800D01*
X92809142Y-69381419D01*
X93761523Y-70286180D02*
X93190095Y-70286180D01*
X93475809Y-70286180D02*
X93475809Y-69286180D01*
X93380571Y-69429038D01*
X93285333Y-69524276D01*
X93190095Y-69571895D01*
X94142476Y-69381419D02*
X94190095Y-69333800D01*
X94285333Y-69286180D01*
X94523428Y-69286180D01*
X94618666Y-69333800D01*
X94666285Y-69381419D01*
X94713904Y-69476657D01*
X94713904Y-69571895D01*
X94666285Y-69714752D01*
X94094857Y-70286180D01*
X94713904Y-70286180D01*
X74521142Y-63078942D02*
X74473523Y-63126561D01*
X74330666Y-63174180D01*
X74235428Y-63174180D01*
X74092571Y-63126561D01*
X73997333Y-63031323D01*
X73949714Y-62936085D01*
X73902095Y-62745609D01*
X73902095Y-62602752D01*
X73949714Y-62412276D01*
X73997333Y-62317038D01*
X74092571Y-62221800D01*
X74235428Y-62174180D01*
X74330666Y-62174180D01*
X74473523Y-62221800D01*
X74521142Y-62269419D01*
X75473523Y-63174180D02*
X74902095Y-63174180D01*
X75187809Y-63174180D02*
X75187809Y-62174180D01*
X75092571Y-62317038D01*
X74997333Y-62412276D01*
X74902095Y-62459895D01*
X76425904Y-63174180D02*
X75854476Y-63174180D01*
X76140190Y-63174180D02*
X76140190Y-62174180D01*
X76044952Y-62317038D01*
X75949714Y-62412276D01*
X75854476Y-62459895D01*
X175673142Y-74231142D02*
X175625523Y-74278761D01*
X175482666Y-74326380D01*
X175387428Y-74326380D01*
X175244571Y-74278761D01*
X175149333Y-74183523D01*
X175101714Y-74088285D01*
X175054095Y-73897809D01*
X175054095Y-73754952D01*
X175101714Y-73564476D01*
X175149333Y-73469238D01*
X175244571Y-73374000D01*
X175387428Y-73326380D01*
X175482666Y-73326380D01*
X175625523Y-73374000D01*
X175673142Y-73421619D01*
X176625523Y-74326380D02*
X176054095Y-74326380D01*
X176339809Y-74326380D02*
X176339809Y-73326380D01*
X176244571Y-73469238D01*
X176149333Y-73564476D01*
X176054095Y-73612095D01*
X177244571Y-73326380D02*
X177339809Y-73326380D01*
X177435047Y-73374000D01*
X177482666Y-73421619D01*
X177530285Y-73516857D01*
X177577904Y-73707333D01*
X177577904Y-73945428D01*
X177530285Y-74135904D01*
X177482666Y-74231142D01*
X177435047Y-74278761D01*
X177339809Y-74326380D01*
X177244571Y-74326380D01*
X177149333Y-74278761D01*
X177101714Y-74231142D01*
X177054095Y-74135904D01*
X177006476Y-73945428D01*
X177006476Y-73707333D01*
X177054095Y-73516857D01*
X177101714Y-73421619D01*
X177149333Y-73374000D01*
X177244571Y-73326380D01*
X204089333Y-130365142D02*
X204041714Y-130412761D01*
X203898857Y-130460380D01*
X203803619Y-130460380D01*
X203660761Y-130412761D01*
X203565523Y-130317523D01*
X203517904Y-130222285D01*
X203470285Y-130031809D01*
X203470285Y-129888952D01*
X203517904Y-129698476D01*
X203565523Y-129603238D01*
X203660761Y-129508000D01*
X203803619Y-129460380D01*
X203898857Y-129460380D01*
X204041714Y-129508000D01*
X204089333Y-129555619D01*
X204565523Y-130460380D02*
X204756000Y-130460380D01*
X204851238Y-130412761D01*
X204898857Y-130365142D01*
X204994095Y-130222285D01*
X205041714Y-130031809D01*
X205041714Y-129650857D01*
X204994095Y-129555619D01*
X204946476Y-129508000D01*
X204851238Y-129460380D01*
X204660761Y-129460380D01*
X204565523Y-129508000D01*
X204517904Y-129555619D01*
X204470285Y-129650857D01*
X204470285Y-129888952D01*
X204517904Y-129984190D01*
X204565523Y-130031809D01*
X204660761Y-130079428D01*
X204851238Y-130079428D01*
X204946476Y-130031809D01*
X204994095Y-129984190D01*
X205041714Y-129888952D01*
X156642133Y-74256542D02*
X156594514Y-74304161D01*
X156451657Y-74351780D01*
X156356419Y-74351780D01*
X156213561Y-74304161D01*
X156118323Y-74208923D01*
X156070704Y-74113685D01*
X156023085Y-73923209D01*
X156023085Y-73780352D01*
X156070704Y-73589876D01*
X156118323Y-73494638D01*
X156213561Y-73399400D01*
X156356419Y-73351780D01*
X156451657Y-73351780D01*
X156594514Y-73399400D01*
X156642133Y-73447019D01*
X157213561Y-73780352D02*
X157118323Y-73732733D01*
X157070704Y-73685114D01*
X157023085Y-73589876D01*
X157023085Y-73542257D01*
X157070704Y-73447019D01*
X157118323Y-73399400D01*
X157213561Y-73351780D01*
X157404038Y-73351780D01*
X157499276Y-73399400D01*
X157546895Y-73447019D01*
X157594514Y-73542257D01*
X157594514Y-73589876D01*
X157546895Y-73685114D01*
X157499276Y-73732733D01*
X157404038Y-73780352D01*
X157213561Y-73780352D01*
X157118323Y-73827971D01*
X157070704Y-73875590D01*
X157023085Y-73970828D01*
X157023085Y-74161304D01*
X157070704Y-74256542D01*
X157118323Y-74304161D01*
X157213561Y-74351780D01*
X157404038Y-74351780D01*
X157499276Y-74304161D01*
X157546895Y-74256542D01*
X157594514Y-74161304D01*
X157594514Y-73970828D01*
X157546895Y-73875590D01*
X157499276Y-73827971D01*
X157404038Y-73780352D01*
X122301333Y-128256942D02*
X122253714Y-128304561D01*
X122110857Y-128352180D01*
X122015619Y-128352180D01*
X121872761Y-128304561D01*
X121777523Y-128209323D01*
X121729904Y-128114085D01*
X121682285Y-127923609D01*
X121682285Y-127780752D01*
X121729904Y-127590276D01*
X121777523Y-127495038D01*
X121872761Y-127399800D01*
X122015619Y-127352180D01*
X122110857Y-127352180D01*
X122253714Y-127399800D01*
X122301333Y-127447419D01*
X122634666Y-127352180D02*
X123301333Y-127352180D01*
X122872761Y-128352180D01*
X74997333Y-70190942D02*
X74949714Y-70238561D01*
X74806857Y-70286180D01*
X74711619Y-70286180D01*
X74568761Y-70238561D01*
X74473523Y-70143323D01*
X74425904Y-70048085D01*
X74378285Y-69857609D01*
X74378285Y-69714752D01*
X74425904Y-69524276D01*
X74473523Y-69429038D01*
X74568761Y-69333800D01*
X74711619Y-69286180D01*
X74806857Y-69286180D01*
X74949714Y-69333800D01*
X74997333Y-69381419D01*
X75854476Y-69286180D02*
X75664000Y-69286180D01*
X75568761Y-69333800D01*
X75521142Y-69381419D01*
X75425904Y-69524276D01*
X75378285Y-69714752D01*
X75378285Y-70095704D01*
X75425904Y-70190942D01*
X75473523Y-70238561D01*
X75568761Y-70286180D01*
X75759238Y-70286180D01*
X75854476Y-70238561D01*
X75902095Y-70190942D01*
X75949714Y-70095704D01*
X75949714Y-69857609D01*
X75902095Y-69762371D01*
X75854476Y-69714752D01*
X75759238Y-69667133D01*
X75568761Y-69667133D01*
X75473523Y-69714752D01*
X75425904Y-69762371D01*
X75378285Y-69857609D01*
X126834542Y-85546866D02*
X126882161Y-85594485D01*
X126929780Y-85737342D01*
X126929780Y-85832580D01*
X126882161Y-85975438D01*
X126786923Y-86070676D01*
X126691685Y-86118295D01*
X126501209Y-86165914D01*
X126358352Y-86165914D01*
X126167876Y-86118295D01*
X126072638Y-86070676D01*
X125977400Y-85975438D01*
X125929780Y-85832580D01*
X125929780Y-85737342D01*
X125977400Y-85594485D01*
X126025019Y-85546866D01*
X125929780Y-84642104D02*
X125929780Y-85118295D01*
X126405971Y-85165914D01*
X126358352Y-85118295D01*
X126310733Y-85023057D01*
X126310733Y-84784961D01*
X126358352Y-84689723D01*
X126405971Y-84642104D01*
X126501209Y-84594485D01*
X126739304Y-84594485D01*
X126834542Y-84642104D01*
X126882161Y-84689723D01*
X126929780Y-84784961D01*
X126929780Y-85023057D01*
X126882161Y-85118295D01*
X126834542Y-85165914D01*
X181788133Y-130365142D02*
X181740514Y-130412761D01*
X181597657Y-130460380D01*
X181502419Y-130460380D01*
X181359561Y-130412761D01*
X181264323Y-130317523D01*
X181216704Y-130222285D01*
X181169085Y-130031809D01*
X181169085Y-129888952D01*
X181216704Y-129698476D01*
X181264323Y-129603238D01*
X181359561Y-129508000D01*
X181502419Y-129460380D01*
X181597657Y-129460380D01*
X181740514Y-129508000D01*
X181788133Y-129555619D01*
X182645276Y-129793714D02*
X182645276Y-130460380D01*
X182407180Y-129412761D02*
X182169085Y-130127047D01*
X182788133Y-130127047D01*
X129845133Y-104457142D02*
X129797514Y-104504761D01*
X129654657Y-104552380D01*
X129559419Y-104552380D01*
X129416561Y-104504761D01*
X129321323Y-104409523D01*
X129273704Y-104314285D01*
X129226085Y-104123809D01*
X129226085Y-103980952D01*
X129273704Y-103790476D01*
X129321323Y-103695238D01*
X129416561Y-103600000D01*
X129559419Y-103552380D01*
X129654657Y-103552380D01*
X129797514Y-103600000D01*
X129845133Y-103647619D01*
X130178466Y-103552380D02*
X130797514Y-103552380D01*
X130464180Y-103933333D01*
X130607038Y-103933333D01*
X130702276Y-103980952D01*
X130749895Y-104028571D01*
X130797514Y-104123809D01*
X130797514Y-104361904D01*
X130749895Y-104457142D01*
X130702276Y-104504761D01*
X130607038Y-104552380D01*
X130321323Y-104552380D01*
X130226085Y-104504761D01*
X130178466Y-104457142D01*
X94281142Y-88522466D02*
X94328761Y-88570085D01*
X94376380Y-88712942D01*
X94376380Y-88808180D01*
X94328761Y-88951038D01*
X94233523Y-89046276D01*
X94138285Y-89093895D01*
X93947809Y-89141514D01*
X93804952Y-89141514D01*
X93614476Y-89093895D01*
X93519238Y-89046276D01*
X93424000Y-88951038D01*
X93376380Y-88808180D01*
X93376380Y-88712942D01*
X93424000Y-88570085D01*
X93471619Y-88522466D01*
X93471619Y-88141514D02*
X93424000Y-88093895D01*
X93376380Y-87998657D01*
X93376380Y-87760561D01*
X93424000Y-87665323D01*
X93471619Y-87617704D01*
X93566857Y-87570085D01*
X93662095Y-87570085D01*
X93804952Y-87617704D01*
X94376380Y-88189133D01*
X94376380Y-87570085D01*
X98853142Y-88522466D02*
X98900761Y-88570085D01*
X98948380Y-88712942D01*
X98948380Y-88808180D01*
X98900761Y-88951038D01*
X98805523Y-89046276D01*
X98710285Y-89093895D01*
X98519809Y-89141514D01*
X98376952Y-89141514D01*
X98186476Y-89093895D01*
X98091238Y-89046276D01*
X97996000Y-88951038D01*
X97948380Y-88808180D01*
X97948380Y-88712942D01*
X97996000Y-88570085D01*
X98043619Y-88522466D01*
X98948380Y-87570085D02*
X98948380Y-88141514D01*
X98948380Y-87855800D02*
X97948380Y-87855800D01*
X98091238Y-87951038D01*
X98186476Y-88046276D01*
X98234095Y-88141514D01*
M02*
