M48
; DRILL file {KiCad 5.1.4-e60b266~84~ubuntu18.04.1} date 2022-01-19T21:44:48 CET
; FORMAT={-:-/ absolute / inch / decimal}
; #@! TF.CreationDate,2022-01-19T21:44:48+01:00
; #@! TF.GenerationSoftware,Kicad,Pcbnew,5.1.4-e60b266~84~ubuntu18.04.1
; #@! TF.FileFunction,Plated,1,2,PTH
FMAT,2
INCH
T1C0.0157
T2C0.0276
T3C0.0300
T4C0.0315
T5C0.0394
T6C0.0433
T7C0.0512
T8C0.1260
%
G90
G05
T1
X2.82Y-3.73
X2.83Y-3.22
X2.83Y-4.12
X2.93Y-4.5
X2.93Y-3.77
X2.97Y-3.3122
X2.97Y-3.14
X3.02Y-3.22
X3.21Y-3.3122
X3.21Y-3.77
X3.26Y-3.46
X3.31Y-3.1816
X3.32Y-2.66
X3.34Y-4.39
X3.36Y-3.14
X3.37Y-3.77
X3.41Y-3.01
X3.45Y-2.53
X3.47Y-4.59
X3.51Y-2.97
X3.51Y-3.3122
X3.5515Y-3.1415
X3.5588Y-2.9482
X3.59Y-4.3
X3.6Y-3.17
X3.65Y-4.0
X3.66Y-4.34
X3.7Y-2.28
X3.75Y-4.31
X3.76Y-2.51
X3.82Y-3.0085
X3.89Y-4.01
X3.9Y-3.14
X3.9539Y-4.1139
X3.99Y-4.59
X4.05Y-1.27
X4.05Y-4.2915
X4.09Y-2.39
X4.09Y-4.3485
X4.1Y-2.01
X4.1Y-2.75
X4.1085Y-1.76
X4.13Y-1.66
X4.13Y-2.31
X4.13Y-2.55
X4.15Y-2.2
X4.18Y-1.46
X4.18Y-2.71
X4.19Y-4.31
X4.22Y-1.56
X4.22Y-2.49
X4.3Y-2.66
X4.34Y-1.76
X4.34Y-2.4
X4.34Y-4.01
X4.39Y-1.56
X4.39Y-2.61
X4.4Y-1.66
X4.42Y-2.3
X4.45Y-1.85
X4.45Y-2.8
X4.46Y-4.47
X4.48Y-2.66
X4.49Y-4.55
X4.52Y-4.75
X4.53Y-3.55
X4.53Y-3.94
X4.55Y-4.31
X4.55Y-5.03
X4.6Y-3.75
X4.6Y-3.84
X4.6Y-5.07
X4.64Y-4.51
X4.66Y-3.05
X4.69Y-1.96
X4.69Y-2.27
X4.7Y-3.32
X4.73Y-2.06
X4.73Y-2.17
X4.73Y-4.14
X4.77Y-4.09
X4.8Y-3.91
X4.81Y-2.93
X4.83Y-4.32
X4.8485Y-1.59
X4.85Y-2.49
X4.87Y-4.0
X4.88Y-1.67
X4.881Y-3.859
X4.89Y-2.6
X4.89Y-2.85
X4.9185Y-2.02
X4.92Y-3.14
X4.92Y-4.21
X4.93Y-5.07
X4.96Y-2.09
X4.96Y-3.0
X5.03Y-1.28
X5.03Y-4.11
X5.08Y-1.38
X5.0815Y-2.34
X5.09Y-4.98
X5.1Y-1.98
X5.1Y-4.51
X5.11Y-2.7
X5.11Y-2.94
X5.119Y-4.8101
X5.13Y-1.54
X5.14Y-2.6
X5.16Y-1.43
X5.16Y-2.48
X5.22Y-4.11
X5.23Y-2.76
X5.27Y-4.53
X5.28Y-3.95
X5.31Y-4.12
X5.37Y-2.74
X5.37Y-5.07
X5.38Y-3.2862
X5.39Y-3.56
X5.4Y-2.85
X5.4Y-3.86
X5.41Y-4.85
X5.43Y-2.17
X5.46Y-2.99
X5.47Y-1.99
X5.48Y-4.97
X5.57Y-3.17
X5.57Y-3.28
X5.62Y-3.0
X5.62Y-3.99
X5.64Y-2.9
X5.65Y-3.8887
X5.66Y-1.48
X5.6795Y-4.907
X5.708Y-1.568
X5.71Y-4.73
X5.7246Y-4.1527
X5.81Y-1.88
X5.84Y-2.12
X5.84Y-3.08
X5.98Y-1.3
X6.01Y-1.91
X6.0184Y-1.42
X6.13Y-1.42
X6.28Y-1.28
X6.37Y-2.56
X6.37Y-2.74
X6.46Y-2.9
X6.49Y-2.17
X6.58Y-1.97
X6.58Y-2.93
X6.68Y-1.27
X6.75Y-2.36
X6.75Y-2.95
X6.76Y-1.41
X6.76Y-1.57
X6.7785Y-2.56
X6.782Y-2.8415
X6.79Y-2.74
X6.82Y-5.06
X6.85Y-4.14
X6.89Y-4.02
X6.92Y-1.95
X6.92Y-2.07
X6.92Y-2.51
X6.98Y-3.86
X6.99Y-4.809
X6.99Y-5.06
X6.9963Y-4.9
X7.02Y-2.18
X7.02Y-2.65
X7.03Y-1.57
X7.03Y-2.01
X7.06Y-2.18
X7.07Y-1.77
X7.07Y-2.1399
X7.1Y-2.986
X7.11Y-1.87
X7.11Y-2.21
X7.11Y-2.3
X7.12Y-2.73
X7.14Y-2.97
X7.1402Y-2.8902
X7.16Y-1.98
X7.16Y-2.33
X7.22Y-2.46
X7.22Y-2.986
X7.22Y-4.41
X7.22Y-4.8583
X7.2746Y-4.1051
X7.3Y-1.41
X7.3004Y-4.51
X7.3068Y-4.876
X7.31Y-2.81
X7.3448Y-2.9683
X7.35Y-1.67
X7.35Y-1.82
X7.36Y-4.04
X7.3652Y-4.8885
X7.37Y-1.96
X7.38Y-1.91
X7.38Y-1.72
X7.38Y-3.96
X7.42Y-3.9015
X7.43Y-3.06
X7.5Y-1.72
X7.51Y-2.78
X7.5185Y-2.2787
X7.52Y-1.56
X7.55Y-2.16
X7.55Y-3.91
X7.551Y-1.791
X7.5598Y-4.9508
X7.5655Y-1.5672
X7.5672Y-4.0185
X7.57Y-4.48
X7.57Y-4.71
X7.5785Y-1.86
X7.5798Y-4.8899
X7.58Y-3.1663
X7.58Y-4.21
X7.59Y-1.62
X7.59Y-2.06
X7.6015Y-4.51
X7.6085Y-2.29
X7.6085Y-2.67
X7.61Y-3.99
X7.61Y-3.56
X7.62Y-3.45
X7.63Y-2.04
X7.64Y-1.66
X7.64Y-2.2
X7.64Y-4.17
X7.65Y-2.57
X7.65Y-3.37
X7.65Y-4.61
X7.65Y-4.9508
X7.6616Y-4.31
X7.68Y-3.26
X7.689Y-1.691
X7.69Y-1.52
X7.69Y-2.36
X7.69Y-2.49
X7.7Y-4.0
X7.7Y-4.11
X7.7085Y-3.34
X7.7183Y-2.9683
X7.72Y-2.0
X7.74Y-3.66
X7.74Y-4.2
X7.74Y-4.31
X7.75Y-2.15
X7.78Y-3.046
X7.781Y-2.091
X8.01Y-1.46
X8.03Y-3.94
X8.0385Y-3.36
X8.0385Y-3.66
X8.04Y-3.09
X8.04Y-4.42
X8.06Y-4.3
X8.0732Y-2.1195
X8.09Y-4.06
X8.09Y-4.61
X8.1Y-2.92
X8.1Y-3.86
X8.14Y-4.21
X8.142Y-3.261
X8.17Y-3.16
X8.1784Y-4.93
X8.18Y-4.5
X8.1804Y-3.5127
X8.2Y-4.86
X8.21Y-2.75
X8.21Y-2.94
X8.29Y-2.84
X8.32Y-3.09
T2
X3.55Y-3.497
X3.55Y-3.797
X4.27Y-3.517
X4.27Y-3.817
X3.873Y-1.818
X3.873Y-2.118
X4.17Y-3.377
X4.17Y-3.677
T3
X5.775Y-3.26
X5.775Y-3.36
X5.775Y-3.46
X5.775Y-3.56
X5.775Y-3.66
X5.775Y-3.76
X5.775Y-3.86
X5.775Y-3.96
X5.875Y-3.26
X5.875Y-3.36
X5.875Y-3.46
X5.875Y-3.56
X5.875Y-3.66
X5.875Y-3.76
X5.875Y-3.86
X5.875Y-3.96
X5.975Y-3.26
X5.975Y-3.36
X5.975Y-3.46
X5.975Y-3.56
X5.975Y-3.66
X5.975Y-3.76
X5.975Y-3.86
X5.975Y-3.96
X6.075Y-3.26
X6.075Y-3.36
X6.075Y-3.46
X6.075Y-3.56
X6.075Y-3.66
X6.075Y-3.76
X6.075Y-3.86
X6.075Y-3.96
X6.374Y-4.207
X6.374Y-4.307
X6.374Y-4.407
X6.374Y-4.507
X6.374Y-4.607
X6.374Y-4.707
X6.374Y-4.807
X6.374Y-4.907
X6.474Y-4.207
X6.474Y-4.307
X6.474Y-4.407
X6.474Y-4.507
X6.474Y-4.607
X6.474Y-4.707
X6.474Y-4.807
X6.474Y-4.907
X6.574Y-4.207
X6.574Y-4.307
X6.574Y-4.407
X6.574Y-4.507
X6.574Y-4.607
X6.574Y-4.707
X6.574Y-4.807
X6.574Y-4.907
X6.674Y-4.207
X6.674Y-4.307
X6.674Y-4.407
X6.674Y-4.507
X6.674Y-4.607
X6.674Y-4.707
X6.674Y-4.807
X6.674Y-4.907
X6.375Y-3.26
X6.375Y-3.36
X6.375Y-3.46
X6.375Y-3.56
X6.375Y-3.66
X6.375Y-3.76
X6.375Y-3.86
X6.375Y-3.96
X6.475Y-3.26
X6.475Y-3.36
X6.475Y-3.46
X6.475Y-3.56
X6.475Y-3.66
X6.475Y-3.76
X6.475Y-3.86
X6.475Y-3.96
X6.575Y-3.26
X6.575Y-3.36
X6.575Y-3.46
X6.575Y-3.56
X6.575Y-3.66
X6.575Y-3.76
X6.575Y-3.86
X6.575Y-3.96
X6.675Y-3.26
X6.675Y-3.36
X6.675Y-3.46
X6.675Y-3.56
X6.675Y-3.66
X6.675Y-3.76
X6.675Y-3.86
X6.675Y-3.96
X5.774Y-4.207
X5.774Y-4.307
X5.774Y-4.407
X5.774Y-4.507
X5.774Y-4.607
X5.774Y-4.707
X5.774Y-4.807
X5.774Y-4.907
X5.874Y-4.207
X5.874Y-4.307
X5.874Y-4.407
X5.874Y-4.507
X5.874Y-4.607
X5.874Y-4.707
X5.874Y-4.807
X5.874Y-4.907
X5.974Y-4.207
X5.974Y-4.307
X5.974Y-4.407
X5.974Y-4.507
X5.974Y-4.607
X5.974Y-4.707
X5.974Y-4.807
X5.974Y-4.907
X6.074Y-4.207
X6.074Y-4.307
X6.074Y-4.407
X6.074Y-4.507
X6.074Y-4.607
X6.074Y-4.707
X6.074Y-4.807
X6.074Y-4.907
T4
X4.73Y-4.21
X4.73Y-4.31
X4.73Y-4.41
X4.73Y-4.51
X4.73Y-4.61
X4.73Y-4.71
X4.73Y-4.81
X5.03Y-4.21
X5.03Y-4.31
X5.03Y-4.41
X5.03Y-4.51
X5.03Y-4.61
X5.03Y-4.71
X5.03Y-4.81
X7.065Y-4.213
X7.065Y-4.313
X7.065Y-4.413
X7.065Y-4.513
X7.065Y-4.613
X7.065Y-4.713
X7.065Y-4.813
X7.365Y-4.213
X7.365Y-4.313
X7.365Y-4.413
X7.365Y-4.513
X7.365Y-4.613
X7.365Y-4.713
X7.365Y-4.813
X3.15Y-2.897
X3.2484Y-2.897
X2.91Y-2.617
X3.0084Y-2.617
X6.915Y-4.113
X6.915Y-4.213
X6.915Y-4.313
X6.915Y-4.413
X6.915Y-4.513
X6.915Y-4.613
X6.915Y-4.713
X6.915Y-4.813
X6.915Y-4.913
X6.915Y-5.013
X3.63Y-2.897
X3.7284Y-2.897
X3.39Y-2.897
X3.4884Y-2.897
X3.7971Y-3.737
X3.99Y-3.737
X4.408Y-3.445
X4.408Y-3.545
X4.408Y-3.645
X4.408Y-3.745
X4.408Y-3.845
X4.408Y-3.945
X4.408Y-4.045
X4.708Y-3.445
X4.708Y-3.545
X4.708Y-3.645
X4.708Y-3.745
X4.708Y-3.845
X4.708Y-3.945
X4.708Y-4.045
X6.076Y-1.3671
X6.076Y-1.4671
X6.076Y-1.5671
X6.076Y-1.6671
X6.076Y-1.7671
X6.076Y-1.8671
X6.076Y-1.9671
X6.076Y-2.0671
X6.076Y-2.1671
X6.076Y-2.2671
X6.076Y-2.3671
X6.076Y-2.4671
X6.076Y-2.5671
X6.076Y-2.6671
X6.676Y-1.3671
X6.676Y-1.4671
X6.676Y-1.5671
X6.676Y-1.6671
X6.676Y-1.7671
X6.676Y-1.8671
X6.676Y-1.9671
X6.676Y-2.0671
X6.676Y-2.1671
X6.676Y-2.2671
X6.676Y-2.3671
X6.676Y-2.4671
X6.676Y-2.5671
X6.676Y-2.6671
X3.55Y-3.917
X3.55Y-4.217
X3.65Y-3.917
X3.65Y-4.217
X3.75Y-3.917
X3.75Y-4.217
X3.85Y-3.917
X3.85Y-4.217
X3.95Y-3.917
X3.95Y-4.217
X4.05Y-3.917
X4.05Y-4.217
X4.15Y-3.917
X4.15Y-4.217
X4.25Y-3.917
X4.25Y-4.217
X7.507Y-3.161
X7.507Y-3.261
X7.507Y-3.361
X7.507Y-3.461
X7.507Y-3.561
X7.507Y-3.661
X7.507Y-3.761
X7.507Y-3.861
X7.807Y-3.161
X7.807Y-3.261
X7.807Y-3.361
X7.807Y-3.461
X7.807Y-3.561
X7.807Y-3.661
X7.807Y-3.761
X7.807Y-3.861
X7.94Y-4.21
X7.94Y-4.31
X7.94Y-4.41
X7.94Y-4.51
X7.94Y-4.61
X7.94Y-4.71
X7.94Y-4.81
X8.24Y-4.21
X8.24Y-4.31
X8.24Y-4.41
X8.24Y-4.51
X8.24Y-4.61
X8.24Y-4.71
X8.24Y-4.81
X5.474Y-3.157
X5.474Y-3.257
X5.474Y-3.357
X5.474Y-3.457
X5.474Y-3.557
X5.474Y-3.657
X5.474Y-3.757
X5.474Y-3.857
X5.474Y-3.957
X5.474Y-4.057
X7.943Y-3.261
X7.943Y-3.361
X7.943Y-3.461
X7.943Y-3.561
X7.943Y-3.661
X7.943Y-3.761
X7.943Y-3.861
X8.243Y-3.261
X8.243Y-3.361
X8.243Y-3.461
X8.243Y-3.561
X8.243Y-3.661
X8.243Y-3.761
X8.243Y-3.861
X3.994Y-1.355
X3.994Y-1.455
X3.994Y-1.555
X3.994Y-1.655
X3.994Y-1.755
X3.994Y-1.855
X3.994Y-1.955
X3.994Y-2.055
X3.994Y-2.155
X3.994Y-2.255
X3.994Y-2.355
X3.994Y-2.455
X3.994Y-2.555
X3.994Y-2.655
X3.994Y-2.755
X3.994Y-2.855
X3.994Y-2.955
X3.994Y-3.055
X3.994Y-3.155
X3.994Y-3.255
X4.594Y-1.355
X4.594Y-1.455
X4.594Y-1.555
X4.594Y-1.655
X4.594Y-1.755
X4.594Y-1.855
X4.594Y-1.955
X4.594Y-2.055
X4.594Y-2.155
X4.594Y-2.255
X4.594Y-2.355
X4.594Y-2.455
X4.594Y-2.555
X4.594Y-2.655
X4.594Y-2.755
X4.594Y-2.855
X4.594Y-2.955
X4.594Y-3.055
X4.594Y-3.155
X4.594Y-3.255
X7.502Y-4.112
X7.502Y-4.212
X7.502Y-4.312
X7.502Y-4.412
X7.502Y-4.512
X7.502Y-4.612
X7.502Y-4.712
X7.502Y-4.812
X7.802Y-4.112
X7.802Y-4.212
X7.802Y-4.312
X7.802Y-4.412
X7.802Y-4.512
X7.802Y-4.612
X7.802Y-4.712
X7.802Y-4.812
X4.73Y-2.4
X4.73Y-2.5
X4.73Y-2.6
X4.73Y-2.7
X4.73Y-2.8
X4.73Y-2.9
X4.73Y-3.0
X4.73Y-3.1
X5.03Y-2.4
X5.03Y-2.5
X5.03Y-2.6
X5.03Y-2.7
X5.03Y-2.8
X5.03Y-2.9
X5.03Y-3.0
X5.03Y-3.1
X3.99Y-3.3801
X3.99Y-3.577
X2.91Y-2.897
X3.0084Y-2.897
X5.624Y-4.107
X5.624Y-4.207
X5.624Y-4.307
X5.624Y-4.407
X5.624Y-4.507
X5.624Y-4.607
X5.624Y-4.707
X5.624Y-4.807
X5.624Y-4.907
X5.624Y-5.007
X3.81Y-3.3801
X3.81Y-3.577
X5.174Y-4.207
X5.174Y-4.307
X5.174Y-4.407
X5.174Y-4.507
X5.174Y-4.607
X5.174Y-4.707
X5.174Y-4.807
X5.474Y-4.207
X5.474Y-4.307
X5.474Y-4.407
X5.474Y-4.507
X5.474Y-4.607
X5.474Y-4.707
X5.474Y-4.807
X6.779Y-3.157
X6.779Y-3.257
X6.779Y-3.357
X6.779Y-3.457
X6.779Y-3.557
X6.779Y-3.657
X6.779Y-3.757
X6.779Y-3.857
X6.779Y-3.957
X6.779Y-4.057
X6.8398Y-1.3671
X6.8398Y-1.4671
X6.8398Y-1.5671
X6.8398Y-1.6671
X6.8398Y-1.7671
X6.8398Y-1.8671
X6.8398Y-1.9671
X6.8398Y-2.0671
X6.8398Y-2.1671
X6.8398Y-2.2671
X6.8398Y-2.3671
X6.8398Y-2.4671
X6.8398Y-2.5671
X6.8398Y-2.6671
X7.4398Y-1.3671
X7.4398Y-1.4671
X7.4398Y-1.5671
X7.4398Y-1.6671
X7.4398Y-1.7671
X7.4398Y-1.8671
X7.4398Y-1.9671
X7.4398Y-2.0671
X7.4398Y-2.1671
X7.4398Y-2.2671
X7.4398Y-2.3671
X7.4398Y-2.4671
X7.4398Y-2.5671
X7.4398Y-2.6671
X2.94Y-2.267
X3.1369Y-2.267
X2.91Y-3.077
X2.91Y-3.377
X3.01Y-3.077
X3.01Y-3.377
X3.11Y-3.077
X3.11Y-3.377
X3.21Y-3.077
X3.21Y-3.377
X3.31Y-3.077
X3.31Y-3.377
X3.41Y-3.077
X3.41Y-3.377
X3.51Y-3.077
X3.51Y-3.377
X3.61Y-3.077
X3.61Y-3.377
X7.075Y-3.261
X7.075Y-3.361
X7.075Y-3.461
X7.075Y-3.561
X7.075Y-3.661
X7.075Y-3.761
X7.075Y-3.861
X7.375Y-3.261
X7.375Y-3.361
X7.375Y-3.461
X7.375Y-3.561
X7.375Y-3.661
X7.375Y-3.761
X7.375Y-3.861
X5.318Y-1.57
X5.318Y-1.67
X5.318Y-1.77
X5.318Y-1.87
X5.318Y-1.97
X5.318Y-2.07
X5.318Y-2.17
X5.318Y-2.27
X5.318Y-2.37
X5.318Y-2.47
X5.318Y-2.57
X5.318Y-2.67
X5.918Y-1.57
X5.918Y-1.67
X5.918Y-1.77
X5.918Y-1.87
X5.918Y-1.97
X5.918Y-2.07
X5.918Y-2.17
X5.918Y-2.27
X5.918Y-2.37
X5.918Y-2.47
X5.918Y-2.57
X5.918Y-2.67
X5.016Y-3.259
X5.016Y-3.359
X5.016Y-3.459
X5.016Y-3.559
X5.016Y-3.659
X5.016Y-3.759
X5.016Y-3.859
X5.316Y-3.259
X5.316Y-3.359
X5.316Y-3.459
X5.316Y-3.559
X5.316Y-3.659
X5.316Y-3.759
X5.316Y-3.859
T5
X6.8431Y-2.81
X7.04Y-2.81
X7.0651Y-5.02
X7.262Y-5.02
X3.847Y-2.229
X3.847Y-2.329
X3.847Y-2.429
X7.9431Y-5.02
X8.14Y-5.02
X8.7Y-1.35
X3.54Y-4.417
X3.54Y-4.517
X3.64Y-4.417
X3.64Y-4.517
X3.74Y-4.417
X3.74Y-4.517
X3.84Y-4.417
X3.84Y-4.517
X3.94Y-4.417
X3.94Y-4.517
X4.04Y-4.417
X4.04Y-4.517
X4.14Y-4.417
X4.14Y-4.517
X4.24Y-4.417
X4.24Y-4.517
X3.857Y-1.349
X3.857Y-1.5459
X7.9451Y-3.99
X8.142Y-3.99
X3.43Y-3.917
X3.43Y-4.1139
X5.322Y-1.43
X5.422Y-1.43
X5.522Y-1.43
X7.5031Y-5.02
X7.7Y-5.02
X3.54Y-4.757
X3.54Y-4.857
X3.64Y-4.757
X3.64Y-4.857
X3.74Y-4.757
X3.74Y-4.857
X3.84Y-4.757
X3.84Y-4.857
X3.94Y-4.757
X3.94Y-4.857
X4.04Y-4.757
X4.04Y-4.857
X4.14Y-4.757
X4.14Y-4.857
X4.24Y-4.757
X4.24Y-4.857
X3.0782Y-4.2853
X3.0782Y-4.3944
X3.0782Y-4.5034
X3.0782Y-4.6125
X3.19Y-4.2308
X3.19Y-4.3398
X3.19Y-4.4489
X3.19Y-4.5579
X3.19Y-4.667
X8.381Y-1.591
X8.381Y-1.691
X8.381Y-1.791
X8.381Y-1.891
X8.381Y-1.991
X8.381Y-2.091
X8.381Y-2.191
X8.381Y-2.291
X8.381Y-2.391
X8.381Y-2.491
X8.381Y-2.591
X8.381Y-2.691
X8.381Y-2.791
X8.381Y-2.891
X8.381Y-2.991
X8.381Y-3.091
X8.381Y-3.191
X8.381Y-3.291
X8.381Y-3.391
X8.381Y-3.491
X8.481Y-1.591
X8.481Y-1.691
X8.481Y-1.791
X8.481Y-1.891
X8.481Y-1.991
X8.481Y-2.091
X8.481Y-2.191
X8.481Y-2.291
X8.481Y-2.391
X8.481Y-2.491
X8.481Y-2.591
X8.481Y-2.691
X8.481Y-2.791
X8.481Y-2.891
X8.481Y-2.991
X8.481Y-3.091
X8.481Y-3.191
X8.481Y-3.291
X8.481Y-3.391
X8.481Y-3.491
X7.0751Y-3.989
X7.272Y-3.989
X2.97Y-3.537
X2.97Y-3.637
X3.07Y-3.537
X3.07Y-3.637
X3.17Y-3.537
X3.17Y-3.637
X3.27Y-3.537
X3.27Y-3.637
X3.37Y-3.537
X3.37Y-3.637
X8.68Y-1.591
X8.68Y-1.691
X8.68Y-1.791
X8.68Y-1.891
X8.68Y-1.991
X8.68Y-2.091
X8.68Y-2.191
X8.68Y-2.291
X8.68Y-2.391
X8.68Y-2.491
X8.68Y-2.591
X8.68Y-2.691
X8.68Y-2.791
X8.68Y-2.891
X8.68Y-2.991
X8.68Y-3.091
X8.68Y-3.191
X8.68Y-3.291
X8.68Y-3.391
X8.68Y-3.491
X8.78Y-1.591
X8.78Y-1.691
X8.78Y-1.791
X8.78Y-1.891
X8.78Y-1.991
X8.78Y-2.091
X8.78Y-2.191
X8.78Y-2.291
X8.78Y-2.391
X8.78Y-2.491
X8.78Y-2.591
X8.78Y-2.691
X8.78Y-2.791
X8.78Y-2.891
X8.78Y-2.991
X8.78Y-3.091
X8.78Y-3.191
X8.78Y-3.291
X8.78Y-3.391
X8.78Y-3.491
X4.7231Y-4.937
X4.92Y-4.937
X5.708Y-1.431
X5.808Y-1.431
X5.908Y-1.431
X3.45Y-2.609
X3.45Y-2.709
X3.55Y-2.609
X3.55Y-2.709
X3.65Y-2.609
X3.65Y-2.709
X3.75Y-2.609
X3.75Y-2.709
X3.85Y-2.609
X3.85Y-2.709
X3.75Y-3.077
X3.75Y-3.2739
X5.17Y-2.8
X5.17Y-2.9
X5.17Y-3.0
X5.17Y-3.1
X5.27Y-2.8
X5.27Y-2.9
X5.27Y-3.0
X5.27Y-3.1
X6.0751Y-2.811
X6.272Y-2.811
X3.59Y-2.2201
X3.59Y-2.417
X5.1721Y-4.937
X5.369Y-4.937
X4.4031Y-4.174
X4.6Y-4.174
X3.39Y-2.2201
X3.39Y-2.417
X5.0201Y-4.0
X5.217Y-4.0
X4.881Y-3.263
X4.881Y-3.4599
T6
X3.3872Y-2.0761
X3.4872Y-2.0761
X3.5872Y-2.0761
T7
X3.015Y-1.667
X3.115Y-1.567
X3.215Y-1.767
T8
X3.1341Y-3.9568
X3.1341Y-4.941
T0
M30
