G04 #@! TF.GenerationSoftware,KiCad,Pcbnew,5.1.4-e60b266~84~ubuntu18.04.1*
G04 #@! TF.CreationDate,2022-01-19T21:44:38+01:00*
G04 #@! TF.ProjectId,Serial_Mem_MPF-B,53657269-616c-45f4-9d65-6d5f4d50462d,rev?*
G04 #@! TF.SameCoordinates,Original*
G04 #@! TF.FileFunction,Soldermask,Top*
G04 #@! TF.FilePolarity,Negative*
%FSLAX46Y46*%
G04 Gerber Fmt 4.6, Leading zero omitted, Abs format (unit mm)*
G04 Created by KiCad (PCBNEW 5.1.4-e60b266~84~ubuntu18.04.1) date 2022-01-19 21:44:38*
%MOMM*%
%LPD*%
G04 APERTURE LIST*
%ADD10O,1.700000X1.700000*%
%ADD11R,1.700000X1.700000*%
%ADD12O,1.600000X1.600000*%
%ADD13R,1.600000X1.600000*%
%ADD14C,1.600000*%
%ADD15C,2.000000*%
%ADD16C,1.500000*%
%ADD17C,1.524000*%
%ADD18O,1.905000X2.000000*%
%ADD19R,1.905000X2.000000*%
%ADD20O,3.500000X3.500000*%
%ADD21O,1.400000X1.400000*%
%ADD22C,1.400000*%
%ADD23C,2.500000*%
%ADD24C,4.000000*%
G04 APERTURE END LIST*
D10*
X133858000Y-78740000D03*
X131318000Y-78740000D03*
X133858000Y-76200000D03*
X131318000Y-76200000D03*
X133858000Y-73660000D03*
X131318000Y-73660000D03*
X133858000Y-71120000D03*
D11*
X131318000Y-71120000D03*
D12*
X127762000Y-106934000D03*
X120142000Y-122174000D03*
X127762000Y-109474000D03*
X120142000Y-119634000D03*
X127762000Y-112014000D03*
X120142000Y-117094000D03*
X127762000Y-114554000D03*
X120142000Y-114554000D03*
X127762000Y-117094000D03*
X120142000Y-112014000D03*
X127762000Y-119634000D03*
X120142000Y-109474000D03*
X127762000Y-122174000D03*
D13*
X120142000Y-106934000D03*
D12*
X209296000Y-106934000D03*
X201676000Y-122174000D03*
X209296000Y-109474000D03*
X201676000Y-119634000D03*
X209296000Y-112014000D03*
X201676000Y-117094000D03*
X209296000Y-114554000D03*
X201676000Y-114554000D03*
X209296000Y-117094000D03*
X201676000Y-112014000D03*
X209296000Y-119634000D03*
X201676000Y-109474000D03*
X209296000Y-122174000D03*
D13*
X201676000Y-106934000D03*
D12*
X127762000Y-60960000D03*
X120142000Y-78740000D03*
X127762000Y-63500000D03*
X120142000Y-76200000D03*
X127762000Y-66040000D03*
X120142000Y-73660000D03*
X127762000Y-68580000D03*
X120142000Y-71120000D03*
X127762000Y-71120000D03*
X120142000Y-68580000D03*
X127762000Y-73660000D03*
X120142000Y-66040000D03*
X127762000Y-76200000D03*
X120142000Y-63500000D03*
X127762000Y-78740000D03*
D13*
X120142000Y-60960000D03*
D10*
X140258800Y-36322000D03*
X137718800Y-36322000D03*
D11*
X135178800Y-36322000D03*
D12*
X150317200Y-39878000D03*
X135077200Y-67818000D03*
X150317200Y-42418000D03*
X135077200Y-65278000D03*
X150317200Y-44958000D03*
X135077200Y-62738000D03*
X150317200Y-47498000D03*
X135077200Y-60198000D03*
X150317200Y-50038000D03*
X135077200Y-57658000D03*
X150317200Y-52578000D03*
X135077200Y-55118000D03*
X150317200Y-55118000D03*
X135077200Y-52578000D03*
X150317200Y-57658000D03*
X135077200Y-50038000D03*
X150317200Y-60198000D03*
X135077200Y-47498000D03*
X150317200Y-62738000D03*
X135077200Y-44958000D03*
X150317200Y-65278000D03*
X135077200Y-42418000D03*
X150317200Y-67818000D03*
D13*
X135077200Y-39878000D03*
D10*
X144983200Y-36347400D03*
X147523200Y-36347400D03*
D11*
X150063200Y-36347400D03*
D10*
X223012000Y-88671400D03*
X220472000Y-88671400D03*
X223012000Y-86131400D03*
X220472000Y-86131400D03*
X223012000Y-83591400D03*
X220472000Y-83591400D03*
X223012000Y-81051400D03*
X220472000Y-81051400D03*
X223012000Y-78511400D03*
X220472000Y-78511400D03*
X223012000Y-75971400D03*
X220472000Y-75971400D03*
X223012000Y-73431400D03*
X220472000Y-73431400D03*
X223012000Y-70891400D03*
X220472000Y-70891400D03*
X223012000Y-68351400D03*
X220472000Y-68351400D03*
X223012000Y-65811400D03*
X220472000Y-65811400D03*
X223012000Y-63271400D03*
X220472000Y-63271400D03*
X223012000Y-60731400D03*
X220472000Y-60731400D03*
X223012000Y-58191400D03*
X220472000Y-58191400D03*
X223012000Y-55651400D03*
X220472000Y-55651400D03*
X223012000Y-53111400D03*
X220472000Y-53111400D03*
X223012000Y-50571400D03*
X220472000Y-50571400D03*
X223012000Y-48031400D03*
X220472000Y-48031400D03*
X223012000Y-45491400D03*
X220472000Y-45491400D03*
X223012000Y-42951400D03*
X220472000Y-42951400D03*
X223012000Y-40411400D03*
D11*
X220472000Y-40411400D03*
D10*
X215417400Y-88671400D03*
X212877400Y-88671400D03*
X215417400Y-86131400D03*
X212877400Y-86131400D03*
X215417400Y-83591400D03*
X212877400Y-83591400D03*
X215417400Y-81051400D03*
X212877400Y-81051400D03*
X215417400Y-78511400D03*
X212877400Y-78511400D03*
X215417400Y-75971400D03*
X212877400Y-75971400D03*
X215417400Y-73431400D03*
X212877400Y-73431400D03*
X215417400Y-70891400D03*
X212877400Y-70891400D03*
X215417400Y-68351400D03*
X212877400Y-68351400D03*
X215417400Y-65811400D03*
X212877400Y-65811400D03*
X215417400Y-63271400D03*
X212877400Y-63271400D03*
X215417400Y-60731400D03*
X212877400Y-60731400D03*
X215417400Y-58191400D03*
X212877400Y-58191400D03*
X215417400Y-55651400D03*
X212877400Y-55651400D03*
X215417400Y-53111400D03*
X212877400Y-53111400D03*
X215417400Y-50571400D03*
X212877400Y-50571400D03*
X215417400Y-48031400D03*
X212877400Y-48031400D03*
X215417400Y-45491400D03*
X212877400Y-45491400D03*
X215417400Y-42951400D03*
X212877400Y-42951400D03*
X215417400Y-40411400D03*
D11*
X212877400Y-40411400D03*
D12*
X198170800Y-104444800D03*
X190550800Y-122224800D03*
X198170800Y-106984800D03*
X190550800Y-119684800D03*
X198170800Y-109524800D03*
X190550800Y-117144800D03*
X198170800Y-112064800D03*
X190550800Y-114604800D03*
X198170800Y-114604800D03*
X190550800Y-112064800D03*
X198170800Y-117144800D03*
X190550800Y-109524800D03*
X198170800Y-119684800D03*
X190550800Y-106984800D03*
X198170800Y-122224800D03*
D13*
X190550800Y-104444800D03*
D14*
X88606000Y-73583800D03*
D13*
X86106000Y-73583800D03*
D15*
X111840000Y-106019600D03*
X116840000Y-106019600D03*
X97967800Y-39264600D03*
X97967800Y-34264600D03*
X87122000Y-104491800D03*
X87122000Y-99491800D03*
X201806800Y-101346000D03*
X206806800Y-101346000D03*
X190580000Y-127508000D03*
X195580000Y-127508000D03*
X131372600Y-125399800D03*
X136372600Y-125399800D03*
D12*
X116687600Y-34417000D03*
X101447600Y-82677000D03*
X116687600Y-36957000D03*
X101447600Y-80137000D03*
X116687600Y-39497000D03*
X101447600Y-77597000D03*
X116687600Y-42037000D03*
X101447600Y-75057000D03*
X116687600Y-44577000D03*
X101447600Y-72517000D03*
X116687600Y-47117000D03*
X101447600Y-69977000D03*
X116687600Y-49657000D03*
X101447600Y-67437000D03*
X116687600Y-52197000D03*
X101447600Y-64897000D03*
X116687600Y-54737000D03*
X101447600Y-62357000D03*
X116687600Y-57277000D03*
X101447600Y-59817000D03*
X116687600Y-59817000D03*
X101447600Y-57277000D03*
X116687600Y-62357000D03*
X101447600Y-54737000D03*
X116687600Y-64897000D03*
X101447600Y-52197000D03*
X116687600Y-67437000D03*
X101447600Y-49657000D03*
X116687600Y-69977000D03*
X101447600Y-47117000D03*
X116687600Y-72517000D03*
X101447600Y-44577000D03*
X116687600Y-75057000D03*
X101447600Y-42037000D03*
X116687600Y-77597000D03*
X101447600Y-39497000D03*
X116687600Y-80137000D03*
X101447600Y-36957000D03*
X116687600Y-82677000D03*
D13*
X101447600Y-34417000D03*
D12*
X119583200Y-87503000D03*
X111963200Y-102743000D03*
X119583200Y-90043000D03*
X111963200Y-100203000D03*
X119583200Y-92583000D03*
X111963200Y-97663000D03*
X119583200Y-95123000D03*
X111963200Y-95123000D03*
X119583200Y-97663000D03*
X111963200Y-92583000D03*
X119583200Y-100203000D03*
X111963200Y-90043000D03*
X119583200Y-102743000D03*
D13*
X111963200Y-87503000D03*
D12*
X73914000Y-78155800D03*
X91694000Y-85775800D03*
X76454000Y-78155800D03*
X89154000Y-85775800D03*
X78994000Y-78155800D03*
X86614000Y-85775800D03*
X81534000Y-78155800D03*
X84074000Y-85775800D03*
X84074000Y-78155800D03*
X81534000Y-85775800D03*
X86614000Y-78155800D03*
X78994000Y-85775800D03*
X89154000Y-78155800D03*
X76454000Y-85775800D03*
X91694000Y-78155800D03*
D13*
X73914000Y-85775800D03*
D16*
X101346000Y-94919800D03*
X96446000Y-94919800D03*
D10*
X85598000Y-89839800D03*
X85598000Y-92379800D03*
X83058000Y-89839800D03*
X83058000Y-92379800D03*
X80518000Y-89839800D03*
X80518000Y-92379800D03*
X77978000Y-89839800D03*
X77978000Y-92379800D03*
X75438000Y-89839800D03*
D11*
X75438000Y-92379800D03*
D17*
X149199600Y-106857800D03*
X149199600Y-124637800D03*
X149199600Y-122097800D03*
X149199600Y-111937800D03*
X149199600Y-117017800D03*
X146659600Y-109397800D03*
X149199600Y-119557800D03*
X149199600Y-114477800D03*
X154279600Y-114477800D03*
X154279600Y-122097800D03*
X154279600Y-106857800D03*
X154279600Y-109397800D03*
X154279600Y-119557800D03*
X154279600Y-124637800D03*
X154279600Y-117017800D03*
X154279600Y-111937800D03*
X151739600Y-106857800D03*
X151739600Y-109397800D03*
X151739600Y-111937800D03*
X151739600Y-114477800D03*
X151739600Y-117017800D03*
X151739600Y-119557800D03*
X151739600Y-122097800D03*
X151739600Y-124637800D03*
X146659600Y-124637800D03*
X146659600Y-122097800D03*
X146659600Y-119557800D03*
X146659600Y-117017800D03*
X146659600Y-114477800D03*
X146659600Y-111937800D03*
X149199600Y-109397800D03*
X146659600Y-106857800D03*
X164439600Y-106857800D03*
X164439600Y-124637800D03*
X164439600Y-122097800D03*
X164439600Y-111937800D03*
X164439600Y-117017800D03*
X161899600Y-109397800D03*
X164439600Y-119557800D03*
X164439600Y-114477800D03*
X169519600Y-114477800D03*
X169519600Y-122097800D03*
X169519600Y-106857800D03*
X169519600Y-109397800D03*
X169519600Y-119557800D03*
X169519600Y-124637800D03*
X169519600Y-117017800D03*
X169519600Y-111937800D03*
X166979600Y-106857800D03*
X166979600Y-109397800D03*
X166979600Y-111937800D03*
X166979600Y-114477800D03*
X166979600Y-117017800D03*
X166979600Y-119557800D03*
X166979600Y-122097800D03*
X166979600Y-124637800D03*
X161899600Y-124637800D03*
X161899600Y-122097800D03*
X161899600Y-119557800D03*
X161899600Y-117017800D03*
X161899600Y-114477800D03*
X161899600Y-111937800D03*
X164439600Y-109397800D03*
X161899600Y-106857800D03*
X164465000Y-82804000D03*
X164465000Y-100584000D03*
X164465000Y-98044000D03*
X164465000Y-87884000D03*
X164465000Y-92964000D03*
X161925000Y-85344000D03*
X164465000Y-95504000D03*
X164465000Y-90424000D03*
X169545000Y-90424000D03*
X169545000Y-98044000D03*
X169545000Y-82804000D03*
X169545000Y-85344000D03*
X169545000Y-95504000D03*
X169545000Y-100584000D03*
X169545000Y-92964000D03*
X169545000Y-87884000D03*
X167005000Y-82804000D03*
X167005000Y-85344000D03*
X167005000Y-87884000D03*
X167005000Y-90424000D03*
X167005000Y-92964000D03*
X167005000Y-95504000D03*
X167005000Y-98044000D03*
X167005000Y-100584000D03*
X161925000Y-100584000D03*
X161925000Y-98044000D03*
X161925000Y-95504000D03*
X161925000Y-92964000D03*
X161925000Y-90424000D03*
X161925000Y-87884000D03*
X164465000Y-85344000D03*
X161925000Y-82804000D03*
X149225000Y-82804000D03*
X149225000Y-100584000D03*
X149225000Y-98044000D03*
X149225000Y-87884000D03*
X149225000Y-92964000D03*
X146685000Y-85344000D03*
X149225000Y-95504000D03*
X149225000Y-90424000D03*
X154305000Y-90424000D03*
X154305000Y-98044000D03*
X154305000Y-82804000D03*
X154305000Y-85344000D03*
X154305000Y-95504000D03*
X154305000Y-100584000D03*
X154305000Y-92964000D03*
X154305000Y-87884000D03*
X151765000Y-82804000D03*
X151765000Y-85344000D03*
X151765000Y-87884000D03*
X151765000Y-90424000D03*
X151765000Y-92964000D03*
X151765000Y-95504000D03*
X151765000Y-98044000D03*
X151765000Y-100584000D03*
X146685000Y-100584000D03*
X146685000Y-98044000D03*
X146685000Y-95504000D03*
X146685000Y-92964000D03*
X146685000Y-90424000D03*
X146685000Y-87884000D03*
X149225000Y-85344000D03*
X146685000Y-82804000D03*
D12*
X139039600Y-106857800D03*
X131419600Y-122097800D03*
X139039600Y-109397800D03*
X131419600Y-119557800D03*
X139039600Y-111937800D03*
X131419600Y-117017800D03*
X139039600Y-114477800D03*
X131419600Y-114477800D03*
X139039600Y-117017800D03*
X131419600Y-111937800D03*
X139039600Y-119557800D03*
X131419600Y-109397800D03*
X139039600Y-122097800D03*
D13*
X131419600Y-106857800D03*
D12*
X187071000Y-107010200D03*
X179451000Y-122250200D03*
X187071000Y-109550200D03*
X179451000Y-119710200D03*
X187071000Y-112090200D03*
X179451000Y-117170200D03*
X187071000Y-114630200D03*
X179451000Y-114630200D03*
X187071000Y-117170200D03*
X179451000Y-112090200D03*
X187071000Y-119710200D03*
X179451000Y-109550200D03*
X187071000Y-122250200D03*
D13*
X179451000Y-107010200D03*
D12*
X135026400Y-82778600D03*
X127406400Y-98018600D03*
X135026400Y-85318600D03*
X127406400Y-95478600D03*
X135026400Y-87858600D03*
X127406400Y-92938600D03*
X135026400Y-90398600D03*
X127406400Y-90398600D03*
X135026400Y-92938600D03*
X127406400Y-87858600D03*
X135026400Y-95478600D03*
X127406400Y-85318600D03*
X135026400Y-98018600D03*
D13*
X127406400Y-82778600D03*
D12*
X187325000Y-82829400D03*
X179705000Y-98069400D03*
X187325000Y-85369400D03*
X179705000Y-95529400D03*
X187325000Y-87909400D03*
X179705000Y-92989400D03*
X187325000Y-90449400D03*
X179705000Y-90449400D03*
X187325000Y-92989400D03*
X179705000Y-87909400D03*
X187325000Y-95529400D03*
X179705000Y-85369400D03*
X187325000Y-98069400D03*
D13*
X179705000Y-82829400D03*
D12*
X169570800Y-34723400D03*
X154330800Y-67743400D03*
X169570800Y-37263400D03*
X154330800Y-65203400D03*
X169570800Y-39803400D03*
X154330800Y-62663400D03*
X169570800Y-42343400D03*
X154330800Y-60123400D03*
X169570800Y-44883400D03*
X154330800Y-57583400D03*
X169570800Y-47423400D03*
X154330800Y-55043400D03*
X169570800Y-49963400D03*
X154330800Y-52503400D03*
X169570800Y-52503400D03*
X154330800Y-49963400D03*
X169570800Y-55043400D03*
X154330800Y-47423400D03*
X169570800Y-57583400D03*
X154330800Y-44883400D03*
X169570800Y-60123400D03*
X154330800Y-42343400D03*
X169570800Y-62663400D03*
X154330800Y-39803400D03*
X169570800Y-65203400D03*
X154330800Y-37263400D03*
X169570800Y-67743400D03*
D13*
X154330800Y-34723400D03*
D12*
X188970800Y-34723400D03*
X173730800Y-67743400D03*
X188970800Y-37263400D03*
X173730800Y-65203400D03*
X188970800Y-39803400D03*
X173730800Y-62663400D03*
X188970800Y-42343400D03*
X173730800Y-60123400D03*
X188970800Y-44883400D03*
X173730800Y-57583400D03*
X188970800Y-47423400D03*
X173730800Y-55043400D03*
X188970800Y-49963400D03*
X173730800Y-52503400D03*
X188970800Y-52503400D03*
X173730800Y-49963400D03*
X188970800Y-55043400D03*
X173730800Y-47423400D03*
X188970800Y-57583400D03*
X173730800Y-44883400D03*
X188970800Y-60123400D03*
X173730800Y-42343400D03*
X188970800Y-62663400D03*
X173730800Y-39803400D03*
X188970800Y-65203400D03*
X173730800Y-37263400D03*
X188970800Y-67743400D03*
D13*
X173730800Y-34723400D03*
D12*
X209372200Y-82829400D03*
X201752200Y-98069400D03*
X209372200Y-85369400D03*
X201752200Y-95529400D03*
X209372200Y-87909400D03*
X201752200Y-92989400D03*
X209372200Y-90449400D03*
X201752200Y-90449400D03*
X209372200Y-92989400D03*
X201752200Y-87909400D03*
X209372200Y-95529400D03*
X201752200Y-85369400D03*
X209372200Y-98069400D03*
D13*
X201752200Y-82829400D03*
D12*
X198297800Y-80289400D03*
X190677800Y-98069400D03*
X198297800Y-82829400D03*
X190677800Y-95529400D03*
X198297800Y-85369400D03*
X190677800Y-92989400D03*
X198297800Y-87909400D03*
X190677800Y-90449400D03*
X198297800Y-90449400D03*
X190677800Y-87909400D03*
X198297800Y-92989400D03*
X190677800Y-85369400D03*
X198297800Y-95529400D03*
X190677800Y-82829400D03*
X198297800Y-98069400D03*
D13*
X190677800Y-80289400D03*
D18*
X91116000Y-52731800D03*
X88576000Y-52731800D03*
D19*
X86036000Y-52731800D03*
D20*
X88576000Y-36071800D03*
D12*
X90170000Y-99491800D03*
X107950000Y-107111800D03*
X92710000Y-99491800D03*
X105410000Y-107111800D03*
X95250000Y-99491800D03*
X102870000Y-107111800D03*
X97790000Y-99491800D03*
X100330000Y-107111800D03*
X100330000Y-99491800D03*
X97790000Y-107111800D03*
X102870000Y-99491800D03*
X95250000Y-107111800D03*
X105410000Y-99491800D03*
X92710000Y-107111800D03*
X107950000Y-99491800D03*
D13*
X90170000Y-107111800D03*
D12*
X142849600Y-127177800D03*
X142849600Y-124637800D03*
X142849600Y-122097800D03*
X142849600Y-119557800D03*
X142849600Y-117017800D03*
X142849600Y-114477800D03*
X142849600Y-111937800D03*
X142849600Y-109397800D03*
X142849600Y-106857800D03*
D13*
X142849600Y-104317800D03*
D12*
X175641000Y-127330200D03*
X175641000Y-124790200D03*
X175641000Y-122250200D03*
X175641000Y-119710200D03*
X175641000Y-117170200D03*
X175641000Y-114630200D03*
X175641000Y-112090200D03*
X175641000Y-109550200D03*
X175641000Y-107010200D03*
D13*
X175641000Y-104470200D03*
D12*
X139039600Y-103047800D03*
X139039600Y-100507800D03*
X139039600Y-97967800D03*
X139039600Y-95427800D03*
X139039600Y-92887800D03*
X139039600Y-90347800D03*
X139039600Y-87807800D03*
X139039600Y-85267800D03*
X139039600Y-82727800D03*
D13*
X139039600Y-80187800D03*
D12*
X172186600Y-103047800D03*
X172186600Y-100507800D03*
X172186600Y-97967800D03*
X172186600Y-95427800D03*
X172186600Y-92887800D03*
X172186600Y-90347800D03*
X172186600Y-87807800D03*
X172186600Y-85267800D03*
X172186600Y-82727800D03*
D13*
X172186600Y-80187800D03*
D21*
X90170000Y-88823800D03*
D22*
X90170000Y-96443800D03*
D21*
X98374200Y-46177200D03*
D22*
X98374200Y-53797200D03*
D21*
X105918000Y-85775800D03*
D22*
X105918000Y-93395800D03*
D21*
X108458000Y-89331800D03*
D22*
X108458000Y-96951800D03*
D23*
X81661000Y-44881800D03*
X79121000Y-39801800D03*
X76581000Y-42341800D03*
D11*
X220980000Y-34290000D03*
D10*
X107696000Y-120827800D03*
X107696000Y-123367800D03*
X105156000Y-120827800D03*
X105156000Y-123367800D03*
X102616000Y-120827800D03*
X102616000Y-123367800D03*
X100076000Y-120827800D03*
X100076000Y-123367800D03*
X97536000Y-120827800D03*
X97536000Y-123367800D03*
X94996000Y-120827800D03*
X94996000Y-123367800D03*
X92456000Y-120827800D03*
X92456000Y-123367800D03*
X89916000Y-120827800D03*
D11*
X89916000Y-123367800D03*
D10*
X107696000Y-112191800D03*
X107696000Y-114731800D03*
X105156000Y-112191800D03*
X105156000Y-114731800D03*
X102616000Y-112191800D03*
X102616000Y-114731800D03*
X100076000Y-112191800D03*
X100076000Y-114731800D03*
X97536000Y-112191800D03*
X97536000Y-114731800D03*
X94996000Y-112191800D03*
X94996000Y-114731800D03*
X92456000Y-112191800D03*
X92456000Y-114731800D03*
X89916000Y-112191800D03*
D11*
X89916000Y-114731800D03*
D24*
X79606000Y-125501800D03*
X79606000Y-100501800D03*
D14*
X78186000Y-108846800D03*
X78186000Y-111616800D03*
X78186000Y-114386800D03*
X78186000Y-117156800D03*
X81026000Y-107461800D03*
X81026000Y-110231800D03*
X81026000Y-113001800D03*
X81026000Y-115771800D03*
D13*
X81026000Y-118541800D03*
D10*
X97713800Y-56616600D03*
X97713800Y-59156600D03*
D11*
X97713800Y-61696600D03*
D10*
X87630000Y-68808600D03*
X87630000Y-66268600D03*
X90170000Y-68808600D03*
X90170000Y-66268600D03*
X92710000Y-68808600D03*
X92710000Y-66268600D03*
X95250000Y-68808600D03*
X95250000Y-66268600D03*
X97790000Y-68808600D03*
D11*
X97790000Y-66268600D03*
D15*
X91186000Y-56391800D03*
X91186000Y-61391800D03*
X86106000Y-56391800D03*
X86106000Y-61391800D03*
D14*
X79676000Y-57581800D03*
D13*
X74676000Y-57581800D03*
D15*
X179708800Y-101320600D03*
X184708800Y-101320600D03*
X95250000Y-78155800D03*
X95250000Y-83155800D03*
D14*
X82510000Y-73583800D03*
D13*
X80010000Y-73583800D03*
D14*
X94702000Y-73583800D03*
D13*
X92202000Y-73583800D03*
D14*
X76414000Y-66471800D03*
D13*
X73914000Y-66471800D03*
D15*
X173816000Y-71374000D03*
X178816000Y-71374000D03*
X201756000Y-127508000D03*
X206756000Y-127508000D03*
X154308800Y-71399400D03*
X159308800Y-71399400D03*
X119968000Y-125399800D03*
X124968000Y-125399800D03*
D14*
X76414000Y-73583800D03*
D13*
X73914000Y-73583800D03*
D15*
X123977400Y-87880200D03*
X123977400Y-82880200D03*
X179454800Y-127508000D03*
X184454800Y-127508000D03*
X127511800Y-101600000D03*
X132511800Y-101600000D03*
D14*
X96774000Y-85855800D03*
X96774000Y-90855800D03*
X101346000Y-85855800D03*
X101346000Y-90855800D03*
M02*
